<?xml version="1.0" encoding="UTF-8" standalone="no"?>
<svg xmlns:dc="http://purl.org/dc/elements/1.1/" 
   xmlns:cc="http://creativecommons.org/ns#" 
   xmlns:rdf="http://www.w3.org/1999/02/22-rdf-syntax-ns#" 
   xmlns:svg="http://www.w3.org/2000/svg" 
   xmlns="http://www.w3.org/2000/svg" viewBox="0 0 1366 768" preserveAspectRatio="none">
   <defs>
      <g id="house" class="clickScroll">
         <path transform="matrix(1.2507316,0,0,1.1984629,-904.4654,-106.59755)" style="fill:green;stroke:#000000;stroke-width:1" clip-path="url(#clipPath4576)" id="path2" d="m 791.54,383.67 c -0.33,0 -3.97,0.33 -6.29,0.66 -1.48,0.21 1.32,-26.03 -0.99,-47.46 -1.29,-11.97 -6.23,-22.78 -9.43,-25.8 -1.99,0.33 -7.94,-5.95 -14.89,-2.98 -0.73,-0.08 -7.04,5.67 -7.45,11.41 -1.25,17.8 3.48,53.59 2.48,53.59 -1.32,0 -1.49,13.23 -2.48,13.23 -0.99,0 -6.62,0.66 -6.62,0.33 0,-0.33 -0.66,-4.63 -0.66,-6.29 0,-1.65 -2.65,-16.54 -2.32,-18.52 0.34,-1.98 1.66,-9.59 1.66,-14.22 0,-4.63 -0.33,-15.55 -0.33,-19.19 0,-3.63 -0.99,-11.57 -0.99,-16.2 0,-4.63 -1,-19.19 -1,-19.85 0,-0.66 -0.33,-8.93 -0.33,-8.93 0,0 -2.65,-10.25 -2.65,-11.24 0,-1 0,-6.62 0,-10.59 0,-3.97 -1.32,-3.64 0,-7.27 1.33,-3.64 -0.66,-13.9 -0.66,-14.89 0,-0.99 -0.33,-6.28 -0.33,-9.59 0,-3.31 -1.65,-10.25 -1.65,-12.24 0,-1.98 -0.66,-2.64 0,-6.61 0.66,-3.97 -0.66,-7.94 -1.66,-8.93 -0.99,-0.99 -3.64,-5.29 -3.97,-6.95 -0.33,-1.65 -1.98,-3.97 6.29,-2.97 8.27,0.99 15.22,0.33 18.53,-0.34 3.31,-0.66 7.61,-0.33 10.92,-1.32 3.31,-0.99 4.96,-1.32 8.94,-1.65 8.93,-0.33 9.26,0.33 11.25,-0.66 1.98,-1 2.64,0 4.63,-0.33 1.98,-0.34 2.32,-10.59 2.32,-10.92 0,-0.33 9.92,-10.91 10.92,-10.91 0.99,0 13.56,2.31 15.88,2.31 2.32,0 22.5,-0.33 22.5,-0.33 0,0 24.49,2.98 24.49,2.98 0,0 -2.98,25.13 -2.98,25.13 0,0 -1.65,10.92 -1.65,11.25 0,0.33 1.32,4.96 1.98,4.96 0.66,0 4.63,0 8.94,0 4.3,0 2.97,0.66 9.26,1.32 6.29,0.67 12.58,1.33 13.9,0.67 1.32,-0.67 11.91,-0.34 13.57,-0.34 1.65,0 1.32,-0.66 5.29,0 3.97,0.67 10.59,0.67 14.56,0.67 3.97,0 9.27,-1 10.26,-1.33 0.99,-0.33 9.6,-0.66 6.29,3.31 -3.31,3.97 -5.96,2.65 -5.96,5.95 0,3.31 -0.66,8.6 -0.66,11.58 0,2.98 -1.66,12.24 -1.33,14.22 0.34,1.99 1.66,5.63 1.66,7.94 0,2.32 0,7.61 0,8.93 0,1.32 1.65,9.59 1.65,10.92 0,1.32 0,8.6 0.34,13.23 0.33,4.63 -64.53,1.98 -64.53,1.98 0,0 -22.84,-4.63 -22.84,-4.63 0,0 -41.36,0 -42.02,0 -0.66,0 -11.58,3.97 -11.58,3.97 0,0 -5.63,4.63 -5.96,5.95 -0.33,1.33 -2.65,16.54 -2.98,16.87 -0.33,0.33 0,23.15 -0.33,23.48 -0.33,0.33 0,27.46 0,27.46 0,0 -0.66,19.18 -0.99,19.18 z m 0.16,-176.29 c 0,0 -7.44,-1.98 -8.43,-1.98 -1,0 -9.43,-0.5 -9.93,-0.5 -0.5,0 -9.43,0 -9.43,0 0,0 -3.97,-1.49 -5.46,0.99 -1.49,2.48 -1.49,4.47 -1.49,6.45 0,1.99 -0.5,6.95 -0.5,9.43 0,2.48 0.99,5.95 1.99,8.43 0.99,2.48 1.49,4.96 1.49,6.45 0,1.49 -0.5,1.99 2.48,3.47 2.98,1.49 3.97,1.99 8.93,1.49 4.97,-0.49 5.46,-0.99 8.94,-0.49 3.47,0.49 4.96,-1.49 7.44,-1.49 4.97,-0.99 5.46,-8.44 5.46,-9.92 0,-1.49 0.5,-5.96 0.5,-6.45 0,-0.5 0.5,-6.95 0.99,-6.95 0.5,0 -2.98,-8.93 -2.98,-8.93 z m 99.28,16.87 c 0,0 -6.95,0 -6.95,0 0,0 -1.99,0 -3.97,0 -1.99,0 -3.48,0 -3.48,3.47 0,3.47 -0.49,2.48 -0.49,6.45 0,3.97 0.99,7.94 1.98,10.92 0.99,2.97 0.99,5.95 0.99,7.44 4.47,2.48 13.41,0.99 13.41,0.99 0,0 3.97,0.99 4.46,0.99 0.5,0 2.98,-0.49 2.98,-2.98 0,-2.48 0,-9.92 0,-9.92 0,0 -1.49,-11.9 -1.49,-13.39 0,-1.49 -7.44,-3.97 -7.44,-3.97 z m 38.71,-0.5 c 0,0 -5.95,0.5 -5.95,0.5 0,0 -4.47,-0.5 -4.97,-0.5 -0.49,0 -4.46,0 -5.46,0 -2.97,2.98 -3.97,0.99 -2.97,7.44 0.99,10.42 0.99,12.9 0.99,14.39 0,1.49 0.99,4.96 0.99,5.46 0,0.49 -0.5,4.96 0,4.96 0.5,0 4.47,-0.5 6.45,-0.99 1.99,-0.5 6.95,-0.99 8.44,-0.99 1.49,0 5.96,-0.5 5.96,-0.5 0,0 1.49,-5.46 1.49,-5.95 0,-0.5 0,-7.45 0,-8.44 0,-0.99 0,-4.46 0,-5.46 0,-0.99 -2.48,-7.44 -2.48,-7.93 0,-0.5 -2.49,-1.99 -2.49,-1.99 z M 804,254 c 0,0 65.33,-4.33 65.33,-4.33 0,0 -2,-20 -2,-20 0,0 -3.33,-12 -3.33,-12 0,0 -3.33,-13.67 -3.33,-13.67 0,0 2,-13.33 2,-13.67 0,-0.33 1,-15.66 0.33,-16 C 862.33,174 851.33,171 851.33,171 c 0,0 -16.33,0 -16.33,0 0,0 -27,-0.67 -27,-0.67 0,0 -7,2.67 -7,2.67 0,0 -2.67,5.67 -2.67,5.67 0,0 -2,7 -2.33,7 -0.33,0 -0.67,14 -0.67,14 0,0 2.67,22.66 2.67,22.66 0,0 -1,13 -1,13 0,0 1.33,14 1.33,14 0,0 5.67,4.67 5.67,4.67 z" class="houseHindFace" />
         <path transform="matrix(1.2507316,0,0,1.1984629,-904.4654,-106.59755)" style="fill:none;stroke:#000000;stroke-width:1" clip-path="url(#clipPath4572)" id="path4" d="m 750.51,398.55 c 0,0 -1,0.66 -3.98,0 -2.97,-0.66 -3.97,0 -4.96,0 -2.32,-0.33 -2.32,1.66 -2.32,-3.64 0,-5.29 0.34,-5.95 0.67,-8.93 0.33,-2.97 0.33,-6.28 0.33,-9.26 0,-2.97 -0.33,-4.96 -0.33,-8.93 0,-3.97 0.33,-10.91 0,-14.22 -0.33,-3.31 -1.66,-7.94 -1.33,-10.91 0.33,-2.98 -1.65,-17.86 -1.65,-18.53 0,-0.66 0.99,-9.26 0.99,-9.26 0,0 -1.32,-11.24 -1.65,-12.9 -0.33,-1.65 0,-7.6 0,-8.26 0,-0.67 0,-3.31 0,-3.97 0,-0.67 -2.98,-6.29 -2.98,-8.27 0,-1.99 0,-4.3 0,-4.3 0,0 -0.99,-4.96 -0.66,-5.96 0.33,-0.99 11.25,-1.32 14.89,-1.32 3.64,0 8.27,0.33 11.58,1.32 3.31,1 10.92,0 11.91,0 1,0 2.65,1 7.28,0.34 4.64,-0.67 8.28,0 9.93,0 1.65,0 7.28,0.99 11.58,0 4.3,-1 25.81,-2.98 26.47,-2.98 0.67,0 22.51,0.99 23.17,0.66 0.66,-0.33 16.54,0.33 16.54,0.33 0,0 13.57,5.29 13.57,5.62 0,0.33 -0.33,11.25 -0.33,11.25 0,0 5.63,-0.33 8.93,-0.33 3.31,0 23.5,-2.65 26.15,-2.65 2.64,0 15.22,1.66 15.22,1.66 0,0 17.54,2.31 17.87,2.31 0.33,0 5.95,2.32 6.29,3.97 0.33,1.65 0.66,9.59 1.32,13.56 0.66,3.97 0.66,17.53 0.66,18.19 0,0.66 -1.65,12.57 -1.65,14.56 0,1.98 1.32,9.26 1.32,12.56 0,3.31 0.33,9.6 0.33,12.57 0,2.98 1.99,11.58 1.99,13.56 0,1.99 0.66,11.58 0.66,11.58 0,0 -1.99,0.99 -4.97,0.99 -2.97,0 -9.26,-0.99 -9.59,-1.32 -0.33,-0.33 -0.66,-8.6 -0.66,-12.24 0,-3.64 0.66,-5.95 0,-10.58 -0.67,-4.63 -1.99,-16.54 -1.99,-17.86 0,-1.33 0,-4.63 -0.66,-7.94 -0.66,-3.31 -2.98,-2.65 -2.98,-6.62 0,-3.97 0.33,-8.6 0.33,-9.92 0,-1.32 3.97,-5.62 -1.32,-3.64 -5.3,1.99 -14.89,1.33 -15.22,1.33 -0.34,0 -10.26,0.33 -11.26,0.33 -0.99,0 -9.92,-1.66 -11.25,-2.32 -1.32,-0.66 -5.29,-0.99 -6.61,-1.32 -1.33,-0.33 -2.32,-2.65 -2.98,0.99 -0.66,3.64 -1,8.93 0,11.58 0.99,2.64 3.31,4.96 3.31,8.27 0,3.3 0.33,11.9 0.33,13.23 0,1.32 -0.66,9.92 0,13.23 0.66,3.3 2.64,12.23 2.64,12.56 0,0.33 0.34,4.63 0.34,5.63 0,0.99 -0.34,3.63 -1.66,3.63 -1.32,0 -12.9,-0.33 -12.9,-0.66 0,-0.33 -3.64,-30.1 -3.64,-30.1 0,0 -9.6,-49.28 -9.6,-49.94 0,-0.66 -0.99,-10.58 -2.98,-11.24 -1.98,-0.67 -53.28,-2.32 -53.28,-2.32 0,0 -16.87,7.94 -16.87,7.94 0,0 1.32,16.54 1.32,17.2 0,0.66 -2.65,23.48 -2.65,23.81 0,0.33 1.99,21.5 1.99,22.16 0,0.66 4.3,31.09 4.3,31.09 0,0 -6.62,4.3 -6.62,4.3 0,0 -2.97,0 -4.96,0 -1.99,0 -3.64,1.33 -3.64,-1.65 0,-2.98 0,-6.95 0.33,-9.92 0.33,-2.98 0,-10.26 0,-13.56 0,-3.31 0.33,-16.54 -0.33,-19.52 -0.66,-2.98 -0.99,-5.62 -1.32,-10.58 -0.33,-4.96 0,-13.56 0.33,-16.87 0.33,-3.31 0,-11.58 0,-11.58 0,0 -2.32,-10.58 -2.98,-11.9 -0.66,-1.33 -1.32,-6.95 -3.97,-7.94 -2.65,-0.99 -11.58,-1.99 -14.89,-1.33 -3.31,0.67 -5.3,1.66 -8.28,3.97 -2.97,2.32 -5.95,7.28 -6.28,8.27 -0.33,0.99 -2.32,11.91 -2.65,13.23 -0.33,1.33 0.99,13.23 0.99,16.21 0,2.98 0.99,18.85 0.99,20.51 0,1.65 2.98,6.61 3.31,12.89 0.33,6.29 0.33,10.26 0,13.23 -0.33,2.98 0.67,16.87 0.67,16.87 z" class="houseMidFace" />
         <path transform="matrix(1.2507316,0,0,1.1984629,-904.4654,-106.59755)" style="fill:none;stroke:#000000;stroke-width:1" clip-path="url(#clipPath4568)" id="path6" d="m 780.29,89.8 c 4.47,2.48 7.44,6.94 7.94,7.94 0.5,0.99 4.47,8.43 4.47,8.43 0,0 3.47,5.95 3.97,6.45 0.49,0.5 10.92,8.93 10.92,9.92 0,0.99 26.8,40.19 26.8,40.19 0,0 -21.66,-4.97 -31.77,-0.5 -9.2,4.08 -6.94,17.63 -6.94,17.86 0,0.5 0.99,7.44 -1,7.44 -1.98,0 -0.49,2.15 -6.45,1.66 -5.96,-0.5 -7.45,-1.32 -11.91,-0.33 -4.47,0.99 -4.64,0.82 -9.6,1.32 -4.96,0.5 -14.23,0.83 -16.71,0.83 -2.48,0 -7.94,-0.5 -9.43,-0.5 -1.49,0 -6.95,0 -7.94,-0.49 -1,-0.5 -6.13,0.16 -6.62,0.16 -0.5,0 4.63,-6.12 6.12,-10.58 1.49,-4.47 0.5,-4.8 1.49,-7.28 0.99,-2.48 0.66,-4.3 3.31,-6.95 2.31,-8.26 3.31,-7.27 4.13,-10.08 9.93,-14.39 7.95,-18.36 9.44,-19.35 1.48,-0.99 3.47,-2.48 6.94,-6.45 6.95,-7.44 4.47,-4.96 4.47,-8.44 0,-3.47 1.49,-2.48 1.99,-6.94 4.96,-10.92 9.43,-15.38 9.93,-15.88 0.49,-0.49 1.98,-10.91 6.45,-8.43 z" class="houseTopFace" />
         <path transform="matrix(1.2507316,0,0,1.1984629,-904.4654,-106.59755)" style="fill:none;stroke:#000000;stroke-width:1" clip-path="url(#clipPath4564)" id="path8" d="m 911.82,144.37 c 0,0 7.45,6.45 7.45,8.93 0,2.48 0.5,8.93 4.47,12.9 3.97,3.97 7.44,5.96 8.93,9.43 1.49,3.47 1.99,4.46 5.46,10.42 3.48,5.95 8.44,14.88 9.93,16.86 1.49,1.99 5.46,3.97 5.46,4.97 0,0.99 -0.5,5.45 -2.48,5.45 -1.99,0 -9.6,1.16 -15.56,-0.33 -5.95,-1.49 -16.71,-0.66 -18.69,-0.66 -1.99,0 -3.48,-0.5 -12.41,0 -8.94,0.5 -17.37,0 -21.84,0 -4.47,0 -14.4,0 -14.89,-0.5 -0.5,-0.49 -2.98,-2.48 -2.98,-2.97 0,-0.5 2.48,-19.85 2.98,-20.34 0.49,-0.5 5.95,-3.48 5.95,-9.43 0,-5.95 -2.48,-22.32 -2.48,-24.81 0,-2.48 0,-7.93 0,-7.93 0,0 6.46,-0.5 8.94,0 2.48,0.49 7.44,0.49 8.93,0.99 1.49,0.49 8.44,0.49 10.92,0 2.48,-0.5 11.91,-2.98 11.91,-2.98 z" class="roof houseTopRoof" />
         <path transform="matrix(1.2507316,0,0,1.1984629,-904.4654,-106.59755)" style="fill:none;stroke:#000000;stroke-width:1" clip-path="url(#clipPath4560)" id="path10" d="m 869.14,257.98 c 0,0 4.96,1.49 8.93,1 3.97,-0.5 12.41,0 14.89,0 2.48,0 11.92,0 12.41,0 0.5,0 3.48,1.49 8.44,1.49 4.96,0 0.99,0 8.93,0.99 7.95,0.99 8.94,-0.5 11.42,-0.5 18.86,15.38 20.35,18.85 22.34,21.33 1.98,2.49 4.96,3.48 5.95,6.95 -4.46,5.46 -7.77,3.14 -12.74,2.81 -2.97,-1.98 -4.63,0.66 -8.27,-0.33 -1.98,-1.49 -1.82,-3.47 -10.26,-3.47 -8.44,0 -12.41,-0.99 -15.38,-0.99 -2.98,0 -9.93,0 -12.41,0 -2.49,0 -4.97,-1.49 -9.93,0 -4.96,1.48 -8.44,3.96 -10.42,3.47 -1.99,-0.5 -3.48,1.49 -4.97,-0.99 -1.49,-2.48 -1.98,-2.48 -3.47,-5.96 -1.49,-3.47 -2.98,-10.42 -2.98,-10.91 0,-0.5 -1.49,-7.94 -1.49,-7.94 0,0 -0.99,-6.95 -0.99,-6.95 z m -69.99,11.91 c 0,0 -9.43,1.49 -16.38,1.49 -6.95,0 -11.42,1.49 -16.38,0.99 -4.96,-0.49 -18.37,-0.99 -22.34,-1.49 -3.97,-0.49 -9.43,-1.48 -10.92,-2.48 0.5,-3.97 4.47,-5.95 6.95,-7.44 7.94,-4.96 10.43,-5.95 11.91,-7.44 1.49,-1.49 1,-2.98 3.48,-4.47 2.48,-1.48 1.98,-4.96 7.94,-5.45 5.96,-0.5 6.95,0 9.43,-0.5 2.48,-0.5 11.42,-0.99 11.92,-0.99 0.49,0 6.94,-5.95 7.94,0 0.99,5.95 4.96,13.89 5.46,13.89 0.49,0 0.99,13.89 0.99,13.89 z" class="roof houseFirstRoof" />
         <path transform="matrix(1.2507316,0,0,1.1984629,-904.4654,-106.59755)" style="fill:none;stroke:#000000;stroke-width:1" clip-path="url(#clipPath4556)" id="path12" d="m 794.19,274.52 c 0,0 -3.31,0 -4.31,0 -0.99,0 -3.3,0 -6.94,0 -3.64,0 -10.59,-0.66 -13.9,0.33 -3.31,0.99 -8.94,0.99 -12.25,0.33 -3.31,-0.66 -6.95,-0.99 -10.26,-0.99 -3.3,0 -9.92,0 -9.92,0.99 0,1 1.32,1.66 1.32,5.3 0,3.63 0,4.63 0,5.62 0,0.99 0,3.97 0,3.97 0,0 -1.65,1.32 -3.64,-0.33 -1.98,-1.66 -3.64,-1.66 -3.64,-2.98 0,-1.32 0.66,-3.97 0.66,-6.62 0,-2.64 2.32,-0.99 0,-4.63 -2.31,-3.63 -3.31,-4.96 -3.97,-6.61 -0.66,-1.65 -1.65,-6.29 -1.65,-6.29 0,0 2.31,-0.66 5.62,0 3.31,0.67 6.62,1.66 8.61,1.99 1.98,0.33 1.98,0 4.63,0 2.65,0 4.96,0 7.61,0 2.65,0 3.97,1.32 5.96,1.98 1.98,0.67 1.65,1 4.96,1 3.31,0 5.3,0.99 7.28,0 1.99,-1 1.99,-1.33 4.3,-1.66 2.32,-0.33 4.97,-0.99 6.29,-0.33 1.32,0.66 3.64,0.66 5.29,0.66 1.66,0 3.98,0 6.29,0 2.32,0 1.66,8.27 1.66,8.27 z m 80.08,8.27 c 0,0 8.93,0.66 9.59,0.66 0.66,0 6.62,-0.33 8.28,-0.33 1.65,0 10.25,0 10.58,0 0.34,0 8.28,-0.66 9.27,-0.99 0.99,-0.33 7.61,0.33 8.6,0.33 1,0 7.95,0.66 7.95,0.66 0,0 8.6,0.33 8.6,0.33 0,0 2.65,0.66 2.65,0.66 0,0 8.27,1.66 8.6,1.66 0.33,0 7.94,2.31 8.27,2.31 0.33,0 3.97,0.33 3.97,0.33 0,0 1,2.65 1,3.64 0,0.99 -2.32,3.97 -2.65,4.3 -0.33,0.33 -0.99,2.65 -0.99,2.98 0,0.33 -1.66,5.95 -1.66,5.95 0,0 -2.64,-1.32 -2.64,-1.32 0,0 0,-3.64 0,-3.97 0,-0.33 0.66,-2.98 -0.67,-4.63 -1.32,-1.65 -4.3,-0.99 -5.29,-0.99 -0.99,0 -6.95,0.33 -6.95,0.33 0,0 -5.3,-1.66 -5.63,-1.66 -0.33,0 -5.62,-1.98 -6.28,-1.98 -0.67,0 -6.95,-1.65 -8.28,-1.65 -1.32,0 -9.59,-0.67 -9.92,-1 -0.33,-0.33 -7.95,-0.33 -8.94,-0.33 -0.99,0 -5.62,1.66 -6.95,2.65 -1.32,0.99 -6.95,2.31 -7.28,2.31 -0.33,0 -3.64,-0.66 -5.29,-0.66 -1.66,0 -6.62,0.99 -6.62,0.99 0,0 -1.32,-10.58 -1.32,-10.58 z" class="houseFirstEaves" />
         <path transform="matrix(1.2507316,0,0,1.1984629,-904.4654,-106.59755)" style="fill:none;stroke:#000000;stroke-width:1" clip-path="url(#clipPath4552)" id="path14" d="m 793.19,194.98 c 0,0 -13.4,1.49 -13.4,0.99 0,-0.5 -5.95,-1.49 -9.93,-1.99 -3.97,-0.49 -4.96,-0.49 -10.92,-0.49 -5.95,0 -8.43,0 -12.41,0 -3.97,0 -7.94,0 -8.93,0.99 -1.49,5.95 -1.49,7.94 -0.99,11.41 0.49,3.47 1.98,9.92 1.98,11.41 0,1.49 0,5.46 0,6.95 0,1.49 -0.99,6.94 -0.99,6.94 0,0 -3.47,-5.95 -3.47,-6.45 0,-0.49 -1.49,-5.45 -1.99,-8.43 -0.5,-2.98 -2.48,-8.43 -3.47,-9.43 -1,-0.99 -3.98,-5.45 -3.98,-6.94 0,-1.49 -0.99,-13.4 -0.99,-13.4 0,0 7.45,1.99 8.44,1.99 0.99,0 3.47,0.49 5.46,0.49 1.99,0 6.95,-1.49 8.44,-1.49 1.49,0 4.96,-0.99 4.96,-1.48 0,-0.5 11.91,2.48 11.91,2.48 0,0 5.47,0.49 6.95,-1 1.49,-1.48 11.42,-1.98 11.42,-1.98 0,0 9.93,0 9.93,0 0,0 1.98,9.43 1.98,9.43 z m 68.5,12.9 c 0,0 13.4,0 13.4,0 0,0 10.43,0.49 11.92,0.49 1.49,0 12.9,0.5 12.9,0.5 0,0 6.95,2.48 8.94,1.49 1.98,-1 4.96,0.99 7.94,0.99 2.98,0 8.93,-0.5 9.93,-0.99 0.99,-0.5 6.45,-0.5 6.94,-0.5 0.5,0 11.92,0 11.92,0 0,0 6.95,1.98 6.95,1.98 0,0 -1.49,4.47 -2.98,6.45 -1.49,1.99 -4.96,9.93 -4.96,9.93 0,0 -0.5,3.47 -1,3.47 -0.49,0 -3.04,-2.05 -3.04,-2.05 0,0 -0.19,-7.14 -0.19,-7.64 0,-0.5 3.23,-5.19 3.23,-5.69 0,-0.5 -4.47,-0.5 -4.96,-0.5 -0.5,0 -6.95,3.97 -8.44,3.97 -1.49,0 -10.92,-2.48 -10.92,-2.48 0,0 -5.96,0.5 -6.45,0 -0.5,-0.49 -13.9,-0.49 -13.9,-0.49 0,0 -6.45,1.48 -6.45,1.48 0,0 -7.95,0 -8.44,0 -0.5,0 -3.48,-0.99 -3.48,-0.99 0,0 -10.92,-1.98 -10.92,-1.98 0,0 -3.47,2.48 -3.47,2.48 0,0 -4.47,-9.92 -4.47,-9.92 z" class="houseSecondEaves" />
         <path transform="matrix(1.2507316,0,0,1.1984629,-904.4654,-106.59755)" style="fill:none;stroke:#000000;stroke-width:1" clip-path="url(#clipPath4548)" id="path16" d="m 832.9,396.9 c 0,0 -11.41,0 -12.9,0 -1.49,0 -26.81,-1.99 -26.81,-2.48 0,-0.5 1.49,-11.91 1.49,-11.91 0,0 1.49,-22.82 1.49,-23.32 0,-0.49 2.98,-18.35 2.98,-19.35 0,-0.99 -1.99,-24.31 -2.48,-26.79 -0.5,-2.48 -4.47,-13.89 -4.47,-14.38 0,-0.5 -1.49,-10.92 -1.49,-10.92 0,0 -1.49,-12.9 -1.49,-12.9 0,0 1,-3.97 1,-6.94 0,-2.98 -0.5,-6.45 -0.5,-11.91 0,-5.46 0,-9.43 0,-13.4 0,-3.96 0,-13.39 0,-16.86 0,-3.48 0,-13.4 0,-13.9 0,-0.49 0,-6.44 0,-6.44 0,0 0.5,-4.47 0,-6.45 2.48,-12.9 -8.77,-12.19 -10.98,-12.85 0,0 -0.57,-2.9 -0.66,-6.17 -0.09,-3.36 0.31,-7.12 -0.27,-8.77 0.02,-0.28 -2.92,-1.28 -6.13,-1.15 -4.87,0.19 -10.75,1.65 -10.75,1.65 0,0 8.44,-14.88 8.44,-14.88 0,0 8.44,-9.93 9.43,-10.92 0.99,-0.99 0.5,-2.98 4.96,-6.45 4.47,-3.47 10.43,-8.43 10.43,-8.43 0,0 9.43,-5.96 9.43,-6.95 0,-0.99 6.45,-8.93 8.44,-10.42 1.98,-1.49 5.46,-6.45 6.45,-7.44 0.99,-0.99 3.47,-4.46 3.97,-4.46 0.5,0 8.93,2.97 9.93,4.46 0.99,1.49 9.43,5.46 12.9,8.93 3.48,3.47 7.45,7.94 8.44,8.93 0.99,0.99 10.92,8.93 12.91,11.41 1.98,2.48 7.94,7.44 8.93,8.93 0.99,1.49 5.96,3.47 9.43,6.95 3.48,3.47 6.45,8.93 9.93,11.41 3.47,2.48 8.93,8.43 7.94,8.43 -0.99,0 -9.43,-1.49 -13.4,-1.49 -3.97,0 -6.45,3.48 -6.45,3.97 0,0.5 0.49,2.98 0.99,6.45 1.27,9.32 0.49,4.47 -6.45,8.44 -0.5,-0.5 -14.9,0.49 -8.44,35.22 0,3.47 -1,8.44 0,10.92 0.99,2.48 2.98,11.41 2.98,13.89 0,2.48 2.48,9.92 2.97,11.41 0.5,1.49 1.99,9.92 1.99,10.42 0,0.49 -0.99,7.44 -0.99,10.42 0,2.97 0,15.38 0,15.87 0,0.5 2.48,0.99 0.99,7.44 -1.49,6.45 -1.49,8.44 -1.49,9.93 0,1.48 0.99,13.89 0.99,16.86 0,2.98 0,10.42 0,13.9 0,3.47 2.98,17.36 2.98,19.84 -0.2,2.42 -1.53,3.4 0.5,10.42 0,6.45 3.47,8.43 3.47,9.92 0,1.49 -1.49,1.49 -6.45,5.46 -4.96,3.97 -44.18,6.45 -44.18,6.45 z M 802.13,241.61 c 0,0 0.49,0 3.97,0 3.47,0 5.96,0 8.93,-0.49 2.98,-0.5 3.97,-0.5 6.46,-0.5 2.48,0 5.95,-0.5 6.95,0 0.99,0.5 3.47,0.5 5.46,0.5 1.98,0 6.45,0 8.43,0 1.99,0 2.49,-0.5 5.96,-0.5 3.47,0 8.93,1.49 9.43,1.49 0.5,0 3.48,0 4.96,0 2.98,-4.47 -0.49,-10.42 -1.48,-13.89 -1,-3.48 -1.99,-6.45 -1.99,-8.44 0,-1.98 0.99,-6.94 0,-9.42 -0.99,-2.48 -1.49,-2.48 -0.99,-5.96 0.99,-9.92 0.49,-13.89 0.49,-15.87 0,-1.99 0.5,-5.96 0.5,-6.45 0,-0.5 0,-3.97 0,-4.47 0,-0.49 -4.47,-2.97 -4.96,-3.47 -0.5,-0.5 -3.48,-0.5 -6.46,0.5 -2.97,0.99 -9.43,-1.49 -11.41,0.49 -1.99,1.99 -7.94,-0.49 -9.43,-0.49 -1.49,0 -4.97,0 -6.95,0 -1.99,0 -3.97,0 -6.46,0 -2.48,0 -8.43,-0.5 -9.43,-0.5 -3.47,1.49 -3.47,2.98 -3.47,4.96 0,1.99 -0.5,5.95 -0.5,7.44 0,1.49 -1.49,16.37 -1.49,16.37 0,0 1.16,3.48 1.16,6.45 0,2.98 0.99,7.12 0.99,8.6 0,1.49 -0.66,4.8 -0.66,6.78 0,1.99 1.99,16.87 1.99,16.87 z m 74.2,114.72 c 0,0 -4.33,-58.66 -4.33,-58.66 0,0 -20.7,-7.53 -41.33,-8.34 -17.43,-0.68 -35.34,5.34 -35.34,5.34 0,0 4.34,24.66 4.34,24.66 0,0 1.66,13 1.66,13 0,0 -1.33,19 -1.33,19 0,0 -2,22 -2,22 0,0 0.33,16.34 0.33,16.34 0,0 18.37,3.18 35,3 13.77,-0.15 26.34,-3.67 26.34,-3.67 0,0 8.33,-3.33 8.33,-3.33 0,0 10.33,-5.34 10.33,-5.34 z" class="houseForeFace" />
         <path transform="matrix(1.2507316,0,0,1.1984629,-904.4654,-106.59755)" style="fill:none;stroke:#000000;stroke-width:1" clip-path="url(#clipPath4544)" id="path18" d="m 817.02,421.71 c 0,0 -4.47,-5.46 -6.45,-6.45 -1.99,-1 -11.42,-9.43 -11.92,-9.43 -0.49,0 -5.46,-2.98 -5.46,-3.97 0,-0.99 0,-0.5 0,-5.95 0,-5.46 -1.98,-9.43 -1.98,-14.39 0,-4.96 0.99,-10.42 1.49,-16.37 0.49,-5.96 0.49,-12.9 0.49,-15.38 0,-2.48 0,-7.94 -0.49,-14.39 -0.5,-6.45 0.49,-16.87 0.49,-18.85 0,-1.99 -0.99,-6.45 -1.49,-12.41 -0.49,-5.95 -0.49,-9.92 -0.99,-13.39 -0.49,-3.47 0.99,-5.95 5.96,-6.45 4.96,-0.5 14.89,-4.47 20.35,-3.97 5.46,0.5 5.96,0.99 11.42,0.99 5.46,0 7.94,0 14.39,-0.49 6.45,-0.5 18.37,-4.47 19.36,-3.48 0.99,1 5.46,1.99 7.94,4.47 2.48,2.48 2.98,-0.99 5.46,5.46 2.48,6.45 0.99,2.97 3.47,10.91 2.49,7.94 -0.49,12.4 -0.99,18.36 -0.49,5.95 1.49,18.35 1.49,21.83 0,3.47 2.48,17.36 3.48,23.31 0.99,5.96 2.48,17.86 4.46,21.83 1.99,3.97 2.48,8.93 2.98,11.91 -6.45,10.92 -6.45,13.4 -9.43,16.37 -2.98,2.98 -9.43,9.43 -11.42,9.93 -1.98,0.49 -6.95,0.49 -13.4,0.49 -6.45,0 -8.44,-2.98 -11.91,-2.98 -3.48,0 -2.48,-2.48 -8.94,0.5 -6.45,2.98 -18.36,1.99 -18.36,1.99 z m 11.42,-36.22 c 0,0 4.96,0 6.94,0.99 1.99,0.99 3.98,1.49 6.46,1.49 2.48,0 7.94,-0.99 9.43,-1.99 1.49,-0.99 3.97,-2.48 4.96,-2.97 0.99,-0.5 0.99,-3.48 1.49,-5.46 0.5,-1.98 0.5,-2.98 0.5,-5.95 0,-2.98 -2.48,-6.95 -3.97,-9.93 -1.49,-2.97 -1.49,-8.93 -1.49,-11.9 0,-2.98 -0.5,-9.93 -0.5,-12.9 0,-2.98 0,-4.96 0,-6.95 0,-1.98 0,-2.48 0,-7.44 0,-4.96 -2.48,-11.41 -2.48,-12.4 0,-0.99 -0.99,-3.81 0,-4.8 0.99,-0.99 0.33,-1.16 0.33,-3.64 0,-2.48 -1.16,-5.12 -2.65,-2.64 -1.49,2.48 -2.81,2.15 -4.3,3.64 -1.49,1.48 -4.3,2.48 -5.29,2.48 -1,0 -4.47,0 -4.97,0 -0.49,0 -0.49,4.46 -0.49,6.45 0,1.98 0,8.93 0,8.93 0,0 0.49,6.94 -0.5,9.42 -0.99,2.48 -0.99,7.44 -0.99,8.93 0,1.49 -0.5,9.93 -1,10.42 -0.49,0.5 -2.97,7.94 -2.97,8.44 0,0.49 0.49,7.93 0.49,11.41 0.5,6.94 0,12.4 0,12.4 0,0 1,3.97 1,3.97 z m -28.3,-7.44 c 0,0 1.49,-0.5 2.98,0 1.49,0.49 3.48,3.97 4.47,3.97 0.99,0 3.47,0 4.47,0 0.99,0 3.47,-1.49 4.96,-0.5 1.49,0.99 4.96,-1.99 3.97,-6.95 -0.99,-4.96 0,-8.43 -0.99,-13.39 -1,-4.96 -1.49,-10.92 -1,-13.4 0.5,-2.48 3.98,-7.94 3.98,-11.9 0,-3.97 -1,-11.41 -1.49,-13.4 -0.5,-1.98 -2.98,-5.46 -1.49,-8.93 1.49,-3.47 1.49,-9.43 1.49,-11.91 0,-2.48 -0.5,-5.45 -1.99,-5.45 -1.49,0 -5.96,-3.48 -7.94,-1.99 -1.99,1.49 -5.96,4.96 -5.96,5.46 0,0.5 -3.97,3.47 -3.97,5.46 0,1.98 0.99,8.93 1.49,11.41 0.5,2.48 0.5,5.45 0.99,7.94 0.5,2.48 0,10.41 0,10.41 0,0 0,15.38 -0.99,16.38 -0.99,0.99 -0.5,7.93 -0.99,10.91 -0.5,2.98 0,5.95 -0.5,7.44 -0.49,1.49 -1.49,8.44 -1.49,8.44 z m 63.04,2.97 c 0,0 5.96,-2.48 6.45,-2.97 0.5,-0.5 2.98,-1 4.47,-1.49 1.49,-0.5 3.48,-3.97 3.48,-3.97 0,0 -0.5,-10.92 -1,-11.41 -0.49,-0.5 -3.47,-8.93 -3.47,-8.93 0,0 -3.97,-13.4 -3.97,-13.4 0,0 -2.48,-8.93 -2.48,-9.92 0,-0.99 0,-4.46 0,-4.46 0,0 0.33,-8.6 0.33,-8.6 0,0 -1.99,-13.4 -1.99,-13.9 0,-0.49 -7.94,-1.98 -7.94,-1.98 0,0 0,4.13 0,5.62 0,1.49 1.16,5.46 1.16,6.45 0,0.99 1.98,3.47 1.98,7.94 0,4.47 1,9.43 0.5,11.91 -0.5,2.48 -2.48,9.42 -2.48,10.42 0,0.99 0,4.96 0,4.96 0,0 2.48,7.93 2.48,8.43 0,0.5 1.49,2.48 1.49,4.96 0,2.48 0,9.43 0,9.43 0,0 0.99,10.91 0.99,10.91 z" class="houseTurretFace" />
         <path transform="matrix(1.2507316,0,0,1.1984629,-904.4654,-106.59755)" style="fill:none;stroke:#000000;stroke-width:1" clip-path="url(#clipPath4540)" id="path20" d="m 826.95,247.07 c 2.97,0 5.13,-3.31 7.61,-3.31 2.48,0 8.6,-2.64 12.9,0.99 32.76,28.78 33.59,34.07 33.59,36.06 0,1.98 4.47,10.25 4.47,11.24 0,0.99 -2.98,4.3 -8.61,1.66 -4.96,-4.97 -8.6,-4.3 -14.56,-4.3 -5.95,0 -13.23,-9.27 -22.17,-7.28 -8.93,1.98 -14.23,3.31 -21.18,3.31 -6.94,0 -7.77,1.32 -13.23,1.32 -5.46,0 -7.61,1.82 -9.6,3.31 -6.45,0.99 -11.08,-0.5 -9.59,-2.98 1.48,-2.48 6.12,-9.26 7.61,-11.25 1.49,-1.98 8.93,-7.93 10.92,-8.43 1.98,-0.5 0.82,-2.98 3.31,-4.46 2.48,-1.49 6.28,-5.79 7.28,-6.29 0.99,-0.49 4.96,-3.97 4.96,-4.96 0,-0.99 3.31,-4.63 6.29,-4.63 z" class="roof houseTurretAwning" />
      </g>
   </defs>
   <g id="mainGround">
      <circle id="kill" r="50"/>
      <g id="houses">
      </g>
      <!-- end of houses -->
      <g id="gasStation" x="3000">
      </g>
      <!-- end of gasStation -->
   </g>
   <!-- end of mainGround -->
</svg>
