<?xml version="1.0" encoding="UTF-8" standalone="no"?>
<!DOCTYPE svg PUBLIC "-//W3C//DTD SVG 20010904//EN"
              "http://www.w3.org/TR/2001/REC-SVG-20010904/DTD/svg10.dtd">

<svg xmlns="http://www.w3.org/2000/svg" viewBox="0 0 1366 768" preserveAspectRatio="none">
  <path class="houseHindFace" fill="none" stroke="black" stroke-width="1" d="M 791.54,383.67
           C 791.21,383.67 787.57,384.00 785.25,384.33
             783.77,384.54 786.57,358.30 784.26,336.87
             782.97,324.90 778.03,314.09 774.83,311.07
             772.84,311.40 766.89,305.12 759.94,308.09
             759.21,308.01 752.90,313.76 752.49,319.50
             751.24,337.30 755.97,373.09 754.97,373.09
             753.65,373.09 753.48,386.32 752.49,386.32
             751.50,386.32 745.87,386.98 745.87,386.65
             745.87,386.32 745.21,382.02 745.21,380.36
             745.21,378.71 742.56,363.82 742.89,361.84
             743.23,359.86 744.55,352.25 744.55,347.62
             744.55,342.99 744.22,332.07 744.22,328.43
             744.22,324.80 743.23,316.86 743.23,312.23
             743.23,307.60 742.23,293.04 742.23,292.38
             742.23,291.72 741.90,283.45 741.90,283.45
             741.90,283.45 739.25,273.20 739.25,272.21
             739.25,271.21 739.25,265.59 739.25,261.62
             739.25,257.65 737.93,257.98 739.25,254.35
             740.58,250.71 738.59,240.45 738.59,239.46
             738.59,238.47 738.26,233.18 738.26,229.87
             738.26,226.56 736.61,219.62 736.61,217.63
             736.61,215.65 735.95,214.99 736.61,211.02
             737.27,207.05 735.95,203.08 734.95,202.09
             733.96,201.10 731.31,196.80 730.98,195.14
             730.65,193.49 729.00,191.17 737.27,192.17
             745.54,193.16 752.49,192.50 755.80,191.83
             759.11,191.17 763.41,191.50 766.72,190.51
             770.03,189.52 771.68,189.19 775.66,188.86
             784.59,188.53 784.92,189.19 786.91,188.20
             788.89,187.20 789.55,188.20 791.54,187.87
             793.52,187.53 793.86,177.28 793.86,176.95
             793.86,176.62 803.78,166.04 804.78,166.04
             805.77,166.04 818.34,168.35 820.66,168.35
             822.98,168.35 843.16,168.02 843.16,168.02
             843.16,168.02 867.65,171.00 867.65,171.00
             867.65,171.00 864.67,196.13 864.67,196.13
             864.67,196.13 863.02,207.05 863.02,207.38
             863.02,207.71 864.34,212.34 865.00,212.34
             865.66,212.34 869.63,212.34 873.94,212.34
             878.24,212.34 876.91,213.00 883.20,213.66
             889.49,214.33 895.78,214.99 897.10,214.33
             898.42,213.66 909.01,213.99 910.67,213.99
             912.32,213.99 911.99,213.33 915.96,213.99
             919.93,214.66 926.55,214.66 930.52,214.66
             934.49,214.66 939.79,213.66 940.78,213.33
             941.77,213.00 950.38,212.67 947.07,216.64
             943.76,220.61 941.11,219.29 941.11,222.59
             941.11,225.90 940.45,231.19 940.45,234.17
             940.45,237.15 938.79,246.41 939.12,248.39
             939.46,250.38 940.78,254.02 940.78,256.33
             940.78,258.65 940.78,263.94 940.78,265.26
             940.78,266.58 942.43,274.85 942.43,276.18
             942.43,277.50 942.43,284.78 942.77,289.41
             943.10,294.04 878.24,291.39 878.24,291.39
             878.24,291.39 855.40,286.76 855.40,286.76
             855.40,286.76 814.04,286.76 813.38,286.76
             812.72,286.76 801.80,290.73 801.80,290.73
             801.80,290.73 796.17,295.36 795.84,296.68
             795.51,298.01 793.19,313.22 792.86,313.55
             792.53,313.88 792.86,336.70 792.53,337.03
             792.20,337.36 792.53,364.49 792.53,364.49
             792.53,364.49 791.87,383.67 791.54,383.67 Z
           M 791.70,207.38
           C 791.70,207.38 784.26,205.40 783.27,205.40
             782.27,205.40 773.84,204.90 773.34,204.90
             772.84,204.90 763.91,204.90 763.91,204.90
             763.91,204.90 759.94,203.41 758.45,205.89
             756.96,208.37 756.96,210.36 756.96,212.34
             756.96,214.33 756.46,219.29 756.46,221.77
             756.46,224.25 757.45,227.72 758.45,230.20
             759.44,232.68 759.94,235.16 759.94,236.65
             759.94,238.14 759.44,238.64 762.42,240.12
             765.40,241.61 766.39,242.11 771.35,241.61
             776.32,241.12 776.81,240.62 780.29,241.12
             783.76,241.61 785.25,239.63 787.73,239.63
             792.70,238.64 793.19,231.19 793.19,229.71
             793.19,228.22 793.69,223.75 793.69,223.26
             793.69,222.76 794.19,216.31 794.68,216.31
             795.18,216.31 791.70,207.38 791.70,207.38 Z
           M 890.98,224.25
           C 890.98,224.25 884.03,224.25 884.03,224.25
             884.03,224.25 882.04,224.25 880.06,224.25
             878.07,224.25 876.58,224.25 876.58,227.72
             876.58,231.19 876.09,230.20 876.09,234.17
             876.09,238.14 877.08,242.11 878.07,245.09
             879.06,248.06 879.06,251.04 879.06,252.53
             883.53,255.01 892.47,253.52 892.47,253.52
             892.47,253.52 896.44,254.51 896.93,254.51
             897.43,254.51 899.91,254.02 899.91,251.53
             899.91,249.05 899.91,241.61 899.91,241.61
             899.91,241.61 898.42,229.71 898.42,228.22
             898.42,226.73 890.98,224.25 890.98,224.25 Z
           M 929.69,223.75
           C 929.69,223.75 923.74,224.25 923.74,224.25
             923.74,224.25 919.27,223.75 918.77,223.75
             918.28,223.75 914.31,223.75 913.31,223.75
             910.34,226.73 909.34,224.74 910.34,231.19
             911.33,241.61 911.33,244.09 911.33,245.58
             911.33,247.07 912.32,250.54 912.32,251.04
             912.32,251.53 911.82,256.00 912.32,256.00
             912.82,256.00 916.79,255.50 918.77,255.01
             920.76,254.51 925.72,254.02 927.21,254.02
             928.70,254.02 933.17,253.52 933.17,253.52
             933.17,253.52 934.66,248.06 934.66,247.57
             934.66,247.07 934.66,240.12 934.66,239.13
             934.66,238.14 934.66,234.67 934.66,233.67
             934.66,232.68 932.18,226.23 932.18,225.74
             932.18,225.24 929.69,223.75 929.69,223.75 Z
           M 804.00,254.00
           C 804.00,254.00 869.33,249.67 869.33,249.67
             869.33,249.67 867.33,229.67 867.33,229.67
             867.33,229.67 864.00,217.67 864.00,217.67
             864.00,217.67 860.67,204.00 860.67,204.00
             860.67,204.00 862.67,190.67 862.67,190.33
             862.67,190.00 863.67,174.67 863.00,174.33
             862.33,174.00 851.33,171.00 851.33,171.00
             851.33,171.00 835.00,171.00 835.00,171.00
             835.00,171.00 808.00,170.33 808.00,170.33
             808.00,170.33 801.00,173.00 801.00,173.00
             801.00,173.00 798.33,178.67 798.33,178.67
             798.33,178.67 796.33,185.67 796.00,185.67
             795.67,185.67 795.33,199.67 795.33,199.67
             795.33,199.67 798.00,222.33 798.00,222.33
             798.00,222.33 797.00,235.33 797.00,235.33
             797.00,235.33 798.33,249.33 798.33,249.33
             798.33,249.33 804.00,254.00 804.00,254.00 Z" />
  <path class="houseMidFace" fill="none" stroke="black" stroke-width="1" d="M 750.51,398.55
           C 750.51,398.55 749.51,399.21 746.53,398.55
             743.56,397.89 742.56,398.55 741.57,398.55
             739.25,398.22 739.25,400.21 739.25,394.91
             739.25,389.62 739.59,388.96 739.92,385.98
             740.25,383.01 740.25,379.70 740.25,376.72
             740.25,373.75 739.92,371.76 739.92,367.79
             739.92,363.82 740.25,356.88 739.92,353.57
             739.59,350.26 738.26,345.63 738.59,342.66
             738.92,339.68 736.94,324.80 736.94,324.13
             736.94,323.47 737.93,314.87 737.93,314.87
             737.93,314.87 736.61,303.63 736.28,301.97
             735.95,300.32 736.28,294.37 736.28,293.71
             736.28,293.04 736.28,290.40 736.28,289.74
             736.28,289.07 733.30,283.45 733.30,281.47
             733.30,279.48 733.30,277.17 733.30,277.17
             733.30,277.17 732.31,272.21 732.64,271.21
             732.97,270.22 743.89,269.89 747.53,269.89
             751.17,269.89 755.80,270.22 759.11,271.21
             762.42,272.21 770.03,271.21 771.02,271.21
             772.02,271.21 773.67,272.21 778.30,271.55
             782.94,270.88 786.58,271.55 788.23,271.55
             789.88,271.55 795.51,272.54 799.81,271.55
             804.11,270.55 825.62,268.57 826.28,268.57
             826.95,268.57 848.79,269.56 849.45,269.23
             850.11,268.90 865.99,269.56 865.99,269.56
             865.99,269.56 879.56,274.85 879.56,275.18
             879.56,275.51 879.23,286.43 879.23,286.43
             879.23,286.43 884.86,286.10 888.16,286.10
             891.47,286.10 911.66,283.45 914.31,283.45
             916.95,283.45 929.53,285.11 929.53,285.11
             929.53,285.11 947.07,287.42 947.40,287.42
             947.73,287.42 953.35,289.74 953.69,291.39
             954.02,293.04 954.35,300.98 955.01,304.95
             955.67,308.92 955.67,322.48 955.67,323.14
             955.67,323.80 954.02,335.71 954.02,337.70
             954.02,339.68 955.34,346.96 955.34,350.26
             955.34,353.57 955.67,359.86 955.67,362.83
             955.67,365.81 957.66,374.41 957.66,376.39
             957.66,378.38 958.32,387.97 958.32,387.97
             958.32,387.97 956.33,388.96 953.35,388.96
             950.38,388.96 944.09,387.97 943.76,387.64
             943.43,387.31 943.10,379.04 943.10,375.40
             943.10,371.76 943.76,369.45 943.10,364.82
             942.43,360.19 941.11,348.28 941.11,346.96
             941.11,345.63 941.11,342.33 940.45,339.02
             939.79,335.71 937.47,336.37 937.47,332.40
             937.47,328.43 937.80,323.80 937.80,322.48
             937.80,321.16 941.77,316.86 936.48,318.84
             931.18,320.83 921.59,320.17 921.26,320.17
             920.92,320.17 911.00,320.50 910.00,320.50
             909.01,320.50 900.08,318.84 898.75,318.18
             897.43,317.52 893.46,317.19 892.14,316.86
             890.81,316.53 889.82,314.21 889.16,317.85
             888.50,321.49 888.16,326.78 889.16,329.43
             890.15,332.07 892.47,334.39 892.47,337.70
             892.47,341.00 892.80,349.60 892.80,350.93
             892.80,352.25 892.14,360.85 892.80,364.16
             893.46,367.46 895.44,376.39 895.44,376.72
             895.44,377.05 895.78,381.35 895.78,382.35
             895.78,383.34 895.44,385.98 894.12,385.98
             892.80,385.98 881.22,385.65 881.22,385.32
             881.22,384.99 877.58,355.22 877.58,355.22
             877.58,355.22 867.98,305.94 867.98,305.28
             867.98,304.62 866.99,294.70 865.00,294.04
             863.02,293.37 811.72,291.72 811.72,291.72
             811.72,291.72 794.85,299.66 794.85,299.66
             794.85,299.66 796.17,316.20 796.17,316.86
             796.17,317.52 793.52,340.34 793.52,340.67
             793.52,341.00 795.51,362.17 795.51,362.83
             795.51,363.49 799.81,393.92 799.81,393.92
             799.81,393.92 793.19,398.22 793.19,398.22
             793.19,398.22 790.22,398.22 788.23,398.22
             786.24,398.22 784.59,399.55 784.59,396.57
             784.59,393.59 784.59,389.62 784.92,386.65
             785.25,383.67 784.92,376.39 784.92,373.09
             784.92,369.78 785.25,356.55 784.59,353.57
             783.93,350.59 783.60,347.95 783.27,342.99
             782.94,338.03 783.27,329.43 783.60,326.12
             783.93,322.81 783.60,314.54 783.60,314.54
             783.60,314.54 781.28,303.96 780.62,302.64
             779.96,301.31 779.30,295.69 776.65,294.70
             774.00,293.71 765.07,292.71 761.76,293.37
             758.45,294.04 756.46,295.03 753.48,297.34
             750.51,299.66 747.53,304.62 747.20,305.61
             746.87,306.60 744.88,317.52 744.55,318.84
             744.22,320.17 745.54,332.07 745.54,335.05
             745.54,338.03 746.53,353.90 746.53,355.56
             746.53,357.21 749.51,362.17 749.84,368.45
             750.17,374.74 750.17,378.71 749.84,381.68
             749.51,384.66 750.51,398.55 750.51,398.55 Z" />
  <path class="houseTopFace" fill="none" stroke="black" stroke-width="1" d="M 780.29,89.80
           C 784.76,92.28 787.73,96.74 788.23,97.74
             788.73,98.73 792.70,106.17 792.70,106.17
             792.70,106.17 796.17,112.12 796.67,112.62
             797.16,113.12 807.59,121.55 807.59,122.54
             807.59,123.53 834.39,162.73 834.39,162.73
             834.39,162.73 812.73,157.76 802.62,162.23
             793.42,166.31 795.68,179.86 795.68,180.09
             795.68,180.59 796.67,187.53 794.68,187.53
             792.70,187.53 794.19,189.68 788.23,189.19
             782.27,188.69 780.78,187.87 776.32,188.86
             771.85,189.85 771.68,189.68 766.72,190.18
             761.76,190.68 752.49,191.01 750.01,191.01
             747.53,191.01 742.07,190.51 740.58,190.51
             739.09,190.51 733.63,190.51 732.64,190.02
             731.64,189.52 726.51,190.18 726.02,190.18
             725.52,190.18 730.65,184.06 732.14,179.60
             733.63,175.13 732.64,174.80 733.63,172.32
             734.62,169.84 734.29,168.02 736.94,165.37
             739.25,157.11 740.25,158.10 741.07,155.29
             751.00,140.90 749.02,136.93 750.51,135.94
             751.99,134.95 753.98,133.46 757.45,129.49
             764.40,122.05 761.92,124.53 761.92,121.05
             761.92,117.58 763.41,118.57 763.91,114.11
             768.87,103.19 773.34,98.73 773.84,98.23
             774.33,97.74 775.82,87.32 780.29,89.80 Z" />
  <path class="roof houseTopRoof" fill="none" stroke="black" stroke-width="1" d="M 911.82,144.37
           C 911.82,144.37 919.27,150.82 919.27,153.30
             919.27,155.78 919.77,162.23 923.74,166.20
             927.71,170.17 931.18,172.16 932.67,175.63
             934.16,179.10 934.66,180.09 938.13,186.05
             941.61,192.00 946.57,200.93 948.06,202.91
             949.55,204.90 953.52,206.88 953.52,207.88
             953.52,208.87 953.02,213.33 951.04,213.33
             949.05,213.33 941.44,214.49 935.48,213.00
             929.53,211.51 918.77,212.34 916.79,212.34
             914.80,212.34 913.31,211.84 904.38,212.34
             895.44,212.84 887.01,212.34 882.54,212.34
             878.07,212.34 868.14,212.34 867.65,211.84
             867.15,211.35 864.67,209.36 864.67,208.87
             864.67,208.37 867.15,189.02 867.65,188.53
             868.14,188.03 873.60,185.05 873.60,179.10
             873.60,173.15 871.12,156.78 871.12,154.29
             871.12,151.81 871.12,146.36 871.12,146.36
             871.12,146.36 877.58,145.86 880.06,146.36
             882.54,146.85 887.50,146.85 888.99,147.35
             890.48,147.84 897.43,147.84 899.91,147.35
             902.39,146.85 911.82,144.37 911.82,144.37 Z" />

  <path class="roof houseFirstRoof" fill="none" stroke="black" stroke-width="1" d="M 869.14,257.98
           C 869.14,257.98 874.10,259.47 878.07,258.98
             882.04,258.48 890.48,258.98 892.96,258.98
             895.44,258.98 904.88,258.98 905.37,258.98
             905.87,258.98 908.85,260.47 913.81,260.47
             918.77,260.47 914.80,260.47 922.74,261.46
             930.69,262.45 931.68,260.96 934.16,260.96
             953.02,276.34 954.51,279.81 956.50,282.29
             958.48,284.78 961.46,285.77 962.45,289.24
             957.99,294.70 954.68,292.38 949.71,292.05
             946.74,290.07 945.08,292.71 941.44,291.72
             939.46,290.23 939.62,288.25 931.18,288.25
             922.74,288.25 918.77,287.26 915.80,287.26
             912.82,287.26 905.87,287.26 903.39,287.26
             900.90,287.26 898.42,285.77 893.46,287.26
             888.50,288.74 885.02,291.22 883.04,290.73
             881.05,290.23 879.56,292.22 878.07,289.74
             876.58,287.26 876.09,287.26 874.60,283.78
             873.11,280.31 871.62,273.36 871.62,272.87
             871.62,272.37 870.13,264.93 870.13,264.93
             870.13,264.93 869.14,257.98 869.14,257.98 Z
           M 799.15,269.89
           C 799.15,269.89 789.72,271.38 782.77,271.38
             775.82,271.38 771.35,272.87 766.39,272.37
             761.43,271.88 748.02,271.38 744.05,270.88
             740.08,270.39 734.62,269.40 733.13,268.40
             733.63,264.43 737.60,262.45 740.08,260.96
             748.02,256.00 750.51,255.01 751.99,253.52
             753.48,252.03 752.99,250.54 755.47,249.05
             757.95,247.57 757.45,244.09 763.41,243.60
             769.37,243.10 770.36,243.60 772.84,243.10
             775.32,242.60 784.26,242.11 784.76,242.11
             785.25,242.11 791.70,236.16 792.70,242.11
             793.69,248.06 797.66,256.00 798.16,256.00
             798.65,256.00 799.15,269.89 799.15,269.89 Z" />
  <path class="houseFirstEaves" fill="none" stroke="black" stroke-width="1" d="M 794.19,274.52
           C 794.19,274.52 790.88,274.52 789.88,274.52
             788.89,274.52 786.58,274.52 782.94,274.52
             779.30,274.52 772.35,273.86 769.04,274.85
             765.73,275.84 760.10,275.84 756.79,275.18
             753.48,274.52 749.84,274.19 746.53,274.19
             743.23,274.19 736.61,274.19 736.61,275.18
             736.61,276.18 737.93,276.84 737.93,280.48
             737.93,284.11 737.93,285.11 737.93,286.10
             737.93,287.09 737.93,290.07 737.93,290.07
             737.93,290.07 736.28,291.39 734.29,289.74
             732.31,288.08 730.65,288.08 730.65,286.76
             730.65,285.44 731.31,282.79 731.31,280.14
             731.31,277.50 733.63,279.15 731.31,275.51
             729.00,271.88 728.00,270.55 727.34,268.90
             726.68,267.25 725.69,262.61 725.69,262.61
             725.69,262.61 728.00,261.95 731.31,262.61
             734.62,263.28 737.93,264.27 739.92,264.60
             741.90,264.93 741.90,264.60 744.55,264.60
             747.20,264.60 749.51,264.60 752.16,264.60
             754.81,264.60 756.13,265.92 758.12,266.58
             760.10,267.25 759.77,267.58 763.08,267.58
             766.39,267.58 768.38,268.57 770.36,267.58
             772.35,266.58 772.35,266.25 774.66,265.92
             776.98,265.59 779.63,264.93 780.95,265.59
             782.27,266.25 784.59,266.25 786.24,266.25
             787.90,266.25 790.22,266.25 792.53,266.25
             794.85,266.25 794.19,274.52 794.19,274.52 Z
           M 874.27,282.79
           C 874.27,282.79 883.20,283.45 883.86,283.45
             884.52,283.45 890.48,283.12 892.14,283.12
             893.79,283.12 902.39,283.12 902.72,283.12
             903.06,283.12 911.00,282.46 911.99,282.13
             912.98,281.80 919.60,282.46 920.59,282.46
             921.59,282.46 928.54,283.12 928.54,283.12
             928.54,283.12 937.14,283.45 937.14,283.45
             937.14,283.45 939.79,284.11 939.79,284.11
             939.79,284.11 948.06,285.77 948.39,285.77
             948.72,285.77 956.33,288.08 956.66,288.08
             956.99,288.08 960.63,288.41 960.63,288.41
             960.63,288.41 961.63,291.06 961.63,292.05
             961.63,293.04 959.31,296.02 958.98,296.35
             958.65,296.68 957.99,299.00 957.99,299.33
             957.99,299.66 956.33,305.28 956.33,305.28
             956.33,305.28 953.69,303.96 953.69,303.96
             953.69,303.96 953.69,300.32 953.69,299.99
             953.69,299.66 954.35,297.01 953.02,295.36
             951.70,293.71 948.72,294.37 947.73,294.37
             946.74,294.37 940.78,294.70 940.78,294.70
             940.78,294.70 935.48,293.04 935.15,293.04
             934.82,293.04 929.53,291.06 928.87,291.06
             928.20,291.06 921.92,289.41 920.59,289.41
             919.27,289.41 911.00,288.74 910.67,288.41
             910.34,288.08 902.72,288.08 901.73,288.08
             900.74,288.08 896.11,289.74 894.78,290.73
             893.46,291.72 887.83,293.04 887.50,293.04
             887.17,293.04 883.86,292.38 882.21,292.38
             880.55,292.38 875.59,293.37 875.59,293.37
             875.59,293.37 874.27,282.79 874.27,282.79 Z" />
  <path class="houseSecondEaves" fill="none" stroke="black" stroke-width="1" d="M 793.19,194.98
           C 793.19,194.98 779.79,196.47 779.79,195.97
             779.79,195.47 773.84,194.48 769.86,193.98
             765.89,193.49 764.90,193.49 758.94,193.49
             752.99,193.49 750.51,193.49 746.53,193.49
             742.56,193.49 738.59,193.49 737.60,194.48
             736.11,200.43 736.11,202.42 736.61,205.89
             737.10,209.36 738.59,215.81 738.59,217.30
             738.59,218.79 738.59,222.76 738.59,224.25
             738.59,225.74 737.60,231.19 737.60,231.19
             737.60,231.19 734.13,225.24 734.13,224.74
             734.13,224.25 732.64,219.29 732.14,216.31
             731.64,213.33 729.66,207.88 728.67,206.88
             727.67,205.89 724.69,201.43 724.69,199.94
             724.69,198.45 723.70,186.54 723.70,186.54
             723.70,186.54 731.15,188.53 732.14,188.53
             733.13,188.53 735.61,189.02 737.60,189.02
             739.59,189.02 744.55,187.53 746.04,187.53
             747.53,187.53 751.00,186.54 751.00,186.05
             751.00,185.55 762.91,188.53 762.91,188.53
             762.91,188.53 768.38,189.02 769.86,187.53
             771.35,186.05 781.28,185.55 781.28,185.55
             781.28,185.55 791.21,185.55 791.21,185.55
             791.21,185.55 793.19,194.98 793.19,194.98 Z
           M 861.69,207.88
           C 861.69,207.88 875.09,207.88 875.09,207.88
             875.09,207.88 885.52,208.37 887.01,208.37
             888.50,208.37 899.91,208.87 899.91,208.87
             899.91,208.87 906.86,211.35 908.85,210.36
             910.83,209.36 913.81,211.35 916.79,211.35
             919.77,211.35 925.72,210.85 926.72,210.36
             927.71,209.86 933.17,209.86 933.66,209.86
             934.16,209.86 945.58,209.86 945.58,209.86
             945.58,209.86 952.53,211.84 952.53,211.84
             952.53,211.84 951.04,216.31 949.55,218.29
             948.06,220.28 944.59,228.22 944.59,228.22
             944.59,228.22 944.09,231.69 943.59,231.69
             943.10,231.69 940.55,229.64 940.55,229.64
             940.55,229.64 940.36,222.50 940.36,222.00
             940.36,221.50 943.59,216.81 943.59,216.31
             943.59,215.81 939.12,215.81 938.63,215.81
             938.13,215.81 931.68,219.78 930.19,219.78
             928.70,219.78 919.27,217.30 919.27,217.30
             919.27,217.30 913.31,217.80 912.82,217.30
             912.32,216.81 898.92,216.81 898.92,216.81
             898.92,216.81 892.47,218.29 892.47,218.29
             892.47,218.29 884.52,218.29 884.03,218.29
             883.53,218.29 880.55,217.30 880.55,217.30
             880.55,217.30 869.63,215.32 869.63,215.32
             869.63,215.32 866.16,217.80 866.16,217.80
             866.16,217.80 861.69,207.88 861.69,207.88 Z" />
  <path class="houseForeFace" fill="none" stroke="black" stroke-width="1" d="M 832.90,396.90
           C 832.90,396.90 821.49,396.90 820.00,396.90
             818.51,396.90 793.19,394.91 793.19,394.42
             793.19,393.92 794.68,382.51 794.68,382.51
             794.68,382.51 796.17,359.69 796.17,359.19
             796.17,358.70 799.15,340.84 799.15,339.84
             799.15,338.85 797.16,315.53 796.67,313.05
             796.17,310.57 792.20,299.16 792.20,298.67
             792.20,298.17 790.71,287.75 790.71,287.75
             790.71,287.75 789.22,274.85 789.22,274.85
             789.22,274.85 790.22,270.88 790.22,267.91
             790.22,264.93 789.72,261.46 789.72,256.00
             789.72,250.54 789.72,246.57 789.72,242.60
             789.72,238.64 789.72,229.21 789.72,225.74
             789.72,222.26 789.72,212.34 789.72,211.84
             789.72,211.35 789.72,205.40 789.72,205.40
             789.72,205.40 790.22,200.93 789.72,198.95
             792.20,186.05 780.95,186.76 778.74,186.10
             778.74,186.10 778.17,183.20 778.08,179.93
             777.99,176.57 778.39,172.81 777.81,171.16
             777.83,170.88 774.89,169.88 771.68,170.01
             766.81,170.20 760.93,171.66 760.93,171.66
             760.93,171.66 769.37,156.78 769.37,156.78
             769.37,156.78 777.81,146.85 778.80,145.86
             779.79,144.87 779.30,142.88 783.76,139.41
             788.23,135.94 794.19,130.98 794.19,130.98
             794.19,130.98 803.62,125.02 803.62,124.03
             803.62,123.04 810.07,115.10 812.06,113.61
             814.04,112.12 817.52,107.16 818.51,106.17
             819.50,105.18 821.98,101.71 822.48,101.71
             822.98,101.71 831.41,104.68 832.41,106.17
             833.40,107.66 841.84,111.63 845.31,115.10
             848.79,118.57 852.76,123.04 853.75,124.03
             854.74,125.02 864.67,132.96 866.66,135.44
             868.64,137.92 874.60,142.88 875.59,144.37
             876.58,145.86 881.55,147.84 885.02,151.32
             888.50,154.79 891.47,160.25 894.95,162.73
             898.42,165.21 903.88,171.16 902.89,171.16
             901.90,171.16 893.46,169.67 889.49,169.67
             885.52,169.67 883.04,173.15 883.04,173.64
             883.04,174.14 883.53,176.62 884.03,180.09
             885.30,189.41 884.52,184.56 877.58,188.53
             877.08,188.03 862.68,189.02 869.14,223.75
             869.14,227.22 868.14,232.19 869.14,234.67
             870.13,237.15 872.12,246.08 872.12,248.56
             872.12,251.04 874.60,258.48 875.09,259.97
             875.59,261.46 877.08,269.89 877.08,270.39
             877.08,270.88 876.09,277.83 876.09,280.81
             876.09,283.78 876.09,296.19 876.09,296.68
             876.09,297.18 878.57,297.67 877.08,304.12
             875.59,310.57 875.59,312.56 875.59,314.05
             875.59,315.53 876.58,327.94 876.58,330.91
             876.58,333.89 876.58,341.33 876.58,344.81
             876.58,348.28 879.56,362.17 879.56,364.65
             879.36,367.07 878.03,368.05 880.06,375.07
             880.06,381.52 883.53,383.50 883.53,384.99
             883.53,386.48 882.04,386.48 877.08,390.45
             872.12,394.42 832.90,396.90 832.90,396.90 Z
           M 802.13,241.61
           C 802.13,241.61 802.62,241.61 806.10,241.61
             809.57,241.61 812.06,241.61 815.03,241.12
             818.01,240.62 819.00,240.62 821.49,240.62
             823.97,240.62 827.44,240.12 828.44,240.62
             829.43,241.12 831.91,241.12 833.90,241.12
             835.88,241.12 840.35,241.12 842.33,241.12
             844.32,241.12 844.82,240.62 848.29,240.62
             851.76,240.62 857.22,242.11 857.72,242.11
             858.22,242.11 861.20,242.11 862.68,242.11
             865.66,237.64 862.19,231.69 861.20,228.22
             860.20,224.74 859.21,221.77 859.21,219.78
             859.21,217.80 860.20,212.84 859.21,210.36
             858.22,207.88 857.72,207.88 858.22,204.40
             859.21,194.48 858.71,190.51 858.71,188.53
             858.71,186.54 859.21,182.57 859.21,182.08
             859.21,181.58 859.21,178.11 859.21,177.61
             859.21,177.12 854.74,174.64 854.25,174.14
             853.75,173.64 850.77,173.64 847.79,174.64
             844.82,175.63 838.36,173.15 836.38,175.13
             834.39,177.12 828.44,174.64 826.95,174.64
             825.46,174.64 821.98,174.64 820.00,174.64
             818.01,174.64 816.03,174.64 813.54,174.64
             811.06,174.64 805.11,174.14 804.11,174.14
             800.64,175.63 800.64,177.12 800.64,179.10
             800.64,181.09 800.14,185.05 800.14,186.54
             800.14,188.03 798.65,202.91 798.65,202.91
             798.65,202.91 799.81,206.39 799.81,209.36
             799.81,212.34 800.80,216.48 800.80,217.96
             800.80,219.45 800.14,222.76 800.14,224.74
             800.14,226.73 802.13,241.61 802.13,241.61 Z
           M 876.33,356.33
           C 876.33,356.33 872.00,297.67 872.00,297.67
             872.00,297.67 851.30,290.14 830.67,289.33
             813.24,288.65 795.33,294.67 795.33,294.67
             795.33,294.67 799.67,319.33 799.67,319.33
             799.67,319.33 801.33,332.33 801.33,332.33
             801.33,332.33 800.00,351.33 800.00,351.33
             800.00,351.33 798.00,373.33 798.00,373.33
             798.00,373.33 798.33,389.67 798.33,389.67
             798.33,389.67 816.70,392.85 833.33,392.67
             847.10,392.52 859.67,389.00 859.67,389.00
             859.67,389.00 868.00,385.67 868.00,385.67
             868.00,385.67 878.33,380.33 878.33,380.33 Z" />
  <path class="houseTurretFace" fill="none" stroke="black" stroke-width="1" d="M 817.02,421.71
           C 817.02,421.71 812.55,416.25 810.57,415.26
             808.58,414.26 799.15,405.83 798.65,405.83
             798.16,405.83 793.19,402.85 793.19,401.86
             793.19,400.87 793.19,401.36 793.19,395.91
             793.19,390.45 791.21,386.48 791.21,381.52
             791.21,376.56 792.20,371.10 792.70,365.15
             793.19,359.19 793.19,352.25 793.19,349.77
             793.19,347.29 793.19,341.83 792.70,335.38
             792.20,328.93 793.19,318.51 793.19,316.53
             793.19,314.54 792.20,310.08 791.70,304.12
             791.21,298.17 791.21,294.20 790.71,290.73
             790.22,287.26 791.70,284.78 796.67,284.28
             801.63,283.78 811.56,279.81 817.02,280.31
             822.48,280.81 822.98,281.30 828.44,281.30
             833.90,281.30 836.38,281.30 842.83,280.81
             849.28,280.31 861.20,276.34 862.19,277.33
             863.18,278.33 867.65,279.32 870.13,281.80
             872.61,284.28 873.11,280.81 875.59,287.26
             878.07,293.71 876.58,290.23 879.06,298.17
             881.55,306.11 878.57,310.57 878.07,316.53
             877.58,322.48 879.56,334.88 879.56,338.36
             879.56,341.83 882.04,355.72 883.04,361.67
             884.03,367.63 885.52,379.53 887.50,383.50
             889.49,387.47 889.98,392.43 890.48,395.41
             884.03,406.33 884.03,408.81 881.05,411.78
             878.07,414.76 871.62,421.21 869.63,421.71
             867.65,422.20 862.68,422.20 856.23,422.20
             849.78,422.20 847.79,419.22 844.32,419.22
             840.84,419.22 841.84,416.74 835.38,419.72
             828.93,422.70 817.02,421.71 817.02,421.71 Z
           M 828.44,385.49
           C 828.44,385.49 833.40,385.49 835.38,386.48
             837.37,387.47 839.36,387.97 841.84,387.97
             844.32,387.97 849.78,386.98 851.27,385.98
             852.76,384.99 855.24,383.50 856.23,383.01
             857.22,382.51 857.22,379.53 857.72,377.55
             858.22,375.57 858.22,374.57 858.22,371.60
             858.22,368.62 855.74,364.65 854.25,361.67
             852.76,358.70 852.76,352.74 852.76,349.77
             852.76,346.79 852.26,339.84 852.26,336.87
             852.26,333.89 852.26,331.91 852.26,329.92
             852.26,327.94 852.26,327.44 852.26,322.48
             852.26,317.52 849.78,311.07 849.78,310.08
             849.78,309.09 848.79,306.27 849.78,305.28
             850.77,304.29 850.11,304.12 850.11,301.64
             850.11,299.16 848.95,296.52 847.46,299.00
             845.97,301.48 844.65,301.15 843.16,302.64
             841.67,304.12 838.86,305.12 837.87,305.12
             836.87,305.12 833.40,305.12 832.90,305.12
             832.41,305.12 832.41,309.58 832.41,311.57
             832.41,313.55 832.41,320.50 832.41,320.50
             832.41,320.50 832.90,327.44 831.91,329.92
             830.92,332.40 830.92,337.36 830.92,338.85
             830.92,340.34 830.42,348.78 829.92,349.27
             829.43,349.77 826.95,357.21 826.95,357.71
             826.95,358.20 827.44,365.64 827.44,369.12
             827.94,376.06 827.44,381.52 827.44,381.52
             827.44,381.52 828.44,385.49 828.44,385.49 Z
           M 800.14,378.05
           C 800.14,378.05 801.63,377.55 803.12,378.05
             804.61,378.54 806.60,382.02 807.59,382.02
             808.58,382.02 811.06,382.02 812.06,382.02
             813.05,382.02 815.53,380.53 817.02,381.52
             818.51,382.51 821.98,379.53 820.99,374.57
             820.00,369.61 820.99,366.14 820.00,361.18
             819.00,356.22 818.51,350.26 819.00,347.78
             819.50,345.30 822.98,339.84 822.98,335.88
             822.98,331.91 821.98,324.47 821.49,322.48
             820.99,320.50 818.51,317.02 820.00,313.55
             821.49,310.08 821.49,304.12 821.49,301.64
             821.49,299.16 820.99,296.19 819.50,296.19
             818.01,296.19 813.54,292.71 811.56,294.20
             809.57,295.69 805.60,299.16 805.60,299.66
             805.60,300.16 801.63,303.13 801.63,305.12
             801.63,307.10 802.62,314.05 803.12,316.53
             803.62,319.01 803.62,321.98 804.11,324.47
             804.61,326.95 804.11,334.88 804.11,334.88
             804.11,334.88 804.11,350.26 803.12,351.26
             802.13,352.25 802.62,359.19 802.13,362.17
             801.63,365.15 802.13,368.12 801.63,369.61
             801.14,371.10 800.14,378.05 800.14,378.05 Z
           M 863.18,381.02
           C 863.18,381.02 869.14,378.54 869.63,378.05
             870.13,377.55 872.61,377.05 874.10,376.56
             875.59,376.06 877.58,372.59 877.58,372.59
             877.58,372.59 877.08,361.67 876.58,361.18
             876.09,360.68 873.11,352.25 873.11,352.25
             873.11,352.25 869.14,338.85 869.14,338.85
             869.14,338.85 866.66,329.92 866.66,328.93
             866.66,327.94 866.66,324.47 866.66,324.47
             866.66,324.47 866.99,315.87 866.99,315.87
             866.99,315.87 865.00,302.47 865.00,301.97
             865.00,301.48 857.06,299.99 857.06,299.99
             857.06,299.99 857.06,304.12 857.06,305.61
             857.06,307.10 858.22,311.07 858.22,312.06
             858.22,313.05 860.20,315.53 860.20,320.00
             860.20,324.47 861.20,329.43 860.70,331.91
             860.20,334.39 858.22,341.33 858.22,342.33
             858.22,343.32 858.22,347.29 858.22,347.29
             858.22,347.29 860.70,355.22 860.70,355.72
             860.70,356.22 862.19,358.20 862.19,360.68
             862.19,363.16 862.19,370.11 862.19,370.11
             862.19,370.11 863.18,381.02 863.18,381.02 Z" />
  <path class="roof houseTurretAwning" fill="none" stroke="black" stroke-width="1" d="M 826.95,247.07
           C 829.92,247.07 832.08,243.76 834.56,243.76
             837.04,243.76 843.16,241.12 847.46,244.75
             880.22,273.53 881.05,278.82 881.05,280.81
             881.05,282.79 885.52,291.06 885.52,292.05
             885.52,293.04 882.54,296.35 876.91,293.71
             871.95,288.74 868.31,289.41 862.35,289.41
             856.40,289.41 849.12,280.14 840.18,282.13
             831.25,284.11 825.95,285.44 819.00,285.44
             812.06,285.44 811.23,286.76 805.77,286.76
             800.31,286.76 798.16,288.58 796.17,290.07
             789.72,291.06 785.09,289.57 786.58,287.09
             788.06,284.61 792.70,277.83 794.19,275.84
             795.68,273.86 803.12,267.91 805.11,267.41
             807.09,266.91 805.93,264.43 808.42,262.95
             810.90,261.46 814.70,257.16 815.70,256.66
             816.69,256.17 820.66,252.69 820.66,251.70
             820.66,250.71 823.97,247.07 826.95,247.07 Z" />
</svg>