<?xml version="1.0" encoding="UTF-8" standalone="no"?>
<!DOCTYPE svg PUBLIC "-//W3C//DTD SVG 20010904//EN"
              "http://www.w3.org/TR/2001/REC-SVG-20010904/DTD/svg10.dtd">

<svg xmlns="http://www.w3.org/2000/svg"
     width="83.3333in" height="30.5556in"
     viewBox="0 0 6000 2200">
  <path id="gasHoseFL"
        fill="none" stroke="black" stroke-width="1"
        d="M 4328.67,1286.00
           C 4328.67,1286.00 4323.33,1240.00 4323.33,1240.00
             4323.33,1240.00 4306.00,1244.67 4306.00,1244.67
             4306.00,1244.67 4301.33,1220.67 4301.33,1220.67
             4301.33,1220.67 4332.67,1200.67 4332.67,1200.00
             4332.67,1199.33 4331.33,1181.33 4331.33,1181.33
             4331.33,1181.33 4285.33,1210.00 4285.33,1210.00
             4285.33,1210.00 4287.33,1242.67 4287.33,1243.33
             4287.33,1244.00 4278.00,1251.33 4278.00,1251.33
             4278.00,1251.33 4278.67,1298.67 4278.67,1298.67
             4278.67,1298.67 4286.00,1290.00 4296.67,1304.67
             4298.48,1336.48 4303.08,1373.08 4296.67,1388.67
             4286.00,1425.33 4244.93,1399.80 4268.67,1354.67
             4268.67,1354.67 4258.67,1332.00 4258.67,1332.00
             4258.67,1332.00 4244.00,1341.33 4243.33,1365.33
             4249.33,1432.00 4321.33,1489.33 4312.67,1301.33
             4309.33,1288.00 4328.67,1286.00 4328.67,1286.00 Z" />
</svg>
