<?xml version="1.0" encoding="UTF-8" standalone="no"?>
<!DOCTYPE svg PUBLIC "-//W3C//DTD SVG 20010904//EN"
              "http://www.w3.org/TR/2001/REC-SVG-20010904/DTD/svg10.dtd">

<svg xmlns="http://www.w3.org/2000/svg"
     width="83.3333in" height="30.5556in"
     viewBox="0 0 6000 2200">
  <path id="gasHoseFM"
        fill="none" stroke="black" stroke-width="1"
        d="M 4981.33,1162.67
           C 4981.33,1162.67 4979.33,1138.67 4979.33,1139.33
             4979.33,1140.00 4952.67,1166.67 4952.67,1166.67
             4952.67,1166.67 4948.00,1203.33 4948.00,1203.33
             4948.00,1203.33 4933.33,1207.33 4933.33,1207.33
             4933.33,1207.33 4934.67,1247.33 4934.67,1247.33
             4934.67,1247.33 4950.67,1247.33 4948.00,1257.33
             4958.55,1277.86 4956.66,1317.77 4947.33,1340.00
             4934.86,1369.74 4912.65,1373.80 4923.33,1314.67
             4923.33,1314.67 4916.67,1305.33 4913.33,1297.33
             4884.00,1420.67 4982.00,1391.33 4965.33,1255.33
             4965.33,1255.33 4964.67,1243.33 4971.33,1240.67
             4971.33,1240.67 4970.67,1206.67 4969.33,1206.67
             4968.00,1206.67 4956.00,1205.33 4956.00,1205.33
             4956.00,1205.33 4960.67,1178.00 4960.67,1178.00
             4960.67,1178.00 4981.33,1162.67 4981.33,1162.67 Z" />
</svg>
