<?xml version="1.0" encoding="UTF-8" standalone="no"?>
<!DOCTYPE svg PUBLIC "-//W3C//DTD SVG 20010904//EN"
              "http://www.w3.org/TR/2001/REC-SVG-20010904/DTD/svg10.dtd">

<svg xmlns="http://www.w3.org/2000/svg"
     width="83.3333in" height="30.5556in"
     viewBox="0 0 6000 2200">
  <path id="gasHoseFR"
        fill="none" stroke="black" stroke-width="1"
        d="M 5366.50,1221.50
           C 5343.50,1223.50 5331.50,1303.50 5334.50,1324.00
             5342.00,1358.50 5352.50,1397.00 5393.50,1352.00
             5426.00,1315.00 5410.00,1281.00 5415.50,1279.50
             5414.00,1268.50 5427.00,1263.50 5427.00,1263.50
             5427.00,1263.50 5426.00,1249.50 5426.00,1249.50
             5426.00,1249.50 5436.50,1249.50 5436.50,1249.50
             5436.50,1249.50 5432.50,1202.00 5432.50,1202.00
             5432.50,1202.00 5425.00,1196.50 5425.00,1196.50
             5425.00,1196.50 5425.00,1162.50 5425.00,1162.50
             5425.00,1162.50 5437.00,1140.50 5437.00,1140.50
             5437.00,1140.50 5451.00,1136.50 5451.00,1136.50
             5451.00,1136.50 5451.50,1115.00 5451.50,1115.00
             5451.50,1115.00 5431.00,1116.00 5431.00,1116.00
             5431.00,1116.00 5413.50,1133.50 5413.50,1133.50
             5413.50,1133.50 5405.50,1150.50 5405.50,1151.00
             5405.50,1151.50 5407.50,1197.50 5407.50,1197.50
             5407.50,1197.50 5394.00,1203.00 5394.00,1203.00
             5394.00,1203.00 5390.50,1251.00 5390.50,1251.00
             5390.50,1251.00 5400.00,1254.50 5400.00,1254.50
             5400.00,1254.50 5402.00,1266.00 5402.00,1266.00
             5402.00,1266.00 5407.50,1271.00 5403.50,1283.00
             5403.50,1283.00 5398.00,1318.50 5398.00,1318.50
             5398.00,1318.50 5374.00,1382.50 5354.00,1348.00
             5343.00,1313.00 5342.00,1279.50 5371.00,1239.50
             5371.00,1239.50 5366.50,1221.50 5366.50,1221.50 Z
           M 5653.00,1159.50
           C 5653.00,1159.50 5655.00,1182.00 5651.50,1202.50
             5648.50,1234.50 5686.00,1334.00 5720.00,1240.00
             5725.00,1215.50 5728.50,1200.00 5705.50,1154.50
             5705.50,1154.50 5699.50,1177.50 5699.50,1177.50
             5699.50,1177.50 5722.50,1214.00 5699.00,1250.00
             5680.50,1281.00 5676.50,1241.50 5673.50,1232.50
             5667.50,1198.50 5669.50,1162.00 5669.50,1162.00
             5692.50,1132.00 5634.50,1131.00 5653.00,1159.50 Z" />
</svg>
