<?xml version="1.0" encoding="UTF-8" standalone="no"?>
<!DOCTYPE svg PUBLIC "-//W3C//DTD SVG 20010904//EN"
              "http://www.w3.org/TR/2001/REC-SVG-20010904/DTD/svg10.dtd">

<svg xmlns="http://www.w3.org/2000/svg"
     width="83.3333in" height="30.5556in"
     viewBox="0 0 6000 2200">
  <path id="gasStationGround"
        fill="none" stroke="black" stroke-width="1"
        d="M 2112.00,1400.00
           C 2112.00,1400.00 2288.00,1272.00 2288.00,1272.00
             2288.00,1272.00 2432.00,1200.00 2456.00,1200.00
             2480.00,1200.00 2552.00,1208.00 2576.00,1200.00
             2600.00,1192.00 3120.00,1128.00 3152.00,1128.00
             3184.00,1128.00 3288.00,1128.00 3288.00,1128.00
             3288.00,1128.00 3472.00,1136.00 3472.00,1136.00
             3472.00,1136.00 3512.00,1136.00 3568.00,1120.00
             3624.00,1104.00 3656.00,1120.00 3672.00,1104.00
             3688.00,1088.00 3856.00,1064.00 3880.00,1064.00
             3904.00,1064.00 4088.00,1048.00 4176.00,1048.00
             4264.00,1048.00 4392.00,1048.00 4488.00,1048.00
             4584.00,1048.00 4808.00,1040.00 4824.00,1040.00
             4840.00,1040.00 4976.00,1032.00 5064.00,1032.00
             5208.00,1040.00 5392.00,1048.00 5416.00,1056.00
             5440.00,1064.00 5584.00,1120.00 5592.00,1120.00
             5600.00,1120.00 5776.00,1176.00 5808.00,1232.00
             5840.00,1288.00 6016.00,1504.00 6024.00,1504.00
             6032.00,1504.00 6128.00,1624.00 6128.00,1632.00
             6128.00,1640.00 6168.00,1824.00 6168.00,1856.00
             6168.00,1888.00 6128.00,2056.00 6128.00,2056.00
             6128.00,2056.00 6088.00,2096.00 6080.00,2104.00
             6072.00,2112.00 6016.00,2136.00 6000.00,2136.00
             5984.00,2136.00 5848.00,2152.00 5840.00,2152.00
             5832.00,2152.00 5728.00,2136.00 5728.00,2136.00
             5728.00,2136.00 5504.00,2128.00 5504.00,2128.00
             5504.00,2128.00 5376.00,2136.00 5376.00,2136.00
             5376.00,2136.00 5240.00,2184.00 5240.00,2184.00
             5240.00,2184.00 5112.00,2192.00 5112.00,2192.00
             5112.00,2192.00 5064.00,2192.00 5056.00,2192.00
             5048.00,2192.00 4872.00,2184.00 4872.00,2184.00
             4872.00,2184.00 4768.00,2184.00 4760.00,2184.00
             4752.00,2184.00 4648.00,2168.00 4648.00,2168.00
             4648.00,2168.00 4568.00,2168.00 4552.00,2168.00
             4536.00,2168.00 4432.00,2184.00 4432.00,2184.00
             4432.00,2184.00 4352.00,2184.00 4352.00,2184.00
             4352.00,2184.00 4216.00,2136.00 4216.00,2136.00
             4216.00,2136.00 4064.00,2128.00 4064.00,2128.00
             4064.00,2128.00 3944.00,2128.00 3944.00,2128.00
             3944.00,2128.00 3864.00,2128.00 3864.00,2128.00
             3864.00,2128.00 3768.00,2176.00 3768.00,2176.00
             3768.00,2176.00 3640.00,2192.00 3632.00,2192.00
             3624.00,2192.00 3416.00,2192.00 3416.00,2192.00
             3416.00,2192.00 3200.00,2200.00 3192.00,2200.00
             3184.00,2200.00 3064.00,2208.00 3056.00,2208.00
             3048.00,2208.00 2944.00,2208.00 2928.00,2208.00
             2912.00,2208.00 2648.00,2152.00 2640.00,2152.00
             2632.00,2152.00 2496.00,2152.00 2496.00,2152.00
             2496.00,2152.00 2296.00,2152.00 2288.00,2152.00
             2280.00,2152.00 2200.00,2128.00 2192.00,2120.00
             2184.00,2112.00 2144.00,2048.00 2144.00,2040.00
             2144.00,2032.00 2104.00,1920.00 2104.00,1904.00
             2104.00,1888.00 2088.00,1800.00 2088.00,1792.00
             2088.00,1784.00 2096.00,1640.00 2096.00,1632.00
             2096.00,1624.00 2112.00,1400.00 2112.00,1400.00 Z" />
</svg>
