<?xml version="1.0" encoding="UTF-8" standalone="no"?>
<!DOCTYPE svg PUBLIC "-//W3C//DTD SVG 20010904//EN"
              "http://www.w3.org/TR/2001/REC-SVG-20010904/DTD/svg10.dtd">

<svg xmlns="http://www.w3.org/2000/svg"
     width="83.3333in" height="30.5556in"
     viewBox="0 0 6000 2200">
  <path id="gasStationGroundDark"
        fill="none" stroke="black" stroke-width="1"
        d="M 2136.00,1352.00
           C 2136.00,1352.00 2312.00,1224.00 2312.00,1224.00
             2312.00,1224.00 2456.00,1152.00 2480.00,1152.00
             2504.00,1152.00 2576.00,1160.00 2600.00,1152.00
             2624.00,1144.00 3144.00,1080.00 3176.00,1080.00
             3208.00,1080.00 3312.00,1080.00 3312.00,1080.00
             3312.00,1080.00 3496.00,1088.00 3496.00,1088.00
             3496.00,1088.00 3536.00,1088.00 3592.00,1072.00
             3648.00,1056.00 3680.00,1072.00 3696.00,1056.00
             3712.00,1040.00 3880.00,1016.00 3904.00,1016.00
             3928.00,1016.00 4112.00,1000.00 4200.00,1000.00
             4288.00,1000.00 4416.00,1000.00 4512.00,1000.00
             4608.00,1000.00 4832.00,992.00 4848.00,992.00
             4864.00,992.00 5000.00,984.00 5088.00,984.00
             5232.00,992.00 5416.00,1000.00 5440.00,1008.00
             5464.00,1016.00 5608.00,1072.00 5616.00,1072.00
             5624.00,1072.00 5800.00,1128.00 5832.00,1184.00
             5864.00,1240.00 6040.00,1456.00 6048.00,1456.00
             6056.00,1456.00 6152.00,1576.00 6152.00,1584.00
             6152.00,1592.00 6192.00,1776.00 6192.00,1808.00
             6192.00,1840.00 6152.00,2008.00 6152.00,2008.00
             6152.00,2008.00 6112.00,2048.00 6104.00,2056.00
             6096.00,2064.00 6040.00,2088.00 6024.00,2088.00
             6008.00,2088.00 5872.00,2104.00 5864.00,2104.00
             5856.00,2104.00 5752.00,2088.00 5752.00,2088.00
             5752.00,2088.00 5528.00,2080.00 5528.00,2080.00
             5528.00,2080.00 5400.00,2088.00 5400.00,2088.00
             5400.00,2088.00 5264.00,2136.00 5264.00,2136.00
             5264.00,2136.00 5136.00,2144.00 5136.00,2144.00
             5136.00,2144.00 5088.00,2144.00 5080.00,2144.00
             5072.00,2144.00 4896.00,2136.00 4896.00,2136.00
             4896.00,2136.00 4792.00,2136.00 4784.00,2136.00
             4776.00,2136.00 4672.00,2120.00 4672.00,2120.00
             4672.00,2120.00 4592.00,2120.00 4576.00,2120.00
             4560.00,2120.00 4456.00,2136.00 4456.00,2136.00
             4456.00,2136.00 4376.00,2136.00 4376.00,2136.00
             4376.00,2136.00 4240.00,2088.00 4240.00,2088.00
             4240.00,2088.00 4088.00,2080.00 4088.00,2080.00
             4088.00,2080.00 3968.00,2080.00 3968.00,2080.00
             3968.00,2080.00 3888.00,2080.00 3888.00,2080.00
             3888.00,2080.00 3792.00,2128.00 3792.00,2128.00
             3792.00,2128.00 3664.00,2144.00 3656.00,2144.00
             3648.00,2144.00 3440.00,2144.00 3440.00,2144.00
             3440.00,2144.00 3224.00,2152.00 3216.00,2152.00
             3208.00,2152.00 3088.00,2160.00 3080.00,2160.00
             3072.00,2160.00 2968.00,2160.00 2952.00,2160.00
             2936.00,2160.00 2672.00,2104.00 2664.00,2104.00
             2656.00,2104.00 2520.00,2104.00 2520.00,2104.00
             2520.00,2104.00 2320.00,2104.00 2312.00,2104.00
             2304.00,2104.00 2224.00,2080.00 2216.00,2072.00
             2208.00,2064.00 2168.00,2000.00 2168.00,1992.00
             2168.00,1984.00 2128.00,1872.00 2128.00,1856.00
             2128.00,1840.00 2112.00,1752.00 2112.00,1744.00
             2112.00,1736.00 2120.00,1592.00 2120.00,1584.00
             2120.00,1576.00 2136.00,1352.00 2136.00,1352.00 Z" />
</svg>
