<?xml version="1.0" encoding="UTF-8" standalone="no"?>
<!DOCTYPE svg PUBLIC "-//W3C//DTD SVG 20010904//EN"
              "http://www.w3.org/TR/2001/REC-SVG-20010904/DTD/svg10.dtd">

<svg xmlns="http://www.w3.org/2000/svg"
     width="83.3333in" height="30.5556in"
     viewBox="0 0 6000 2200">
  <path id="hoodFront"
        fill="none" stroke="black" stroke-width="1"
        d="M 5595.50,222.50
           C 5595.50,222.50 5558.00,227.00 5558.00,228.50
             5558.00,230.00 5516.00,254.00 5514.50,255.50
             5513.00,257.00 5486.00,278.00 5484.50,278.00
             5483.00,278.00 5466.50,282.50 5466.50,282.50
             5466.50,282.50 5454.50,290.00 5453.00,290.00
             5451.50,290.00 5427.50,287.00 5427.50,287.00
             5427.50,287.00 5403.50,305.00 5403.50,306.50
             5403.50,308.00 5379.50,320.00 5379.50,320.00
             5379.50,320.00 5357.00,326.00 5355.50,329.00
             5354.00,332.00 5337.50,348.50 5337.50,348.50
             5337.50,348.50 5321.00,366.50 5321.00,366.50
             5321.00,366.50 5295.50,378.50 5295.50,378.50
             5295.50,378.50 5277.50,381.50 5277.50,381.50
             5277.50,381.50 5264.00,387.50 5262.50,387.50
             5261.00,387.50 5235.50,390.50 5235.50,390.50
             5235.50,390.50 5220.50,395.00 5220.50,395.00
             5220.50,395.00 5210.00,392.00 5208.50,392.00
             5207.00,392.00 5187.50,384.50 5187.50,384.50
             5187.50,384.50 5175.50,381.50 5175.50,383.00
             5175.50,384.50 5163.50,393.50 5163.50,393.50
             5163.50,393.50 5150.00,396.50 5148.50,395.00
             5147.00,393.50 5133.50,390.50 5133.50,390.50
             5133.50,390.50 5111.00,396.50 5109.50,396.50
             5108.00,396.50 5079.50,407.00 5079.50,407.00
             5079.50,407.00 5037.50,413.00 5037.50,413.00
             5037.50,413.00 5007.50,404.00 5007.50,404.00
             5007.50,404.00 4995.50,395.00 4994.00,395.00
             4992.50,395.00 4967.00,399.50 4964.00,402.50
             4961.00,405.50 4934.00,416.00 4932.50,416.00
             4931.00,416.00 4913.00,429.50 4913.00,431.00
             4913.00,432.50 4898.00,453.50 4896.50,455.00
             4895.00,456.50 4887.50,476.00 4887.50,476.00
             4887.50,476.00 4880.00,495.50 4875.50,497.00
             4871.00,498.50 4859.00,509.00 4853.00,509.00
             4847.00,509.00 4815.50,519.50 4809.50,521.00
             4803.50,522.50 4791.50,521.00 4784.00,524.00
             4776.50,527.00 4757.00,527.00 4749.50,530.00
             4742.00,533.00 4725.50,534.50 4721.00,537.50
             4716.50,540.50 4704.50,548.00 4691.00,555.50
             4677.50,563.00 4661.00,563.00 4646.00,573.50
             4631.00,584.00 4607.00,593.00 4604.00,596.00
             4601.00,599.00 4584.50,612.50 4580.00,614.00
             4575.50,615.50 4547.00,630.50 4541.00,632.00
             4535.00,633.50 4526.00,636.50 4526.00,636.50
             4526.00,636.50 4481.00,648.50 4479.50,648.50
             4478.00,648.50 4416.50,662.00 4410.50,665.00
             4404.50,668.00 4392.50,669.50 4391.00,671.00
             4389.50,672.50 4376.00,677.00 4367.00,678.50
             4358.00,680.00 4338.50,684.50 4325.00,684.50
             4311.50,684.50 4301.00,684.50 4296.50,684.50
             4292.00,684.50 4262.00,686.00 4262.00,686.00
             4262.00,686.00 4215.50,689.00 4215.50,686.00
             4215.50,683.00 4194.50,684.50 4187.00,687.50
             4179.50,690.50 4164.50,702.50 4163.00,702.50
             4161.50,702.50 4134.50,714.50 4128.50,717.50
             4122.50,720.50 4107.50,728.00 4104.50,731.00
             4101.50,734.00 4059.50,764.00 4056.50,765.50
             4053.50,767.00 4037.00,783.50 4032.50,786.50
             4028.00,789.50 4011.50,801.50 4010.00,801.50
             4008.50,801.50 3993.50,801.50 3992.00,795.50
             3990.50,789.50 3989.00,782.00 3990.50,774.50
             3992.00,767.00 4020.50,735.50 4023.50,731.00
             4026.50,726.50 4071.50,713.00 4071.50,713.00
             4071.50,713.00 4079.00,711.50 4088.00,701.00
             4097.00,690.50 4098.50,678.50 4104.50,671.00
             4110.50,663.50 4113.50,650.00 4121.00,641.00
             4128.50,632.00 4163.00,608.00 4166.00,606.50
             4169.00,605.00 4188.50,596.00 4193.00,594.50
             4197.50,593.00 4211.00,582.50 4214.00,576.50
             4217.00,570.50 4245.50,545.00 4251.50,543.50
             4257.50,542.00 4290.50,542.00 4290.50,542.00
             4290.50,542.00 4320.50,522.50 4320.50,521.00
             4320.50,519.50 4371.50,498.50 4374.50,498.50
             4377.50,498.50 4406.00,498.50 4406.00,497.00
             4406.00,495.50 4442.00,494.00 4448.00,494.00
             4454.00,494.00 4473.50,494.00 4478.00,495.50
             4482.50,497.00 4497.50,504.50 4511.00,503.00
             4524.50,501.50 4544.00,495.50 4550.00,492.50
             4556.00,489.50 4592.00,474.50 4599.50,473.00
             4607.00,471.50 4641.50,459.50 4646.00,458.00
             4650.50,456.50 4674.50,441.50 4680.50,432.50
             4686.50,423.50 4706.00,404.00 4713.50,398.00
             4721.00,392.00 4739.00,380.00 4748.00,374.00
             4757.00,368.00 4776.50,356.00 4788.50,350.00
             4800.50,344.00 4853.00,323.00 4854.50,323.00
             4856.00,323.00 4878.50,311.00 4893.50,308.00
             4908.50,305.00 4928.00,300.50 4928.00,300.50
             4928.00,300.50 4944.50,293.00 4952.00,293.00
             4959.50,293.00 4986.50,288.50 4986.50,288.50
             4986.50,288.50 5021.00,278.00 5024.00,278.00
             5027.00,278.00 5042.00,276.50 5049.50,276.50
             5057.00,276.50 5085.50,258.50 5085.50,258.50
             5085.50,258.50 5115.50,242.00 5117.00,240.50
             5118.50,239.00 5153.00,219.50 5154.50,218.00
             5156.00,216.50 5169.50,207.50 5174.00,204.50
             5178.50,201.50 5211.50,188.00 5211.50,188.00
             5211.50,188.00 5225.00,188.00 5235.50,188.00
             5246.00,188.00 5265.50,183.50 5271.50,182.00
             5277.50,180.50 5289.50,171.50 5295.50,168.50
             5301.50,165.50 5333.00,162.50 5337.50,162.50
             5342.00,162.50 5363.00,168.50 5367.50,168.50
             5372.00,168.50 5394.50,167.00 5403.50,165.50
             5412.50,164.00 5430.50,159.50 5453.00,158.00
             5475.50,156.50 5504.00,165.50 5505.50,167.00
             5507.00,168.50 5561.00,173.00 5564.00,174.50
             5567.00,176.00 5585.00,185.00 5586.50,186.50
             5588.00,188.00 5600.00,198.50 5600.00,198.50
             5600.00,198.50 5595.50,222.50 5595.50,222.50 Z" />
</svg>
