<?xml version="1.0" encoding="UTF-8" standalone="no"?>
<!DOCTYPE svg PUBLIC "-//W3C//DTD SVG 20010904//EN"
              "http://www.w3.org/TR/2001/REC-SVG-20010904/DTD/svg10.dtd">

<svg xmlns="http://www.w3.org/2000/svg"
     width="83.3333in" height="30.5556in"
     viewBox="0 0 6000 2200">
  <path id="hoodRight"
        fill="none" stroke="black" stroke-width="1"
        d="M 5631.50,209.00
           C 5631.50,209.00 5657.00,210.50 5657.00,209.00
             5657.00,207.50 5667.50,203.00 5670.50,201.50
             5673.50,200.00 5685.50,198.50 5687.00,197.00
             5688.50,195.50 5705.00,195.50 5705.00,195.50
             5705.00,195.50 5715.50,204.50 5720.00,207.50
             5724.50,210.50 5733.50,225.50 5733.50,227.00
             5733.50,228.50 5736.50,245.00 5738.00,245.00
             5739.50,245.00 5750.00,258.50 5750.00,258.50
             5750.00,258.50 5768.00,269.00 5768.00,269.00
             5768.00,269.00 5780.00,269.00 5783.00,269.00
             5786.00,269.00 5796.50,276.50 5796.50,276.50
             5796.50,276.50 5811.50,290.00 5811.50,291.50
             5811.50,293.00 5819.00,312.50 5819.00,314.00
             5819.00,315.50 5828.00,335.00 5828.00,335.00
             5828.00,335.00 5832.50,345.50 5832.50,345.50
             5832.50,345.50 5831.00,362.00 5834.00,363.50
             5837.00,365.00 5840.00,377.00 5840.00,377.00
             5840.00,377.00 5825.00,383.00 5822.00,383.00
             5819.00,383.00 5790.50,389.00 5790.50,389.00
             5790.50,389.00 5745.50,375.50 5745.50,374.00
             5745.50,372.50 5745.50,371.00 5733.50,366.50
             5714.00,356.00 5705.00,347.00 5702.00,344.00
             5699.00,341.00 5693.00,339.50 5687.00,330.50
             5681.00,321.50 5664.50,300.50 5664.50,299.00
             5664.50,297.50 5640.50,270.50 5637.50,261.50
             5634.50,252.50 5630.00,236.00 5630.00,236.00
             5630.00,236.00 5631.50,209.00 5631.50,209.00 Z" />
</svg>
