<?xml version="1.0" encoding="UTF-8" standalone="no"?>
<!DOCTYPE svg PUBLIC "-//W3C//DTD SVG 20010904//EN"
              "http://www.w3.org/TR/2001/REC-SVG-20010904/DTD/svg10.dtd">

<svg xmlns="http://www.w3.org/2000/svg"
     width="83.3333in" height="30.5556in"
     viewBox="0 0 6000 2200">
  <path id="hoodUnder"
        fill="none" stroke="black" stroke-width="1"
        d="M 4007.00,791.00
           C 4007.00,791.00 4155.50,678.50 4155.50,678.50
             4155.50,678.50 4326.50,621.50 4326.50,621.50
             4326.50,621.50 4514.00,569.00 4514.00,569.00
             4514.00,569.00 4710.50,480.50 4710.50,480.50
             4710.50,480.50 5069.00,332.00 5069.00,332.00
             5069.00,332.00 5171.00,320.00 5171.00,320.00
             5171.00,320.00 5267.00,276.50 5267.00,276.50
             5267.00,276.50 5445.50,219.50 5445.50,219.50
             5445.50,219.50 5618.00,210.50 5618.00,210.50
             5618.00,210.50 5730.50,290.00 5730.50,290.00
             5730.50,290.00 5829.50,380.00 5829.50,380.00
             5829.50,380.00 5813.00,402.50 5813.00,402.50
             5813.00,402.50 5796.50,420.50 5796.50,420.50
             5796.50,420.50 5781.50,431.00 5781.50,431.00
             5781.50,431.00 5763.50,429.50 5760.50,429.50
             5757.50,429.50 5738.00,432.50 5738.00,432.50
             5738.00,432.50 5730.50,447.50 5729.00,449.00
             5727.50,450.50 5715.50,464.00 5712.50,465.50
             5709.50,467.00 5696.00,482.00 5693.00,483.50
             5690.00,485.00 5685.50,492.50 5676.50,497.00
             5667.50,501.50 5651.00,501.50 5648.00,501.50
             5645.00,501.50 5640.50,500.00 5628.50,503.00
             5616.50,506.00 5591.00,522.50 5589.50,522.50
             5588.00,522.50 5564.00,527.00 5561.00,527.00
             5558.00,527.00 5553.50,528.50 5534.00,536.00
             5507.00,549.50 5493.50,560.00 5492.00,560.00
             5490.50,560.00 5472.50,557.00 5468.00,557.00
             5463.50,557.00 5466.50,557.00 5448.50,557.00
             5430.50,557.00 5415.50,558.50 5403.50,558.50
             5391.50,558.50 5376.50,558.50 5372.00,557.00
             5367.50,555.50 5342.00,555.50 5340.50,555.50
             5339.00,555.50 5328.50,560.00 5316.50,569.00
             5304.50,578.00 5310.50,570.50 5295.50,582.50
             5280.50,594.50 5265.50,609.50 5259.50,614.00
             5253.50,618.50 5246.00,624.50 5243.00,627.50
             5240.00,630.50 5210.00,651.50 5208.50,651.50
             5207.00,651.50 5198.00,650.00 5190.50,651.50
             5183.00,653.00 5178.50,653.00 5171.00,656.00
             5151.50,662.00 5111.00,687.50 5105.00,687.50
             5099.00,687.50 5076.50,678.50 5073.50,678.50
             5070.50,678.50 5009.00,696.50 5007.50,696.50
             5006.00,696.50 5003.00,705.50 5001.50,705.50
             5000.00,705.50 4976.00,716.00 4976.00,716.00
             4976.00,716.00 4947.50,710.00 4938.50,710.00
             4929.50,710.00 4904.00,716.00 4904.00,716.00
             4904.00,716.00 4869.50,726.50 4869.50,726.50
             4869.50,726.50 4869.50,726.50 4860.50,731.00
             4851.50,735.50 4854.50,729.50 4836.50,743.00
             4814.00,758.00 4773.50,777.50 4770.50,779.00
             4767.50,780.50 4761.50,783.50 4749.50,788.00
             4737.50,792.50 4715.00,798.50 4709.00,800.00
             4703.00,801.50 4688.00,806.00 4688.00,806.00
             4688.00,806.00 4679.00,804.50 4673.00,807.50
             4667.00,810.50 4665.50,812.00 4653.50,815.00
             4641.50,818.00 4536.50,837.50 4533.50,837.50
             4530.50,837.50 4512.50,837.50 4509.50,837.50
             4506.50,837.50 4491.50,837.50 4487.00,837.50
             4482.50,837.50 4470.50,837.50 4460.00,840.50
             4449.50,843.50 4431.50,846.50 4428.50,852.50
             4425.50,858.50 4418.00,861.50 4415.00,863.00
             4412.00,864.50 4323.50,879.50 4317.50,881.00
             4311.50,882.50 4262.00,899.00 4256.00,896.00
             4250.00,893.00 4215.50,878.00 4208.00,875.00
             4200.50,872.00 4175.00,855.50 4175.00,855.50
             4175.00,855.50 4137.50,846.50 4136.00,846.50
             4134.50,846.50 4116.50,839.00 4116.50,839.00
             4116.50,839.00 4065.50,824.00 4065.50,824.00
             4065.50,824.00 4050.50,821.00 4049.00,821.00
             4047.50,821.00 4007.00,791.00 4007.00,791.00 Z
           M 4104.50,786.50
           C 4104.50,786.50 4139.00,767.00 4139.00,767.00
             4139.00,767.00 4164.50,749.00 4164.50,749.00
             4164.50,749.00 4191.50,740.00 4199.00,735.50
             4206.50,731.00 4199.00,729.50 4223.00,728.00
             4247.00,726.50 4271.00,728.00 4274.00,726.50
             4277.00,725.00 4307.00,704.00 4307.00,704.00
             4307.00,704.00 4332.50,693.50 4338.50,689.00
             4344.50,684.50 4364.00,675.50 4377.50,668.00
             4391.00,660.50 4445.00,654.50 4448.00,650.00
             4451.00,645.50 4493.00,618.50 4499.00,614.00
             4505.00,609.50 4569.50,584.00 4605.50,582.50
             4649.00,581.00 4665.50,584.00 4683.50,578.00
             4701.50,572.00 4712.00,567.50 4719.50,563.00
             4727.00,558.50 4734.50,564.50 4748.00,545.00
             4761.50,525.50 4793.00,500.00 4794.50,497.00
             4796.00,494.00 4841.00,480.50 4841.00,480.50
             4841.00,480.50 4907.00,471.50 4907.00,470.00
             4907.00,468.50 4908.50,459.50 4922.00,453.50
             4935.50,447.50 4964.00,440.00 4979.00,438.50
             4994.00,437.00 5003.00,437.00 5003.00,437.00
             5003.00,437.00 5036.00,405.50 5037.50,402.50
             5039.00,399.50 5051.00,392.00 5055.50,390.50
             5060.00,389.00 5079.50,387.50 5079.50,386.00
             5079.50,384.50 5129.00,366.50 5132.00,363.50M 4203.50,815.00
           C 4203.50,815.00 4221.50,794.00 4221.50,794.00
             4221.50,794.00 4263.50,773.00 4263.50,771.50
             4263.50,770.00 4280.00,750.50 4281.50,750.50
             4283.00,750.50 4299.50,747.50 4308.50,743.00
             4317.50,738.50 4344.50,725.00 4347.50,722.00
             4350.50,719.00 4365.50,699.50 4373.00,698.00
             4380.50,696.50 4389.50,696.50 4404.50,696.50
             4419.50,696.50 4469.00,698.00 4476.50,698.00
             4484.00,698.00 4479.50,698.00 4503.50,693.50
             4527.50,689.00 4571.00,666.50 4571.00,666.50
             4571.00,666.50 4598.00,665.00 4614.50,653.00
             4631.00,641.00 4632.50,627.50 4644.50,627.50
             4656.50,627.50 4682.00,609.50 4682.00,608.00
             4682.00,606.50 4691.00,603.50 4695.50,602.00
             4700.00,600.50 4731.50,596.00 4736.00,594.50
             4740.50,593.00 4757.00,593.00 4763.00,593.00
             4769.00,593.00 4791.50,591.50 4808.00,587.00
             4824.50,582.50 4835.00,581.00 4839.50,579.50
             4844.00,578.00 4875.50,563.00 4881.50,558.50M 4944.50,524.00
           C 4944.50,524.00 4955.00,501.50 4958.00,500.00
             4961.00,498.50 4974.50,491.00 4977.50,488.00
             4980.50,485.00 5000.00,479.00 5001.50,476.00
             5003.00,473.00 5021.00,471.50 5028.50,471.50
             5036.00,471.50 5073.50,473.00 5075.00,473.00
             5076.50,473.00 5094.50,474.50 5103.50,474.50
             5112.50,474.50 5121.50,474.50 5129.00,473.00
             5136.50,471.50 5145.50,467.00 5151.50,465.50
             5157.50,464.00 5168.00,453.50 5172.50,450.50
             5177.00,447.50 5187.50,435.50 5192.00,434.00
             5196.50,432.50 5244.50,422.00 5244.50,422.00
             5244.50,422.00 5318.00,404.00 5318.00,404.00
             5318.00,404.00 5333.00,390.50 5336.00,387.50
             5339.00,384.50 5348.00,377.00 5354.00,375.50
             5360.00,374.00 5367.50,375.50 5387.00,371.00
             5414.00,365.00 5445.50,359.00 5465.00,348.50
             5471.00,347.00 5480.00,345.50 5487.50,341.00
             5495.00,336.50 5511.50,323.00 5514.50,317.00
             5517.50,311.00 5517.50,308.00 5523.50,303.50
             5529.50,299.00 5538.50,296.00 5544.50,291.50
             5561.00,281.00 5580.50,276.50 5582.00,275.00M 4245.50,831.50
           C 4245.50,830.00 4256.00,819.50 4260.50,816.50
             4265.00,813.50 4292.00,804.50 4305.50,804.50
             4319.00,804.50 4347.50,801.50 4347.50,800.00
             4347.50,798.50 4385.00,780.50 4385.00,779.00
             4385.00,777.50 4397.00,771.50 4404.50,768.50
             4412.00,765.50 4424.00,759.50 4424.00,759.50
             4424.00,759.50 4454.00,744.50 4458.50,743.00
             4463.00,741.50 4475.00,740.00 4479.50,737.00
             4484.00,734.00 4499.00,731.00 4506.50,729.50
             4514.00,728.00 4517.00,726.50 4524.50,726.50
             4541.00,726.50 4560.50,726.50 4566.50,726.50
             4572.50,726.50 4577.00,728.00 4583.00,726.50
             4611.50,705.50 4628.00,690.50 4632.50,687.50
             4637.00,684.50 4646.00,678.50 4646.00,678.50
             4646.00,678.50 4683.50,659.00 4695.50,657.50
             4707.50,656.00 4718.00,654.50 4718.00,654.50
             4718.00,654.50 4758.50,644.00 4758.50,644.00
             4758.50,644.00 4760.00,641.00 4767.50,644.00
             4775.00,647.00 4782.50,645.50 4796.00,645.50
             4809.50,645.50 4826.00,648.50 4833.50,647.00
             4841.00,645.50 4847.00,645.50 4856.00,641.00
             4865.00,636.50 4884.50,632.00 4884.50,632.00
             4884.50,632.00 4910.00,617.00 4916.00,615.50
             4922.00,614.00 4947.50,614.00 4950.50,614.00
             4953.50,614.00 4958.00,611.00 4964.00,608.00
             4970.00,605.00 4997.00,602.00 5018.00,602.00
             5058.50,594.50 5060.00,585.50 5072.00,581.00
             5084.00,576.50 5094.50,572.00 5102.00,572.00
             5109.50,572.00 5129.00,564.50 5133.50,563.00
             5138.00,561.50 5168.00,552.50 5168.00,552.50
             5168.00,552.50 5210.00,546.50 5210.00,546.50
             5210.00,546.50 5249.00,537.50 5249.00,537.50
             5249.00,537.50 5268.50,506.00 5282.00,500.00
             5295.50,494.00 5294.00,491.00 5307.50,488.00
             5321.00,485.00 5340.50,479.00 5340.50,479.00
             5340.50,479.00 5375.00,470.00 5382.50,470.00
             5390.00,470.00 5397.50,468.50 5405.00,462.50
             5412.50,456.50 5423.00,447.50 5436.50,441.50
             5450.00,435.50 5471.00,429.50 5480.00,428.00
             5489.00,426.50 5502.50,425.00 5513.00,423.50
             5523.50,422.00 5537.00,426.50 5547.50,416.00
             5558.00,405.50 5580.50,390.50 5585.00,390.50
             5589.50,390.50 5619.50,384.50 5619.50,384.50
             5619.50,384.50 5640.50,362.00 5640.50,362.00M 4955.00,566.00
           C 4955.00,566.00 4977.50,567.50 4980.50,564.50
             4983.50,561.50 5009.00,563.00 5012.00,563.00
             5015.00,563.00 5028.50,564.50 5033.00,563.00
             5037.50,561.50 5061.50,546.50 5061.50,543.50
             5061.50,540.50 5081.00,525.50 5094.50,521.00
             5108.00,516.50 5097.50,515.00 5120.00,513.50
             5142.50,512.00 5162.00,513.50 5172.50,512.00
             5183.00,510.50 5202.50,510.50 5205.50,507.50
             5208.50,504.50 5223.50,494.00 5229.50,492.50
             5235.50,491.00 5258.00,491.00 5258.00,491.00M 4341.50,843.50
           C 4341.50,843.50 4376.00,831.50 4377.50,830.00
             4379.00,828.50 4404.50,822.50 4409.00,821.00
             4413.50,819.50 4424.00,821.00 4428.50,819.50
             4433.00,818.00 4452.50,810.50 4454.00,810.50
             4455.50,810.50 4470.50,801.50 4470.50,798.50
             4470.50,795.50 4500.50,789.50 4502.00,789.50
             4503.50,789.50 4520.00,788.00 4523.00,786.50
             4526.00,785.00 4544.00,779.00 4548.50,777.50
             4553.00,776.00 4565.00,773.00 4575.50,771.50
             4586.00,770.00 4607.00,767.00 4610.00,765.50
             4613.00,764.00 4635.50,762.50 4641.50,762.50
             4647.50,762.50 4649.00,764.00 4661.00,764.00
             4673.00,764.00 4706.00,756.50 4706.00,756.50
             4706.00,756.50 4749.50,741.50 4749.50,741.50
             4749.50,741.50 4761.50,731.00 4763.00,729.50
             4764.50,728.00 4766.00,728.00 4779.50,725.00
             4793.00,722.00 4808.00,722.00 4818.50,722.00
             4829.00,722.00 4833.50,719.00 4838.00,717.50
             4842.50,716.00 4865.00,707.00 4871.00,707.00M 4565.00,755.00
           C 4565.00,755.00 4611.50,746.00 4611.50,746.00
             4611.50,746.00 4632.50,729.50 4632.50,729.50
             4632.50,729.50 4646.00,716.00 4646.00,716.00
             4646.00,716.00 4668.50,711.50 4670.00,711.50
             4671.50,711.50 4680.50,714.50 4685.00,711.50
             4689.50,708.50 4703.00,701.00 4707.50,698.00
             4712.00,695.00 4724.00,689.00 4733.00,692.00
             4742.00,695.00 4746.50,698.00 4754.00,698.00
             4761.50,698.00 4766.00,701.00 4772.00,695.00
             4778.00,689.00 4797.50,687.50 4800.50,690.50
             4803.50,693.50 4814.00,689.00 4821.50,687.50
             4829.00,686.00 4836.50,675.50 4847.00,675.50
             4857.50,675.50 4878.50,675.50 4895.00,674.00
             4911.50,672.50 4941.50,672.50 4941.50,672.50
             4941.50,672.50 4961.00,653.00 4964.00,651.50
             4967.00,650.00 4992.50,647.00 4994.00,647.00
             4995.50,647.00 5043.50,639.50 5043.50,639.50
             5043.50,639.50 5055.50,629.00 5060.00,626.00
             5064.50,623.00 5064.50,620.00 5078.00,618.50
             5091.50,617.00 5114.00,615.50 5117.00,615.50
             5120.00,615.50 5154.50,612.50 5156.00,609.50
             5168.00,603.50 5192.00,599.00 5193.50,597.50
             5195.00,596.00 5204.00,584.00 5205.50,582.50
             5207.00,581.00 5219.00,573.50 5220.50,573.50
             5222.00,573.50 5243.00,564.50 5243.00,564.50
             5243.00,564.50 5276.00,551.00 5279.00,548.00
             5282.00,545.00 5291.00,537.50 5298.50,534.50
             5306.00,531.50 5327.00,522.50 5331.50,521.00
             5336.00,519.50 5343.50,515.00 5348.00,515.00
             5352.50,515.00 5373.50,513.50 5378.00,513.50
             5382.50,513.50 5409.50,512.00 5415.50,510.50
             5421.50,509.00 5442.50,507.50 5453.00,507.50
             5463.50,507.50 5466.50,509.00 5478.50,503.00
             5490.50,497.00 5504.00,489.50 5508.50,486.50
             5513.00,483.50 5525.00,476.00 5526.50,476.00" />
</svg>
