<?xml version="1.0" encoding="UTF-8" standalone="no"?>
<!DOCTYPE svg PUBLIC "-//W3C//DTD SVG 20010904//EN"
              "http://www.w3.org/TR/2001/REC-SVG-20010904/DTD/svg10.dtd">

<svg xmlns="http://www.w3.org/2000/svg"
     width="83.3333in" height="30.5556in"
     viewBox="0 0 6000 2200">
  <path id="houseHindFace"
        fill="none" stroke="black" stroke-width="1"
        d="M 395.04,1768.53
           C 393.18,1768.53 372.63,1770.39 359.53,1772.25
             351.18,1773.44 366.98,1625.30 353.94,1504.32
             346.66,1436.75 318.77,1375.72 300.71,1358.67
             289.47,1360.54 255.88,1325.08 216.65,1341.85
             212.53,1341.40 176.90,1373.86 174.59,1406.26
             167.53,1506.75 194.23,1708.80 188.59,1708.80
             181.14,1708.80 180.18,1783.49 174.59,1783.49
             169.00,1783.49 137.22,1787.21 137.22,1785.35
             137.22,1783.49 133.49,1759.21 133.49,1749.84
             133.49,1740.53 118.53,1656.47 120.39,1645.29
             122.31,1634.11 129.76,1591.15 129.76,1565.01
             129.76,1538.87 127.90,1477.23 127.90,1456.68
             127.90,1436.18 122.31,1391.36 122.31,1365.22
             122.31,1339.08 116.67,1256.89 116.67,1253.16
             116.67,1249.43 114.80,1202.75 114.80,1202.75
             114.80,1202.75 99.84,1144.88 99.84,1139.29
             99.84,1133.65 99.84,1101.92 99.84,1079.51
             99.84,1057.10 92.39,1058.96 99.84,1038.47
             107.35,1017.92 96.12,960.00 96.12,954.41
             96.12,948.82 94.25,918.95 94.25,900.27
             94.25,881.58 84.94,842.40 84.94,831.17
             84.94,819.99 81.21,816.26 84.94,793.85
             88.67,771.44 81.21,749.03 75.57,743.44
             69.98,737.85 55.02,713.57 53.16,704.20
             51.29,694.89 41.98,681.79 88.67,687.44
             135.35,693.03 174.59,689.30 193.27,685.52
             211.96,681.79 236.24,683.65 254.92,678.06
             273.61,672.48 282.92,670.61 305.39,668.75
             355.80,666.89 357.67,670.61 368.90,665.02
             380.08,659.38 383.81,665.02 395.04,663.16
             406.22,661.24 408.14,603.38 408.14,601.51
             408.14,599.65 464.14,539.92 469.78,539.92
             475.37,539.92 546.34,552.96 559.43,552.96
             572.53,552.96 686.45,551.10 686.45,551.10
             686.45,551.10 824.71,567.92 824.71,567.92
             824.71,567.92 807.89,709.79 807.89,709.79
             807.89,709.79 798.57,771.44 798.57,773.30
             798.57,775.17 806.02,801.30 809.75,801.30
             813.47,801.30 835.89,801.30 860.22,801.30
             884.49,801.30 876.98,805.03 912.49,808.76
             948.00,812.54 983.51,816.26 990.96,812.54
             998.42,808.76 1058.20,810.62 1067.57,810.62
             1076.89,810.62 1075.02,806.89 1097.44,810.62
             1119.85,814.40 1157.22,814.40 1179.63,814.40
             1202.04,814.40 1231.96,808.76 1237.55,806.89
             1243.14,805.03 1291.75,803.17 1273.06,825.58
             1254.38,847.99 1239.42,840.54 1239.42,859.17
             1239.42,877.85 1235.69,907.72 1235.69,924.54
             1235.69,941.37 1226.32,993.64 1228.18,1004.82
             1230.10,1016.05 1237.55,1036.60 1237.55,1049.64
             1237.55,1062.74 1237.55,1092.61 1237.55,1100.06
             1237.55,1107.51 1246.87,1154.20 1246.87,1161.70
             1246.87,1169.16 1246.87,1210.26 1248.79,1236.39
             1250.65,1262.53 884.49,1247.57 884.49,1247.57
             884.49,1247.57 755.55,1221.43 755.55,1221.43
             755.55,1221.43 522.06,1221.43 518.33,1221.43
             514.61,1221.43 452.96,1243.85 452.96,1243.85
             452.96,1243.85 421.18,1269.98 419.31,1277.44
             417.45,1284.94 404.35,1370.81 402.49,1372.67
             400.63,1374.54 402.49,1503.36 400.63,1505.23
             398.77,1507.09 400.63,1660.25 400.63,1660.25
             400.63,1660.25 396.90,1768.53 395.04,1768.53 Z
           M 395.94,773.30
           C 395.94,773.30 353.94,762.12 348.35,762.12
             342.71,762.12 295.12,759.30 292.29,759.30
             289.47,759.30 239.06,759.30 239.06,759.30
             239.06,759.30 216.65,750.89 208.23,764.89
             199.82,778.89 199.82,790.13 199.82,801.30
             199.82,812.54 197.00,840.54 197.00,854.54
             197.00,868.54 202.59,888.13 208.23,902.13
             213.82,916.13 216.65,930.13 216.65,938.54
             216.65,946.95 213.82,949.78 230.65,958.13
             247.47,966.54 253.06,969.37 281.06,966.54
             309.12,963.78 311.88,960.96 331.53,963.78
             351.12,966.54 359.53,955.37 373.53,955.37
             401.59,949.78 404.35,907.72 404.35,899.36
             404.35,890.95 407.18,865.72 407.18,862.95
             407.18,860.13 410.00,823.72 412.77,823.72
             415.59,823.72 395.94,773.30 395.94,773.30 Z
           M 956.41,868.54
           C 956.41,868.54 917.18,868.54 917.18,868.54
             917.18,868.54 905.95,868.54 894.77,868.54
             883.53,868.54 875.12,868.54 875.12,888.13
             875.12,907.72 872.36,902.13 872.36,924.54
             872.36,946.95 877.94,969.37 883.53,986.19
             889.12,1002.96 889.12,1019.78 889.12,1028.19
             914.36,1042.19 964.83,1033.78 964.83,1033.78
             964.83,1033.78 987.24,1039.37 990.00,1039.37
             992.83,1039.37 1006.83,1036.60 1006.83,1022.55
             1006.83,1008.55 1006.83,966.54 1006.83,966.54
             1006.83,966.54 998.42,899.36 998.42,890.95
             998.42,882.54 956.41,868.54 956.41,868.54 Z
           M 1174.95,865.72
           C 1174.95,865.72 1141.36,868.54 1141.36,868.54
             1141.36,868.54 1116.12,865.72 1113.30,865.72
             1110.53,865.72 1088.12,865.72 1082.48,865.72
             1065.71,882.54 1060.06,871.31 1065.71,907.72
             1071.30,966.54 1071.30,980.54 1071.30,988.96
             1071.30,997.37 1076.89,1016.96 1076.89,1019.78
             1076.89,1022.55 1074.06,1047.78 1076.89,1047.78
             1079.71,1047.78 1102.12,1044.96 1113.30,1042.19
             1124.53,1039.37 1152.53,1036.60 1160.95,1036.60
             1169.36,1036.60 1194.59,1033.78 1194.59,1033.78
             1194.59,1033.78 1203.00,1002.96 1203.00,1000.19
             1203.00,997.37 1203.00,958.13 1203.00,952.54
             1203.00,946.95 1203.00,927.37 1203.00,921.72
             1203.00,916.13 1189.00,879.72 1189.00,876.95
             1189.00,874.13 1174.95,865.72 1174.95,865.72 Z
           M 465.38,1036.49
           C 465.38,1036.49 834.19,1012.05 834.19,1012.05
             834.19,1012.05 822.90,899.14 822.90,899.14
             822.90,899.14 804.10,831.39 804.10,831.39
             804.10,831.39 785.30,754.22 785.30,754.22
             785.30,754.22 796.59,678.97 796.59,677.05
             796.59,675.19 802.24,588.64 798.46,586.72
             794.68,584.86 732.58,567.92 732.58,567.92
             732.58,567.92 640.39,567.92 640.39,567.92
             640.39,567.92 487.96,564.14 487.96,564.14
             487.96,564.14 448.44,579.21 448.44,579.21
             448.44,579.21 433.37,611.22 433.37,611.22
             433.37,611.22 422.08,650.74 420.22,650.74
             418.36,650.74 416.44,729.78 416.44,729.78
             416.44,729.78 431.51,857.70 431.51,857.70
             431.51,857.70 425.86,931.09 425.86,931.09
             425.86,931.09 433.37,1010.13 433.37,1010.13
             433.37,1010.13 465.38,1036.49 465.38,1036.49 Z
           M 163.41,1852.53
           C 163.41,1852.53 157.77,1856.26 140.94,1852.53
             124.18,1848.80 118.53,1852.53 112.94,1852.53
             99.84,1850.67 99.84,1861.90 99.84,1831.98
             99.84,1802.12 101.76,1798.39 103.63,1781.57
             105.49,1764.80 105.49,1746.12 105.49,1729.29
             105.49,1712.53 103.63,1701.29 103.63,1678.88
             103.63,1656.47 105.49,1617.29 103.63,1598.60
             101.76,1579.92 94.25,1553.78 96.12,1537.01
             97.98,1520.19 86.80,1436.18 86.80,1432.40
             86.80,1428.68 92.39,1380.12 92.39,1380.12
             92.39,1380.12 84.94,1316.67 83.08,1307.30
             81.21,1297.98 83.08,1264.39 83.08,1260.67
             83.08,1256.89 83.08,1241.98 83.08,1238.26
             83.08,1234.47 66.25,1202.75 66.25,1191.57
             66.25,1180.33 66.25,1167.29 66.25,1167.29
             66.25,1167.29 60.67,1139.29 62.53,1133.65
             64.39,1128.06 126.04,1126.20 146.59,1126.20
             167.14,1126.20 193.27,1128.06 211.96,1133.65
             230.65,1139.29 273.61,1133.65 279.20,1133.65
             284.84,1133.65 294.16,1139.29 320.30,1135.57
             346.49,1131.78 367.04,1135.57 376.35,1135.57
             385.67,1135.57 417.45,1141.16 441.73,1135.57
             466.00,1129.92 587.43,1118.74 591.16,1118.74
             594.94,1118.74 718.24,1124.33 721.96,1122.47
             725.69,1120.61 815.34,1124.33 815.34,1124.33
             815.34,1124.33 891.94,1154.20 891.94,1156.06
             891.94,1157.92 890.08,1219.57 890.08,1219.57
             890.08,1219.57 921.87,1217.71 940.49,1217.71
             959.18,1217.71 1073.16,1202.75 1088.12,1202.75
             1103.02,1202.75 1174.04,1212.12 1174.04,1212.12
             1174.04,1212.12 1273.06,1225.16 1274.93,1225.16
             1276.79,1225.16 1308.52,1238.26 1310.44,1247.57
             1312.30,1256.89 1314.16,1301.71 1317.89,1324.12
             1321.61,1346.53 1321.61,1423.09 1321.61,1426.81
             1321.61,1430.54 1312.30,1497.77 1312.30,1509.01
             1312.30,1520.19 1319.75,1561.29 1319.75,1579.92
             1319.75,1598.60 1321.61,1634.11 1321.61,1650.88
             1321.61,1667.70 1332.85,1716.25 1332.85,1727.43
             1332.85,1738.66 1336.57,1792.80 1336.57,1792.80
             1336.57,1792.80 1325.34,1798.39 1308.52,1798.39
             1291.75,1798.39 1256.24,1792.80 1254.38,1790.94
             1252.51,1789.08 1250.65,1742.39 1250.65,1721.84
             1250.65,1701.29 1254.38,1688.25 1250.65,1662.11
             1246.87,1635.97 1239.42,1568.74 1239.42,1561.29
             1239.42,1553.78 1239.42,1535.15 1235.69,1516.46
             1231.96,1497.77 1218.87,1501.50 1218.87,1479.09
             1218.87,1456.68 1220.73,1430.54 1220.73,1423.09
             1220.73,1415.63 1243.14,1391.36 1213.28,1402.54
             1183.36,1413.77 1129.22,1410.05 1127.36,1410.05
             1125.44,1410.05 1069.43,1411.91 1063.79,1411.91
             1058.20,1411.91 1007.79,1402.54 1000.28,1398.81
             992.83,1395.09 970.42,1393.22 962.96,1391.36
             955.45,1389.50 949.87,1376.40 946.14,1396.95
             942.41,1417.50 940.49,1447.36 946.14,1462.32
             951.73,1477.23 964.83,1490.32 964.83,1509.01
             964.83,1527.64 966.69,1576.19 966.69,1583.70
             966.69,1591.15 962.96,1639.70 966.69,1658.39
             970.42,1677.02 981.59,1727.43 981.59,1729.29
             981.59,1731.16 983.51,1755.43 983.51,1761.08
             983.51,1766.66 981.59,1781.57 974.14,1781.57
             966.69,1781.57 901.32,1779.71 901.32,1777.84
             901.32,1775.98 880.77,1607.92 880.77,1607.92
             880.77,1607.92 826.57,1329.71 826.57,1325.99
             826.57,1322.26 820.98,1266.26 809.75,1262.53
             798.57,1258.75 508.96,1249.43 508.96,1249.43
             508.96,1249.43 413.73,1294.26 413.73,1294.26
             413.73,1294.26 421.18,1387.63 421.18,1391.36
             421.18,1395.09 406.22,1523.91 406.22,1525.78
             406.22,1527.64 417.45,1647.15 417.45,1650.88
             417.45,1654.60 441.73,1826.39 441.73,1826.39
             441.73,1826.39 404.35,1850.67 404.35,1850.67
             404.35,1850.67 387.59,1850.67 376.35,1850.67
             365.12,1850.67 355.80,1858.18 355.80,1841.35
             355.80,1824.53 355.80,1802.12 357.67,1785.35
             359.53,1768.53 357.67,1727.43 357.67,1708.80
             357.67,1690.11 359.53,1615.42 355.80,1598.60
             352.08,1581.78 350.22,1566.87 348.35,1538.87
             346.49,1510.87 348.35,1462.32 350.22,1443.64
             352.08,1424.95 350.22,1378.26 350.22,1378.26
             350.22,1378.26 337.12,1318.53 333.39,1311.08
             329.67,1303.57 325.94,1271.85 310.98,1266.26
             296.02,1260.67 245.61,1255.02 226.92,1258.75
             208.23,1262.53 197.00,1268.12 180.18,1281.16
             163.41,1294.26 146.59,1322.26 144.72,1327.85
             142.86,1333.44 131.63,1395.09 129.76,1402.54
             127.90,1410.05 135.35,1477.23 135.35,1494.05
             135.35,1510.87 140.94,1600.46 140.94,1609.84
             140.94,1619.15 157.77,1647.15 159.63,1682.60
             161.49,1718.11 161.49,1740.53 159.63,1757.29
             157.77,1774.12 163.41,1852.53 163.41,1852.53 Z
           M 331.53,109.52
           C 356.76,123.52 373.53,148.70 376.35,154.34
             379.18,159.93 401.59,201.93 401.59,201.93
             401.59,201.93 421.18,235.52 424.00,238.35
             426.77,241.17 485.65,288.76 485.65,294.35
             485.65,299.94 636.94,521.24 636.94,521.24
             636.94,521.24 514.67,493.18 457.59,518.41
             405.65,541.45 418.41,617.94 418.41,619.24
             418.41,622.06 424.00,661.24 412.77,661.24
             401.59,661.24 410.00,673.38 376.35,670.61
             342.71,667.79 334.30,663.16 309.12,668.75
             283.88,674.34 282.92,673.38 254.92,676.20
             226.92,679.02 174.59,680.89 160.59,680.89
             146.59,680.89 115.76,678.06 107.35,678.06
             98.94,678.06 68.12,678.06 62.53,675.30
             56.88,672.48 27.92,676.20 25.16,676.20
             22.33,676.20 51.29,641.65 59.71,616.47
             68.12,591.24 62.53,589.38 68.12,575.38
             73.71,561.37 71.84,551.10 86.80,536.14
             99.84,489.51 105.49,495.10 110.12,479.23
             166.18,398.00 155.00,375.58 163.41,370.00
             171.77,364.41 183.00,356.00 202.59,333.58
             241.82,291.58 227.82,305.58 227.82,285.94
             227.82,266.35 236.24,271.94 239.06,246.76
             267.06,185.11 292.29,159.93 295.12,157.11
             297.88,154.34 306.29,95.52 331.53,109.52 Z
           M 1074.06,417.59
           C 1074.06,417.59 1116.12,454.00 1116.12,468.00
             1116.12,482.00 1118.94,518.41 1141.36,540.83
             1163.77,563.24 1183.36,574.47 1191.77,594.06
             1200.18,613.65 1203.00,619.24 1222.59,652.89
             1242.24,686.48 1270.24,736.89 1278.65,748.07
             1287.06,759.30 1309.48,770.48 1309.48,776.13
             1309.48,781.71 1306.65,806.89 1295.48,806.89
             1284.24,806.89 1241.28,813.44 1207.63,805.03
             1174.04,796.62 1113.30,801.30 1102.12,801.30
             1090.89,801.30 1082.48,798.48 1032.06,801.30
             981.59,804.13 934.00,801.30 908.77,801.30
             883.53,801.30 827.47,801.30 824.71,798.48
             821.89,795.71 807.89,784.48 807.89,781.71
             807.89,778.89 821.89,669.65 824.71,666.89
             827.47,664.06 858.30,647.24 858.30,613.65
             858.30,580.06 844.30,487.65 844.30,473.59
             844.30,459.59 844.30,428.82 844.30,428.82
             844.30,428.82 880.77,426.00 894.77,428.82
             908.77,431.59 936.77,431.59 945.18,434.41
             953.59,437.18 992.83,437.18 1006.83,434.41
             1020.83,431.59 1074.06,417.59 1074.06,417.59 Z
           M 833.12,1058.96
           C 833.12,1058.96 861.12,1067.37 883.53,1064.60
             905.95,1061.78 953.59,1064.60 967.59,1064.60
             981.59,1064.60 1034.89,1064.60 1037.65,1064.60
             1040.47,1064.60 1057.30,1073.02 1085.30,1073.02
             1113.30,1073.02 1090.89,1073.02 1135.71,1078.60
             1180.59,1084.19 1186.18,1075.78 1200.18,1075.78
             1306.65,1162.61 1315.06,1182.20 1326.30,1196.20
             1337.48,1210.26 1354.30,1215.84 1359.89,1235.43
             1334.71,1266.26 1316.02,1253.16 1287.97,1251.30
             1271.20,1240.12 1261.83,1255.02 1241.28,1249.43
             1230.10,1241.02 1231.01,1229.84 1183.36,1229.84
             1135.71,1229.84 1113.30,1224.26 1096.53,1224.26
             1079.71,1224.26 1040.47,1224.26 1026.47,1224.26
             1012.42,1224.26 998.42,1215.84 970.42,1224.26
             942.41,1232.61 922.77,1246.61 911.59,1243.85
             900.36,1241.02 891.94,1252.26 883.53,1238.26
             875.12,1224.26 872.36,1224.26 863.94,1204.61
             855.53,1185.02 847.12,1145.79 847.12,1143.02
             847.12,1140.20 838.71,1098.19 838.71,1098.19
             838.71,1098.19 833.12,1058.96 833.12,1058.96 Z
           M 438.00,1126.20
           C 438.00,1126.20 384.77,1134.61 345.53,1134.61
             306.29,1134.61 281.06,1143.02 253.06,1140.20
             225.06,1137.43 149.35,1134.61 126.94,1131.78
             104.53,1129.02 73.71,1123.43 65.29,1117.78
             68.12,1095.37 90.53,1084.19 104.53,1075.78
             149.35,1047.78 163.41,1042.19 171.77,1033.78
             180.18,1025.37 177.41,1016.96 191.41,1008.55
             205.41,1000.19 202.59,980.54 236.24,977.78
             269.88,974.96 275.47,977.78 289.47,974.96
             303.47,972.13 353.94,969.37 356.76,969.37
             359.53,969.37 395.94,935.78 401.59,969.37
             407.18,1002.96 429.59,1047.78 432.41,1047.78
             435.18,1047.78 438.00,1126.20 438.00,1126.20 Z
           M 410.00,1152.33
           C 410.00,1152.33 391.31,1152.33 385.67,1152.33
             380.08,1152.33 367.04,1152.33 346.49,1152.33
             325.94,1152.33 286.71,1148.61 268.02,1154.20
             249.33,1159.79 217.55,1159.79 198.86,1156.06
             180.18,1152.33 159.63,1150.47 140.94,1150.47
             122.31,1150.47 84.94,1150.47 84.94,1156.06
             84.94,1161.70 92.39,1165.43 92.39,1185.98
             92.39,1206.47 92.39,1212.12 92.39,1217.71
             92.39,1223.30 92.39,1240.12 92.39,1240.12
             92.39,1240.12 83.08,1247.57 71.84,1238.26
             60.67,1228.89 51.29,1228.89 51.29,1221.43
             51.29,1213.98 55.02,1199.02 55.02,1184.06
             55.02,1169.16 68.12,1178.47 55.02,1157.92
             41.98,1137.43 36.33,1129.92 32.61,1120.61
             28.88,1111.29 23.29,1085.10 23.29,1085.10
             23.29,1085.10 36.33,1081.37 55.02,1085.10
             73.71,1088.88 92.39,1094.47 103.63,1096.33
             114.80,1098.19 114.80,1096.33 129.76,1096.33
             144.72,1096.33 157.77,1096.33 172.73,1096.33
             187.69,1096.33 195.14,1103.78 206.37,1107.51
             217.55,1111.29 215.69,1113.15 234.37,1113.15
             253.06,1113.15 264.29,1118.74 275.47,1113.15
             286.71,1107.51 286.71,1105.65 299.75,1103.78
             312.84,1101.92 327.80,1098.19 335.26,1101.92
             342.71,1105.65 355.80,1105.65 365.12,1105.65
             374.49,1105.65 387.59,1105.65 400.63,1105.65
             413.73,1105.65 410.00,1152.33 410.00,1152.33 Z
           M 862.08,1199.02
           C 862.08,1199.02 912.49,1202.75 916.22,1202.75
             919.95,1202.75 953.59,1200.88 962.96,1200.88
             972.28,1200.88 1020.83,1200.88 1022.69,1200.88
             1024.61,1200.88 1069.43,1197.16 1075.02,1195.30
             1080.61,1193.43 1117.98,1197.16 1123.57,1197.16
             1129.22,1197.16 1168.45,1200.88 1168.45,1200.88
             1168.45,1200.88 1217.00,1202.75 1217.00,1202.75
             1217.00,1202.75 1231.96,1206.47 1231.96,1206.47
             1231.96,1206.47 1278.65,1215.84 1280.51,1215.84
             1282.38,1215.84 1325.34,1228.89 1327.20,1228.89
             1329.07,1228.89 1349.61,1230.75 1349.61,1230.75
             1349.61,1230.75 1355.26,1245.71 1355.26,1251.30
             1355.26,1256.89 1342.16,1273.71 1340.30,1275.57
             1338.44,1277.44 1334.71,1290.53 1334.71,1292.40
             1334.71,1294.26 1325.34,1325.99 1325.34,1325.99
             1325.34,1325.99 1310.44,1318.53 1310.44,1318.53
             1310.44,1318.53 1310.44,1297.98 1310.44,1296.12
             1310.44,1294.26 1314.16,1279.30 1306.65,1269.98
             1299.20,1260.67 1282.38,1264.39 1276.79,1264.39
             1271.20,1264.39 1237.55,1266.26 1237.55,1266.26
             1237.55,1266.26 1207.63,1256.89 1205.77,1256.89
             1203.91,1256.89 1174.04,1245.71 1170.32,1245.71
             1166.54,1245.71 1131.08,1236.39 1123.57,1236.39
             1116.12,1236.39 1069.43,1232.61 1067.57,1230.75
             1065.71,1228.89 1022.69,1228.89 1017.10,1228.89
             1011.51,1228.89 985.38,1238.26 977.87,1243.85
             970.42,1249.43 938.63,1256.89 936.77,1256.89
             934.91,1256.89 916.22,1253.16 906.90,1253.16
             897.53,1253.16 869.53,1258.75 869.53,1258.75
             869.53,1258.75 862.08,1199.02 862.08,1199.02 Z
           M 404.35,703.30
           C 404.35,703.30 328.71,711.71 328.71,708.89
             328.71,706.07 295.12,700.48 272.65,697.65
             250.24,694.89 244.65,694.89 211.00,694.89
             177.41,694.89 163.41,694.89 140.94,694.89
             118.53,694.89 96.12,694.89 90.53,700.48
             82.12,734.07 82.12,745.30 84.94,764.89
             87.71,784.48 96.12,820.89 96.12,829.30
             96.12,837.72 96.12,860.13 96.12,868.54
             96.12,876.95 90.53,907.72 90.53,907.72
             90.53,907.72 70.94,874.13 70.94,871.31
             70.94,868.54 62.53,840.54 59.71,823.72
             56.88,806.89 45.70,776.13 40.12,770.48
             34.47,764.89 17.65,739.71 17.65,731.30
             17.65,722.89 12.06,655.65 12.06,655.65
             12.06,655.65 54.12,666.89 59.71,666.89
             65.29,666.89 79.29,669.65 90.53,669.65
             101.76,669.65 129.76,661.24 138.18,661.24
             146.59,661.24 166.18,655.65 166.18,652.89
             166.18,650.06 233.41,666.89 233.41,666.89
             233.41,666.89 264.29,669.65 272.65,661.24
             281.06,652.89 337.12,650.06 337.12,650.06
             337.12,650.06 393.18,650.06 393.18,650.06
             393.18,650.06 404.35,703.30 404.35,703.30 Z
           M 791.06,776.13
           C 791.06,776.13 866.71,776.13 866.71,776.13
             866.71,776.13 925.59,778.89 934.00,778.89
             942.41,778.89 1006.83,781.71 1006.83,781.71
             1006.83,781.71 1046.06,795.71 1057.30,790.13
             1068.48,784.48 1085.30,795.71 1102.12,795.71
             1118.94,795.71 1152.53,792.89 1158.18,790.13
             1163.77,787.30 1194.59,787.30 1197.36,787.30
             1200.18,787.30 1264.65,787.30 1264.65,787.30
             1264.65,787.30 1303.89,798.48 1303.89,798.48
             1303.89,798.48 1295.48,823.72 1287.06,834.89
             1278.65,846.13 1259.06,890.95 1259.06,890.95
             1259.06,890.95 1256.24,910.54 1253.42,910.54
             1250.65,910.54 1236.26,898.97 1236.26,898.97
             1236.26,898.97 1235.18,858.66 1235.18,855.84
             1235.18,853.02 1253.42,826.54 1253.42,823.72
             1253.42,820.89 1228.18,820.89 1225.42,820.89
             1222.59,820.89 1186.18,843.31 1177.77,843.31
             1169.36,843.31 1116.12,829.30 1116.12,829.30
             1116.12,829.30 1082.48,832.13 1079.71,829.30
             1076.89,826.54 1001.24,826.54 1001.24,826.54
             1001.24,826.54 964.83,834.89 964.83,834.89
             964.83,834.89 919.95,834.89 917.18,834.89
             914.36,834.89 897.53,829.30 897.53,829.30
             897.53,829.30 835.89,818.13 835.89,818.13
             835.89,818.13 816.30,832.13 816.30,832.13
             816.30,832.13 791.06,776.13 791.06,776.13 Z
           M 628.53,1843.22
           C 628.53,1843.22 564.12,1843.22 555.71,1843.22
             547.30,1843.22 404.35,1831.98 404.35,1829.22
             404.35,1826.39 412.77,1761.98 412.77,1761.98
             412.77,1761.98 421.18,1633.15 421.18,1630.33
             421.18,1627.56 438.00,1526.74 438.00,1521.09
             438.00,1515.50 426.77,1383.85 424.00,1369.85
             421.18,1355.85 398.77,1291.44 398.77,1288.67
             398.77,1285.85 390.35,1227.02 390.35,1227.02
             390.35,1227.02 381.94,1154.20 381.94,1154.20
             381.94,1154.20 387.59,1131.78 387.59,1115.02
             387.59,1098.19 384.77,1078.60 384.77,1047.78
             384.77,1016.96 384.77,994.55 384.77,972.13
             384.77,949.78 384.77,896.54 384.77,876.95
             384.77,857.31 384.77,801.30 384.77,798.48
             384.77,795.71 384.77,762.12 384.77,762.12
             384.77,762.12 387.59,736.89 384.77,725.71
             398.77,652.89 335.26,656.89 322.78,653.17
             322.78,653.17 319.56,636.80 319.05,618.34
             318.55,599.37 320.80,578.14 317.53,568.83
             317.64,567.25 301.04,561.60 282.92,562.33
             255.43,563.41 222.24,571.65 222.24,571.65
             222.24,571.65 269.88,487.65 269.88,487.65
             269.88,487.65 317.53,431.59 323.12,426.00
             328.71,420.41 325.94,409.17 351.12,389.59
             376.35,370.00 410.00,341.99 410.00,341.99
             410.00,341.99 463.24,308.35 463.24,302.76
             463.24,297.17 499.65,252.35 510.88,243.93
             522.06,235.52 541.71,207.52 547.30,201.93
             552.88,196.34 566.88,176.75 569.71,176.75
             572.53,176.75 620.12,193.52 625.77,201.93
             631.35,210.34 679.00,232.76 698.59,252.35
             718.24,271.94 740.65,297.17 746.24,302.76
             751.83,308.35 807.89,353.17 819.12,367.17
             830.30,381.17 863.94,409.17 869.53,417.59
             875.12,426.00 903.18,437.18 922.77,456.82
             942.41,476.41 959.18,507.24 978.83,521.24
             998.42,535.24 1029.24,568.83 1023.65,568.83
             1018.06,568.83 970.42,560.41 948.00,560.41
             925.59,560.41 911.59,580.06 911.59,582.83
             911.59,585.65 914.36,599.65 917.18,619.24
             924.35,671.85 919.95,644.47 880.77,666.89
             877.94,664.06 796.65,669.65 833.12,865.72
             833.12,885.31 827.47,913.36 833.12,927.37
             838.71,941.37 849.94,991.78 849.94,1005.78
             849.94,1019.78 863.94,1061.78 866.71,1070.19
             869.53,1078.60 877.94,1126.20 877.94,1129.02
             877.94,1131.78 872.36,1171.02 872.36,1187.84
             872.36,1204.61 872.36,1274.67 872.36,1277.44
             872.36,1280.26 886.36,1283.02 877.94,1319.44
             869.53,1355.85 869.53,1367.08 869.53,1375.50
             869.53,1383.85 875.12,1453.91 875.12,1470.68
             875.12,1487.50 875.12,1529.50 875.12,1549.15
             875.12,1568.74 891.94,1647.15 891.94,1661.15
             890.82,1674.81 883.31,1680.35 894.77,1719.98
             894.77,1756.39 914.36,1767.57 914.36,1775.98
             914.36,1784.39 905.95,1784.39 877.94,1806.80
             849.94,1829.22 628.53,1843.22 628.53,1843.22 Z
           M 454.82,966.54
           C 454.82,966.54 457.59,966.54 477.24,966.54
             496.83,966.54 510.88,966.54 527.65,963.78
             544.47,960.96 550.06,960.96 564.12,960.96
             578.12,960.96 597.71,958.13 603.35,960.96
             608.94,963.78 622.94,963.78 634.18,963.78
             645.36,963.78 670.59,963.78 681.77,963.78
             693.00,963.78 695.82,960.96 715.41,960.96
             735.00,960.96 765.83,969.37 768.65,969.37
             771.47,969.37 788.30,969.37 796.65,969.37
             813.47,944.13 793.88,910.54 788.30,890.95
             782.65,871.31 777.06,854.54 777.06,843.31
             777.06,832.13 782.65,804.13 777.06,790.13
             771.47,776.13 768.65,776.13 771.47,756.48
             777.06,700.48 774.24,678.06 774.24,666.89
             774.24,655.65 777.06,633.24 777.06,630.47
             777.06,627.65 777.06,608.06 777.06,605.24
             777.06,602.47 751.83,588.47 749.06,585.65
             746.24,582.83 729.41,582.83 712.59,588.47
             695.82,594.06 659.36,580.06 648.18,591.24
             636.94,602.47 603.35,588.47 594.94,588.47
             586.53,588.47 566.88,588.47 555.71,588.47
             544.47,588.47 533.29,588.47 519.24,588.47
             505.24,588.47 471.65,585.65 466.00,585.65
             446.41,594.06 446.41,602.47 446.41,613.65
             446.41,624.89 443.59,647.24 443.59,655.65
             443.59,664.06 435.18,748.07 435.18,748.07
             435.18,748.07 441.73,767.71 441.73,784.48
             441.73,801.30 447.32,824.68 447.32,833.03
             447.32,841.44 443.59,860.13 443.59,871.31
             443.59,882.54 454.82,966.54 454.82,966.54 Z
           M 873.71,1614.18
           C 873.71,1614.18 849.27,1283.02 849.27,1283.02
             849.27,1283.02 732.41,1240.51 615.94,1235.94
             517.54,1232.10 416.44,1266.09 416.44,1266.09
             416.44,1266.09 440.94,1405.30 440.94,1405.30
             440.94,1405.30 450.31,1478.69 450.31,1478.69
             450.31,1478.69 442.80,1585.96 442.80,1585.96
             442.80,1585.96 431.51,1710.15 431.51,1710.15
             431.51,1710.15 433.37,1802.40 433.37,1802.40
             433.37,1802.40 537.08,1820.35 630.96,1819.34
             708.70,1818.49 779.66,1798.62 779.66,1798.62
             779.66,1798.62 826.68,1779.82 826.68,1779.82
             826.68,1779.82 885.00,1749.67 885.00,1749.67M 538.88,1983.28
           C 538.88,1983.28 513.65,1952.45 502.47,1946.87
             491.24,1941.22 438.00,1893.63 435.18,1893.63
             432.41,1893.63 404.35,1876.81 404.35,1871.22
             404.35,1865.63 404.35,1868.39 404.35,1837.63
             404.35,1806.80 393.18,1784.39 393.18,1756.39
             393.18,1728.39 398.77,1697.57 401.59,1663.98
             404.35,1630.33 404.35,1591.15 404.35,1577.15
             404.35,1563.15 404.35,1532.32 401.59,1495.91
             398.77,1459.50 404.35,1400.67 404.35,1389.50
             404.35,1378.26 398.77,1353.08 395.94,1319.44
             393.18,1285.85 393.18,1263.43 390.35,1243.85
             387.59,1224.26 395.94,1210.26 424.00,1207.43
             452.00,1204.61 508.06,1182.20 538.88,1185.02
             569.71,1187.84 572.53,1190.61 603.35,1190.61
             634.18,1190.61 648.18,1190.61 684.59,1187.84
             721.00,1185.02 788.30,1162.61 793.88,1168.20
             799.47,1173.84 824.71,1179.43 838.71,1193.43
             852.71,1207.43 855.53,1187.84 869.53,1224.26
             883.53,1260.67 875.12,1241.02 889.12,1285.85
             903.18,1330.67 886.36,1355.85 883.53,1389.50
             880.77,1423.09 891.94,1493.09 891.94,1512.74
             891.94,1532.32 905.95,1610.74 911.59,1644.33
             917.18,1677.98 925.59,1745.16 936.77,1767.57
             948.00,1789.98 950.77,1817.98 953.59,1834.80
             917.18,1896.45 917.18,1910.45 900.36,1927.22
             883.53,1944.04 847.12,1980.46 835.89,1983.28
             824.71,1986.04 796.65,1986.04 760.24,1986.04
             723.83,1986.04 712.59,1969.22 693.00,1969.22
             673.36,1969.22 679.00,1955.22 642.53,1972.04
             606.12,1988.87 538.88,1983.28 538.88,1983.28 Z
           M 603.35,1778.80
           C 603.35,1778.80 631.35,1778.80 642.53,1784.39
             653.77,1789.98 665.00,1792.80 679.00,1792.80
             693.00,1792.80 723.83,1787.21 732.24,1781.57
             740.65,1775.98 754.65,1767.57 760.24,1764.80
             765.83,1761.98 765.83,1745.16 768.65,1733.98
             771.47,1722.80 771.47,1717.15 771.47,1700.39
             771.47,1683.56 757.47,1661.15 749.06,1644.33
             740.65,1627.56 740.65,1593.92 740.65,1577.15
             740.65,1560.33 737.83,1521.09 737.83,1504.32
             737.83,1487.50 737.83,1476.32 737.83,1465.09
             737.83,1453.91 737.83,1451.09 737.83,1423.09
             737.83,1395.09 723.83,1358.67 723.83,1353.08
             723.83,1347.49 718.24,1331.57 723.83,1325.99
             729.41,1320.40 725.69,1319.44 725.69,1305.44
             725.69,1291.44 719.14,1276.53 710.73,1290.53
             702.32,1304.53 694.87,1302.67 686.45,1311.08
             678.04,1319.44 662.18,1325.08 656.59,1325.08
             650.94,1325.08 631.35,1325.08 628.53,1325.08
             625.77,1325.08 625.77,1350.26 625.77,1361.50
             625.77,1372.67 625.77,1411.91 625.77,1411.91
             625.77,1411.91 628.53,1451.09 622.94,1465.09
             617.35,1479.09 617.35,1507.09 617.35,1515.50
             617.35,1523.91 614.53,1571.56 611.71,1574.33
             608.94,1577.15 594.94,1619.15 594.94,1621.97
             594.94,1624.74 597.71,1666.74 597.71,1686.39
             600.53,1725.57 597.71,1756.39 597.71,1756.39
             597.71,1756.39 603.35,1778.80 603.35,1778.80 Z
           M 443.59,1736.80
           C 443.59,1736.80 452.00,1733.98 460.41,1736.80
             468.82,1739.57 480.06,1759.21 485.65,1759.21
             491.24,1759.21 505.24,1759.21 510.88,1759.21
             516.47,1759.21 530.47,1750.80 538.88,1756.39
             547.30,1761.98 566.88,1745.16 561.30,1717.15
             555.71,1689.15 561.30,1669.56 555.71,1641.56
             550.06,1613.56 547.30,1579.92 550.06,1565.91
             552.88,1551.91 572.53,1521.09 572.53,1498.73
             572.53,1476.32 566.88,1434.32 564.12,1423.09
             561.30,1411.91 547.30,1392.26 555.71,1372.67
             564.12,1353.08 564.12,1319.44 564.12,1305.44
             564.12,1291.44 561.30,1274.67 552.88,1274.67
             544.47,1274.67 519.24,1255.02 508.06,1263.43
             496.83,1271.85 474.41,1291.44 474.41,1294.26
             474.41,1297.08 452.00,1313.85 452.00,1325.08
             452.00,1336.26 457.59,1375.50 460.41,1389.50
             463.24,1403.50 463.24,1420.26 466.00,1434.32
             468.82,1448.32 466.00,1493.09 466.00,1493.09
             466.00,1493.09 466.00,1579.92 460.41,1585.56
             454.82,1591.15 457.59,1630.33 454.82,1647.15
             452.00,1663.98 454.82,1680.74 452.00,1689.15
             449.24,1697.57 443.59,1736.80 443.59,1736.80 Z
           M 799.47,1753.57
           C 799.47,1753.57 833.12,1739.57 835.89,1736.80
             838.71,1733.98 852.71,1731.16 861.12,1728.39
             869.53,1725.57 880.77,1705.98 880.77,1705.98
             880.77,1705.98 877.94,1644.33 875.12,1641.56
             872.36,1638.74 855.53,1591.15 855.53,1591.15
             855.53,1591.15 833.12,1515.50 833.12,1515.50
             833.12,1515.50 819.12,1465.09 819.12,1459.50
             819.12,1453.91 819.12,1434.32 819.12,1434.32
             819.12,1434.32 820.98,1385.77 820.98,1385.77
             820.98,1385.77 809.75,1310.12 809.75,1307.30
             809.75,1304.53 764.92,1296.12 764.92,1296.12
             764.92,1296.12 764.92,1319.44 764.92,1327.85
             764.92,1336.26 771.47,1358.67 771.47,1364.26
             771.47,1369.85 782.65,1383.85 782.65,1409.09
             782.65,1434.32 788.30,1462.32 785.47,1476.32
             782.65,1490.32 771.47,1529.50 771.47,1535.15
             771.47,1540.74 771.47,1563.15 771.47,1563.15
             771.47,1563.15 785.47,1607.92 785.47,1610.74
             785.47,1613.56 793.88,1624.74 793.88,1638.74
             793.88,1652.74 793.88,1691.98 793.88,1691.98
             793.88,1691.98 799.47,1753.57 799.47,1753.57 Z
           M 594.94,997.37
           C 611.71,997.37 623.90,978.68 637.90,978.68
             651.90,978.68 686.45,963.78 710.73,984.27
             895.67,1146.74 900.36,1176.61 900.36,1187.84
             900.36,1199.02 925.59,1245.71 925.59,1251.30
             925.59,1256.89 908.77,1275.57 876.98,1260.67
             848.98,1232.61 828.43,1236.39 794.79,1236.39
             761.20,1236.39 720.10,1184.06 669.63,1195.30
             619.22,1206.47 589.30,1213.98 550.06,1213.98
             510.88,1213.98 506.20,1221.43 475.37,1221.43
             444.55,1221.43 432.41,1231.71 421.18,1240.12
             384.77,1245.71 358.63,1237.30 367.04,1223.30
             375.39,1209.30 401.59,1171.02 410.00,1159.79
             418.41,1148.61 460.41,1115.02 471.65,1112.19
             482.83,1109.37 476.28,1095.37 490.33,1087.02
             504.33,1078.60 525.79,1054.33 531.43,1051.51
             537.02,1048.74 559.43,1029.09 559.43,1023.51
             559.43,1017.92 578.12,997.37 594.94,997.37 Z" />
</svg>
