<?xml version="1.0" encoding="UTF-8" standalone="no"?>
<!DOCTYPE svg PUBLIC "-//W3C//DTD SVG 20010904//EN"
              "http://www.w3.org/TR/2001/REC-SVG-20010904/DTD/svg10.dtd">

<svg xmlns="http://www.w3.org/2000/svg"
     width="83.3333in" height="30.5556in"
     viewBox="0 0 6000 2200">
  <path id="road"
        fill="none" stroke="black" stroke-width="1"
        d="M -184.00,2120.00
           C -184.00,2120.00 -128.00,2120.00 -104.00,2120.00
             -80.00,2120.00 48.00,2112.00 88.00,2104.00
             128.00,2096.00 144.00,2096.00 240.00,2096.00
             336.00,2096.00 560.00,2080.00 576.00,2080.00
             592.00,2080.00 848.00,2088.00 872.00,2088.00
             896.00,2088.00 1016.00,2096.00 1032.00,2096.00
             1048.00,2096.00 1080.00,2080.00 1152.00,2072.00
             1224.00,2064.00 1288.00,2048.00 1312.00,2032.00
             1368.00,1968.00 1448.00,1896.00 1448.00,1888.00
             1480.00,1840.00 1488.00,1784.00 1488.00,1768.00
             1488.00,1752.00 1488.00,1752.00 1488.00,1704.00
             1488.00,1656.00 1488.00,1576.00 1488.00,1560.00
             1488.00,1544.00 1488.00,1448.00 1488.00,1432.00
             1488.00,1416.00 1488.00,1376.00 1488.00,1360.00
             1544.00,1296.00 1608.00,1256.00 1624.00,1248.00
             1640.00,1240.00 1720.00,1232.00 1744.00,1232.00
             1768.00,1232.00 1744.00,1248.00 1816.00,1232.00
             1888.00,1216.00 1992.00,1216.00 1992.00,1216.00
             1992.00,1216.00 2048.00,1248.00 2048.00,1256.00
             2048.00,1264.00 2048.00,1320.00 2048.00,1392.00
             2048.00,1544.00 2056.00,1768.00 2056.00,1776.00
             2056.00,1784.00 2056.00,1840.00 2056.00,1848.00
             2056.00,1856.00 2080.00,2000.00 2080.00,2008.00
             2080.00,2016.00 2184.00,2040.00 2192.00,2040.00
             2200.00,2040.00 2256.00,2056.00 2288.00,2056.00
             2320.00,2056.00 2344.00,2056.00 2368.00,2056.00
             2392.00,2056.00 2560.00,2080.00 2568.00,2080.00
             2576.00,2080.00 2640.00,2080.00 2680.00,2072.00
             2720.00,2064.00 2776.00,2072.00 2808.00,2064.00
             2840.00,2056.00 2896.00,2048.00 2896.00,2048.00
             2896.00,2048.00 3000.00,2056.00 3016.00,2064.00
             3032.00,2072.00 3072.00,2096.00 3112.00,2096.00
             3152.00,2096.00 3384.00,2080.00 3384.00,2080.00
             3384.00,2080.00 3488.00,2080.00 3512.00,2080.00
             3536.00,2080.00 3576.00,2096.00 3632.00,2080.00
             3688.00,2064.00 3736.00,2064.00 3752.00,2064.00
             3768.00,2064.00 3824.00,2064.00 3840.00,2064.00
             3856.00,2064.00 3960.00,2080.00 3960.00,2080.00
             3960.00,2080.00 4072.00,2080.00 4088.00,2080.00
             4104.00,2080.00 4192.00,2080.00 4192.00,2080.00
             4192.00,2080.00 4272.00,2080.00 4280.00,2080.00
             4288.00,2080.00 4376.00,2080.00 4376.00,2080.00
             4376.00,2080.00 4520.00,2104.00 4520.00,2104.00
             4520.00,2104.00 4616.00,2080.00 4624.00,2080.00
             4632.00,2080.00 4696.00,2088.00 4696.00,2088.00
             4696.00,2088.00 4784.00,2096.00 4792.00,2096.00
             4800.00,2096.00 4896.00,2096.00 4896.00,2096.00
             4896.00,2096.00 4960.00,2104.00 4960.00,2104.00
             4960.00,2104.00 5040.00,2104.00 5048.00,2104.00
             5056.00,2104.00 5128.00,2096.00 5128.00,2096.00
             5128.00,2096.00 5248.00,2096.00 5248.00,2096.00
             5248.00,2096.00 5328.00,2096.00 5328.00,2096.00
             5328.00,2096.00 5408.00,2088.00 5408.00,2088.00
             5408.00,2088.00 5488.00,2080.00 5488.00,2080.00
             5488.00,2080.00 5576.00,2088.00 5576.00,2088.00
             5576.00,2088.00 5712.00,2096.00 5712.00,2096.00
             5712.00,2096.00 5784.00,2088.00 5784.00,2088.00
             5784.00,2088.00 5904.00,2088.00 5912.00,2088.00
             5920.00,2088.00 5992.00,2088.00 5992.00,2080.00
             5992.00,2072.00 6120.00,2048.00 6120.00,2048.00
             6120.00,2048.00 6160.00,2400.00 6160.00,2408.00
             6160.00,2416.00 -168.00,2432.00 -168.00,2432.00
             -168.00,2432.00 -184.00,2120.00 -184.00,2120.00 Z" />
</svg>
