<?xml version="1.0" encoding="UTF-8" standalone="no"?>
<!DOCTYPE svg PUBLIC "-//W3C//DTD SVG 20010904//EN"
              "http://www.w3.org/TR/2001/REC-SVG-20010904/DTD/svg10.dtd">

<svg xmlns="http://www.w3.org/2000/svg"
     width="83.3333in" height="30.5556in"
     viewBox="0 0 6000 2200">
  <path id="tongueAwnings"
        fill="none" stroke="black" stroke-width="1"
        d="M 2649.00,1089.00
           C 2649.00,1089.00 2682.00,1092.00 2682.00,1092.00
             2682.00,1092.00 2703.00,1092.00 2703.00,1092.00
             2703.00,1092.00 2728.00,1089.00 2730.00,1086.00
             2732.00,1083.00 2741.00,1082.00 2762.00,1077.00
             2788.00,1071.00 2808.00,1068.00 2817.00,1068.00
             2826.00,1068.00 2834.00,1069.00 2842.00,1067.00
             2850.00,1065.00 2881.00,1064.00 2885.00,1063.00
             2889.00,1062.00 2896.00,1059.00 2899.00,1059.00
             2902.00,1059.00 2908.00,1062.00 2909.00,1066.00
             2910.00,1070.00 2914.00,1094.00 2914.00,1095.00
             2914.00,1096.00 2914.00,1107.00 2914.00,1110.00
             2914.00,1113.00 2918.00,1117.00 2912.00,1121.00
             2906.00,1125.00 2902.00,1127.00 2897.00,1129.00
             2892.00,1131.00 2883.00,1132.00 2872.00,1134.00
             2856.00,1136.00 2838.00,1143.00 2835.00,1143.00
             2832.00,1143.00 2815.00,1144.00 2806.00,1146.00
             2787.00,1152.00 2781.00,1153.00 2770.00,1156.00
             2747.00,1161.00 2719.00,1162.00 2715.00,1163.00
             2711.00,1164.00 2695.00,1172.00 2694.00,1173.00
             2693.00,1174.00 2693.00,1171.00 2682.00,1175.00
             2664.00,1181.00 2661.00,1182.00 2656.00,1182.00
             2651.00,1182.00 2645.00,1182.00 2645.00,1182.00
             2645.00,1182.00 2639.00,1174.00 2639.00,1168.00
             2639.00,1162.00 2638.00,1151.00 2639.00,1149.00
             2640.00,1147.00 2641.00,1138.00 2645.00,1131.00
             2649.00,1124.00 2648.00,1110.00 2648.00,1110.00
             2648.00,1110.00 2649.00,1089.00 2649.00,1089.00 Z
           M 3307.00,1081.00
           C 3307.00,1081.00 3334.00,1078.00 3333.00,1078.00
             3332.00,1078.00 3338.00,1078.00 3341.00,1080.00
             3344.00,1082.00 3354.00,1086.00 3356.00,1086.00
             3358.00,1086.00 3363.00,1086.00 3370.00,1086.00
             3377.00,1086.00 3382.00,1086.00 3384.00,1086.00
             3386.00,1086.00 3392.00,1086.00 3392.00,1086.00
             3392.00,1086.00 3402.00,1088.00 3402.00,1088.00
             3402.00,1088.00 3409.00,1092.00 3409.00,1094.00
             3409.00,1096.00 3412.00,1107.00 3412.00,1109.00
             3403.00,1123.00 3386.00,1129.00 3383.00,1130.00
             3380.00,1131.00 3363.00,1132.00 3359.00,1132.00
             3355.00,1132.00 3347.00,1133.00 3344.00,1133.00
             3341.00,1133.00 3325.00,1134.00 3323.00,1136.00
             3321.00,1138.00 3312.00,1139.00 3311.00,1139.00
             3310.00,1139.00 3304.00,1143.00 3303.00,1130.00
             3302.00,1117.00 3302.00,1095.00 3302.00,1093.00
             3302.00,1091.00 3307.00,1081.00 3307.00,1081.00 Z" />
</svg>
