<?xml version="1.0" encoding="UTF-8" standalone="no"?>
<!DOCTYPE svg PUBLIC "-//W3C//DTD SVG 20010904//EN"
              "http://www.w3.org/TR/2001/REC-SVG-20010904/DTD/svg10.dtd">

<svg xmlns="http://www.w3.org/2000/svg"
     width="83.3333in" height="30.5556in"
     viewBox="0 0 6000 2200">
  <path id="tongue"
        fill="none" stroke="black" stroke-width="1"
        d="M 2894.00,1401.00
           C 2894.00,1401.00 2874.00,1398.00 2873.00,1398.00
             2872.00,1398.00 2859.00,1402.00 2857.00,1403.00
             2855.00,1404.00 2839.00,1415.00 2837.00,1415.00
             2835.00,1415.00 2832.00,1413.00 2823.00,1415.00
             2814.00,1417.00 2801.00,1419.00 2799.00,1419.00
             2797.00,1419.00 2776.00,1423.00 2776.00,1423.00
             2776.00,1423.00 2758.00,1428.00 2755.00,1429.00
             2752.00,1430.00 2753.00,1428.00 2737.00,1432.00
             2721.00,1436.00 2714.00,1440.00 2713.00,1440.00
             2712.00,1440.00 2700.00,1442.00 2696.00,1442.00
             2692.00,1442.00 2682.00,1443.00 2678.00,1443.00
             2674.00,1443.00 2666.00,1444.00 2666.00,1443.00
             2666.00,1442.00 2670.00,1422.00 2670.00,1422.00
             2670.00,1422.00 2673.00,1410.00 2673.00,1407.00
             2673.00,1404.00 2676.00,1378.00 2676.00,1377.00
             2676.00,1376.00 2678.00,1372.00 2676.00,1369.00
             2674.00,1366.00 2670.00,1348.00 2670.00,1348.00
             2670.00,1348.00 2665.00,1330.00 2664.00,1325.00
             2663.00,1320.00 2660.00,1304.00 2658.00,1296.00
             2656.00,1288.00 2657.00,1274.00 2654.00,1262.00
             2651.00,1250.00 2652.00,1235.00 2652.00,1226.00
             2652.00,1217.00 2652.00,1199.00 2652.00,1197.00
             2652.00,1195.00 2653.00,1175.00 2655.00,1173.00
             2657.00,1171.00 2679.00,1164.00 2691.00,1158.00
             2703.00,1152.00 2901.00,1110.00 2901.00,1110.00
             2901.00,1110.00 2908.00,1130.00 2908.00,1131.00
             2908.00,1132.00 2909.00,1152.00 2909.00,1152.00
             2909.00,1152.00 2910.00,1183.00 2910.00,1183.00
             2910.00,1183.00 2910.00,1205.00 2910.00,1205.00
             2910.00,1205.00 2911.00,1225.00 2911.00,1228.00
             2911.00,1231.00 2911.00,1252.00 2911.00,1257.00
             2911.00,1262.00 2909.00,1282.00 2908.00,1287.00
             2907.00,1292.00 2909.00,1309.00 2907.00,1317.00
             2905.00,1325.00 2898.00,1364.00 2898.00,1364.00
             2898.00,1364.00 2894.00,1401.00 2894.00,1401.00 Z
           M 3342.00,1365.00
           C 3342.00,1365.00 3333.00,1349.00 3333.00,1349.00
             3333.00,1349.00 3333.00,1327.00 3333.00,1326.00
             3333.00,1325.00 3334.00,1299.00 3334.00,1299.00
             3334.00,1299.00 3334.00,1289.00 3334.00,1287.00
             3334.00,1285.00 3328.00,1263.00 3328.00,1260.00
             3328.00,1257.00 3328.00,1246.00 3328.00,1245.00
             3328.00,1244.00 3330.00,1210.00 3329.00,1210.00
             3328.00,1210.00 3323.00,1198.00 3323.00,1194.00
             3323.00,1190.00 3318.00,1161.00 3318.00,1160.00
             3318.00,1159.00 3318.00,1144.00 3318.00,1144.00
             3318.00,1144.00 3315.00,1109.00 3315.00,1109.00
             3315.00,1109.00 3388.00,1114.00 3388.00,1114.00
             3388.00,1114.00 3402.00,1109.00 3402.00,1109.00
             3402.00,1109.00 3417.00,1116.00 3417.00,1116.00
             3417.00,1116.00 3429.00,1132.00 3429.00,1132.00
             3429.00,1132.00 3434.00,1149.00 3434.00,1149.00
             3434.00,1149.00 3435.00,1171.00 3435.00,1171.00
             3435.00,1171.00 3439.00,1188.00 3439.00,1189.00
             3439.00,1190.00 3439.00,1211.00 3439.00,1211.00
             3439.00,1211.00 3439.00,1245.00 3439.00,1245.00
             3439.00,1245.00 3439.00,1262.00 3439.00,1263.00
             3439.00,1264.00 3443.00,1278.00 3443.00,1278.00
             3443.00,1278.00 3445.00,1302.00 3445.00,1302.00
             3445.00,1302.00 3447.00,1312.00 3446.00,1312.00
             3445.00,1312.00 3445.00,1330.00 3445.00,1330.00
             3445.00,1330.00 3445.00,1342.00 3445.00,1342.00
             3445.00,1342.00 3441.00,1347.00 3441.00,1347.00
             3441.00,1347.00 3433.00,1340.00 3433.00,1340.00
             3433.00,1340.00 3427.00,1337.00 3425.00,1337.00
             3423.00,1337.00 3413.00,1342.00 3413.00,1342.00
             3413.00,1342.00 3405.00,1346.00 3405.00,1346.00
             3405.00,1346.00 3390.00,1350.00 3390.00,1350.00
             3390.00,1350.00 3378.00,1353.00 3378.00,1353.00
             3378.00,1353.00 3366.00,1354.00 3366.00,1354.00
             3366.00,1354.00 3356.00,1358.00 3356.00,1358.00
             3356.00,1358.00 3342.00,1365.00 3342.00,1365.00 Z
           M 3095.00,1080.00
           C 3095.00,1080.00 3083.00,1053.00 3083.00,1047.00
             3083.00,1041.00 3077.00,1023.00 3077.00,1017.00
             3077.00,1011.00 3077.00,993.00 3077.00,993.00
             3077.00,993.00 3065.00,954.00 3065.00,951.00
             3065.00,948.00 3062.00,915.00 3059.00,912.00
             3056.00,909.00 3056.00,882.00 3056.00,876.00
             3056.00,870.00 3056.00,867.00 3056.00,846.00
             3056.00,825.00 3056.00,789.00 3056.00,789.00
             3056.00,789.00 3068.00,744.00 3068.00,735.00
             3068.00,726.00 3077.00,699.00 3077.00,699.00
             3077.00,699.00 3092.00,657.00 3095.00,645.00
             3098.00,633.00 3101.00,618.00 3107.00,612.00
             3113.00,606.00 3125.00,576.00 3125.00,576.00
             3125.00,576.00 3149.00,540.00 3149.00,534.00
             3155.00,510.00 3161.00,495.00 3161.00,480.00
             3161.00,465.00 3176.00,444.00 3179.00,432.00
             3182.00,420.00 3188.00,408.00 3191.00,402.00
             3194.00,396.00 3206.00,333.00 3206.00,330.00
             3206.00,327.00 3209.00,288.00 3215.00,285.00
             3221.00,282.00 3227.00,261.00 3227.00,261.00
             3227.00,261.00 3233.00,228.00 3233.00,225.00
             3233.00,222.00 3245.00,204.00 3248.00,198.00
             3251.00,192.00 3263.00,162.00 3263.00,162.00
             3263.00,162.00 3278.00,129.00 3278.00,129.00M 3336.00,1394.00
           C 3336.00,1394.00 3320.00,1402.00 3320.00,1402.00
             3320.00,1402.00 3296.00,1408.00 3296.00,1408.00
             3296.00,1408.00 3272.00,1408.00 3272.00,1408.00
             3272.00,1408.00 3258.00,1406.00 3258.00,1404.00
             3258.00,1402.00 3234.00,1402.00 3232.00,1404.00
             3230.00,1406.00 3212.00,1416.00 3212.00,1416.00
             3212.00,1416.00 3190.00,1424.00 3190.00,1424.00
             3190.00,1424.00 3170.00,1418.00 3170.00,1418.00
             3170.00,1418.00 3146.00,1418.00 3146.00,1420.00
             3146.00,1422.00 3136.00,1432.00 3134.00,1432.00
             3132.00,1432.00 3110.00,1432.00 3110.00,1432.00
             3110.00,1432.00 3090.00,1430.00 3088.00,1430.00
             3086.00,1430.00 3056.00,1424.00 3054.00,1424.00
             3052.00,1424.00 3030.00,1424.00 3026.00,1424.00
             3022.00,1424.00 2982.00,1420.00 2982.00,1420.00
             2982.00,1420.00 2966.00,1420.00 2962.00,1420.00
             2944.00,1428.00 2938.00,1436.00 2934.00,1438.00
             2930.00,1440.00 2906.00,1454.00 2906.00,1456.00
             2906.00,1458.00 2886.00,1478.00 2884.00,1478.00
             2882.00,1478.00 2862.00,1468.00 2862.00,1468.00
             2862.00,1468.00 2846.00,1468.00 2846.00,1468.00
             2846.00,1468.00 2804.00,1462.00 2802.00,1462.00
             2800.00,1462.00 2778.00,1462.00 2778.00,1462.00
             2778.00,1462.00 2752.00,1466.00 2752.00,1468.00
             2752.00,1470.00 2736.00,1480.00 2734.00,1480.00
             2732.00,1480.00 2714.00,1482.00 2714.00,1482.00
             2714.00,1482.00 2692.00,1482.00 2692.00,1482.00
             2692.00,1482.00 2678.00,1488.00 2678.00,1488.00
             2678.00,1488.00 2666.00,1490.00 2664.00,1492.00
             2662.00,1494.00 2634.00,1498.00 2634.00,1498.00
             2634.00,1498.00 2616.00,1498.00 2614.00,1498.00
             2612.00,1498.00 2580.00,1490.00 2580.00,1490.00
             2580.00,1490.00 2568.00,1490.00 2564.00,1490.00
             2560.00,1490.00 2546.00,1500.00 2544.00,1500.00
             2542.00,1500.00 2516.00,1498.00 2514.00,1498.00
             2512.00,1498.00 2516.00,1474.00 2516.00,1472.00
             2516.00,1470.00 2504.00,1452.00 2502.00,1452.00
             2500.00,1452.00 2490.00,1422.00 2490.00,1418.00
             2490.00,1414.00 2490.00,1388.00 2490.00,1388.00
             2490.00,1388.00 2484.00,1366.00 2484.00,1354.00
             2482.00,1314.00 2488.00,1288.00 2488.00,1286.00
             2488.00,1284.00 2494.00,1248.00 2494.00,1244.00
             2494.00,1240.00 2498.00,1218.00 2500.00,1208.00
             2502.00,1198.00 2516.00,1164.00 2516.00,1164.00
             2516.00,1164.00 2536.00,1110.00 2536.00,1110.00
             2536.00,1110.00 2572.00,1068.00 2576.00,1060.00
             2580.00,1052.00 2604.00,1022.00 2608.00,1014.00
             2612.00,1006.00 2624.00,984.00 2628.00,980.00
             2632.00,976.00 2634.00,972.00 2646.00,956.00
             2658.00,940.00 2676.00,914.00 2678.00,910.00
             2680.00,906.00 2718.00,826.00 2720.00,818.00
             2722.00,810.00 2738.00,782.00 2738.00,776.00
             2738.00,770.00 2760.00,728.00 2760.00,728.00
             2760.00,728.00 2750.00,696.00 2750.00,692.00
             2750.00,688.00 2752.00,630.00 2750.00,628.00
             2748.00,626.00 2738.00,606.00 2738.00,596.00
             2738.00,586.00 2732.00,542.00 2732.00,534.00
             2732.00,526.00 2730.00,498.00 2732.00,494.00
             2734.00,490.00 2752.00,436.00 2754.00,434.00
             2756.00,432.00 2780.00,394.00 2782.00,388.00
             2784.00,382.00 2816.00,334.00 2816.00,334.00
             2816.00,334.00 2838.00,292.00 2842.00,286.00
             2846.00,280.00 2862.00,256.00 2866.00,254.00
             2870.00,252.00 2912.00,220.00 2912.00,220.00
             2912.00,220.00 2918.00,206.00 2930.00,192.00
             2942.00,178.00 2954.00,164.00 2956.00,162.00
             2958.00,160.00 2982.00,138.00 2984.00,136.00
             2986.00,134.00 3000.00,118.00 3006.00,112.00
             3012.00,106.00 3022.00,96.00 3026.00,94.00
             3030.00,92.00 3036.00,94.00 3042.00,82.00
             3048.00,70.00 3068.00,50.00 3070.00,48.00
             3072.00,46.00 3092.00,34.00 3092.00,32.00
             3092.00,30.00 3158.00,-9.00 3158.00,-9.00
             3158.00,-9.00 3257.00,-69.00 3323.00,-75.00
             3371.00,-51.00 3384.00,18.00 3384.00,18.00
             3384.00,18.00 3386.00,54.00 3386.00,54.00
             3386.00,54.00 3386.00,76.00 3386.00,78.00
             3386.00,80.00 3386.00,108.00 3386.00,108.00
             3386.00,108.00 3386.00,134.00 3386.00,134.00
             3386.00,134.00 3380.00,148.00 3378.00,150.00
             3376.00,152.00 3370.00,164.00 3366.00,168.00
             3362.00,172.00 3362.00,188.00 3360.00,188.00
             3358.00,188.00 3346.00,212.00 3346.00,214.00
             3346.00,216.00 3338.00,242.00 3338.00,244.00
             3338.00,246.00 3328.00,286.00 3328.00,288.00
             3328.00,290.00 3328.00,310.00 3328.00,312.00
             3328.00,314.00 3320.00,340.00 3320.00,342.00
             3320.00,344.00 3318.00,370.00 3318.00,370.00
             3318.00,370.00 3318.00,386.00 3318.00,394.00
             3318.00,402.00 3318.00,432.00 3318.00,432.00
             3318.00,432.00 3320.00,448.00 3320.00,452.00
             3320.00,456.00 3328.00,480.00 3328.00,480.00
             3328.00,480.00 3338.00,508.00 3338.00,514.00
             3338.00,520.00 3346.00,546.00 3346.00,552.00
             3346.00,558.00 3352.00,600.00 3352.00,600.00
             3352.00,600.00 3344.00,656.00 3342.00,660.00
             3340.00,664.00 3334.00,700.00 3332.00,704.00
             3330.00,708.00 3320.00,738.00 3318.00,742.00
             3316.00,746.00 3300.00,798.00 3300.00,798.00
             3300.00,798.00 3298.00,820.00 3296.00,822.00
             3294.00,824.00 3288.00,858.00 3288.00,858.00
             3288.00,858.00 3288.00,888.00 3288.00,894.00
             3288.00,900.00 3296.00,932.00 3296.00,934.00
             3296.00,936.00 3302.00,950.00 3306.00,956.00
             3310.00,962.00 3332.00,986.00 3332.00,988.00
             3332.00,990.00 3360.00,1014.00 3360.00,1014.00
             3360.00,1014.00 3372.00,1040.00 3372.00,1042.00
             3372.00,1044.00 3380.00,1064.00 3380.00,1066.00
             3380.00,1068.00 3390.00,1080.00 3390.00,1080.00
             3390.00,1080.00 3402.00,1090.00 3410.00,1104.00
             3424.00,1124.00 3440.00,1144.00 3442.00,1148.00
             3444.00,1152.00 3454.00,1182.00 3454.00,1182.00
             3454.00,1182.00 3464.00,1196.00 3464.00,1204.00
             3464.00,1212.00 3480.00,1244.00 3480.00,1244.00
             3480.00,1244.00 3482.00,1274.00 3482.00,1276.00
             3482.00,1278.00 3488.00,1314.00 3488.00,1316.00
             3488.00,1318.00 3490.00,1340.00 3488.00,1344.00
             3486.00,1348.00 3478.00,1356.00 3478.00,1362.00
             3478.00,1368.00 3470.00,1388.00 3470.00,1390.00
             3470.00,1392.00 3466.00,1402.00 3460.00,1404.00
             3454.00,1406.00 3428.00,1404.00 3428.00,1402.00
             3428.00,1400.00 3420.00,1394.00 3414.00,1392.00
             3408.00,1390.00 3396.00,1384.00 3394.00,1384.00
             3392.00,1384.00 3382.00,1384.00 3380.00,1384.00
             3378.00,1384.00 3364.00,1390.00 3360.00,1390.00
             3344.00,1396.00 3336.00,1394.00 3336.00,1394.00 Z
           M 3222.00,1443.00
           C 3223.00,1442.00 3244.00,1423.00 3244.00,1421.00
             3244.00,1419.00 3240.00,1396.00 3240.00,1396.00
             3240.00,1396.00 3239.00,1383.00 3239.00,1382.00
             3239.00,1381.00 3238.00,1371.00 3237.00,1370.00
             3236.00,1369.00 3237.00,1368.00 3236.00,1361.00
             3234.00,1352.00 3231.00,1347.00 3230.00,1341.00
             3229.00,1335.00 3227.00,1330.00 3226.00,1325.00
             3225.00,1320.00 3225.00,1301.00 3225.00,1300.00
             3225.00,1299.00 3224.00,1290.00 3222.00,1288.00
             3220.00,1286.00 3219.00,1281.00 3216.00,1277.00
             3213.00,1273.00 3208.00,1261.00 3208.00,1259.00
             3208.00,1257.00 3208.00,1246.00 3208.00,1239.00
             3208.00,1232.00 3209.00,1232.00 3209.00,1220.00
             3209.00,1208.00 3208.00,1193.00 3210.00,1188.00
             3212.00,1183.00 3212.00,1171.00 3211.00,1170.00
             3210.00,1169.00 3208.00,1166.00 3206.00,1164.00
             3204.00,1162.00 3201.00,1162.00 3198.00,1162.00
             3195.00,1162.00 3179.00,1166.00 3179.00,1166.00
             3179.00,1166.00 3152.00,1160.00 3146.00,1159.00
             3140.00,1158.00 3132.00,1156.00 3127.00,1155.00
             3122.00,1154.00 3103.00,1152.00 3097.00,1152.00
             3091.00,1152.00 3079.00,1152.00 3071.00,1152.00
             3063.00,1152.00 3063.00,1157.00 3053.00,1154.00
             3043.00,1151.00 3027.00,1146.00 3027.00,1146.00
             3027.00,1146.00 3007.00,1138.00 3004.00,1138.00
             3001.00,1138.00 2985.00,1141.00 2983.00,1141.00
             2981.00,1141.00 2979.00,1140.00 2978.00,1147.00
             2977.00,1154.00 2973.00,1174.00 2973.00,1176.00
             2973.00,1178.00 2971.00,1199.00 2972.00,1203.00
             2973.00,1207.00 2977.00,1221.00 2977.00,1225.00
             2977.00,1229.00 2971.00,1254.00 2970.00,1257.00
             2969.00,1260.00 2968.00,1272.00 2967.00,1275.00
             2966.00,1278.00 2963.00,1303.00 2963.00,1305.00
             2963.00,1307.00 2961.00,1318.00 2961.00,1320.00
             2961.00,1322.00 2959.00,1335.00 2958.00,1340.00
             2957.00,1345.00 2953.00,1361.00 2952.00,1363.00
             2951.00,1365.00 2945.00,1375.00 2944.00,1377.00
             2943.00,1379.00 2935.00,1390.00 2934.00,1392.00
             2933.00,1394.00 2930.00,1400.00 2930.00,1405.00
             2930.00,1410.00 2927.00,1415.00 2932.00,1422.00
             2937.00,1429.00 2938.00,1436.00 2943.00,1440.00
             2948.00,1444.00 3221.00,1444.00 3222.00,1443.00 Z" />
</svg>
