<?xml version="1.0" encoding="UTF-8" standalone="no"?>
<!DOCTYPE svg PUBLIC "-//W3C//DTD SVG 20010904//EN"
              "http://www.w3.org/TR/2001/REC-SVG-20010904/DTD/svg10.dtd">

<svg xmlns="http://www.w3.org/2000/svg"
     width="83.3333in" height="30.5556in"
     viewBox="0 0 6000 2200">
  <path id="tongueBack"
        fill="none" stroke="black" stroke-width="1"
        d="M 2774.00,857.00
           C 2723.05,969.51 2616.00,1063.00 2616.00,1063.00
             2616.00,1063.00 2628.00,1015.00 2627.00,1015.00
             2626.00,1015.00 2621.00,1000.00 2621.00,996.00
             2621.00,992.00 2620.00,965.00 2620.00,965.00
             2620.00,965.00 2617.00,948.00 2618.00,942.00
             2619.00,936.00 2621.00,925.00 2621.00,923.00
             2621.00,921.00 2625.00,910.00 2630.00,898.00
             2638.00,879.00 2642.00,861.00 2646.00,849.00
             2650.00,837.00 2649.00,831.00 2655.00,823.00
             2661.00,815.00 2666.00,811.00 2668.00,808.00
             2670.00,805.00 2677.00,801.00 2677.00,801.00
             2677.00,801.00 2683.00,787.00 2686.00,783.00
             2689.00,779.00 2690.00,768.00 2703.00,759.00
             2716.00,747.00 2725.00,729.00 2728.00,723.00
             2731.00,717.00 2748.00,683.00 2748.00,683.00
             2748.00,683.00 2760.00,659.00 2761.00,656.00
             2762.00,653.00 2759.00,654.00 2767.00,646.00
             2775.00,638.00 2793.00,626.00 2806.00,629.00
             2812.23,630.44 2820.84,753.57 2774.00,857.00 Z" />
</svg>
