<?xml version="1.0" encoding="UTF-8" standalone="no"?>
<!DOCTYPE svg PUBLIC "-//W3C//DTD SVG 20010904//EN"
              "http://www.w3.org/TR/2001/REC-SVG-20010904/DTD/svg10.dtd">

<svg xmlns="http://www.w3.org/2000/svg"
     width="83.3333in" height="30.5556in"
     viewBox="0 0 6000 2200">
  <path id="toothFM"
        fill="none" stroke="black" stroke-width="1"
        d="M 4994.00,1417.00
           C 4994.00,1417.00 4986.42,1414.40 4978.00,1415.00
             4966.05,1415.85 4955.00,1416.00 4951.00,1427.00
             4945.33,1339.33 4894.00,1261.33 4884.50,1244.00
             4882.84,1240.35 4876.67,1236.00 4863.33,1209.33
             4854.00,1198.67 4854.67,1122.00 4854.67,1122.00
             4854.67,1122.00 4843.35,1083.56 4842.67,1054.67
             4841.79,1018.00 4851.83,1007.00 4850.00,988.67
             4851.33,974.67 4845.50,923.00 4860.50,867.50
             4860.50,867.50 4865.00,828.50 4856.00,762.50
             4826.00,711.50 4844.00,678.50 4862.00,635.00
             4880.00,570.50 4908.50,582.50 4941.50,648.50
             4961.00,681.50 4985.00,753.50 4994.00,792.50
             5006.00,827.00 5018.00,873.50 5024.00,908.00
             5030.00,933.50 5040.50,1023.50 5033.00,1061.00
             5025.50,1163.00 5010.50,1355.50 4994.00,1417.00 Z
           M 4997.00,819.50
           C 4997.00,819.50 4985.00,953.00 4962.50,998.00" />
</svg>
