<?xml version="1.0" encoding="UTF-8" standalone="no"?>
<!DOCTYPE svg PUBLIC "-//W3C//DTD SVG 20010904//EN"
              "http://www.w3.org/TR/2001/REC-SVG-20010904/DTD/svg10.dtd">

<svg xmlns="http://www.w3.org/2000/svg"
     width="83.3333in" height="30.5556in"
     viewBox="0 0 6000 2200">
  <path id="toothFL"
        fill="none" stroke="black" stroke-width="1"
        d="M 4424.00,812.00
           C 4424.00,812.00 4404.50,776.00 4384.00,744.00
             4379.00,737.00 4373.00,726.50 4355.00,722.00
             4340.00,744.50 4344.50,758.00 4337.00,768.50
             4334.00,795.50 4308.50,766.50 4287.50,801.50
             4272.50,804.00 4259.00,852.50 4254.00,876.00
             4250.00,888.50 4244.00,909.50 4226.00,924.50
             4200.50,942.50 4182.50,1007.00 4178.00,1076.00
             4176.50,1109.00 4169.00,1172.00 4224.50,1274.00
             4250.00,1307.00 4269.00,1352.00 4318.00,1464.00
             4338.00,1458.00 4376.00,1462.00 4376.00,1462.00
             4376.00,1462.00 4391.00,1440.50 4400.00,1419.50
             4400.00,1407.50 4404.50,1386.50 4403.00,1368.50
             4409.00,1334.00 4404.50,1308.50 4410.50,1290.50
             4416.50,1274.00 4419.50,1220.00 4419.50,1220.00
             4419.50,1220.00 4419.50,1188.50 4438.00,1122.00
             4443.50,1107.50 4437.50,1076.00 4430.00,1024.00
             4425.50,1010.00 4410.50,933.50 4424.00,908.00
             4439.00,878.00 4424.00,812.00 4424.00,812.00 Z" />
</svg>
