<?xml version="1.0" encoding="UTF-8" standalone="no"?>
<!DOCTYPE svg PUBLIC "-//W3C//DTD SVG 20010904//EN"
              "http://www.w3.org/TR/2001/REC-SVG-20010904/DTD/svg10.dtd">

<svg xmlns="http://www.w3.org/2000/svg"
     width="83.3333in" height="30.5556in"
     viewBox="0 0 6000 2200">
  <path id="toothBL"
        fill="none" stroke="black" stroke-width="1"
        d="M 4571.00,1430.00
           C 4571.00,1430.00 4551.50,1409.00 4535.00,1358.00
             4544.00,1335.50 4515.50,1299.50 4509.50,1275.50
             4502.00,1235.00 4500.50,1137.50 4491.50,1100.00
             4485.50,1059.50 4481.00,1014.50 4485.50,969.50
             4497.50,932.00 4500.50,855.50 4503.50,821.00
             4506.50,803.00 4512.50,761.00 4541.00,747.50
             4550.00,735.50 4550.00,731.00 4530.50,722.00
             4536.50,696.50 4580.00,705.50 4595.00,713.00
             4632.50,746.00 4649.00,827.00 4649.00,827.00
             4649.00,827.00 4677.50,902.00 4661.00,956.00
             4653.50,986.00 4653.50,1022.00 4665.50,1040.00
             4683.50,1073.00 4641.50,1334.00 4613.00,1431.50
             4596.50,1451.00 4571.00,1430.00 4571.00,1430.00 Z
           M 4611.50,1239.50
           C 4607.00,1212.50 4608.50,1157.00 4608.50,1157.00
             4608.50,1157.00 4619.00,1127.00 4616.00,1107.50
             4611.50,1097.00 4598.00,1014.50 4598.00,1014.50
             4598.00,1014.50 4595.00,974.00 4602.50,932.00
             4602.50,932.00 4607.00,884.00 4614.50,885.50" />
</svg>
