<?xml version="1.0" encoding="UTF-8" standalone="no"?>
<!DOCTYPE svg PUBLIC "-//W3C//DTD SVG 20010904//EN"
              "http://www.w3.org/TR/2001/REC-SVG-20010904/DTD/svg10.dtd">

<svg xmlns="http://www.w3.org/2000/svg"
     width="83.3333in" height="30.5556in"
     viewBox="0 0 6000 2200">
  <path id="toothBR"
        fill="none" stroke="black" stroke-width="1"
        d="M 5585.00,685.00
           C 5585.00,686.00 5587.00,733.00 5589.00,752.00
             5591.00,762.00 5600.00,790.00 5608.00,801.00
             5617.00,814.00 5630.00,856.00 5636.00,872.00
             5644.00,896.00 5643.00,924.00 5645.00,958.00
             5645.00,958.00 5651.00,995.00 5658.00,1006.00
             5660.00,1032.00 5660.00,1070.00 5651.00,1096.00M 5609.00,451.00
           C 5609.00,451.00 5619.50,461.50 5621.00,470.00
             5623.50,473.00 5625.50,489.50 5622.00,495.00
             5617.00,499.50 5613.50,514.50 5611.50,529.50
             5611.00,535.50 5612.50,555.50 5609.00,567.00
             5609.00,567.00 5609.00,590.50 5613.00,598.00
             5617.00,604.50 5621.00,621.00 5621.00,621.00M 5645.00,596.00
           C 5645.00,596.00 5644.50,615.50 5644.00,622.00
             5646.00,629.00 5645.00,656.00 5645.00,656.00M 5580.00,518.00
           C 5580.00,519.00 5586.50,549.00 5580.00,556.00
             5578.00,557.00 5572.00,573.00 5559.00,583.00M 5671.00,1311.00
           C 5671.00,1311.00 5667.00,1321.00 5666.00,1321.00
             5665.00,1321.00 5660.50,1326.00 5656.00,1330.00
             5646.50,1327.50 5620.50,1331.00 5618.50,1336.50
             5619.00,1334.50 5611.50,1305.00 5611.00,1291.00
             5596.00,1275.00 5579.00,1246.50 5576.00,1234.00
             5570.50,1218.00 5553.50,1151.00 5550.50,1131.50
             5546.00,1111.50 5541.50,1080.50 5542.00,1062.50
             5541.50,1051.00 5526.00,984.50 5524.00,947.00
             5523.00,923.00 5533.00,806.00 5535.00,768.00
             5539.00,748.00 5540.00,707.00 5540.00,707.00
             5540.00,707.00 5539.50,662.00 5539.00,643.00
             5537.50,628.00 5537.50,604.50 5540.00,599.00
             5543.50,590.00 5541.50,565.00 5548.00,549.00
             5554.50,537.50 5564.50,515.50 5576.00,501.00
             5563.00,479.00 5568.50,465.00 5577.00,458.00
             5593.50,449.50 5594.00,435.00 5608.00,437.00
             5638.50,438.00 5639.50,472.50 5636.00,481.00
             5643.00,494.50 5648.00,557.50 5646.00,577.50
             5654.00,591.00 5660.00,607.50 5662.50,616.00
             5675.50,636.00 5678.00,677.00 5676.00,689.00
             5680.00,713.50 5688.00,798.00 5691.00,820.00
             5696.00,840.00 5702.00,883.00 5702.00,885.00
             5702.00,887.00 5708.00,947.00 5707.00,967.00
             5708.00,977.00 5716.50,1091.00 5709.00,1138.00
             5704.50,1151.00 5671.00,1311.00 5671.00,1311.00 Z" />
</svg>
