<?xml version="1.0" encoding="UTF-8" standalone="no"?>
<!DOCTYPE svg PUBLIC "-//W3C//DTD SVG 20010904//EN"
              "http://www.w3.org/TR/2001/REC-SVG-20010904/DTD/svg10.dtd">

<svg xmlns="http://www.w3.org/2000/svg"
     width="83.3333in" height="30.5556in"
     viewBox="0 0 6000 2200">
  <path id="toothBM"
        fill="none" stroke="black" stroke-width="1"
        d="M 5162.00,1377.00
           C 5161.97,1370.14 5145.66,1369.97 5139.00,1370.00
             5124.73,1370.05 5112.25,1378.53 5100.00,1377.00
             5121.00,1341.00 5114.00,1325.00 5105.00,1302.50
             5091.50,1266.50 5079.50,1217.00 5067.50,1190.00
             5048.00,1161.50 5015.00,1107.50 5003.00,1061.00
             4997.00,956.00 5022.50,734.00 5022.50,734.00
             5022.50,734.00 5064.50,528.50 5130.50,650.00
             5142.50,666.50 5123.00,684.50 5123.00,701.00
             5172.50,735.50 5172.50,819.50 5178.50,837.50
             5189.00,861.50 5207.00,909.50 5202.50,944.00
             5202.50,1047.50 5213.00,1109.00 5201.00,1160.00
             5190.50,1229.00 5162.00,1377.00 5162.00,1377.00 Z
           M 5147.00,1331.00
           C 5147.00,1280.00 5144.00,1217.00 5141.00,1206.50
             5139.50,1155.50 5111.00,1037.00 5109.50,995.00
             5111.00,966.50 5109.50,936.50 5111.00,909.50
             5115.50,863.00 5111.00,834.50 5112.50,750.50
             5121.50,816.50 5142.50,1005.50 5150.00,1041.50
             5157.50,1091.00 5156.00,1284.50 5147.00,1331.00 Z
           M 5177.25,839.00
           C 5177.25,839.00 5183.38,860.00 5177.00,893.00" />
</svg>
