<?xml version="1.0" encoding="UTF-8" standalone="no"?>
<!DOCTYPE svg PUBLIC "-//W3C//DTD SVG 20010904//EN"
              "http://www.w3.org/TR/2001/REC-SVG-20010904/DTD/svg10.dtd">

<svg xmlns="http://www.w3.org/2000/svg"
     width="83.3333in" height="30.5556in"
     viewBox="0 0 6000 2200">
  <path id="toothFR"
        fill="none" stroke="black" stroke-width="1"
        d="M 5342.00,679.00
           C 5342.00,679.00 5351.00,715.00 5345.00,745.00
             5358.00,763.00 5375.00,797.00 5370.00,869.00M 5395.00,514.00
           C 5396.23,515.35 5399.00,538.00 5398.00,554.00
             5400.80,569.39 5408.72,582.90 5407.00,581.00M 5471.00,594.00
           C 5471.00,595.00 5471.00,614.00 5482.00,630.00M 5469.00,1390.00
           C 5469.00,1390.00 5454.95,1385.52 5446.00,1388.00
             5436.75,1390.57 5426.58,1398.29 5416.00,1401.00
             5399.78,1405.16 5384.19,1403.50 5382.00,1400.00
             5371.00,1303.00 5381.00,1223.00 5354.00,1193.00
             5343.00,1159.00 5345.00,1154.00 5341.00,1133.00
             5329.00,1135.00 5324.00,1054.00 5323.00,1034.00
             5312.00,910.00 5310.00,877.00 5319.00,857.00
             5324.17,844.44 5326.40,793.21 5330.00,736.00
             5331.27,715.75 5328.60,684.20 5332.00,668.00
             5349.00,604.00 5343.00,550.00 5366.00,528.00
             5380.00,515.00 5386.00,508.00 5395.00,492.00
             5381.00,396.00 5419.00,459.00 5430.00,468.00
             5441.65,475.97 5452.00,503.00 5465.00,554.00
             5469.00,580.00 5485.30,606.04 5500.00,625.00
             5521.00,664.00 5522.00,712.00 5521.00,744.00
             5515.00,794.00 5527.00,835.00 5526.00,854.00
             5538.00,904.00 5529.00,940.00 5541.00,984.00
             5544.03,996.11 5533.56,1030.76 5528.00,1064.00
             5522.54,1096.65 5522.00,1128.00 5522.00,1128.00
             5522.00,1128.00 5498.00,1232.00 5498.00,1232.00
             5498.00,1232.00 5469.00,1390.00 5469.00,1390.00 Z" />
</svg>
