<?xml version="1.0" encoding="UTF-8" standalone="no"?>
<!DOCTYPE svg PUBLIC "-//W3C//DTD SVG 20010904//EN"
              "http://www.w3.org/TR/2001/REC-SVG-20010904/DTD/svg10.dtd">

<svg xmlns="http://www.w3.org/2000/svg"
     width="83.3333in" height="30.5556in"
     viewBox="0 0 6000 2200">
  <path id="tongueDoorRight"
        fill="none" stroke="black" stroke-width="1"
        d="M 3242.00,1146.00
           C 3242.00,1146.00 3097.00,1136.00 3097.00,1136.00
             3097.00,1136.00 3095.00,1175.00 3095.00,1175.00
             3095.00,1175.00 3090.00,1202.00 3090.00,1203.00
             3090.00,1204.00 3092.00,1216.00 3092.00,1217.00
             3092.00,1218.00 3093.00,1239.00 3093.00,1242.00
             3093.00,1245.00 3094.00,1274.00 3094.00,1274.00
             3094.00,1274.00 3094.00,1289.00 3096.00,1291.00
             3098.00,1293.00 3102.00,1309.00 3102.00,1310.00
             3102.00,1311.00 3105.00,1337.00 3105.00,1337.00
             3105.00,1337.00 3103.00,1352.00 3103.00,1354.00
             3103.00,1356.00 3107.00,1378.00 3107.00,1378.00
             3107.00,1378.00 3106.00,1393.00 3105.00,1393.00
             3104.00,1393.00 3104.00,1413.00 3104.00,1413.00
             3104.00,1413.00 3105.00,1439.00 3105.00,1439.00
             3105.00,1439.00 3096.00,1465.00 3096.00,1465.00
             3096.00,1465.00 3277.00,1450.00 3276.00,1450.00
             3275.00,1450.00 3242.00,1146.00 3242.00,1146.00 Z" />
</svg>
