<?xml version="1.0" encoding="UTF-8" standalone="no"?>
<!DOCTYPE svg PUBLIC "-//W3C//DTD SVG 20010904//EN" "http://www.w3.org/TR/2001/REC-SVG-20010904/DTD/svg10.dtd">

<svg xmlns="http://www.w3.org/2000/svg" id="flamingoneMap" class="flamingoneMap" preserveAspectRatio="none"
  viewBox="0 0 1024 768">

  <g id="sky" class="sky">
    <rect id="skyBot" class="sky skyBot" x="0" y="0" width="1024" height="768" stroke="none" />
    <rect id="skyBotRight" class="sky skyBot" x="1023" y="0" width="1024" height="768" stroke="none" />
    <rect id="skyMid" class="sky skyMid" x="0" y="0" width="1024" height="768" stroke="none" />
    <rect id="skyMidRight" class="sky skyMid" x="1023" y="0" width="1024" height="768" stroke="none" />
    <rect id="skyTop" class="sky skyTop" x="0" y="0" width="1024" height="768" stroke="none" />
    <rect id="skyTopRight" class="sky skyTop" x="1023" y="0" width="1024" height="768" stroke="none" />
  </g>

  <path id="dirt" fill="none" vector-effect="non-scaling-stroke" stroke="black" stroke-width="1" d="M 654.00,343.09
         C 648.05,342.98 645.27,341.82 645.27,341.82
             645.27,341.82 640.13,343.14 637.09,342.91
             627.03,342.14 612.91,340.18 612.91,340.18
             612.91,340.18 601.62,337.64 595.64,338.18
             586.75,338.99 587.64,341.64 583.27,341.45
             583.27,341.45 556.00,345.64 556.00,345.64
             556.00,345.64 548.00,345.50 549.50,346.50
             550.45,347.13 551.27,348.36 555.09,349.45
             555.58,350.15 552.00,350.36 552.18,350.36
             550.06,349.22 548.41,347.33 545.64,346.00
             541.77,344.15 536.55,344.00 536.55,344.00
             536.55,344.00 533.90,343.00 529.27,342.18
             525.44,341.51 522.18,340.91 516.00,341.27
             509.92,340.69 505.10,339.64 504.91,339.64
             504.65,339.64 492.61,339.68 484.00,340.55
             481.31,340.81 480.52,341.35 478.36,341.27
             473.93,341.12 471.27,340.18 471.27,340.18
             471.27,340.18 469.02,341.23 465.64,341.45
             464.92,341.50 462.27,339.95 461.45,340.00
             458.22,340.20 453.86,339.85 449.82,340.18
             446.14,340.49 442.48,343.05 438.91,343.45
             436.26,343.75 436.11,342.69 433.82,342.73
             432.28,342.75 428.67,344.19 427.45,344.36
             424.03,344.84 421.49,344.73 421.27,344.73
             420.91,344.73 416.27,342.95 411.45,342.91
             406.64,342.87 401.56,343.73 397.64,344.18
             394.55,344.54 392.00,344.50 392.00,344.50
             392.00,344.50 389.82,347.27 388.36,349.27
             386.03,349.26 381.34,350.97 381.36,351.09
             381.42,351.31 388.37,346.22 388.18,345.45
             388.18,345.45 379.47,346.07 371.64,346.36
             365.62,346.59 360.00,346.50 360.00,346.50
             360.00,346.50 364.36,349.82 364.55,351.64
             363.32,350.10 359.34,347.38 355.82,345.45
             353.08,343.95 350.50,343.00 350.50,343.00
             350.50,343.00 347.91,341.83 344.73,341.64
             339.98,341.35 334.00,342.00 334.00,342.00
             334.00,342.00 331.25,343.65 328.55,344.00
             327.31,344.16 325.89,343.18 324.55,342.91
             322.61,342.51 319.82,343.27 319.82,343.27
             319.82,343.27 322.51,344.09 324.18,345.45
             325.73,346.72 326.26,348.52 326.50,349.00
             326.67,349.33 325.26,347.46 322.18,346.36
             321.10,345.78 317.94,344.08 314.36,343.09
             310.13,341.92 305.50,341.50 305.50,341.50
             305.50,341.50 301.99,342.20 297.27,341.64
             286.38,340.34 268.50,337.15 268.50,337.50
             268.50,337.69 260.65,336.24 253.45,335.27
             246.93,334.40 241.57,332.99 236.36,332.36
             231.85,331.82 227.00,332.00 227.00,332.00
             227.00,332.00 220.86,332.00 215.45,332.55
             206.87,333.42 197.50,335.00 197.50,335.00
             197.50,335.00 191.59,335.81 186.18,337.09
             182.38,337.99 178.50,339.50 178.50,339.50
             178.50,339.50 172.60,340.97 167.64,343.27
             165.60,344.22 162.37,344.66 160.73,345.64
             157.74,347.41 157.00,349.50 157.00,349.50
             157.00,349.50 155.31,351.38 153.09,352.73
             150.58,354.26 143.82,355.17 143.82,354.91
             143.82,354.64 147.17,353.74 148.91,352.36
             150.39,351.19 152.55,350.73 152.55,350.73
             152.55,350.73 154.82,349.23 156.36,347.64
             157.61,346.35 158.18,344.91 158.18,344.91
             158.18,344.91 135.27,340.18 131.82,339.82
             130.36,340.36 125.73,341.42 122.55,341.45
             117.98,341.50 112.50,339.71 112.50,340.00
             112.50,340.50 89.50,343.00 89.50,343.00
             89.50,343.00 81.45,346.18 81.45,346.18
             81.45,346.18 82.49,346.96 85.09,347.64
             87.05,348.15 90.25,348.44 92.55,349.27
             93.93,349.78 93.62,350.12 94.73,350.73
             97.28,352.14 100.55,352.38 100.55,352.55
             100.34,352.71 92.62,352.63 89.45,350.18
             86.94,349.64 82.78,348.47 79.09,347.82
             78.24,347.67 77.35,346.85 76.55,346.73
             72.28,346.08 69.00,346.50 69.00,346.50
             69.00,346.50 62.58,345.96 56.91,344.73
             51.08,343.46 49.45,343.64 44.36,342.91
             41.82,342.91 -24.00,339.00 -24.00,339.00
             -24.00,339.00 -24.00,789.00 -24.00,789.00
             -24.00,789.00 1044.00,792.00 1044.00,792.00
             1044.00,792.00 1036.50,355.00 1036.50,355.00
             1036.50,355.00 1030.34,350.93 1023.27,346.73
             1022.54,346.29 1020.91,344.59 1020.18,344.18
             1018.74,343.38 1016.72,343.78 1015.45,343.09
             1012.59,341.53 1010.92,340.33 1009.45,340.00
             1008.30,339.62 1005.61,338.84 1001.45,338.91
             996.99,338.98 991.99,340.11 986.18,340.73
             980.70,341.31 972.11,341.61 966.91,342.36
             955.92,343.95 950.00,346.00 950.00,346.00
             950.00,346.00 946.00,345.45 940.55,347.45
             938.73,348.00 928.50,344.50 928.50,344.50
             928.50,344.50 923.87,341.61 918.18,341.09
             914.39,340.75 909.66,340.06 906.36,340.36
             902.92,340.68 896.91,342.36 896.91,342.36
             896.91,342.36 881.45,344.55 881.45,344.55
             881.45,344.55 891.50,352.50 891.00,352.50
             890.89,352.50 889.33,352.37 887.09,350.91
             884.17,348.21 879.50,344.46 875.09,341.45
             868.81,337.18 863.00,334.00 863.00,334.00
             863.00,334.00 857.92,332.08 852.91,332.18
             846.30,332.32 839.28,334.50 839.00,334.50
             838.85,334.50 833.83,334.36 828.91,335.64
             826.32,336.31 822.00,336.22 819.09,337.09
             818.03,337.41 813.93,338.20 812.91,338.55
             804.40,341.41 799.64,344.55 799.64,344.55
             799.64,344.55 804.00,340.18 804.00,340.18
             804.00,340.18 808.04,339.26 806.36,338.36
             805.08,337.68 802.09,337.14 799.82,336.36
             795.06,334.75 790.50,333.00 790.50,333.00
             790.50,333.00 786.08,331.29 781.27,330.91
             774.01,330.33 765.30,331.00 765.00,331.00
             764.79,331.00 759.82,330.66 753.09,331.27
             749.66,331.59 745.40,330.10 742.00,330.55
             736.20,331.31 732.55,333.45 732.55,333.45
             732.55,333.45 716.91,336.36 716.91,336.36
             716.91,336.36 712.18,335.17 706.91,335.09
             700.49,334.99 693.91,336.73 693.64,336.73
             693.51,336.73 691.50,337.77 687.82,338.91
             685.93,339.49 682.71,339.47 680.36,340.18
             678.55,340.73 673.48,340.67 671.64,341.27
             667.80,343.10 665.82,344.95 662.18,346.36
             660.12,347.50 656.18,348.55 656.18,348.55
             656.18,348.55 660.78,346.21 663.09,344.55
             664.20,343.75 664.00,342.91 664.00,342.91
    664.00,342.91 658.63,343.18 654.00,343.09 Z" />
  <path id="dirtRoadSouth" class="pointOfInterest" fill="none" stroke="black" vector-effect="non-scaling-stroke"
    stroke-width="1" d="M 374.33,750.00
           C 382.00,746.67 399.33,735.67 404.00,735.67
             409.67,732.33 411.00,725.67 418.00,723.33
             418.00,723.33 421.67,720.00 422.00,714.67
             422.33,711.00 426.00,707.33 429.67,705.00
             433.67,703.67 437.00,703.00 441.67,702.67
             445.00,702.00 450.67,694.67 456.67,693.67
             461.33,693.67 464.00,685.67 471.67,686.67
             475.00,686.33 478.00,682.33 482.33,682.67
             486.33,682.00 491.33,677.67 493.67,674.33
             497.00,674.00 499.00,680.33 503.33,681.33
             508.00,681.67 509.00,683.67 513.67,684.67
             517.67,684.67 528.00,690.67 524.67,690.00
             522.33,688.67 537.00,695.00 539.67,697.67
             541.67,699.33 544.00,702.33 549.33,701.00
             552.33,700.00 561.33,703.00 561.33,703.00
             561.33,703.00 571.67,711.33 573.67,714.67
             575.33,718.00 586.00,730.33 594.00,728.67
             594.00,728.67 602.67,733.33 600.67,738.67
             601.33,744.67 601.33,755.33 606.00,757.33
             607.67,761.67 622.67,761.00 624.33,762.67
             640.67,768.00 643.00,787.00 643.00,787.00
             643.00,787.00 357.33,788.00 357.33,788.00
             357.33,788.00 370.67,768.33 370.67,768.33
             370.67,768.33 374.00,763.67 374.00,763.67
             374.00,763.67 366.67,752.00 374.33,750.00 Z
           M 425.67,738.33
           C 425.67,738.33 430.00,734.00 433.67,728.33
             436.42,724.54 439.61,720.00 439.33,717.67
             435.67,721.00 435.67,720.00 432.33,720.67
             428.33,721.00 423.67,726.67 423.67,727.00
             421.67,732.67 424.33,733.67 425.67,738.33 Z
           M 477.67,695.33
           C 478.33,693.67 480.00,697.00 483.00,694.00
             484.67,691.33 489.00,690.00 493.00,686.00
             490.00,687.00 483.33,687.33 483.33,687.33
             483.33,687.33 475.67,692.67 477.67,695.33 Z
           M 567.33,728.33
           C 567.33,728.33 562.67,727.33 562.00,727.67
             562.00,727.67 560.33,737.67 562.00,740.33
             562.00,740.33 564.67,745.33 568.00,744.67
             569.67,744.00 572.00,739.33 571.00,737.00
             570.00,734.00 569.67,730.33 567.33,728.33 Z
           M 387.00,738.00
           C 388.00,739.00 390.67,739.67 392.67,737.67
             394.00,736.33 394.67,733.00 394.67,733.00
             394.67,733.00 395.00,728.33 390.00,729.00
             388.00,728.00 384.33,733.67 384.33,733.67
             384.33,733.67 382.33,732.00 380.67,732.33
             380.67,732.33 374.67,734.00 373.33,736.33
             370.00,737.67 368.33,739.33 367.67,742.33
             367.67,742.33 378.33,743.67 379.33,742.67
             384.33,740.33 385.00,738.67 387.00,738.00 Z
           M 414.33,702.00
           C 413.67,703.33 414.33,706.67 417.67,706.67
             419.00,707.33 422.00,705.00 423.00,703.67
             426.00,701.33 430.33,700.00 433.33,698.33
             434.67,697.33 433.00,695.00 430.67,695.33
             430.67,695.33 424.00,699.00 424.00,699.00
             421.33,697.33 415.33,699.33 414.33,702.00 Z
           M 537.33,691.00
           C 537.33,693.00 543.00,695.67 544.00,694.67
             545.67,693.33 543.33,690.67 543.33,690.67
             543.33,690.67 538.67,689.00 537.33,691.00 Z
           M 590.00,715.33
           C 592.00,714.67 595.00,715.33 597.00,718.00
             596.67,719.67 597.00,723.00 597.00,723.00
             597.00,723.00 592.67,723.67 591.33,721.33
             588.00,720.00 588.33,718.00 590.00,715.33 Z
           M 609.67,742.33
           C 611.67,742.00 614.00,745.33 614.00,745.33
             614.00,745.33 617.88,747.25 617.67,745.33
             618.00,743.00 615.12,743.88 618.00,741.00
             619.88,741.50 623.33,744.67 621.67,743.67
             621.67,743.67 624.67,746.00 626.33,748.00
             626.33,748.33 628.33,751.00 627.67,753.67
             627.67,753.67 631.50,756.00 631.00,757.33
             631.00,757.33 628.62,758.12 625.00,757.33
             623.75,757.25 622.33,754.67 621.00,754.67
             621.00,754.67 618.33,755.00 618.33,755.00
             618.33,755.00 612.33,752.33 610.00,750.00
             609.33,749.67 607.67,744.67 609.67,742.33 Z" />
  <path id="dirtRoadEast" fill="brown" class="pointOfInterest" stroke="black" stroke-width="1" d="M 1075.00,641.00
           C 1075.00,641.00 951.00,550.00 951.00,550.00
             951.00,550.00 1074.00,525.00 1074.00,525.00
             1074.00,525.00 1075.00,641.00 1075.00,641.00 Z" />
  <g id="tree" class="pointOfInterest">
    <path id="treeBottomBack" fill="none" vector-effect="non-scaling-stroke" stroke="black" stroke-width="1" d="M 72.55,315.45
          C 72.55,315.45 83.82,297.45 83.82,297.45
            83.82,297.45 108.36,287.64 108.91,286.18
            109.45,284.73 114.91,276.73 114.91,276.73
            114.91,276.73 133.27,297.45 133.09,297.45
            132.91,297.45 138.00,299.64 138.00,299.64
            138.00,299.64 154.36,313.09 154.36,313.09
            154.36,313.09 155.45,316.00 156.36,319.82
            160.00,322.36 164.00,324.00 165.09,327.27
            165.09,327.27 167.90,331.39 170.00,334.36
            171.43,336.39 171.89,338.90 171.82,340.00
            171.82,340.00 167.82,347.64 168.18,358.36
            167.84,358.46 165.13,357.54 163.45,354.91
            158.00,346.36 153.27,345.09 153.27,345.09
            153.27,345.09 153.92,352.78 154.36,358.55
            155.45,361.64 157.09,365.09 155.27,364.91
            151.45,363.09 145.27,348.91 136.55,341.82
            137.45,347.09 138.88,357.17 142.18,364.18
            143.09,366.36 143.45,368.36 141.82,369.27
            140.09,368.20 138.73,366.00 134.00,363.27
            131.09,353.82 127.76,348.99 125.27,344.91
            123.09,349.09 123.09,365.09 119.82,366.91
            117.09,362.73 118.59,354.83 116.18,347.82
            113.87,341.07 109.09,342.27 109.09,342.36
            109.09,342.46 104.06,345.53 102.55,352.73
            101.26,358.84 94.00,364.36 92.73,366.18
            91.79,364.31 92.17,361.72 91.45,357.82
            91.27,349.27 86.78,354.72 86.00,355.09
            86.00,355.09 78.18,367.54 78.73,364.73
            80.06,363.54 75.76,366.76 76.73,362.55
            78.13,356.43 72.00,348.36 72.00,348.36
          69.52,352.68 73.50,322.53 72.55,315.45 Z" />
    <path id="trunk" fill="none" vector-effect="non-scaling-stroke" stroke="black" stroke-width="1" d="M 121.44,425.44
           C 121.71,427.22 122.00,428.81 122.56,430.75
             123.30,433.30 124.38,435.89 124.69,439.00
             124.62,439.92 124.79,440.99 124.75,442.00
             124.68,443.67 124.37,445.34 124.00,447.00
             125.35,445.79 125.70,444.02 125.88,442.19
             125.96,441.28 125.67,437.44 125.56,436.44
             125.39,434.73 125.42,432.80 125.00,431.19
             124.39,429.34 123.59,428.06 123.12,426.19
             122.79,424.82 122.51,422.89 122.56,421.44
             122.62,419.77 123.08,418.60 123.94,417.25
             124.19,415.62 126.31,415.75 126.69,416.38
             127.31,418.75 127.94,418.75 128.25,421.75
             128.28,422.45 128.25,423.84 127.94,424.44
             127.65,424.99 126.88,424.81 126.62,424.38
             126.88,423.31 126.88,422.88 126.81,422.12
             126.56,421.69 125.50,421.75 125.25,422.19
             124.50,423.56 125.44,424.75 126.25,427.25
             126.94,428.25 127.77,427.38 128.06,427.06
             129.32,424.69 129.45,421.07 128.94,418.25
             128.12,416.25 128.31,414.75 127.00,414.25
             126.25,413.88 125.42,414.40 124.81,414.69
             123.95,415.10 123.39,415.54 122.88,416.50
             121.62,418.12 121.12,420.63 121.04,422.00
             120.96,423.42 121.28,424.41 121.44,425.44 Z
           M 124.73,405.18
           C 124.81,404.15 125.37,403.42 125.55,402.27
             125.73,401.12 125.98,399.46 125.82,398.45
             125.47,396.31 125.48,396.85 125.09,395.82
             124.86,395.21 124.00,396.00 124.00,396.00
             124.00,396.00 124.66,397.85 124.50,399.94
             124.43,400.81 123.91,401.69 123.64,402.55
             123.16,404.04 123.38,404.75 122.62,405.94
             122.14,406.62 120.55,407.93 120.00,408.55
             119.52,409.70 119.69,411.00 119.56,412.44
             119.46,413.67 119.04,415.06 119.00,416.00
             119.00,416.00 120.73,417.00 121.00,416.00
             120.97,415.32 121.13,414.33 121.12,413.62
             121.12,412.49 120.99,411.65 121.12,410.81
             121.42,408.90 122.00,408.00 122.00,408.00
             122.00,408.00 122.73,407.64 124.00,408.36
             124.33,408.90 125.73,409.74 126.00,410.27
             126.55,411.37 126.62,412.62 127.27,412.73
             128.00,412.81 129.36,413.36 129.27,412.45
             128.83,411.39 128.48,410.98 127.94,410.31
             127.55,409.83 127.13,409.11 126.75,408.75
             125.80,407.85 125.00,407.64 125.00,407.64
             125.11,406.82 124.67,405.87 124.73,405.18 Z
           M 64.88,489.75
           C 69.75,484.62 71.12,483.62 77.38,480.12
             88.29,466.38 97.62,447.75 97.25,444.00
             97.68,440.38 99.02,438.19 99.88,433.38
             100.02,432.53 101.88,428.75 101.00,426.75
             99.12,424.12 101.62,421.12 100.75,416.12
             100.75,416.12 100.25,413.50 101.12,411.75
             103.62,409.75 100.12,398.38 99.75,395.25
             99.75,392.88 100.50,390.25 102.50,380.00
             102.62,377.25 100.84,369.26 100.00,367.00
             100.00,367.00 100.38,362.12 101.75,356.38
             102.48,344.32 104.00,332.25 102.50,325.50
             101.62,322.50 103.00,312.25 96.00,303.50
             94.12,299.88 95.50,297.00 88.00,290.00
             85.62,288.88 86.12,286.88 84.50,282.50
             90.25,289.12 93.00,289.75 95.50,290.50
             97.25,291.12 97.00,296.75 99.00,298.00
             101.75,299.62 107.00,300.50 108.50,301.50
             110.62,303.00 109.38,308.75 113.50,308.00
             121.50,305.00 120.75,300.62 120.00,296.00
             119.12,280.88 112.38,281.38 112.50,276.50
             112.50,272.38 115.50,268.00 115.50,268.00
             115.50,268.00 118.12,264.88 121.50,264.00
             118.50,273.88 119.38,273.75 120.50,277.25
             124.88,288.62 131.12,291.12 132.75,295.38
             133.50,300.12 128.25,309.50 128.50,311.50
             129.00,315.00 129.50,326.00 131.00,326.00
             132.75,326.00 137.12,321.62 137.50,319.00
             137.75,314.75 139.62,312.88 139.00,309.00
             138.75,304.88 141.00,302.62 143.00,299.00
             142.88,305.00 144.38,306.50 145.00,307.50
             147.00,311.75 144.25,318.00 144.50,321.50
             144.25,326.12 142.12,328.50 140.50,331.00
             138.41,334.19 135.38,338.88 135.50,343.00
             135.50,344.12 132.12,354.75 134.62,363.12
             135.62,364.62 137.00,367.88 136.12,372.00
             135.25,374.12 134.38,375.50 134.88,380.00
             134.62,383.62 136.16,384.62 136.12,389.12
             135.63,389.50 135.62,389.12 134.12,393.00
             133.56,394.49 133.62,407.62 132.75,419.12
             133.07,427.83 134.25,429.88 134.75,431.25
             135.10,432.25 136.38,439.00 133.50,445.88
             132.92,447.75 133.62,453.25 135.25,456.25
             136.50,458.62 136.62,460.00 136.88,462.12
             137.14,465.08 139.10,471.55 142.00,475.62
             144.49,479.13 147.00,480.25 148.00,480.50
             148.78,481.02 150.61,482.72 151.75,486.12
             152.33,487.85 152.33,491.74 152.75,492.62
             155.88,497.99 160.00,498.62 159.50,499.50
             157.88,500.25 150.50,492.62 145.50,492.00
             143.83,490.37 142.62,490.88 141.38,487.25
             140.38,485.62 141.25,487.00 136.88,486.75
             134.82,486.79 131.09,486.62 130.00,488.25
             127.77,491.58 130.25,494.88 129.50,498.00
             129.41,499.09 129.64,503.91 131.25,507.25
             129.33,507.48 125.85,503.14 125.73,500.64
             125.62,499.73 123.31,498.04 123.00,497.18
             122.21,495.03 122.45,492.35 120.88,491.75
             117.42,490.44 116.38,490.88 112.00,492.50
             109.21,493.69 107.91,497.82 107.82,502.45
             107.73,507.18 103.89,511.86 102.45,512.91
             102.45,512.91 103.50,508.12 102.50,504.38
             101.38,501.68 99.43,499.50 98.25,498.00
             97.12,495.75 101.50,494.12 98.75,490.62
             99.29,487.78 100.74,486.25 100.50,484.62
             100.50,484.62 90.25,483.62 87.50,488.00
             86.25,489.75 80.00,487.00 80.00,487.00
            80.00,487.00 69.38,487.50 64.88,489.75 Z" />
    <path id="treeBottomFront" class="tree treePines" fill="none" vector-effect="non-scaling-stroke" stroke="black"
      stroke-width="1" d="M 74.36,364.00
          C 71.11,368.09 66.09,371.69 62.91,373.09
            62.91,373.09 63.12,363.87 65.64,352.00
            71.27,337.45 73.50,322.53 72.55,315.45
            72.55,315.45 83.82,297.45 83.82,297.45
            83.82,297.45 108.36,287.64 108.91,286.18
            109.45,284.73 114.91,276.73 114.91,276.73
            114.91,276.73 133.27,297.45 133.09,297.45
            132.91,297.45 138.00,299.64 138.00,299.64
            138.00,299.64 154.36,313.09 154.36,313.09
            154.36,313.09 155.45,316.00 156.36,319.82
            160.00,322.36 164.00,324.00 165.09,327.27
            165.09,327.27 167.90,331.39 170.00,334.36
            171.43,336.39 171.89,338.90 171.82,340.00
            171.82,340.00 176.55,353.82 176.18,358.00
            176.18,358.00 152.55,332.91 152.55,332.91
            152.55,332.91 159.09,349.64 159.82,357.27
            159.82,357.27 144.36,345.09 140.55,340.55
            141.45,345.82 147.24,356.63 150.55,363.64
            151.45,365.82 150.73,366.55 149.09,367.45
            145.27,365.09 130.36,345.27 130.36,345.27
            130.36,345.27 126.91,361.45 127.64,370.36
            124.95,367.49 122.41,356.29 120.00,349.27
            117.69,342.53 115.45,339.91 115.45,340.00
            115.45,340.10 114.79,350.44 113.27,357.64
            111.99,363.75 111.09,365.09 109.82,366.91
            108.88,365.04 106.89,362.81 106.18,358.91
            106.00,350.36 104.55,346.18 105.09,341.45
            96.93,347.64 87.45,358.91 84.36,368.18
            82.85,370.13 80.24,371.27 79.45,371.64
            79.45,371.64 78.00,371.54 78.55,368.73
            79.88,367.54 82.48,364.03 83.45,359.82
            84.86,353.70 84.36,346.55 84.36,346.55
            81.88,350.86 78.91,357.09 74.36,364.00 Z" />
    <path id="treeMiddle" class="tree treePines" fill="none" vector-effect="non-scaling-stroke" stroke="black"
      stroke-width="1" d="M 57.45,334.18
           C 57.64,334.91 58.28,329.13 58.00,328.73
             57.27,326.00 65.82,310.00 67.64,306.91
             67.64,306.91 69.45,300.36 69.45,300.36
             69.45,300.36 78.00,288.73 78.00,288.73
             78.00,288.73 81.09,275.64 81.09,275.45
             81.09,275.27 82.73,257.82 82.73,257.82
             82.73,257.82 90.73,226.55 90.73,226.18
             90.73,225.82 98.91,216.91 99.09,217.27
             99.27,217.64 108.00,222.36 108.18,222.73
             108.36,223.09 118.18,235.82 118.36,236.18
             118.49,236.44 123.22,243.89 127.09,250.73
             128.73,253.62 131.08,258.46 131.45,259.27
             131.89,260.21 135.97,263.92 138.55,267.64
             143.48,274.77 148.18,283.45 148.18,283.45
             148.18,283.45 153.27,302.18 154.91,303.45
             156.36,306.00 155.64,308.55 156.73,311.45
             153.82,307.82 141.82,302.73 140.36,302.91
             140.36,302.91 136.55,313.45 136.91,316.55
             136.91,316.55 132.18,308.18 131.09,307.64
             131.09,307.64 127.09,313.27 125.27,317.27
             125.09,313.82 120.91,303.64 120.91,303.64
             120.91,303.64 116.91,294.00 114.73,292.36
             114.55,292.18 112.00,294.00 111.82,296.18
             111.82,296.18 111.82,306.73 111.45,309.82
             111.45,309.82 106.18,316.91 105.09,318.55
             103.64,316.73 103.27,311.27 101.09,306.91
             100.18,305.27 99.45,300.18 99.45,300.18
             99.45,300.18 98.36,307.09 95.09,311.45
             94.36,312.36 91.37,314.28 88.36,318.73
             85.64,325.27 81.51,331.15 78.18,332.91
             76.55,330.55 80.00,317.09 78.91,313.27
             76.91,317.82 70.00,327.09 65.09,329.64
            61.78,331.13 62.36,333.45 57.45,334.18 Z" />
    <path id="treeTop" class="tree treePines" fill="none" vector-effect="non-scaling-stroke" stroke="black"
      stroke-width="1" d="M 98.91,194.00
                C 98.62,190.19 97.00,185.25 98.91,184.36
                  99.81,185.83 100.18,189.09 101.64,192.18
                  104.36,195.45 104.55,196.73 105.64,197.82
                  105.96,198.21 106.12,203.41 106.91,211.09
                  107.20,213.12 108.48,217.13 111.09,220.55
                  116.73,226.18 118.73,228.00 120.73,230.18
                  123.27,232.73 129.82,244.00 130.55,246.73
                  130.55,248.91 128.73,249.09 126.73,248.00
                  124.36,244.91 117.82,239.27 115.64,238.73
                  114.36,240.00 111.27,248.36 110.36,251.45
                  110.00,252.91 107.82,253.27 106.55,252.18
                  106.38,251.12 106.25,248.62 105.09,246.55
                  103.67,244.00 102.73,243.64 101.09,241.82
                  100.55,240.18 101.09,237.27 100.36,234.91
                  99.45,238.18 95.82,241.45 96.36,244.36
                  96.36,246.36 94.91,248.36 94.18,250.55
                  93.27,252.18 91.45,252.55 90.36,252.55
                  89.45,249.82 90.18,239.27 90.36,239.27
                  90.55,239.27 89.27,237.82 88.73,236.18
                  87.45,239.82 76.00,251.45 76.00,251.45
                  76.00,251.45 80.18,238.55 80.18,238.55
                  80.18,238.55 81.27,223.09 81.27,223.09
                  81.27,223.09 82.73,214.00 82.73,214.00
                  82.73,214.00 90.73,210.55 90.73,210.36
                  90.73,210.18 94.36,203.09 94.36,203.27
                  94.36,203.45 98.00,199.45 98.00,199.45
            98.63,198.70 99.06,196.02 98.91,194.00 Z" />
    <g id="tileRightLeftAll">
      <path id="tileRightLeft" class="tile tileFace" fill="none" vector-effect="non-scaling-stroke" stroke="black"
        stroke-width="1" d="M 125.09,324.00
                     C 130.73,324.91 136.14,326.51 137.45,328.00
                       138.00,322.91 142.55,313.82 145.27,309.82
                       145.27,309.82 122.73,300.36 122.55,300.55
                       122.36,300.73 120.73,312.73 116.36,317.82
                       117.45,320.00 119.09,322.55 125.09,324.00 Z" />
      <path id="tileRightLeftGlare" class="tile tileGlare" fill="none" vector-effect="non-scaling-stroke" stroke="black"
        stroke-width="1" d="
                     M 135.09,318.36
                     C 135.09,318.36 138.18,315.45 139.27,312.36
                       138.91,309.45 134.18,307.09 130.18,305.82
                       130.18,305.82 130.82,307.39 131.64,308.18
                       132.75,309.27 134.27,309.73 135.64,310.36
                       137.09,312.73 136.73,313.45 135.09,318.36 Z" />
      <path id="tileRightLeftShade" class="tile tileShade" fill="none" vector-effect="non-scaling-stroke" stroke="black"
        stroke-width="1" d="
                     M 121.27,314.36
                     C 121.27,314.36 120.91,316.91 120.91,318.00
                       121.27,319.09 122.18,321.09 122.73,320.91
                       122.73,320.91 119.09,319.64 119.09,319.64
            118.73,316.91 121.27,314.36 121.27,314.36 Z" />
    </g>
    <g id="tileRightRightAll">
      <path id="tileRightRight" class="tile tileFace" fill="none" vector-effect="non-scaling-stroke" stroke="black"
        stroke-width="1" d="M 143.27,306.91
           C 143.64,301.09 142.91,298.36 144.73,296.00
             146.20,296.00 151.09,297.27 154.91,298.36
             159.71,300.36 164.31,303.57 164.36,303.64
             164.36,303.64 153.45,324.91 153.45,324.91
             153.45,324.91 151.11,321.50 148.00,320.18
             143.54,318.30 137.82,318.29 137.82,318.18
             137.82,318.07 141.09,313.07 143.27,306.91 Z" />
      <path id="tileRightRightShade" class="tile tileShade" fill="none" vector-effect="non-scaling-stroke"
        stroke="black" stroke-width="1" d="
           M 146.36,314.91
           C 147.15,315.82 146.45,316.27 147.09,316.91
             147.09,316.91 144.36,316.91 142.91,316.18
             142.55,315.09 142.91,312.18 142.91,312.18
             142.91,312.18 144.36,314.36 146.36,314.91 Z" />
      <path id="tileRightRightGlare" class="tile tileGlare" fill="none" vector-effect="non-scaling-stroke"
        stroke="black" stroke-width="1" d="
           M 157.00,311.45
           C 156.71,311.60 156.17,311.46 155.82,311.64
             155.82,310.00 157.64,308.00 157.64,308.00
             157.64,308.00 157.09,305.27 157.09,305.27
             157.09,305.27 153.91,305.09 152.73,304.00
             151.82,303.27 150.55,303.27 148.91,301.09
             152.09,301.55 155.09,302.73 157.73,302.27
             158.82,302.45 159.09,303.09 159.09,304.18
             159.45,305.18 159.27,305.73 159.27,306.73
             159.27,307.45 158.73,310.18 158.73,310.18
            158.73,310.18 158.00,310.55 157.00,311.45 Z" />
    </g>
    <!-- tileRighTopWasHere -->
    <g id="tileLeftLeftAll">
      <path id="tileLeftLeftGlare" class="tile tileGlare" fill="none" vector-effect="non-scaling-stroke" stroke="black"
        stroke-width="1" d="M 77.27,286.45
                C 77.31,286.14 78.15,285.95 78.73,286.27
                  79.47,286.68 79.55,287.82 80.64,287.64
                  81.29,287.26 81.56,286.49 82.09,286.18
                  83.00,286.00 83.28,286.13 83.73,285.91
                  83.45,287.27 82.00,288.18 81.09,289.09
                79.73,288.91 78.36,288.64 77.27,286.45 Z" />
      <path id="tileLeftLeft" class="tile tileFace" fill="none" vector-effect="non-scaling-stroke" stroke="black"
        stroke-width="1" d="M 75.27,282.36
                C 75.09,279.64 75.45,277.67 75.45,276.55
                  75.45,276.55 88.73,281.09 88.73,281.09
                  88.73,281.09 88.00,285.27 88.00,285.27
                  88.00,285.27 87.28,286.21 86.36,288.00
                  85.65,289.38 84.76,291.57 84.36,292.36
                  80.91,290.18 74.73,290.73 73.09,290.36
                  73.45,288.73 73.73,286.45 73.82,285.27
                74.36,284.64 74.86,284.37 75.27,282.36 Z" />
      <path id="tileLeftLeftShade" class="tile tileShade" fill="none" vector-effect="non-scaling-stroke" stroke="black"
        stroke-width="1" d="M 83.27,282.36
                C 83.45,283.45 83.77,284.05 82.36,285.09
                  83.27,285.55 84.27,284.91 84.82,284.82
                  85.55,283.73 84.64,281.73 84.64,281.73
                  84.64,281.73 83.09,280.82 81.91,280.82
                  81.55,280.82 80.82,281.55 80.82,281.55
                80.82,281.55 82.53,281.74 83.27,282.36 Z" />
    </g>
    <g id="tileLeftRightAll">
      <path id="tileLeftRight" class="tile tileFace" fill="none" vector-effect="non-scaling-stroke" stroke="black"
        stroke-width="1" d="M 87.64,268.18
           C 90.36,269.45 99.45,275.27 100.73,277.09
             100.24,278.72 100.18,281.64 98.36,286.00
             98.06,286.46 95.98,285.49 95.64,286.00
             93.82,286.00 83.09,283.09 81.64,281.64
             82.91,279.45 87.64,270.36 87.64,268.18 Z" />
      <path id="tileLeftRightShade" class="tile tileShade" fill="none" vector-effect="non-scaling-stroke" stroke="black"
        stroke-width="1" d="M 86.64,279.27
           C 88.09,280.27 89.91,281.00 90.73,282.09
             92.00,283.09 93.18,283.36 94.27,283.36
             95.00,283.27 95.73,282.73 96.27,282.18
             96.64,281.73 96.91,279.36 96.91,279.27
             96.91,279.18 95.91,279.18 96.36,278.36
             96.36,278.36 95.45,281.00 94.82,281.18
             93.82,281.36 92.09,280.73 91.45,280.18
             91.45,280.18 89.91,279.18 89.55,279.18
             89.18,279.18 88.36,278.64 86.64,279.27 Z" />
      <path id="tileLeftRightGlare" class="tile tileGlare" fill="none" vector-effect="non-scaling-stroke" stroke="black"
        stroke-width="1" d="M 92.82,275.27
           C 92.25,274.56 93.18,275.73 93.27,274.55
             94.09,274.09 96.64,275.27 97.18,276.36
             97.73,277.27 96.27,277.45 95.64,278.27
             95.64,278.27 95.82,276.64 95.27,276.45
            94.82,275.64 93.47,276.10 92.82,275.27 Z" />
    </g>
    <g id="tileLeftTopAll">
      <path id="tileLeftTop" class="tile tileFace" fill="none" vector-effect="non-scaling-stroke" stroke="black"
        stroke-width="1" d="M 70.00,268.18
                C 72.36,263.64 72.47,260.87 72.73,258.73
                  72.73,258.73 75.45,260.00 78.91,261.64
                  82.55,265.09 86.91,268.08 87.82,269.09
                  86.73,271.45 83.27,277.45 82.55,282.36
                  80.00,280.73 75.27,277.64 70.73,275.45
                  69.82,274.55 69.09,270.00 70.00,268.18 Z" />
      <path id="tileLeftTopShade" class="tile tileShade" fill="none" vector-effect="non-scaling-stroke" stroke="black"
        stroke-width="1" d="M 81.91,270.64
                C 81.97,270.33 82.14,269.84 82.55,269.73
                  82.74,269.67 84.27,270.00 83.36,269.91
                  83.36,269.91 84.00,270.36 84.18,271.45
                  84.45,272.00 83.36,273.73 82.91,274.18
                  82.18,274.64 81.09,276.82 80.55,277.55
                  79.73,278.09 78.64,278.09 78.18,277.64
                  77.45,276.91 76.27,275.91 76.27,275.91
                  76.27,275.91 76.28,274.98 76.18,274.82
                  75.84,274.25 75.82,274.00 74.91,273.64
                  74.36,273.27 72.45,272.82 72.45,272.82
                  72.45,272.82 74.45,272.00 74.45,272.00
                  74.45,272.00 77.36,273.45 77.45,273.64
                  77.55,273.82 79.27,275.82 79.36,275.82
                  79.45,275.82 80.82,273.55 80.82,273.55
                  80.82,273.55 81.00,271.64 81.91,270.64 Z" />
      <path id="tileLeftTopGlare" class="tile tileGlare" fill="none" vector-effect="non-scaling-stroke" stroke="black"
        stroke-width="1" d="M 80.82,269.00
                C 81.55,269.27 82.82,268.45 82.91,268.00
                  82.91,268.00 82.86,267.58 82.73,267.45
                  82.19,266.94 80.64,265.64 80.82,266.00
                  80.82,266.00 80.00,265.45 78.82,265.27
                  78.82,265.27 79.00,266.55 79.00,266.55
            79.00,266.55 79.91,268.55 80.82,269.00 Z" />
    </g>
  </g>
  <g id="tileRightTopAll">
    <path id="tileRightTop" class="tile tileFace" fill="none" vector-effect="non-scaling-stroke" stroke="black"
      stroke-width="1" d="M 132.18,280.18
           C 133.39,276.96 133.42,275.98 133.82,274.73
             133.82,274.73 135.27,277.82 135.27,277.82
             135.27,277.82 139.71,277.85 143.64,278.73
             146.74,279.42 149.03,280.95 152.00,281.27
             152.91,281.73 153.99,283.69 153.45,286.55
             150.55,293.64 145.85,306.85 143.09,310.00
             142.91,310.00 128.36,303.27 123.27,302.55
                124.18,295.09 127.27,288.36 132.18,280.18 Z" />
    <path id="tileRightTopGlare" class="tile tileGlare" fill="none" vector-effect="non-scaling-stroke" stroke="black"
      stroke-width="1" d="
           M 138.27,283.00
           C 137.13,282.32 137.09,281.00 137.09,281.00
             137.09,281.00 140.45,281.82 141.64,283.00
             142.36,283.73 146.45,282.55 148.09,283.91
             149.27,285.09 149.45,287.55 149.09,289.00
             148.64,290.18 146.82,292.18 145.27,292.91
             144.18,292.82 144.55,292.09 144.82,291.00
             145.36,290.00 146.73,288.73 146.91,287.55
             146.91,287.18 147.27,287.00 147.09,286.09
             146.36,286.00 144.36,285.36 143.36,284.73
                142.09,284.36 140.10,284.09 138.27,283.00 Z" />
    <path id="tileRightTopShade" class="tile tileShade" fill="none" vector-effect="non-scaling-stroke" stroke="black"
      stroke-width="1" d="
           M 130.00,294.09
           C 130.82,293.64 129.64,292.55 128.91,292.91
             127.45,293.36 126.45,295.09 125.82,296.36
             125.55,297.73 126.91,298.82 127.55,299.18
             128.18,300.00 130.73,300.64 131.45,301.09
             132.00,301.27 133.00,300.73 133.09,300.73
             132.36,299.55 130.64,298.00 130.64,297.91
             130.64,297.82 128.45,296.82 128.45,296.73
                128.45,296.64 128.64,294.73 130.00,294.09 Z" />
  </g>
  <g id="grave" class="pointOfInterest">
    <path id="headstoneEdge" class="grave headstone" vector-effect="non-scaling-stroke" fill="none" stroke="black"
      stroke-width="1" d="M 610.33,441.67
           C 610.33,441.67 636.33,444.00 651.00,443.33
             651.00,435.00 650.90,417.55 650.33,416.33
             649.00,409.67 649.67,410.00 647.00,402.67
             644.51,399.82 640.00,395.33 632.67,397.00
             626.51,396.99 617.47,397.89 614.67,398.67
             607.00,401.33 608.33,425.00 610.33,441.67 Z" />
    <path id="headstoneFace" class="grave headstone" vector-effect="non-scaling-stroke" fill="none" stroke="black"
      stroke-width="1" d="M 606.33,437.67
           C 605.62,432.51 605.33,425.33 607.00,416.67
             607.44,406.69 608.06,398.05 615.67,399.00
             615.67,399.00 624.67,400.00 632.67,399.00
             637.00,398.33 645.00,400.33 644.33,407.33
             646.33,421.00 646.67,429.33 646.67,429.33
             646.67,429.33 646.67,439.67 646.67,439.67
             646.67,439.67 606.33,441.00 606.33,437.67 Z" />
    <path id="headStoneCrossWings" class="grave headstone" vector-effect="non-scaling-stroke" fill="none" stroke="black"
      stroke-width="1" d="M 617.25,410.88
           C 617.25,410.88 614.75,413.12 615.12,415.00M 634.00,411.00
           C 634.00,411.00 636.38,414.50 636.00,416.88M 624.62,406.25
           C 624.62,406.25 625.00,423.38 625.00,423.38M 621.00,413.33
           C 621.00,413.33 617.67,399.67 614.67,409.67M 639.00,412.67
           C 636.67,398.67 628.67,414.33 628.67,414.33" />
           <!--TODO: remove tilled class when done testing plants -->
    <path id="graveDirt" class="grave softSoil tilled" vector-effect="non-scaling-stroke" fill="none" stroke="black" stroke-width="1" d="M 572.33,500.00
           C 572.33,500.00 585.00,503.00 589.67,504.67
             595.67,505.33 599.00,506.67 605.33,506.00
             611.67,505.33 621.33,509.67 624.33,508.33
             632.00,507.00 644.33,511.33 648.67,509.00
             648.67,509.00 654.33,506.67 656.33,503.67
             656.33,503.00 655.00,485.67 652.67,477.67
             652.67,477.67 655.00,470.00 655.33,465.33
             656.67,460.00 657.33,451.33 654.67,440.67
             653.00,435.67 642.33,432.00 630.33,430.67
             630.33,430.67 612.00,429.00 606.67,430.33
             606.67,430.33 599.00,434.33 597.00,435.33
             596.33,436.33 586.33,443.67 583.00,449.33
             579.67,453.33 576.67,464.00 573.33,471.00
             570.33,473.33 565.00,478.67 561.33,487.33
             557.33,496.67 562.33,498.33 572.33,500.00 Z
           M 570.67,480.67
           C 570.67,480.67 582.00,478.00 584.00,475.67
             584.00,475.67 601.33,472.33 605.33,474.33
             614.33,478.67 620.67,478.33 625.33,481.00
             631.33,481.33 632.67,483.00 636.67,484.00
             641.67,485.00 648.00,492.67 647.00,492.33
           M 641.67,463.00
           C 641.67,463.00 636.67,460.67 630.33,458.00
             630.33,458.00 627.00,458.33 623.33,457.33
             620.00,454.00 612.67,452.67 607.00,453.67
             605.00,454.67 601.67,455.67 600.33,456.33" />
  </g>
  <g id="rock1All" class="pointOfInterest">
    <path id="rock1" class="rock rockFace" fill="none" vector-effect="non-scaling-stroke" stroke="black"
      stroke-width="1" d="M 931.12,741.50
               C 924.18,740.98 918.62,742.75 913.67,742.33
                 912.30,742.42 905.98,739.66 899.25,737.12
                 892.85,734.71 886.03,732.54 884.62,731.75
                 883.00,730.50 875.88,722.38 874.33,719.33
                 873.62,717.25 871.67,692.67 872.33,688.67
                 872.62,686.12 882.67,654.00 885.67,648.00
                 887.67,637.33 892.33,620.67 895.33,615.33
                 896.33,613.00 897.67,611.00 903.67,608.33
                 906.00,602.67 907.33,600.33 910.67,595.00
                 911.81,593.45 915.89,587.71 918.00,582.67
                 918.33,578.33 919.49,574.97 921.00,573.00
                 922.26,570.50 922.67,566.67 925.00,564.33
                 926.67,559.00 929.67,558.33 929.67,558.33
                 929.67,558.33 935.33,562.00 937.33,564.00
                 940.67,566.67 940.67,572.00 941.67,575.00
                 941.67,575.00 956.00,589.00 956.00,589.00
                 956.00,589.00 963.33,597.00 965.33,601.00
                 966.33,603.67 970.71,611.29 972.38,612.62
                 973.71,614.29 973.71,614.58 974.62,616.12
                 975.12,617.12 974.00,624.75 973.38,628.00
                 973.11,630.30 972.83,632.30 972.75,633.62
                 971.00,636.75 971.50,635.75 969.50,638.00
                 969.65,639.01 968.51,638.37 968.62,641.25
                 968.73,643.80 970.06,647.22 970.38,650.38
                 970.85,655.13 970.38,657.00 970.33,659.33
                 970.62,660.38 971.88,662.25 972.50,662.62
                 972.50,660.00 972.00,649.21 972.00,648.88
                 972.00,648.54 970.00,641.12 970.25,639.50
                 973.75,635.75 974.13,631.73 974.88,627.00
                 975.24,624.68 974.82,623.47 975.12,622.00
                 975.55,619.94 977.12,622.52 977.12,622.62
                 977.12,622.66 979.28,626.36 979.38,626.50
                 980.23,627.75 982.26,629.22 982.33,633.33
                 983.38,637.38 982.88,646.75 983.67,650.00
                 985.00,651.50 987.30,654.38 989.88,659.25
                 991.90,663.09 992.38,664.38 993.00,667.67
                 993.20,669.77 993.18,671.69 994.12,674.12
                 996.00,676.00 1001.93,688.85 1002.67,694.00
                 1003.00,704.00 1003.00,714.00 999.00,723.67
                 997.33,726.33 983.33,739.33 977.67,744.00
                 975.33,744.67 962.67,749.67 955.33,745.67
                 951.33,742.67 938.38,744.21 935.38,742.88
            934.54,742.73 932.32,741.59 931.12,741.50 Z" />
    <path id="rock1Shade" class="rock rockShade" fill="none" vector-effect="non-scaling-stroke" stroke="black"
      stroke-width="1" d="M 970.75,722.00
           C 963.73,723.31 953.16,722.36 945.25,722.25
             943.54,722.49 937.85,719.51 931.75,718.25
             925.39,716.94 918.51,717.30 911.75,714.75
             904.42,709.77 894.12,702.69 890.50,694.00
             880.67,670.40 887.13,640.20 885.67,648.00
             882.67,654.00 872.62,686.12 872.33,688.67
             871.67,692.67 873.62,717.25 874.33,719.33
             875.88,722.38 883.00,730.50 884.62,731.75
             886.03,732.54 892.85,734.71 899.25,737.12
             905.98,739.66 912.30,742.42 913.67,742.33
             918.62,742.75 924.18,740.98 931.12,741.50
             932.32,741.59 934.54,742.73 935.38,742.88
             938.38,744.21 951.33,742.67 955.33,745.67
             962.67,749.67 975.33,744.67 977.67,744.00
             983.33,739.33 997.33,726.33 999.00,723.67
             1003.00,714.00 1003.00,704.00 1002.67,694.00
             1001.93,688.85 997.88,679.62 996.00,677.75
             995.73,677.04 997.01,681.94 996.50,686.00
             996.04,689.64 993.83,692.12 993.00,697.25
             991.58,706.00 987.74,711.59 983.50,716.50
            980.50,719.50 979.26,720.41 970.75,722.00 Z" />
    <path id="rock1Glare" class="rock rockGlare" fill="none" vector-effect="non-scaling-stroke" stroke="black"
      stroke-width="1" d="M 968.00,649.00
           C 968.00,649.00 966.38,641.38 966.38,641.38
             966.38,641.38 966.62,639.25 965.12,632.38
             964.65,631.48 966.18,629.73 966.75,627.38
             967.50,624.30 967.50,618.24 966.88,617.00
             966.71,615.03 965.80,615.09 965.38,613.00
             964.83,610.32 964.55,607.77 963.38,605.75
             961.02,601.69 961.23,604.76 958.50,600.75
             957.39,600.00 955.71,598.12 954.25,597.50
             951.58,596.37 949.09,596.58 948.25,595.38
             945.62,590.12 945.86,587.72 942.88,584.00
             941.62,581.50 939.71,581.53 938.25,579.88
             936.39,577.77 932.12,576.25 931.00,577.50
             929.50,579.12 928.50,579.75 925.00,579.00
             921.38,577.50 918.97,588.49 917.00,586.12
             917.00,584.12 917.66,583.49 918.00,582.67
             918.33,578.33 919.49,574.97 921.00,573.00
             922.26,570.50 922.67,566.67 925.00,564.33
             926.67,559.00 929.67,558.33 929.67,558.33
             929.67,558.33 935.33,562.00 937.33,564.00
             940.67,566.67 940.67,572.00 941.67,575.00
             941.67,575.00 956.00,589.00 956.00,589.00
             956.00,589.00 963.33,597.00 965.33,601.00
             966.33,603.67 970.71,611.29 972.38,612.62
             973.71,614.29 973.71,614.58 974.62,616.12
             975.12,617.12 974.00,624.75 973.38,628.00
             973.11,630.30 972.83,632.30 972.75,633.62
             971.00,636.75 971.50,635.75 969.50,638.00
             969.65,639.01 968.51,638.37 968.62,641.25
             968.73,643.80 970.06,647.22 970.38,650.38
             970.85,655.13 970.50,652.62 970.75,654.50
             969.88,655.25 968.00,649.00 968.00,649.00 Z
           M 981.25,644.75
           C 979.93,641.72 978.62,638.50 978.62,638.50
             978.79,636.16 978.25,635.75 976.62,632.50
             973.88,630.00 974.13,631.73 974.88,627.00
             975.24,624.68 974.82,623.47 975.12,622.00
             975.55,619.94 977.12,622.52 977.12,622.62
             977.12,622.66 979.28,626.36 979.38,626.50
             980.23,627.75 982.26,629.22 982.33,633.33
             983.38,637.38 982.75,647.12 983.67,650.00
             982.66,648.91 982.11,646.73 981.25,644.75 Z
           M 951.12,663.25
           C 953.10,661.10 957.02,655.70 958.25,652.88
             959.81,649.29 958.47,648.24 959.25,645.75
             960.75,643.88 960.72,645.11 960.88,642.00
             960.75,640.62 959.38,639.12 956.25,638.00
             955.38,636.62 956.12,630.25 957.00,628.12
             957.18,624.69 957.00,621.38 955.88,619.12
             955.41,620.67 955.00,624.38 954.25,629.38
             953.74,632.14 952.60,635.05 952.50,637.25
             952.41,638.24 951.27,639.58 950.75,640.75
             950.55,641.21 951.00,643.50 951.75,643.75
             952.95,644.61 953.83,645.97 954.50,647.12
             955.12,647.88 955.25,648.12 955.38,648.62
             956.25,650.00 955.12,652.00 954.75,652.75
             954.38,653.50 951.12,658.88 951.12,663.25 Z
           M 930.38,624.88
           C 927.88,625.00 925.38,626.88 925.38,627.00
             923.50,628.50 921.62,635.25 921.50,635.25
             921.12,637.75 920.00,639.62 918.25,641.00
             915.75,642.00 913.50,642.25 912.25,643.75
             911.50,644.50 910.88,645.12 910.38,646.62
             910.25,648.25 911.50,654.25 912.25,655.75
             908.62,653.00 907.50,647.50 907.50,645.50
             907.50,644.25 908.12,643.00 908.75,640.75
             908.88,639.12 910.00,637.75 911.00,636.00
             909.75,636.12 908.50,634.88 907.25,634.00
             907.75,633.38 908.12,632.88 909.62,632.62
             911.50,632.88 914.50,632.38 915.62,632.00
             917.88,631.25 919.50,630.75 920.25,629.25
             921.75,627.75 923.00,624.38 924.12,623.75
             926.50,623.12 927.50,622.62 930.38,624.88 Z
           M 913.50,687.62
           C 911.44,689.33 910.75,691.81 909.88,693.62
             909.88,693.62 909.50,689.50 911.12,686.62
             911.83,685.40 915.70,682.97 918.75,679.75
             922.23,676.07 924.97,671.63 926.50,671.50
             926.50,671.50 929.70,670.26 931.88,672.00
             935.15,674.62 935.75,677.88 937.88,680.75
             938.93,681.75 943.59,686.55 949.25,689.88
             955.62,693.62 963.00,695.88 963.00,695.88
             963.00,695.88 969.38,695.62 969.38,695.62
             969.38,695.62 976.75,692.00 976.75,692.00
             976.75,692.00 972.25,697.50 972.25,697.50
             972.25,697.50 977.00,704.38 977.00,704.50
             977.00,704.62 970.12,700.12 970.12,700.00
             970.12,699.88 964.00,698.50 964.00,698.50
             964.00,698.50 956.57,698.07 948.00,693.12
             943.64,690.61 939.38,683.38 935.75,681.62
             933.50,680.88 937.12,686.88 935.25,692.12
             934.53,689.68 933.25,687.38 931.50,682.62
             930.42,680.54 930.50,681.25 929.25,679.38
             928.25,678.25 921.38,683.88 918.62,685.12
            917.94,685.75 914.99,686.39 913.50,687.62 Z" />
  </g>
  <g id="rock2All" class="pointOfInterest genericWalkTo">
    <path id="rock2" class="rock rockFace" fill="none" vector-effect="non-scaling-stroke" stroke="black"
      stroke-width="1" d="M 746.00,537.88
               C 749.19,536.89 752.96,536.61 755.50,536.50
                 759.00,536.38 771.38,536.62 774.00,536.38
                 776.62,535.88 783.25,534.88 784.88,535.75
                 786.75,537.12 794.25,542.50 796.62,545.38
                 798.12,546.75 800.12,546.25 803.00,548.38
                 806.15,551.17 806.12,551.88 807.25,554.00
                 808.48,555.78 809.47,563.39 808.75,568.12
                 808.35,570.78 807.25,572.25 806.00,573.38
                 805.15,574.05 803.57,576.34 801.75,577.88
                 799.84,579.48 797.56,579.94 797.50,580.00
                 797.31,580.46 796.62,582.09 795.62,582.88
                 792.88,585.88 791.75,586.00 789.50,586.50
                 787.13,587.15 781.53,587.85 779.62,588.12
                 779.32,588.17 777.00,588.25 775.75,589.25
                 775.10,589.63 774.75,590.33 773.50,590.75
                 771.88,591.29 769.38,591.50 769.38,591.50
                 769.38,591.50 767.67,591.50 766.38,591.25
                 764.52,590.89 762.88,590.25 762.88,590.25
                 762.88,590.25 762.09,588.53 761.12,588.12
                 759.39,587.39 748.38,588.12 745.25,587.50
                 745.25,587.50 742.88,589.50 740.62,589.50
                 738.16,589.50 737.00,588.38 736.38,587.75
                 735.58,587.75 731.48,588.31 729.00,587.12
                 728.38,586.83 727.52,585.02 727.00,584.62
                 726.57,584.30 726.34,583.14 726.00,582.88
                 724.53,581.72 722.25,581.50 722.25,581.50
                 722.25,581.50 719.43,581.25 717.62,579.12
                 715.47,576.59 714.25,572.12 714.25,572.12
                 714.25,572.12 714.05,570.00 715.00,567.12
                 716.19,565.80 717.37,564.44 718.00,562.62
                 718.56,561.02 718.38,560.12 718.50,559.12
                 718.50,559.12 718.75,557.25 721.00,555.88
                 723.85,553.00 726.04,551.12 726.12,551.12
                 726.17,551.12 728.63,549.88 731.00,548.00
                 734.12,544.75 738.75,541.12 738.75,541.12
            738.75,541.12 741.97,539.12 746.00,537.88 Z" />
    <path id="rock2Shade" class="rock rockShade" fill="none" vector-effect="non-scaling-stroke" stroke="black"
      stroke-width="1" d="M 808.75,568.12
           C 808.35,570.78 807.25,572.25 806.00,573.38
             805.15,574.05 803.57,576.34 801.75,577.88
             799.84,579.48 797.56,579.94 797.50,580.00
             797.31,580.46 796.62,582.09 795.62,582.88
             792.88,585.88 791.75,586.00 789.50,586.50
             787.13,587.15 781.53,587.85 779.62,588.12
             779.32,588.17 777.00,588.25 775.75,589.25
             775.10,589.63 774.75,590.33 773.50,590.75
             771.88,591.29 769.38,591.50 769.38,591.50
             769.38,591.50 767.67,591.50 766.38,591.25
             764.52,590.89 762.88,590.25 762.88,590.25
             762.88,590.25 762.09,588.53 761.12,588.12
             759.39,587.39 748.38,588.12 745.25,587.50
             745.25,587.50 742.88,589.50 740.62,589.50
             738.16,589.50 737.00,588.38 736.38,587.75
             735.58,587.75 731.48,588.31 729.00,587.12
             728.38,586.83 727.52,585.02 727.00,584.62
             726.57,584.30 726.34,583.14 726.00,582.88
             724.53,581.72 722.25,581.50 722.25,581.50
             722.25,581.50 719.43,581.25 717.62,579.12
             715.47,576.59 714.25,572.12 714.25,572.12
             714.25,572.12 714.05,570.00 715.00,567.12
             716.19,565.80 717.37,564.44 718.00,562.62
             718.56,561.02 718.38,560.12 718.50,559.12
             718.50,559.12 720.12,559.00 720.00,560.62
             720.25,563.75 721.34,565.40 721.88,566.62
             723.25,568.62 729.45,573.64 731.45,574.73
             733.45,575.82 744.00,582.38 750.36,583.64
             753.25,584.25 763.25,584.50 765.82,583.82
             769.12,583.38 779.38,582.00 783.09,580.36
             784.07,579.82 787.18,579.15 788.88,578.25
             792.62,576.26 795.12,573.62 795.12,573.62
             795.12,573.62 800.50,570.50 802.62,570.38
            804.00,569.12 809.00,564.25 808.75,568.12 Z" />
    <path id="rock2Glare" class="rock rockGlare" fill="none" vector-effect="non-scaling-stroke" stroke="black"
      stroke-width="1" d="M 806.25,561.50
               C 805.50,560.75 803.75,560.38 803.12,559.25
                 802.88,558.00 801.50,556.75 800.88,555.62
                 800.38,554.38 797.12,552.12 796.25,551.75
                 795.81,551.42 794.38,549.25 792.00,547.88
                 789.00,546.12 787.38,544.25 786.38,543.38
                 785.00,542.50 781.38,539.75 779.50,539.38
                 778.84,539.33 775.44,538.69 773.00,538.38
                 768.05,537.73 763.05,537.20 764.75,537.12
                 768.25,537.00 771.38,536.62 774.00,536.38
                 776.62,535.88 783.25,534.88 784.88,535.75
                 786.75,537.12 794.25,542.50 796.62,545.38
                 798.12,546.75 800.12,546.25 803.00,548.38
                 806.15,551.17 806.12,551.88 807.25,554.00
                 808.48,555.78 808.85,559.14 808.12,563.88
                 807.72,566.53 806.75,562.12 806.25,561.50 Z
               M 778.12,549.62
               C 778.12,549.62 779.56,550.07 780.75,550.75
                 781.68,551.28 782.37,552.01 782.75,552.50
                 784.75,553.00 785.75,553.50 785.75,553.50
                 785.75,553.50 787.00,555.25 788.62,556.88
                 788.62,556.88 787.53,557.52 786.50,557.38
                 785.92,557.29 785.75,556.25 784.75,555.50
                 783.75,554.88 782.88,554.62 782.00,555.50
                 781.38,556.12 779.88,557.25 779.25,558.12
                 778.50,559.00 777.50,560.00 777.38,560.12
                 777.25,560.25 775.50,561.38 775.50,561.38
                 775.50,561.38 774.12,560.50 773.50,560.38
                 772.88,560.38 772.46,560.62 771.62,561.00
                 770.45,561.53 770.25,561.50 769.25,562.38
                 769.25,562.38 769.25,561.88 769.38,560.38
                 769.50,559.25 770.50,558.88 771.12,558.12
                 772.00,557.50 773.75,557.88 774.38,558.12
                 776.25,557.50 776.38,555.25 775.12,554.38
                 774.38,553.50 774.38,551.50 774.00,550.25
                 774.12,548.88 775.12,546.88 775.00,545.88
                 775.00,544.88 774.00,544.25 773.62,543.75
                 773.00,543.50 771.00,544.38 770.25,546.38
                 769.50,545.00 770.12,542.75 770.12,542.50
                 770.75,541.75 771.12,540.50 772.12,540.38
                 773.00,540.12 775.00,541.12 775.75,542.00
                 776.62,543.00 777.62,546.12 777.50,547.62
                 777.50,548.12 777.38,549.12 778.12,549.62 Z
               M 746.25,546.62
               C 745.75,545.12 745.75,544.50 746.62,544.38
                 747.75,545.38 748.88,547.00 749.25,549.00
                 749.88,549.62 749.50,552.50 748.75,553.88
                 748.38,554.50 748.50,555.25 748.12,556.12
                 748.62,557.00 749.38,558.00 749.25,559.38
                 749.38,560.25 746.75,561.50 745.75,562.12
                 745.12,562.25 744.25,560.88 743.38,560.00
                 743.38,560.75 742.88,565.00 742.00,566.88
                 741.62,567.50 740.00,568.00 739.12,568.00
                 739.38,567.00 740.75,566.25 741.00,564.62
                 741.12,563.25 741.25,561.75 741.62,560.50
                 741.62,559.00 742.75,555.88 742.62,556.25
                 742.62,556.25 745.88,554.62 745.88,554.62
                 745.88,554.62 747.62,552.62 747.38,551.38
            747.12,548.50 746.54,548.54 746.25,546.62 Z" />
  </g>
  <g id="rock3All" class="pointOfInterest genericWalkTo">
    <path id="rock3" class="rock rockFace" fill="none" vector-effect="non-scaling-stroke" stroke="black"
      stroke-width="1" d="M 873.88,480.12
               C 871.76,478.98 868.39,478.08 867.25,476.00
                 867.16,475.52 869.56,470.35 871.75,466.75
                 873.62,463.67 876.36,461.13 878.12,458.62
                 880.26,455.58 880.12,455.25 881.25,452.88
                 882.14,451.56 884.88,449.39 886.38,449.38
                 889.28,449.34 889.75,451.25 891.12,452.62
                 892.38,453.50 896.38,454.38 899.12,455.50
                 900.08,455.78 902.91,456.16 905.25,456.00
                 908.13,455.80 909.12,454.88 911.12,454.50
                 911.90,454.24 916.03,453.99 918.00,454.88
                 920.80,456.14 921.50,458.75 921.50,458.75
                 921.50,458.75 925.30,461.63 926.75,464.12
                 929.44,468.75 930.25,471.25 930.38,474.25
                 930.62,476.00 930.33,477.41 928.00,479.62
                 924.76,482.70 921.88,484.88 919.38,485.25
                 918.84,485.55 916.06,485.59 909.88,485.38
                 907.44,485.29 905.07,483.74 902.38,483.62
                 899.81,483.51 898.78,483.05 896.00,483.38
                 893.50,483.67 894.25,484.75 889.12,484.75
                 886.59,484.82 883.05,484.99 880.38,484.38
                 878.03,483.84 876.38,482.50 876.38,482.50
            876.38,482.50 875.70,481.12 873.88,480.12 Z" />
    <path id="rock3Shade" class="rock rockShade" fill="none" vector-effect="non-scaling-stroke" stroke="black"
      stroke-width="1" d="M 880.25,478.88
           C 881.75,479.62 890.50,479.00 894.00,479.25
             895.08,479.29 898.69,479.29 900.88,479.62
             904.78,480.23 907.78,481.29 909.62,481.12
             912.00,481.25 915.75,480.38 917.62,480.00
             919.12,479.75 920.75,480.20 923.12,479.88
             926.19,479.46 929.31,478.38 928.00,479.62
             924.76,482.70 921.88,484.88 919.38,485.25
             918.84,485.55 916.06,485.59 909.88,485.38
             907.44,485.29 905.07,483.74 902.38,483.62
             899.81,483.51 898.78,483.05 896.00,483.38
             893.50,483.67 894.25,484.75 889.12,484.75
             886.59,484.82 883.05,484.99 880.38,484.38
             878.03,483.84 876.38,482.50 876.38,482.50
             876.38,482.50 875.70,481.12 873.88,480.12
             871.76,478.98 868.39,478.08 867.25,476.00
             867.16,475.52 867.31,475.10 869.50,471.50
             870.48,469.89 871.70,471.79 873.00,473.25
             874.19,474.58 875.48,475.39 876.25,475.75
             879.38,476.25 878.00,478.12 880.25,478.88 Z" />
    <path id="rock3Glare" class="rock rockGlare" fill="none" vector-effect="non-scaling-stroke" stroke="black"
      stroke-width="1" d="M 875.88,461.75
           C 877.75,458.67 876.36,461.13 878.12,458.62
             880.26,455.58 880.12,455.25 881.25,452.88
             882.14,451.56 884.88,449.39 886.38,449.38
             889.28,449.34 889.75,451.25 891.12,452.62
             892.38,453.50 896.38,454.38 899.12,455.50
             900.08,455.78 902.91,456.16 905.25,456.00
             908.13,455.80 909.12,454.88 911.12,454.50
             911.90,454.24 916.03,453.99 918.00,454.88
             920.80,456.14 921.50,458.75 921.50,458.75
             921.50,458.75 925.30,461.63 926.75,464.12
             929.44,468.75 930.25,471.25 930.38,474.25
             930.27,475.55 930.84,474.41 929.00,476.12
             928.30,475.32 928.38,474.34 928.00,473.62
             927.03,471.79 926.38,470.62 926.38,470.62
             926.38,470.62 925.83,470.15 924.62,468.38
             923.79,467.15 922.35,465.62 921.38,464.62
             919.70,462.93 917.88,463.00 917.88,463.00
             917.88,463.00 917.51,461.85 915.75,460.50
             914.28,459.37 912.62,458.75 912.62,458.75
             912.62,458.75 910.15,457.94 908.50,458.00
             908.13,458.01 905.88,459.00 905.88,459.00
             905.88,459.00 903.85,460.44 901.75,461.38
             899.93,462.18 898.00,462.50 898.00,462.50
             898.00,462.50 894.75,459.75 894.75,459.75
             894.75,459.75 893.14,457.67 892.00,457.25
             891.02,456.89 889.30,457.20 888.50,457.12
             886.24,456.92 884.75,458.62 884.75,458.62
             884.75,458.62 880.25,459.75 880.25,459.75
             880.25,459.75 874.88,464.00 875.88,461.75 Z
           M 904.38,473.50
           C 903.73,473.23 902.89,473.21 901.50,472.88
             901.50,472.88 899.75,471.38 899.62,469.12
             899.62,469.12 897.50,469.88 894.88,472.75
             894.88,472.75 894.38,470.00 897.38,467.38
             897.38,467.38 899.38,466.62 901.25,466.00
             901.25,466.00 903.12,465.50 904.75,463.88
             906.12,463.00 907.88,461.62 909.38,461.62
             909.38,461.62 909.25,464.12 908.75,465.25
             907.88,466.00 906.62,467.38 905.00,468.12
             904.12,468.50 904.12,470.25 904.88,471.12
             904.88,471.12 906.50,472.00 906.50,472.12
             906.50,472.25 907.62,474.00 907.00,475.25
             906.00,474.75 905.66,474.03 904.38,473.50 Z
           M 916.57,473.70
           C 917.45,473.87 918.33,473.75 918.25,473.75
             918.20,473.75 917.32,473.23 916.91,472.74
             916.27,471.98 915.83,471.65 916.00,471.12
             916.39,470.00 916.22,468.91 916.00,468.50
             916.00,468.50 915.94,468.28 915.87,468.17
             915.64,467.81 915.13,467.74 915.12,467.12
             915.04,466.65 916.25,466.25 916.25,466.12
             914.78,466.00 913.25,466.62 913.00,466.88
             912.75,467.12 912.00,468.26 912.00,469.00
             912.00,469.83 912.83,470.92 912.83,471.17
             913.00,471.91 911.52,471.87 911.25,472.62
             911.17,473.00 910.36,473.16 910.09,473.87
             911.04,473.70 912.54,473.42 913.04,473.17
             913.42,472.78 914.55,472.34 915.25,473.12
             915.40,473.24 916.04,473.60 916.57,473.70 Z
           M 915.65,479.04
           C 916.13,478.74 916.26,478.30 916.30,477.83
             916.43,476.61 915.48,476.39 915.22,476.22
             914.74,475.91 914.00,475.91 913.48,476.09
             912.91,476.09 912.04,476.39 911.52,476.70
             910.91,477.13 909.43,477.61 908.96,477.91
             908.70,478.04 907.87,478.70 907.74,479.00
             909.04,478.70 910.26,478.65 910.91,478.96
             911.61,479.13 912.13,478.65 912.39,478.26
             912.91,478.04 913.22,478.22 913.70,478.43
             914.35,479.09 915.17,479.22 915.65,479.04 Z" />
  </g>
  <g id="flamingoneLayer" />

  <defs id="mapDefs">
    <linearGradient id='gradDirt' x1='0%' y1='100%' x2='100%' y2='0%'>
      <stop id='gradDirtStop0' class='gradStop' offset='0%' />
      <stop id='gradDirtStop100' class='gradStop' offset='100%' />
    </linearGradient>
    <radialGradient id='gradPines' cx='50%' cy='50%' r='50%' fx='50%' fy='50%'>
      <stop id='gradPinesStop0' class='gradStop' offset='0%' />
      <stop id='gradPinesStop100' class='gradStop' offset='100%' />
    </radialGradient>
    <radialGradient id='gradTrunk' cx='50%' cy='50%' r='50%' fx='50%' fy='50%'>
      <stop id='gradTrunkStop0' class='gradStop' offset='0%' />
      <stop id='gradTrunkStop100' class='gradStop' offset='100%' />
    </radialGradient>

    <!-- Sky patterns -->
    <!-- href links need to be moved to css if possible -->
    <pattern id='patSkyBot' x='0' y='0' width='1024' height='768' patternUnits='userSpaceOnUse'>
      <image xlink:href='assets/firstMap/skyGrayBot.png' x='0' y='0' width='1024' height='768' />
    </pattern>
    <pattern id='patSkyMid' x='0' y='0' width='1024' height='768' patternUnits='userSpaceOnUse'>
      <image xlink:href='assets/firstMap/skyGrayMid.png' x='0' y='0' width='1024' height='768' />
    </pattern>
    <pattern id='patSkyTop' x='0' y='0' width='1024' height='768' patternUnits='userSpaceOnUse'>
      <image xlink:href='assets/firstMap/skyGrayTop.png' x='0' y='0' width='1024' height='768' />
    </pattern>
  </defs>
</svg>