<?xml version="1.0" encoding="UTF-8" standalone="no"?>
<!DOCTYPE svg PUBLIC "-//W3C//DTD SVG 20010904//EN"
              "http://www.w3.org/TR/2001/REC-SVG-20010904/DTD/svg10.dtd">

<svg xmlns="http://www.w3.org/2000/svg"
     width="59.0222in" height="33.2in"
     viewBox="0 0 5312 2988">
  <path id="eyeProfileFaceSkin"
        fill="none" stroke="black" stroke-width="1"
        d="M -508.00,2604.00
           C -429.32,2560.79 -381.00,2496.00 -381.00,2496.00
             -381.00,2496.00 -705.00,2320.00 -806.00,2396.00
             -838.27,2420.28 -891.32,2404.75 -950.00,2372.00
             -972.76,2359.30 -994.51,2337.23 -1019.00,2324.00
             -1048.50,2308.06 -1078.51,2281.44 -1106.00,2266.00
             -1181.00,2223.87 -1240.00,2199.00 -1240.00,2199.00
             -1240.00,2199.00 -1273.08,2122.35 -1320.00,2083.00
             -1364.76,2045.46 -1348.99,2014.67 -1243.00,1962.00
             -1171.64,1926.54 -1157.92,1805.29 -1032.00,1746.00
             -882.05,1675.40 -621.14,1670.26 -582.00,1692.00
             -548.28,1710.73 -431.20,2010.02 -351.00,2124.00
             -259.95,2253.39 -299.00,2495.00 -299.00,2495.00
             -299.00,2495.00 -326.00,3133.81 -326.00,3133.00
             -326.00,3132.00 -1148.00,3011.00 -1148.00,3011.00
             -1148.00,3011.00 -1335.00,2940.00 -1352.00,2863.00
             -1320.00,2838.00 -1234.79,2879.65 -1172.00,2861.00
             -996.47,2808.86 -918.00,2669.00 -796.00,2676.00
             -796.00,2676.00 -751.00,2686.00 -715.00,2675.00
             -696.94,2669.48 -587.25,2647.52 -508.00,2604.00 Z" />
</svg>
