<?xml version="1.0" encoding="UTF-8" standalone="no"?>
<!DOCTYPE svg PUBLIC "-//W3C//DTD SVG 20010904//EN"
              "http://www.w3.org/TR/2001/REC-SVG-20010904/DTD/svg10.dtd">

<svg xmlns="http://www.w3.org/2000/svg"
     width="59.0222in" height="33.2in"
     viewBox="0 0 5312 2988">
  <path id="eyeProfileLashes"
        fill="none" stroke="black" stroke-width="1"
        d="M -1263.00,2638.00
           C -1221.48,2634.62 -1169.31,2603.35 -1141.00,2555.00
             -1110.67,2503.19 -1106.31,2432.66 -1127.00,2383.00M -1098.00,2591.00
           C -1098.00,2591.00 -1103.36,2610.72 -1105.00,2640.00
             -1107.07,2676.90 -1103.96,2726.18 -1085.00,2739.00M -1056.00,2636.00
           C -1056.00,2636.00 -954.00,2501.00 -997.00,2409.00M -966.00,2604.00
           C -966.00,2604.00 -950.14,2630.83 -910.00,2658.00
             -902.75,2662.91 -881.94,2668.22 -873.00,2673.00
             -842.51,2689.30 -819.22,2702.97 -811.00,2704.00M -896.00,2585.00
           C -896.00,2585.00 -846.00,2636.00 -807.00,2635.00M -854.00,2582.00
           C -854.00,2582.00 -819.00,2475.00 -830.00,2441.00" />
</svg>
