<?xml version="1.0" encoding="UTF-8" standalone="no"?>
<!DOCTYPE svg PUBLIC "-//W3C//DTD SVG 20010904//EN"
              "http://www.w3.org/TR/2001/REC-SVG-20010904/DTD/svg10.dtd">

<svg xmlns="http://www.w3.org/2000/svg"
     width="59.0222in" height="33.2in"
     viewBox="0 0 5312 2988">
  <path id="eyeProfileLids"
        fill="none" stroke="black" stroke-width="1"
        d="M -1296.00,2908.00
           C -1296.00,2908.00 -1318.00,2866.00 -1334.00,2804.00
             -1341.30,2775.73 -1317.75,2728.35 -1296.00,2691.00
             -1270.06,2646.44 -1241.90,2613.25 -1206.00,2604.00
             -1140.00,2587.00 -1083.65,2600.14 -968.00,2589.00
             -903.42,2582.78 -840.95,2569.27 -803.00,2565.00
             -779.46,2562.35 -771.00,2555.00 -771.00,2555.00
             -771.00,2555.00 -844.82,2543.58 -940.00,2527.00
             -989.02,2518.46 -1044.97,2512.09 -1096.00,2498.00
             -1179.88,2474.83 -1253.32,2438.04 -1282.00,2390.00
             -1305.57,2350.51 -1310.23,2311.77 -1320.00,2274.00
             -1343.38,2183.59 -1342.00,2109.00 -1346.00,2108.00
             -1290.00,1995.00 -1174.00,2032.00 -1174.00,2032.00
             -1174.00,2032.00 -338.00,2482.00 -336.00,2478.00
             -334.00,2474.00 -340.00,3072.00 -340.00,3072.00
             -340.00,3072.00 -1296.00,2908.00 -1296.00,2908.00 Z" />
</svg>
