<?xml version="1.0" encoding="UTF-8" standalone="no"?>
<!DOCTYPE svg PUBLIC "-//W3C//DTD SVG 20010904//EN" "http://www.w3.org/TR/2001/REC-SVG-20010904/DTD/svg10.dtd">

<svg id="orchardMap" xmlns="http://www.w3.org/2000/svg" viewBox="0 0 5312 2988" preserveAspectRatio="none">
  <defs>
    <path id="appleMouth25" d="M 3816.25,1929.75
           C 3816.25,1929.75 3820.68,1918.80 3848.18,1916.55
             3858.00,1918.36 3865.27,1930.91 3872.00,1930.91
             3888.12,1930.02 3884.55,1914.36 3903.09,1927.64
             3921.64,1940.91 3936.00,1928.00 3936.00,1928.00" />
    <path id="appleMouth50" d="M 3816.25,1929.75
           C 3816.25,1929.75 3833.94,1913.39 3856.18,1912.36
             3859.26,1912.22 3872.66,1934.27 3876.00,1934.00
             3892.30,1932.67 3899.78,1919.48 3916.36,1922.55
             3927.76,1924.66 3936.00,1928.00 3936.00,1928.00" />
    <path id="appleMouth75" d="M 3816.25,1929.75
           C 3816.25,1929.75 3828.68,1934.80 3856.18,1932.55
             3861.77,1932.09 3862.81,1909.94 3866.91,1907.27
             3874.77,1902.15 3884.74,1915.44 3895.64,1917.45
             3907.04,1919.56 3936.00,1928.00 3936.00,1928.00" />
    <path id="appleMouth100" d="M 3816.25,1929.75
           C 3816.25,1929.75 3819.95,1938.25 3847.45,1936.00
             3863.75,1934.67 3879.06,1916.20 3895.64,1919.27
             3907.04,1921.38 3936.00,1928.00 3936.00,1928.00" />
    <path id="speechBubble100" d="M -875.00,594.50
           C -884.83,598.13 -894.52,604.95 -905.00,605.00
             -917.74,605.06 -925.07,596.86 -941.00,600.00
             -946.27,601.04 -956.30,602.63 -962.50,605.50
             -974.98,611.28 -985.00,622.50 -990.50,621.50
             -996.00,620.50 -991.18,603.88 -996.50,601.00
             -996.50,601.00 -971.04,612.40 -943.00,584.50
             -934.52,576.06 -927.33,554.00 -919.00,543.00
             -914.53,537.10 -909.11,534.26 -905.00,527.50
             -900.32,519.80 -901.47,511.52 -897.33,502.67
             -893.59,494.66 -880.00,486.00 -878.00,474.00
             -876.00,462.00 -878.00,457.33 -874.49,448.16
             -870.98,438.99 -875.68,429.03 -876.67,417.33
             -877.60,406.26 -876.35,398.13 -877.33,385.33
             -878.36,371.91 -881.62,353.82 -883.33,342.00
             -886.69,318.80 -879.34,309.64 -877.33,290.67
             -876.82,285.78 -886.65,268.50 -885.33,264.00
             -882.77,255.26 -884.15,233.77 -889.33,213.33
             -896.55,184.90 -908.57,156.24 -904.67,146.67
             -891.14,113.51 -868.38,83.47 -854.00,80.00
             -848.48,79.58 -833.08,76.10 -813.33,69.33
             -805.27,66.57 -797.97,60.07 -788.00,58.00
             -780.34,56.41 -764.30,58.40 -756.67,57.33
             -745.66,55.80 -737.56,50.89 -727.33,52.00
             -715.69,53.26 -691.83,66.50 -682.00,67.00
             -672.17,67.50 -648.32,74.59 -641.00,75.00
             -620.54,76.15 -616.66,67.86 -588.50,74.00
             -566.81,78.73 -550.50,89.50 -532.00,103.50
             -524.68,108.44 -516.28,109.70 -509.50,114.50
             -498.66,122.18 -490.29,133.35 -484.50,141.00
             -467.86,163.00 -456.39,193.33 -449.00,223.50
             -442.32,250.76 -439.31,277.75 -432.50,301.00
             -399.62,413.22 -390.50,490.50 -397.50,505.50
             -402.80,516.87 -415.61,573.29 -437.00,599.00
             -443.84,607.22 -448.43,606.91 -458.00,608.00
             -462.51,608.51 -482.40,606.06 -506.50,606.50
             -524.98,606.84 -549.03,606.23 -568.50,607.00
             -585.59,607.68 -598.62,609.93 -608.50,608.00
             -627.63,604.27 -632.55,594.04 -649.50,588.50
             -658.96,585.41 -680.46,583.29 -689.50,580.00
             -742.91,560.57 -775.01,537.80 -788.00,528.00
             -814.50,508.00 -832.00,554.00 -847.50,580.00
             -852.77,588.84 -863.77,590.35 -875.00,594.50 Z" />
  </defs>
  <path id="distantTrees" stroke="black" stroke-width="1" d="M -434.50,660.00
           C -434.28,658.81 -288.76,649.46 -9.50,646.00
             15.28,645.69 41.47,652.61 74.50,654.00
             108.93,655.44 150.29,651.36 179.50,651.00
             237.40,650.29 300.23,642.90 364.00,642.50
             400.17,642.27 448.31,647.65 497.92,653.32
             529.24,656.89 567.69,661.63 602.00,659.50
             627.94,657.89 650.93,649.60 670.00,649.50
             676.73,649.46 742.72,654.04 749.50,654.00
             790.11,653.78 843.41,656.23 885.50,656.00
             895.30,655.95 908.12,665.55 918.00,665.50
             927.71,665.45 938.77,667.42 948.50,666.50
             976.66,663.83 1003.61,656.17 1032.50,656.00
             1079.74,655.73 1114.79,660.69 1151.50,659.00
             1181.15,657.63 1213.01,649.87 1244.50,647.50
             1289.42,644.12 1344.26,637.35 1403.00,637.00
             1479.97,636.54 1520.17,643.91 1599.50,643.50
             1605.67,643.47 1649.81,659.53 1656.00,659.50
             1690.66,659.51 1758.74,659.30 1793.00,657.50
             1816.07,656.29 1807.29,653.40 1825.00,653.00
             1841.50,652.99 1848.01,661.01 1864.50,661.00
             1888.17,660.98 1936.84,645.53 1960.50,645.50
             1987.17,645.46 2026.86,629.04 2053.50,629.00
             2090.62,628.94 2127.49,633.05 2164.50,633.00
             2222.33,632.92 2280.02,636.08 2337.50,636.00
             2363.22,635.96 2390.36,625.04 2416.00,625.00
             2483.82,624.90 2553.91,631.58 2621.00,631.50
             2639.32,631.48 2657.75,627.02 2676.00,627.00
             4200.50,625.28 5496.00,628.00 5496.00,628.00
             5496.00,628.00 5496.00,904.00 5496.00,904.00
             5496.00,904.00 -352.00,904.00 -352.00,904.00
             -352.00,904.00 -434.50,660.00 -434.50,660.00 Z" />
  <path id="ground" class="ground" stroke="black" stroke-width="1" d="M 51.00,687.00
           C 51.00,687.00 216.37,682.47 406.00,684.00
             643.45,685.92 916.00,694.00 916.00,694.00
             916.00,694.00 1206.84,687.25 1484.00,684.00
             1538.26,683.36 1599.82,689.97 1650.00,689.00
             1816.97,685.78 1953.00,674.00 1953.00,674.00
             1953.00,674.00 2240.73,661.43 2511.00,667.00
             2590.13,668.63 2679.86,684.86 2754.00,688.00
             2989.63,697.97 3167.00,699.00 3167.00,699.00
             3167.00,699.00 3616.00,697.00 3616.00,697.00
             3616.00,697.00 3936.04,689.27 4182.00,694.00
             4333.64,696.91 4422.00,736.00 4467.00,715.00
             4512.00,694.00 4746.00,673.00 4795.00,671.00
             4844.00,669.00 4939.00,687.00 5008.00,693.00
             5077.00,699.00 5566.00,709.50 5566.00,709.50
             5566.00,709.50 5659.50,3646.50 5659.50,3646.50
             5659.50,3646.50 -352.00,3685.00 -352.00,3685.00
             -352.00,3685.00 -352.00,698.50 -352.00,698.50
             -352.00,698.50 51.00,687.00 51.00,687.00 Z" />
  <path id="groundLeftMiddle" class="ground" stroke="black" stroke-width="1" d="M 3776.00,1850.00
           C 3776.00,1850.00 3638.00,1793.00 3658.00,1770.00
             3692.00,1751.00 3800.00,1760.00 3800.00,1760.00
             3800.00,1760.00 3863.00,1738.00 3888.00,1716.00
             3888.00,1693.00 3753.00,1640.00 3708.00,1625.00
             3762.00,1593.00 3934.65,1703.68 4068.00,1721.00
             4104.67,1725.76 4162.04,1707.88 4178.00,1704.00
             4192.33,1700.51 4224.07,1698.55 4196.00,1686.00
             4079.15,1633.75 3634.00,1516.00 3634.00,1516.00
             3634.00,1516.00 3456.28,1468.22 3310.00,1448.00
             3099.30,1418.88 2896.00,1414.00 2896.00,1414.00
             2896.00,1414.00 2839.34,1398.05 2825.00,1386.00
             2794.47,1360.35 2783.11,1322.40 2705.00,1283.00
             2616.78,1238.50 2506.75,1211.87 2385.00,1180.00
             2314.85,1161.64 2140.14,1229.99 2083.63,1212.88
             2002.25,1188.24 1941.49,1166.11 1920.00,1150.00
             1880.86,1122.04 1935.23,1125.94 2011.00,1120.00
             2097.83,1113.20 2211.84,1099.58 2230.00,1114.00
             2478.00,1147.00 1557.00,846.00 1490.00,822.00
             1423.00,798.00 -134.00,716.00 -134.00,716.00
             -134.00,716.00 -379.50,3250.50 -379.50,3250.50
             -379.50,3250.50 6209.50,3349.50 6209.50,3349.50
             6209.50,3349.50 6055.50,1941.50 6055.50,1941.50
             6078.55,2075.15 3782.91,1890.09 3776.00,1850.00 Z" />
  <path id="groundLeftHigh" class="ground" stroke="black" stroke-width="1" d="M 5813.50,3476.00
           C 5813.50,3476.00 -297.00,3388.00 -297.00,3388.00
             -297.00,3388.00 -539.00,753.50 -539.00,753.50
             -539.83,757.80 104.47,739.35 740.00,780.00
             961.09,794.14 1258.39,804.29 1450.00,838.00
             1669.84,877.45 1755.80,958.34 1881.00,1034.00
             1929.20,1115.76 1519.65,1277.75 2029.50,1424.50
             2138.83,1455.15 2244.93,1512.11 2370.00,1544.00
             2601.15,1602.93 2788.70,1693.73 3070.00,1736.00
             3165.38,1750.33 3338.51,1718.26 3437.50,1732.50
             3495.05,1740.78 3564.13,1813.93 3658.00,1820.00
             3709.21,1823.31 3746.64,1786.32 3804.00,1786.00
             3900.80,1812.36 3917.20,1814.97 4036.00,1784.00
             4039.27,1783.15 4042.58,1786.91 4046.00,1786.00
             4129.66,1785.20 4238.46,1801.09 4330.00,1804.00
             4378.49,1805.54 4439.19,1827.03 4478.00,1826.00
             4525.41,1824.74 4553.00,1818.00 4576.00,1804.00
             4782.78,1826.90 4947.59,1878.83 5098.50,1897.50
             5587.90,1958.05 5808.00,1963.50 5808.00,1963.50
             5808.00,1963.50 5813.50,3476.00 5813.50,3476.00 Z" />
  <path id="groundLeftHighest" class="ground" stroke="black" stroke-width="1" d="M 4952.00,1932.00
           C 4714.61,1908.58 4479.86,1859.96 4224.00,1844.00
             4049.84,1850.89 3900.77,1875.48 3744.00,1864.00
             3622.64,1855.11 3489.90,1810.56 3380.00,1808.00
             3083.42,1801.08 2940.00,1812.00 2796.00,1768.00
             2652.00,1724.00 2507.49,1706.76 2268.00,1624.00
             2045.70,1547.18 1842.40,1440.59 1764.00,1340.00
             1657.66,1203.57 1924.42,1090.93 1768.00,1038.00
             1655.01,999.77 1505.47,1241.26 1276.00,1272.00
             701.25,1349.00 -104.00,1336.00 -104.00,1336.00
             -104.00,1336.00 -160.00,3056.00 -160.00,3056.00
             -160.00,3056.00 6192.00,3116.00 6192.00,3116.00
             6192.00,3116.00 5836.00,2108.00 5836.00,2108.00
             5836.00,2108.00 5406.55,1976.85 4952.00,1932.00 Z" />
  <path id="groundRightHighest" class="ground" stroke="black" stroke-width="1" d="M 4428.00,1376.00
           C 3965.48,1233.46 3482.97,1235.53 3340.00,1132.00
             3163.81,1004.41 3816.63,1026.91 4450.00,930.00
             5067.60,835.51 5746.00,784.00 5746.00,784.00
             5746.00,784.00 5764.00,1920.00 5764.00,1920.00
             5764.00,1920.00 5091.26,1580.41 4428.00,1376.00 Z" />
  <path id="westRoad" class="pointOfInterest dirt road" fill="none" stroke="black" stroke-width="1" d="M 262.50,874.50
           C 262.50,874.50 208.00,860.00 192.00,861.00
             176.00,862.00 151.33,868.00 133.50,867.00
             115.67,866.00 78.67,893.33 63.00,880.50
             52.63,872.01 16.61,851.15 -6.67,826.67
             -18.57,814.15 -25.81,792.79 -27.33,788.00
             -27.33,788.00 -38.67,636.00 -38.67,636.00
             -38.67,636.00 -1.92,835.96 57.00,819.00
             70.00,815.33 92.67,850.67 123.00,837.00
             153.33,823.33 150.00,840.67 171.33,844.67
             192.67,848.67 231.67,849.33 244.50,852.00
             257.33,854.67 262.67,871.33 262.50,874.50 Z
           M 45.33,832.00
           C 45.33,832.00 38.67,826.00 31.33,836.67
             24.00,847.33 49.33,841.33 59.33,841.33
             69.33,841.33 45.33,832.00 45.33,832.00 Z
           M 85.00,872.75
           C 86.44,871.69 90.00,870.00 90.00,870.00
             90.00,870.00 78.75,866.25 78.00,869.33
             77.25,872.42 74.50,873.17 78.00,875.33
             80.31,876.76 82.22,874.81 85.00,872.75 Z
           M 180.00,874.75
           C 176.25,873.50 173.75,874.00 173.75,874.00
             173.75,874.00 179.50,868.25 181.50,868.50
             183.50,868.75 183.75,876.00 180.00,874.75 Z
           M 229.00,844.00
           C 229.00,844.00 225.75,845.00 225.75,845.00
             225.75,845.00 220.00,847.00 222.50,843.50
             225.00,840.00 229.00,844.00 229.00,844.00 Z
           M 146.75,840.00
           C 148.50,837.75 141.25,837.75 141.25,837.75
             141.25,837.75 137.50,840.50 137.50,840.50
             137.50,840.50 145.00,842.25 146.75,840.00 Z" />
  <path id="snowBackground" class="snow" stroke="black" stroke-width="1" d="M 1556.50,789.50
           C 1540.80,790.31 1522.25,797.14 1502.50,796.50
             1482.28,795.85 1456.75,789.89 1431.00,789.50
             1401.85,789.06 1372.42,794.14 1350.50,792.50
             1301.75,788.85 1274.00,790.50 1282.67,781.67
             1291.33,772.83 1305.59,775.24 1348.50,774.50
             1371.28,774.11 1398.55,778.05 1426.50,778.00
             1452.70,777.95 1479.44,774.77 1505.50,774.50
             1518.92,774.36 1526.98,776.01 1539.50,776.00
             1549.71,775.99 1559.51,773.54 1569.00,773.50
             1614.27,773.32 1649.00,775.33 1649.00,775.33
             1649.00,775.33 1702.50,786.50 1702.50,786.50
             1702.50,786.50 1602.00,792.00 1602.00,792.00
             1602.00,792.00 1583.59,788.11 1556.50,789.50 Z
           M 1694.00,773.50
           C 1697.50,767.00 1707.20,769.49 1738.00,768.00
             1774.04,766.26 1823.38,760.78 1870.50,759.50
             1886.56,759.06 1901.51,759.98 1916.00,760.00
             1958.91,760.05 1980.00,758.00 1987.50,763.50
             1987.50,763.50 1944.19,767.59 1894.50,773.00
             1878.50,774.74 1861.66,774.27 1847.00,776.00
             1814.77,779.80 1788.85,784.50 1788.50,784.50
             1787.50,784.50 1703.50,786.50 1694.00,773.50 Z" />
  <path id="snowMidground" class="snow" stroke="black" stroke-width="1" d="M 62.67,953.33
           C 78.57,955.35 99.84,955.98 117.33,959.00
             138.17,962.60 154.00,968.81 154.00,974.00
             129.82,965.66 104.04,965.58 84.67,967.33
             57.56,969.79 54.00,980.00 39.67,976.67
             -21.67,945.00 34.33,948.33 36.33,948.33
             36.97,948.33 46.42,951.27 62.67,953.33 Z
           M 553.00,995.00
           C 520.43,993.12 499.40,995.33 458.67,988.00
             395.13,976.57 353.79,971.77 363.33,965.00
             370.66,959.80 432.28,956.73 501.00,961.00
             518.40,962.08 536.87,968.47 554.67,970.00
             642.33,977.55 726.00,974.33 726.00,984.00
             726.00,984.00 720.49,991.57 701.67,995.67
             693.50,997.44 686.91,992.96 675.67,994.00
             655.03,995.91 627.38,1002.55 606.67,1002.67
             589.02,1002.77 567.24,995.82 553.00,995.00 Z
           M 798.00,1003.33
           C 769.09,998.99 747.06,983.33 755.00,983.33
             758.19,983.33 780.90,983.75 809.00,981.00
             822.38,979.69 834.93,973.72 851.00,974.00
             868.08,974.30 885.33,978.52 903.00,979.67
             911.86,980.24 920.43,975.76 929.00,976.33
             949.02,977.67 970.27,977.85 989.33,977.67
             1003.16,977.53 1016.68,976.86 1023.67,978.00
             1031.82,979.33 1025.65,987.01 1024.00,988.00
             1019.00,991.00 1000.07,990.99 969.33,996.33
             957.76,998.35 945.30,1004.97 932.67,1005.67
             922.11,1006.25 911.04,1000.21 901.00,999.67
             869.22,997.93 843.67,998.00 843.67,998.00
             843.67,998.00 812.79,1005.56 798.00,1003.33 Z
           M 790.00,1099.00
           C 781.30,1099.68 772.79,1102.13 763.00,1102.00
             737.09,1101.66 712.35,1096.73 713.33,1091.33
             714.00,1087.67 733.39,1084.09 769.33,1085.67
             785.78,1086.39 801.79,1090.95 821.00,1092.00
             840.39,1093.06 862.99,1090.61 881.00,1092.33
             892.49,1093.43 902.71,1095.81 912.33,1097.00
             938.04,1100.18 951.67,1103.00 945.67,1105.67
             941.75,1107.41 924.05,1104.89 900.67,1104.33
             888.18,1104.04 873.69,1106.07 859.67,1105.67
             834.84,1104.95 818.00,1098.00 818.00,1098.00
             818.00,1098.00 805.19,1097.81 790.00,1099.00 Z
           M 925.00,1155.33
           C 912.33,1161.00 883.33,1178.67 894.00,1180.00
             934.67,1173.00 1015.33,1180.00 1000.00,1172.00
             984.67,1164.00 937.67,1149.67 925.00,1155.33 Z" />
  <g id="flamingoneLayer"></g>
  <g id="fence" class="pointOfInterest">
    <path id="fencePosts" class="wood" stroke="black" stroke-width="1" d="M 748.00,2020.00
           C 748.00,2020.00 744.00,1740.00 744.00,1740.00
             744.00,1740.00 792.00,1740.00 792.00,1740.00
             792.00,1740.00 792.00,2020.00 792.00,2020.00
             792.00,2020.00 748.00,2020.00 748.00,2020.00 Z
           M 1268.00,2128.00
           C 1268.00,2128.00 1244.00,1860.00 1244.00,1860.00
             1244.00,1860.00 1284.00,1860.00 1284.00,1860.00
             1284.00,1860.00 1308.00,2132.00 1308.00,2132.00
             1308.00,2132.00 1268.00,2128.00 1268.00,2128.00 Z
           M 1804.00,2192.00
           C 1804.00,2192.00 1812.00,1924.00 1812.00,1924.00
             1812.00,1924.00 1856.00,1916.00 1856.00,1916.00
             1856.00,1916.00 1848.00,2216.00 1848.00,2216.00
             1848.00,2216.00 1804.00,2192.00 1804.00,2192.00 Z
           M 2352.00,2236.00
           C 2352.00,2236.00 2352.00,1984.00 2352.00,1984.00
             2352.00,1984.00 2384.00,1976.00 2384.00,1976.00
             2384.00,1976.00 2396.00,2252.00 2396.00,2252.00
             2396.00,2252.00 2352.00,2236.00 2352.00,2236.00 Z
           M 2916.00,2292.00
           C 2916.00,2292.00 2924.00,2024.00 2924.00,2024.00
             2924.00,2024.00 2960.00,2024.00 2960.00,2024.00
             2960.00,2024.00 2956.00,2292.00 2956.00,2292.00
             2956.00,2292.00 2916.00,2292.00 2916.00,2292.00 Z
           M 3508.00,2312.00
           C 3508.00,2312.00 3528.00,2048.00 3528.00,2048.00
             3528.00,2048.00 3548.00,2048.00 3552.00,2056.00
             3556.00,2064.00 3544.00,2328.00 3544.00,2328.00
             3544.00,2328.00 3508.00,2312.00 3508.00,2312.00 Z
           M 4092.00,2332.00
           C 4092.00,2332.00 4116.00,2084.00 4116.00,2084.00
             4116.00,2084.00 4140.00,2080.00 4140.00,2080.00
             4140.00,2080.00 4132.00,2336.00 4132.00,2336.00
             4132.00,2336.00 4092.00,2332.00 4092.00,2332.00 Z
           M 4672.00,2364.00
           C 4672.00,2364.00 4684.00,2096.00 4684.00,2096.00
             4684.00,2096.00 4724.00,2100.00 4724.00,2100.00
             4724.00,2100.00 4720.00,2368.00 4720.00,2368.00
             4720.00,2368.00 4672.00,2364.00 4672.00,2364.00 Z" />
    <path id="fenceBottom" class="wood" stroke="black" stroke-width="1" d="M 756.00,1920.00
           C 756.00,1920.00 1268.00,2028.00 1268.00,2028.00
             1268.00,2028.00 1824.00,2100.00 1824.00,2100.00
             1824.00,2100.00 2376.00,2160.00 2376.00,2160.00
             2376.00,2160.00 2928.00,2216.00 2928.00,2216.00
             2928.00,2216.00 3532.00,2244.00 3532.00,2244.00
             3532.00,2244.00 4116.00,2268.00 4116.00,2268.00
             4116.00,2268.00 4692.00,2296.00 4692.00,2296.00
             4692.00,2296.00 5460.00,2324.00 5460.00,2324.00
             5460.00,2324.00 5408.00,2368.00 5408.00,2368.00
             5408.00,2368.00 4696.00,2336.00 4696.00,2336.00
             4696.00,2336.00 4120.00,2308.00 4120.00,2308.00
             4120.00,2308.00 3532.00,2284.00 3532.00,2284.00
             3532.00,2284.00 2928.00,2260.00 2928.00,2260.00
             2928.00,2260.00 2356.00,2212.00 2356.00,2212.00
             2356.00,2212.00 1812.00,2144.00 1812.00,2144.00
             1812.00,2144.00 1260.00,2072.00 1260.00,2072.00
             1260.00,2072.00 744.00,1972.00 744.00,1972.00
             744.00,1972.00 -280.00,1696.00 -280.00,1696.00
             -280.00,1696.00 -112.00,1700.00 -112.00,1700.00
             -112.00,1700.00 756.00,1920.00 756.00,1920.00 Z" />
    <path id="fenceMiddle" class="wood" stroke="black" stroke-width="1" d="M 772.00,1828.00
           C 772.00,1828.00 1256.00,1940.00 1256.00,1940.00
             1256.00,1940.00 1824.00,2008.00 1824.00,2008.00
             1824.00,2008.00 2368.00,2064.00 2368.00,2064.00
             2368.00,2064.00 2932.00,2108.00 2932.00,2108.00
             2932.00,2108.00 3544.00,2136.00 3544.00,2136.00
             3544.00,2136.00 4120.00,2172.00 4120.00,2172.00
             4120.00,2172.00 4696.00,2188.00 4696.00,2188.00
             4696.00,2188.00 5488.00,2228.00 5488.00,2228.00
             5488.00,2228.00 5352.00,2264.00 5352.00,2264.00
             5352.00,2264.00 4688.00,2236.00 4688.00,2236.00
             4688.00,2236.00 4120.00,2204.00 4120.00,2204.00
             4120.00,2204.00 3536.00,2192.00 3536.00,2192.00
             3536.00,2192.00 2928.00,2152.00 2928.00,2152.00
             2928.00,2152.00 2364.00,2104.00 2364.00,2104.00
             2364.00,2104.00 1824.00,2048.00 1824.00,2048.00
             1824.00,2048.00 1260.00,1980.00 1260.00,1980.00
             1260.00,1980.00 776.00,1876.00 776.00,1876.00
             776.00,1876.00 -144.00,1652.00 -144.00,1652.00
             -144.00,1652.00 -64.00,1640.00 -64.00,1636.00
             -64.00,1632.00 772.00,1828.00 772.00,1828.00 Z" />
    <path id="fenceTop" class="wood" stroke="black" stroke-width="1" d="M 128.00,1568.00
           C 128.00,1568.00 764.00,1732.00 764.00,1732.00
             764.00,1732.00 1268.00,1844.00 1268.00,1844.00
             1268.00,1844.00 1820.00,1912.00 1820.00,1912.00
             1820.00,1912.00 2368.00,1968.00 2368.00,1968.00
             2368.00,1968.00 2940.00,2008.00 2940.00,2008.00
             2940.00,2008.00 3540.00,2048.00 3540.00,2048.00
             3540.00,2048.00 4136.00,2064.00 4136.00,2064.00
             4136.00,2064.00 4704.00,2092.00 4704.00,2092.00
             4704.00,2092.00 5452.00,2132.00 5452.00,2132.00
             5452.00,2132.00 5400.00,2176.00 5400.00,2176.00
             5400.00,2176.00 4712.00,2144.00 4712.00,2144.00
             4712.00,2144.00 4140.00,2120.00 4140.00,2120.00
             4140.00,2120.00 3544.00,2084.00 3544.00,2084.00
             3544.00,2084.00 2936.00,2048.00 2936.00,2048.00
             2936.00,2048.00 2376.00,2004.00 2376.00,2004.00
             2376.00,2004.00 1820.00,1964.00 1820.00,1964.00
             1820.00,1964.00 1268.00,1888.00 1268.00,1888.00
             1268.00,1888.00 756.00,1772.00 756.00,1772.00
             756.00,1772.00 -88.00,1588.00 -88.00,1588.00
             -88.00,1588.00 -40.00,1520.00 -40.00,1520.00
             -40.00,1520.00 128.00,1568.00 128.00,1568.00 Z" />
  </g>
  <g id="shingleTrees" class="pointOfInterest">
    <g id="leftShingle" class="shingleTree">
      <path id="leftShingleTrunk" class="trunk" d="M 487.00,1272.00
           C 487.00,1272.00 470.50,1369.95 459.50,1484.50
             453.72,1544.71 442.91,1609.94 451.00,1667.00
             453.52,1684.78 458.69,1701.60 465.50,1717.24
             471.26,1730.48 466.48,1740.06 474.00,1751.50
             484.03,1766.75 491.95,1774.11 504.00,1786.00
             507.95,1789.90 509.49,1795.82 513.50,1799.50
             518.65,1804.22 527.94,1805.95 533.00,1810.00
             553.59,1826.46 567.50,1839.50 567.50,1839.50
             567.50,1839.50 543.70,1847.11 521.50,1833.00
             518.54,1831.12 520.33,1822.90 517.50,1818.50
             512.66,1810.97 503.12,1806.35 497.00,1804.00
             486.89,1800.12 471.39,1810.66 464.50,1803.50
             449.87,1788.30 456.50,1759.50 449.50,1764.50
             441.00,1767.00 458.50,1826.00 458.50,1826.00
             458.50,1826.00 451.63,1822.36 442.00,1799.50
             438.87,1792.06 438.91,1783.05 435.50,1776.50
             434.05,1773.72 432.02,1769.83 430.50,1767.50
             423.61,1756.97 417.00,1752.65 414.00,1754.00
             411.44,1755.15 419.04,1772.49 418.50,1781.00
             418.01,1788.81 413.17,1789.91 415.50,1800.00
             420.54,1821.81 437.00,1830.50 433.00,1844.50
             429.93,1838.36 423.06,1826.60 411.50,1815.00
             408.71,1812.21 401.04,1808.63 398.40,1806.06
             388.80,1796.70 388.50,1787.50 381.00,1789.50
             378.11,1790.27 375.35,1801.92 377.00,1812.00
             379.63,1828.03 382.00,1833.50 383.50,1846.50
             369.38,1836.95 368.29,1864.68 366.00,1859.00
             362.37,1848.82 366.98,1836.99 367.00,1825.00
             367.02,1811.00 361.97,1797.04 348.50,1789.50
             348.50,1789.50 331.50,1793.00 331.50,1793.00
             331.50,1793.00 326.10,1800.03 318.00,1799.00
             312.55,1798.30 304.34,1787.94 301.50,1792.00
             296.86,1798.63 309.11,1824.98 303.88,1832.45
             301.37,1836.05 298.32,1838.69 296.00,1842.00
             288.07,1853.33 286.00,1864.00 282.50,1863.00
             282.50,1863.00 282.18,1855.86 285.00,1845.00
             286.44,1839.46 292.20,1831.68 292.00,1826.00
             291.35,1807.64 280.00,1792.50 280.00,1792.50
             280.00,1792.50 272.70,1794.07 265.00,1800.00
             255.93,1806.99 260.62,1793.96 248.50,1804.00
             243.62,1808.04 237.74,1816.44 230.50,1820.50
             221.42,1825.59 210.79,1826.50 204.00,1833.50
             199.36,1838.28 197.07,1843.97 195.00,1849.00
             192.17,1855.89 190.50,1861.50 190.50,1861.50
             190.50,1861.50 186.18,1851.33 189.50,1841.50
             192.68,1832.09 203.50,1823.00 203.50,1823.00
             203.50,1823.00 194.29,1816.86 176.00,1825.00
             170.74,1827.34 169.41,1834.31 164.00,1836.50
             158.81,1838.60 152.66,1834.69 148.00,1837.00
             124.37,1848.72 146.00,1858.00 136.50,1859.50
             125.50,1855.00 129.39,1844.63 136.00,1836.50
             137.57,1834.57 149.27,1832.31 159.50,1826.50
             175.04,1808.60 204.38,1801.07 203.00,1791.00
             203.03,1790.34 184.88,1791.29 169.00,1806.50
             159.06,1809.89 148.79,1816.52 139.50,1818.00
             129.26,1819.63 122.31,1814.85 118.50,1814.50
             106.66,1813.41 94.50,1821.50 94.50,1821.50
             94.50,1821.50 93.62,1816.41 99.00,1810.00
             103.38,1804.78 113.68,1798.42 117.50,1795.50
             126.00,1789.00 132.33,1804.55 134.00,1804.00
             146.83,1799.75 155.58,1793.96 170.50,1786.00
             190.17,1775.51 202.59,1748.65 216.00,1740.50
             231.60,1731.02 245.50,1727.50 245.50,1727.50
             245.50,1727.50 277.47,1720.19 280.00,1704.00
             288.98,1685.53 296.50,1660.25 302.80,1630.60
             305.06,1619.97 312.54,1601.64 314.50,1590.00
             316.70,1576.89 318.69,1563.26 320.48,1549.26
             322.40,1534.24 312.51,1519.67 314.00,1504.00
             316.69,1475.75 298.38,1445.19 300.50,1416.50
             302.51,1389.25 296.14,1364.55 299.00,1339.00
             310.40,1237.10 335.01,1154.00 335.00,1154.00
             335.00,1154.00 487.00,1272.00 487.00,1272.00 Z" />
      <path id="leftShingleTrunkDetails" class="details" d="M 439.00,1291.00
           C 360.00,1405.50 404.00,1429.50 415.50,1454.00
             427.00,1478.50 379.50,1491.00 399.00,1460.50M 421.50,1519.00
           C 405.00,1536.00 415.00,1491.50 429.00,1502.50
             436.95,1508.75 434.49,1527.42 427.50,1546.50
             422.18,1561.02 412.50,1563.00 415.00,1585.50
             417.50,1608.00 432.55,1630.26 433.50,1653.50
             434.65,1681.59 436.50,1697.50 417.50,1695.00
             398.50,1692.50 408.00,1640.00 424.50,1667.50M 363.00,1491.50
           C 381.50,1494.00 367.00,1460.00 349.50,1487.50
             339.23,1503.63 363.85,1536.55 379.00,1570.00
             389.68,1593.57 393.08,1619.43 387.50,1631.00
             379.79,1646.98 356.41,1648.14 346.50,1636.00
             339.05,1626.87 342.28,1608.16 348.50,1594.00
             363.00,1561.00 387.00,1608.50 375.00,1620.00
             363.00,1631.50 353.50,1619.50 364.00,1615.00M 317.00,1497.00
           C 317.00,1497.00 345.00,1459.00 337.00,1439.00
             329.00,1419.00 317.00,1446.00 329.50,1447.50M 306.00,1654.50
           C 306.00,1654.50 322.00,1704.00 295.00,1707.00M 299.50,1755.00
           C 299.50,1755.00 297.18,1735.23 307.00,1730.00
             310.33,1728.23 313.13,1737.21 318.00,1738.00
             326.93,1739.45 338.00,1734.50 338.00,1734.50M 216.00,1817.00
           C 216.00,1817.00 222.85,1805.46 238.00,1789.00
             244.04,1782.43 252.66,1777.28 259.50,1771.50
             266.73,1765.39 272.04,1754.24 272.50,1751.00
             274.50,1737.00 258.50,1727.00 247.50,1743.00M 452.00,1699.50
           C 452.00,1699.50 461.98,1709.58 465.00,1721.50
             467.42,1731.06 463.00,1743.00 463.00,1743.00" />
      <path id="leftShingleLeaves" class="leaves" d="M 291.00,470.50
           C 332.86,435.80 409.42,374.65 476.50,297.00
             495.64,274.84 515.14,257.70 528.50,236.50
             542.23,214.71 535.97,213.89 545.00,194.50
             547.22,189.74 554.21,180.39 557.00,175.00
             563.70,162.07 566.88,150.61 573.50,139.00
             581.19,125.53 592.17,112.48 597.50,106.50
             594.67,118.58 589.22,141.66 579.50,173.00
             577.08,180.80 570.89,190.44 568.50,199.00
             557.89,236.93 548.67,281.39 544.50,326.50
             542.50,348.14 547.68,368.33 548.50,389.50
             549.96,427.20 550.26,458.71 558.00,488.00
             574.53,550.59 605.01,594.56 612.50,607.50
             591.50,609.00 543.50,485.00 543.50,485.00
             543.50,485.00 560.45,537.38 578.00,598.00
             585.27,623.10 591.53,651.03 598.50,675.00
             602.54,688.90 605.02,702.63 608.50,714.50
             617.00,743.47 624.50,763.50 624.50,763.50
             624.50,763.50 577.00,688.50 541.50,604.50
             541.50,604.50 554.13,662.37 576.00,719.00
             600.25,781.80 611.50,837.50 634.50,875.50
             634.50,875.50 602.50,858.00 575.50,815.00
             598.82,913.95 614.29,973.03 631.00,1018.50
             642.24,1049.08 659.50,1083.00 659.50,1083.00
             659.50,1083.00 620.50,1028.50 603.00,1002.00
             599.01,1067.99 655.56,1186.81 695.00,1252.50
             709.95,1277.40 735.00,1303.00 735.00,1303.00
             735.00,1303.00 718.27,1297.24 707.50,1287.50
             680.16,1262.77 641.00,1218.00 641.00,1218.00
             641.00,1218.00 674.37,1270.62 717.50,1323.00
             731.01,1339.40 758.53,1353.66 769.50,1369.00
             790.93,1398.97 784.50,1416.50 796.50,1435.50
             796.50,1435.50 779.00,1416.00 756.00,1387.50
             752.02,1386.76 745.50,1407.96 735.00,1411.00
             728.91,1412.77 717.21,1395.40 715.00,1398.00
             706.61,1407.91 720.47,1421.33 707.00,1418.50
             698.68,1416.75 689.59,1389.56 680.50,1389.00
             671.05,1388.41 668.44,1421.89 658.00,1421.50
             650.41,1421.22 642.07,1401.81 634.00,1402.00
             629.12,1402.11 599.00,1354.00 615.50,1426.00
             608.27,1436.69 596.00,1403.00 595.50,1444.00
             588.99,1444.09 593.67,1407.91 587.00,1408.00
             580.48,1408.08 584.68,1433.86 578.00,1434.00
             562.48,1434.33 550.27,1423.64 534.00,1424.00
             525.45,1424.19 542.50,1415.00 532.00,1401.00
             530.47,1398.96 519.63,1398.47 502.21,1399.12
             497.09,1399.31 499.19,1346.62 493.00,1347.00
             484.66,1347.51 496.06,1419.70 486.00,1421.00
             480.59,1421.70 481.39,1381.83 475.50,1382.50
             471.51,1382.95 467.70,1374.99 463.50,1375.50
             452.97,1376.77 447.64,1422.86 436.00,1424.50
             425.99,1425.91 424.31,1392.35 413.50,1380.50
             410.34,1377.03 398.17,1399.04 395.00,1395.00
             390.86,1389.74 389.88,1368.37 385.00,1366.50
             371.76,1361.42 349.63,1402.94 338.00,1395.00
             314.77,1379.14 301.75,1355.94 279.00,1346.50
             266.09,1341.14 253.18,1373.38 241.00,1369.00
             210.31,1357.97 185.46,1360.13 161.00,1359.00
             115.76,1356.90 98.26,1406.64 70.50,1446.00
             60.63,1447.43 69.82,1415.85 86.95,1372.13
             91.71,1359.97 109.76,1352.08 115.50,1338.50
             153.98,1247.56 200.50,1148.50 196.50,1129.50
             194.28,1125.62 168.26,1120.17 148.50,1143.00
             130.76,1163.49 114.36,1200.22 101.50,1222.50
             90.50,1229.00 81.00,1249.75 81.00,1242.00
             81.72,1229.73 178.96,1060.14 192.50,1026.00
             194.96,1019.79 177.75,1031.45 160.50,1056.00
             141.22,1083.44 121.50,1124.50 121.50,1124.50
             121.50,1124.50 141.39,1066.39 166.00,1006.50
             187.58,953.99 221.39,885.54 220.00,875.50
             217.24,855.55 113.00,1041.00 113.00,1041.00
             113.00,1041.00 121.06,1012.36 138.50,970.50
             178.95,873.42 258.00,729.50 250.50,711.00
             248.21,705.36 243.00,719.46 229.50,735.00
             198.70,770.47 188.50,809.50 137.00,846.50
             141.41,838.27 158.43,809.14 180.00,770.00
             188.26,755.01 194.65,739.06 205.00,721.50
             214.41,705.54 232.76,686.60 243.00,669.50
             271.00,622.75 261.73,580.56 286.50,538.00
             325.76,470.54 393.00,412.50 393.00,412.50
             393.00,412.50 384.65,414.59 368.50,426.00
             335.65,449.22 279.93,491.15 262.50,493.50
             267.12,488.35 279.56,479.98 291.00,470.50 Z" />
      <path id="leftShingleLeavesDetails" class="details" d="M 450.00,449.50
           C 457.00,456.50 463.00,539.00 473.00,542.50
             467.00,519.50 471.50,442.00 468.00,436.50M 481.50,645.00
           C 481.50,645.00 495.00,782.50 522.50,793.50
             516.16,787.32 514.66,758.98 513.00,736.50
             511.40,714.84 509.53,699.35 510.00,677.00
             510.22,666.72 513.03,655.00 513.50,646.50
             514.20,633.68 512.41,626.02 511.00,624.50M 321.00,895.50
           C 321.00,895.50 314.85,913.51 307.50,935.00
             302.74,948.91 297.52,962.96 293.00,979.00
             285.27,1006.45 281.00,1037.50 281.00,1037.50
             281.00,1037.50 285.51,1023.33 294.50,1005.50
             297.17,1000.20 303.97,995.32 307.00,989.50
             324.50,955.90 342.00,916.50 342.00,916.50" />
      <g id="leftShingles" class="ceramicShingles">
        <g id="leftShinglesBottom">
          <path id="leftShinglesBottom1" d="M 126.00,1323.00
              C 104.03,1323.24 78.91,1338.43 74.50,1335.00
                72.00,1333.57 74.45,1319.50 84.00,1298.00
                92.54,1278.76 106.68,1260.24 116.50,1241.50
                126.43,1222.56 132.00,1203.50 132.00,1203.50
                132.00,1203.50 217.50,1204.00 217.50,1204.00
                217.50,1204.00 215.33,1225.19 208.00,1251.50
                203.34,1268.21 195.51,1286.87 190.00,1304.50
                179.79,1337.18 172.50,1365.50 172.50,1365.50
                168.67,1337.93 148.91,1322.75 126.00,1323.00 Z" />
          <path id="leftShingleBottom2" d="M 325.00,1248.50
              C 308.04,1291.93 268.98,1371.26 267.50,1393.50
                260.50,1321.50 179.50,1344.50 173.00,1361.00
                173.00,1361.00 173.89,1347.90 180.00,1326.50
                188.19,1297.83 202.96,1260.31 212.00,1231.50
                218.55,1210.63 221.00,1193.00 221.00,1193.00
                221.00,1193.00 328.50,1216.00 329.00,1216.00
                329.13,1216.00 330.92,1233.33 325.00,1248.50 Z" />
          <path id="leftShingleBottom3" d="M 265.50,1396.00
              C 265.50,1396.00 266.16,1380.61 280.50,1341.00
                291.04,1311.89 315.11,1259.10 320.50,1243.50
                322.79,1236.87 323.50,1228.00 323.50,1228.00
                323.50,1228.00 411.00,1268.00 411.00,1268.00
                411.00,1268.00 403.50,1311.00 403.50,1311.00
                403.50,1311.00 396.89,1332.21 388.00,1355.50
                373.89,1392.45 355.00,1438.00 355.00,1438.00
                349.50,1366.50 279.00,1377.00 265.50,1396.00 Z" />
          <path id="leftShingleBottom4" d="M 173.50,1087.50
              C 203.00,1068.50 265.50,1076.00 269.50,1108.50
                269.50,1109.00 213.50,1223.00 210.00,1249.50
                198.50,1224.50 189.50,1208.50 123.50,1226.50
                120.50,1220.50 162.00,1115.00 173.50,1087.50 Z" />
          <path id="leftShingleBottom5" d="M 371.00,1135.00
              C 371.00,1135.00 316.50,1261.50 312.00,1270.00
                312.00,1260.00 260.00,1198.50 210.50,1242.00
                210.50,1242.00 220.41,1214.71 233.00,1180.50
                239.36,1163.22 248.95,1147.31 255.00,1133.00
                261.68,1117.20 264.50,1103.86 264.50,1104.00
                275.50,1097.00 341.50,1086.00 371.00,1135.00 Z" />
          <path id="leftShingleBottom6" d="M 464.00,1176.00
              C 464.00,1176.00 449.90,1194.25 439.00,1217.00
                435.53,1224.25 433.59,1232.86 430.50,1240.50
                420.63,1264.89 412.00,1287.88 412.00,1295.50
                406.50,1227.00 317.00,1254.50 317.00,1254.50
                317.00,1254.50 322.84,1238.26 331.50,1216.00
                334.77,1207.60 339.63,1194.15 343.00,1186.50
                357.72,1153.14 371.50,1131.00 371.50,1131.00
                383.00,1114.50 454.00,1130.00 464.00,1176.00 Z" />
        </g>
        <g id="leftShingleMiddle">
          <path id="leftShingleMiddle1" d="M 491.00,888.50
              C 491.00,888.50 556.00,890.50 556.00,890.50
                556.00,890.50 564.02,927.48 567.00,948.00
                570.02,968.82 571.00,995.21 571.50,1000.50
                569.00,996.00 529.50,967.00 505.00,1000.50
                503.00,987.00 491.00,888.50 491.00,888.50 Z" />
          <path id="leftShingleMiddle2" d="M 501.83,1005.67
              C 501.83,1005.67 438.00,993.00 430.00,1005.50
                430.00,1005.50 427.31,989.92 423.00,968.00
                416.52,935.00 413.00,889.00 413.00,889.00
                413.00,889.00 493.33,894.67 493.33,894.67
                493.36,894.66 515.84,1002.91 501.83,1005.67 Z" />
          <path id="leftShingleMiddle3" d="M 555.00,859.00
              C 557.09,883.40 562.00,897.50 565.50,912.00
                552.50,900.50 501.00,906.00 489.50,916.00
                489.50,916.00 479.00,861.00 464.50,837.00
                467.90,822.15 509.76,805.71 538.00,816.50
                543.03,818.42 554.67,820.65 558.00,824.50
                556.00,842.00 553.41,840.47 555.00,859.00 Z" />
          <path id="leftShingleMiddle4" d="M 392.00,840.00
              C 409.50,808.00 470.50,827.50 473.50,834.50
                474.50,842.50 484.90,860.82 490.50,880.00
                497.08,902.54 496.00,914.50 498.00,918.50
                476.50,906.50 425.50,914.50 416.50,920.50
                411.00,917.50 394.50,855.50 392.00,840.00 Z" />
        </g>
        <g id="leftShinglesTop">
          <path id="leftShingleTop1" d="M 328.00,721.00
              C 316.50,707.00 285.50,700.50 268.50,707.00
                264.50,702.00 274.92,689.98 283.50,673.50
                293.55,654.20 313.50,629.00 314.00,622.00
                314.00,622.00 368.00,616.00 368.00,616.00
                368.00,616.00 328.00,721.00 328.00,721.00 Z" />
          <path id="leftShingleTop2" d="M 403.50,717.00
              C 400.61,729.39 399.50,738.00 399.50,738.00
                399.50,738.00 396.73,740.24 393.00,739.50
                375.54,736.03 378.50,718.00 326.50,723.50
                326.50,723.50 323.61,718.20 325.50,712.50
                331.97,693.01 349.06,648.46 357.50,627.00
                360.39,619.65 362.50,615.00 362.50,615.00
                362.50,615.00 424.00,633.00 424.00,633.00
                424.00,633.00 410.65,686.34 403.50,717.00 Z" />
          <path id="leftShingleTop3" d="M 316.00,635.50
              C 311.60,636.18 306.62,631.63 302.50,633.00
                302.50,633.00 296.11,629.79 300.50,620.00
                309.53,599.86 333.00,565.00 333.00,565.00
                333.00,565.00 351.56,555.26 353.50,555.50
                365.73,557.03 393.00,572.50 393.00,572.50
                393.00,572.50 355.50,642.00 355.50,642.00
                348.80,630.17 332.44,632.97 316.00,635.50 Z" />
          <path id="leftShingleTop4" d="M 393.00,570.50
              C 432.50,551.50 457.00,577.50 456.50,598.50
                456.50,598.50 449.59,611.86 443.00,625.00
                437.53,635.91 432.76,646.60 428.00,650.00
                425.52,648.11 420.31,651.08 415.50,649.00
                408.98,646.18 403.35,638.59 395.00,635.50
                383.40,631.21 368.72,631.95 358.50,633.50
                358.50,620.50 385.50,595.50 393.00,570.50 Z" />
          <path id="leftShingleTop6" d="M 787.33,710.33
              C 789.11,706.09 792.10,703.04 793.67,699.67
                795.85,694.97 796.33,690.67 796.33,690.67
                796.33,690.67 800.83,689.52 810.33,692.33
                813.34,693.22 816.62,695.85 820.00,697.00
                825.78,698.97 838.61,694.74 843.67,696.33
                850.88,698.60 837.19,744.31 828.00,743.00
                824.55,742.51 820.78,739.11 817.33,738.67
                811.79,737.96 808.00,738.72 804.00,737.67
                794.62,735.20 801.03,730.96 793.00,729.33
                785.01,727.71 779.33,729.33 779.33,729.33
                781.11,727.26 783.94,718.41 787.33,710.33 Z" />
          <path id="leftShingleTop7" d="M 826.67,723.00
              C 831.00,712.00 835.00,700.00 835.00,700.00
                835.00,700.00 846.40,695.70 854.67,698.33
                859.97,700.02 860.63,704.26 863.67,707.33
                866.30,710.00 871.67,711.67 871.67,711.67
                871.67,711.67 870.37,715.11 869.67,721.67
                869.12,726.76 870.77,733.56 870.33,739.33
                869.65,748.21 872.33,751.33 867.00,755.33
                865.62,756.37 863.52,752.69 859.33,752.00
                847.31,750.03 831.33,749.67 827.00,746.67
                824.92,745.23 824.27,733.85 826.67,723.00 Z" />
        </g>
      </g>
      <!-- end of leftShingles -->
    </g>
    <!-- end of leftShingle -->
    <g id="rightShingle" class="shingleTree">
      <path id="rightShingleTrunk" class="trunk" d="M 820.67,1164.00
           C 820.67,1164.00 789.90,1222.94 773.33,1302.67
             762.86,1353.07 765.68,1411.63 761.33,1469.33
             760.07,1486.11 760.22,1506.18 758.00,1520.25
             748.50,1549.00 747.18,1569.13 755.50,1600.25
             756.57,1604.25 757.88,1617.34 759.25,1620.50
             761.85,1626.51 767.93,1628.16 770.50,1633.25
             773.63,1639.44 775.12,1646.63 782.67,1652.00
             787.32,1655.31 793.61,1660.95 798.00,1666.67
             801.10,1670.70 801.79,1675.08 806.67,1677.33
             817.86,1682.51 828.57,1676.09 836.00,1680.50
             839.40,1682.52 843.00,1686.04 846.25,1688.25
             848.38,1689.70 852.42,1689.76 854.50,1691.25
             859.91,1695.12 866.01,1704.29 871.75,1710.75
             874.03,1713.32 876.62,1715.03 878.75,1716.75
             881.05,1718.61 882.89,1720.45 885.00,1722.25
             891.93,1728.14 896.12,1725.50 904.00,1730.67
             906.29,1732.17 906.70,1736.01 908.75,1738.00
             910.38,1739.59 913.69,1739.31 915.25,1740.75
             919.01,1744.23 921.07,1752.50 924.50,1756.00
             929.72,1761.32 936.18,1761.84 941.50,1766.75
             946.02,1770.92 948.02,1777.60 950.75,1781.75
             953.18,1785.44 956.36,1786.63 959.75,1789.75
             962.36,1792.16 964.30,1798.07 968.00,1800.00
             971.94,1802.06 977.63,1800.14 979.75,1802.25
             986.63,1806.15 985.88,1807.94 988.25,1811.50
             990.44,1814.79 996.00,1820.00 996.00,1820.00
             1001.88,1836.38 992.25,1849.88 987.50,1839.75
             987.50,1839.75 978.14,1830.51 962.00,1829.25
             945.86,1827.99 948.90,1818.93 943.14,1813.23
             936.94,1807.10 932.48,1800.15 932.00,1792.67
             932.00,1792.67 932.03,1799.70 935.00,1813.25
             936.18,1818.64 937.53,1821.78 939.00,1827.75
             943.01,1844.06 934.00,1844.00 947.33,1862.67
             947.33,1862.67 922.00,1875.25 920.50,1858.00
             920.50,1828.75 913.84,1843.68 910.75,1825.75
             908.70,1813.87 913.72,1800.22 903.50,1788.75
             896.64,1781.05 878.75,1779.00 869.25,1767.75
             859.75,1756.50 843.23,1761.59 834.50,1756.00
             824.40,1749.53 816.73,1738.14 810.75,1732.25
             798.65,1720.33 794.00,1716.00 794.00,1716.00
             794.00,1716.00 779.53,1700.70 778.50,1712.25
             777.54,1723.01 775.00,1753.08 789.75,1759.00
             795.28,1761.22 802.72,1773.23 813.75,1787.50
             817.75,1792.67 825.64,1798.07 829.25,1803.50
             842.21,1823.02 850.50,1842.00 850.50,1842.00
             850.50,1842.00 843.75,1846.75 834.75,1841.75
             834.75,1842.42 823.75,1816.25 809.50,1806.25
             808.09,1805.42 813.23,1826.83 810.75,1835.50
             805.75,1853.00 798.75,1866.00 792.67,1865.33
             790.31,1865.08 795.17,1839.23 790.75,1821.75
             783.75,1794.06 795.50,1811.00 767.33,1770.00
             754.50,1751.75 733.33,1756.67 733.33,1756.67
             728.72,1755.20 725.53,1761.41 719.75,1766.50
             716.02,1769.78 710.31,1771.55 705.50,1774.00
             689.50,1785.00 677.50,1781.50 678.75,1818.00
             670.87,1829.55 676.00,1840.67 676.00,1840.67
             676.00,1840.67 675.67,1856.67 655.00,1863.00
             650.68,1857.37 648.42,1841.69 652.00,1826.25
             660.25,1820.50 658.00,1812.75 666.00,1792.67
             663.42,1792.82 655.38,1803.42 647.29,1815.08
             631.50,1818.75 638.75,1830.25 627.33,1845.33
             627.33,1845.33 613.75,1849.00 608.50,1835.25
             604.06,1822.82 604.59,1819.01 618.00,1806.75
             621.60,1803.46 631.91,1795.92 635.00,1792.00
             637.85,1788.38 644.81,1787.86 648.00,1784.50
             651.89,1780.40 649.52,1770.92 651.25,1766.25
             652.81,1762.05 663.69,1763.11 667.38,1759.97
             689.56,1741.09 709.27,1726.36 703.33,1712.67
             703.33,1712.67 649.08,1755.17 632.25,1766.75
             624.75,1775.00 604.22,1769.14 592.50,1782.75
             589.41,1786.34 586.38,1790.29 583.43,1794.49
             581.72,1796.93 575.14,1791.95 572.00,1794.75
             564.45,1801.49 558.53,1816.67 556.00,1823.75
             551.59,1836.10 561.94,1847.61 557.50,1857.75
             555.69,1861.89 550.50,1862.23 548.50,1865.50
             542.00,1876.10 538.67,1885.33 538.67,1885.33
             538.67,1885.33 524.50,1879.25 516.50,1893.50
             516.50,1893.50 515.67,1883.13 521.25,1868.25
             530.25,1865.75 521.25,1850.50 537.00,1846.00
             533.50,1837.00 509.50,1849.50 497.25,1844.00
             504.98,1843.24 517.94,1841.63 525.00,1835.00
             532.46,1827.99 534.05,1815.73 543.50,1807.00
             553.87,1797.42 559.53,1782.42 569.75,1771.75
             581.60,1759.39 591.82,1747.73 601.50,1739.75
             618.67,1725.59 629.75,1727.75 636.00,1707.33
             636.85,1704.56 641.77,1690.76 639.50,1673.75
             637.26,1657.01 627.84,1637.24 626.75,1611.00
             625.16,1572.93 628.78,1526.86 633.50,1480.75
             637.81,1438.57 657.54,1395.17 666.25,1356.25
             671.85,1331.20 685.86,1301.30 690.25,1280.75
             699.64,1236.85 697.75,1212.40 705.50,1205.75
             705.50,1205.75 820.67,1164.00 820.67,1164.00 Z" />
      <path id="rightShingleTrunkDetails" class="details" d="M 722.67,1318.67
           C 716.00,1321.82 721.97,1326.30 721.22,1334.60
             720.32,1344.49 720.18,1353.82 719.33,1355.33
             718.48,1356.85 705.52,1346.91 696.73,1351.82
             696.18,1357.64 693.27,1373.64 696.00,1375.33
             698.73,1377.03 710.18,1373.82 711.64,1375.45
             713.09,1377.09 700.06,1403.45 705.45,1406.73M 760.55,1417.64
           C 757.82,1422.91 740.36,1419.27 727.45,1416.73
             718.88,1422.52 713.64,1434.66 715.82,1444.55
             717.20,1450.79 722.53,1455.57 728.73,1459.09
             737.45,1459.09 748.55,1461.82 751.82,1458.91
             751.82,1458.91 739.62,1492.88 743.12,1499.62M 641.33,1538.67
           C 641.33,1538.67 654.00,1534.73 662.91,1544.00M 664.00,1481.45
           C 664.00,1481.45 655.27,1487.09 650.00,1479.33M 742.00,1433.33
           C 746.18,1439.45 742.18,1446.36 732.36,1443.09M 630.00,1588.00
           C 630.00,1588.00 641.33,1583.70 644.36,1584.73
             647.39,1585.76 657.82,1620.36 653.33,1626.00
             646.18,1625.27 634.00,1634.67 634.00,1634.67M 629.33,1613.33
           C 629.33,1613.33 635.64,1604.55 638.67,1606.67M 707.33,1512.67
           C 707.33,1512.67 723.64,1505.09 728.00,1507.27M 749.64,1687.82
           C 748.55,1683.52 724.67,1683.33 724.67,1683.33M 732.00,1679.82
           C 732.00,1679.82 731.82,1666.55 729.33,1665.33
             729.33,1665.33 721.82,1664.91 713.33,1669.33
             713.27,1665.82 708.00,1654.67 708.00,1654.67
             708.00,1654.67 712.55,1647.64 717.64,1645.82
             719.45,1644.00 717.27,1625.45 717.27,1625.45
             717.27,1625.45 705.09,1626.36 701.27,1627.64
             700.55,1613.64 694.91,1590.55 694.91,1590.55
             694.91,1590.55 711.64,1583.64 719.33,1586.00
             712.55,1574.55 714.00,1558.67 714.00,1558.67
             714.00,1558.67 722.73,1553.45 728.00,1556.67
             718.91,1540.36 724.91,1516.36 720.36,1511.09M 738.00,1572.67
           C 735.82,1576.73 727.33,1578.00 727.33,1578.00M 730.67,1605.33
           C 730.67,1605.33 717.15,1606.68 714.18,1609.09
             711.92,1610.93 720.00,1614.00 720.00,1614.00M 744.18,1658.36
           C 745.45,1649.82 730.55,1656.18 730.67,1647.33M 713.64,1364.91
           C 713.64,1364.91 727.45,1367.45 727.82,1369.82M 664.67,1408.67
           C 666.73,1407.45 682.00,1413.64 682.00,1413.64M 652.00,1534.00
           C 652.00,1534.00 657.82,1511.64 654.36,1497.27
             654.36,1497.27 669.09,1508.73 673.33,1506.67
             673.33,1506.67 680.00,1469.82 678.67,1464.67
             678.67,1464.67 666.18,1463.45 664.67,1461.33
             662.18,1456.91 675.27,1419.45 671.33,1414.00" />
      <path id="rightShingleLeaves" class="leaves" d="M 807.00,625.33
           C 819.82,601.21 828.94,586.66 839.33,557.67
             843.01,547.41 865.77,530.11 869.00,520.00
             871.12,513.36 874.31,500.76 874.33,490.33
             874.37,476.64 870.94,464.84 872.33,456.67
             874.27,445.34 880.72,440.90 882.33,433.00
             886.00,408.33 885.39,398.70 885.39,398.70
             885.47,398.51 888.06,415.14 886.00,453.25
             885.28,466.66 883.24,482.21 881.33,501.33
             880.82,521.88 875.49,541.57 875.67,564.33
             875.82,583.64 880.97,605.77 885.33,626.00
             888.14,639.04 892.43,644.87 895.67,658.33
             899.11,672.65 909.82,688.39 913.67,703.00
             918.15,720.06 920.49,739.36 927.67,757.67
             933.80,773.31 944.79,787.98 949.00,802.67
             973.89,889.49 994.17,967.49 1011.67,1027.67
             1028.20,1084.52 1041.00,1125.33 1041.00,1125.33
             1041.00,1125.33 1009.56,1092.86 982.67,1061.33
             962.07,1037.19 946.00,1012.67 946.00,1012.67
             946.00,1012.67 958.43,1038.11 975.00,1076.67
             986.10,1102.49 1002.29,1133.22 1013.67,1160.33
             1031.18,1202.08 1042.00,1236.00 1042.00,1236.00
             1042.00,1236.00 1028.22,1228.18 1021.67,1219.33
             1010.63,1204.43 990.65,1181.75 975.67,1159.33
             955.49,1129.14 943.33,1084.03 943.33,1084.33
             943.33,1084.68 946.15,1108.51 953.33,1140.67
             957.44,1159.03 963.12,1172.22 967.00,1186.33
             969.55,1195.63 971.33,1210.00 971.33,1210.00
             971.33,1210.00 952.04,1188.75 937.67,1161.67
             918.43,1125.43 902.67,1080.67 902.67,1080.67
             902.67,1080.67 919.88,1147.97 945.67,1204.00
             973.78,1265.08 1010.67,1315.33 1010.67,1315.33
             1010.67,1315.33 990.50,1289.01 966.00,1269.33
             947.82,1254.73 927.40,1249.58 910.33,1231.00
             864.16,1180.75 837.33,1126.67 837.33,1126.67
             837.33,1126.67 845.25,1149.24 860.00,1182.67
             871.76,1209.33 889.21,1244.04 900.67,1271.33
             912.63,1299.83 924.67,1334.67 924.67,1334.67
             924.67,1334.67 910.71,1326.94 898.33,1305.00
             875.89,1265.23 848.67,1200.00 848.67,1200.00
             848.67,1200.00 862.72,1243.36 877.33,1294.00
             880.24,1304.07 886.86,1320.58 889.33,1330.33
             890.12,1333.43 875.19,1318.02 862.00,1292.67
             849.25,1268.15 838.23,1233.66 838.00,1236.67
             837.65,1241.13 840.76,1273.66 856.00,1310.67
             865.00,1332.53 889.32,1366.49 889.67,1368.67
             893.51,1392.59 901.33,1407.33 901.33,1407.33
             901.33,1407.33 871.33,1387.02 855.67,1359.33
             824.26,1303.83 795.33,1220.00 795.33,1220.00
             795.33,1220.00 779.95,1274.50 774.67,1317.00
             771.57,1341.92 766.67,1350.00 766.67,1350.00
             766.67,1350.00 763.68,1343.15 758.67,1338.00
             755.31,1334.54 750.18,1334.45 747.67,1328.00
             740.31,1309.10 736.22,1279.88 730.67,1258.67
             725.54,1239.06 718.67,1226.67 718.67,1226.67
             718.67,1226.67 705.30,1239.83 699.00,1258.33
             686.36,1295.47 676.00,1352.00 676.00,1352.00
             676.00,1352.00 666.68,1330.44 664.33,1302.00
             663.45,1291.34 664.48,1271.51 661.67,1255.33
             658.41,1236.61 651.32,1221.35 651.00,1208.00
             650.09,1170.66 660.00,1158.00 660.00,1158.00
             660.00,1158.00 636.97,1186.90 621.67,1229.33
             618.16,1239.06 606.94,1253.65 603.67,1264.00
             588.75,1311.26 585.00,1355.33 585.00,1355.33
             585.00,1355.33 581.97,1331.68 587.00,1286.67
             588.14,1276.49 590.91,1253.83 595.00,1243.67
             599.54,1232.37 608.78,1219.27 610.33,1208.67
             615.16,1175.75 608.00,1149.33 608.00,1149.33
             608.00,1149.33 600.60,1162.16 596.33,1178.67
             593.39,1190.03 585.83,1196.10 583.33,1210.67
             581.01,1224.25 583.76,1246.19 580.67,1260.67
             572.88,1297.08 568.67,1333.33 568.67,1333.33
             568.67,1333.33 565.89,1314.90 563.00,1293.00
             561.95,1285.02 557.59,1279.88 558.00,1270.33
             559.59,1233.62 569.85,1187.79 575.00,1159.67
             578.05,1143.02 577.33,1133.33 577.33,1133.33
             577.33,1133.33 564.20,1143.37 549.33,1157.00
             511.87,1191.36 448.67,1251.33 448.67,1251.33
             448.67,1251.33 455.99,1228.44 476.00,1196.33
             490.68,1172.79 521.28,1144.30 538.33,1119.00
             565.30,1078.99 576.67,1046.00 576.67,1046.00
             576.67,1046.00 558.37,1060.37 536.00,1070.00
             508.56,1081.81 451.33,1100.33 451.33,1100.33
             451.33,1100.33 475.48,1084.76 492.67,1063.33
             496.68,1058.33 507.33,1037.92 511.67,1032.33
             518.99,1022.89 525.47,1012.28 533.33,1003.67
             555.87,978.98 578.67,961.33 578.67,961.33
             578.67,961.33 553.07,968.94 526.33,986.33
             515.56,993.35 509.46,1004.22 500.33,1012.00
             487.65,1022.82 473.67,1029.67 473.67,1029.67
             473.67,1029.67 483.72,998.45 510.67,960.67
             530.32,933.10 539.57,903.49 562.00,875.33
             595.41,833.39 639.33,797.33 639.33,797.33
             639.33,797.33 625.19,800.15 612.33,807.00
             588.48,819.72 558.67,840.33 558.67,840.33
             558.67,840.33 590.33,795.33 627.33,774.33
             627.74,768.82 602.23,782.51 581.33,790.33
             564.62,796.59 550.67,797.74 556.67,792.33
             561.20,788.24 576.28,786.45 583.33,783.33
             599.45,776.22 611.23,768.85 627.33,758.67
             635.02,753.80 661.24,746.66 668.67,741.67
             677.39,735.80 695.84,728.85 702.67,723.33
             731.00,700.42 722.33,692.67 732.67,683.33
             743.00,674.00 785.26,666.26 807.00,625.33 Z" />
      <path id="rightShingleLeavesDetails" class="details" d="M 762.00,742.00
           C 762.00,742.00 771.29,756.72 774.67,790.00
             778.28,825.64 770.67,882.00 778.00,892.00
             763.33,886.67 762.00,817.33 762.00,817.33
             762.00,817.33 756.67,890.67 777.33,959.33
             777.33,959.33 738.00,840.67 738.00,840.67M 912.00,757.33
           C 912.00,757.33 807.33,870.00 878.67,984.00
             848.00,880.00 909.33,838.67 909.33,838.67M 817.33,1028.00
           C 817.33,1056.67 871.33,1088.67 871.33,1088.67
             828.00,1048.00 824.00,941.33 827.33,910.00
             823.35,927.57 814.47,954.75 792.67,984.00
             786.11,992.80 773.55,1002.49 765.69,1011.27
             747.13,1032.00 725.15,1051.99 700.67,1068.00
             700.67,1068.00 784.00,1039.33 798.67,1006.00M 661.33,882.00
           C 676.00,844.00 722.67,814.00 732.00,779.33
             719.33,819.33 715.33,874.00 696.67,908.00" />
      <g id="rightShingles" class="shingles">
        <g id="rightShingleBottom">
          <path id="rightShingleBottom1" d="M 717.33,1151.00
           C 717.33,1151.00 765.00,1154.67 778.00,1154.67
             780.33,1162.00 771.33,1201.00 767.33,1205.33
             760.67,1212.67 727.67,1192.00 715.00,1198.67
             717.67,1192.33 717.33,1151.00 717.33,1151.00 Z" />
          <path id="rightShingleBottom2" d="M 803.00,1151.33
               C 801.02,1164.10 797.25,1175.87 799.33,1179.00
                  792.00,1170.67 736.33,1163.00 736.33,1163.00
                  736.33,1163.00 739.00,1118.33 739.00,1118.33
                  739.00,1118.33 747.95,1113.72 764.00,1114.33
                  780.74,1114.97 804.64,1120.92 806.00,1125.00
                  800.00,1130.67 804.82,1139.60 803.00,1151.33 Z" />
          <path id="rightShingleBottom3" d="M 692.33,1111.00
               C 692.33,1111.00 702.11,1109.69 714.33,1110.67
                  720.55,1111.17 728.73,1113.81 735.33,1114.67
                  744.53,1115.86 751.91,1115.21 757.67,1115.00
                  755.67,1118.00 758.00,1163.33 751.33,1167.67
                  745.19,1164.02 734.56,1167.19 722.00,1167.00
                  716.18,1166.91 710.58,1163.32 703.67,1163.00
                  689.56,1162.35 677.21,1163.76 674.33,1165.33
                  674.33,1157.67 696.33,1131.67 692.33,1111.00 Z" />
        </g>
        <g id="rightShingleMidLeft">
          <path id="rightShingleMidLeft1" d="M 687.67,1013.33
               C 684.24,1019.52 683.29,1024.13 680.00,1030.67
                  676.96,1036.70 671.51,1044.77 669.67,1048.00
                  665.67,1050.67 621.33,1033.00 621.33,1033.00
                  621.33,1033.00 635.00,952.33 635.00,952.33
                  635.00,952.33 697.33,998.33 697.33,998.33
                  697.33,998.33 692.52,1004.57 687.67,1013.33 Z" />
          <path id="rightShingleMidLeft2" d="M 586.00,1022.67
               C 576.69,1019.93 566.04,1020.27 565.33,1017.33
                  564.32,1013.11 568.95,996.76 576.00,980.67
                  582.86,965.01 592.15,949.61 591.00,945.67
                  591.00,945.67 654.67,962.67 654.67,962.67
                  654.67,962.67 641.67,983.74 633.33,1003.00
                  626.09,1019.73 623.33,1035.00 623.33,1035.00
                  622.00,1035.67 603.09,1027.69 586.00,1022.67 Z" />
          <path id="rightShingleMidLeft3" d="M 745.33,964.67
               C 745.33,980.79 741.04,992.00 738.00,1001.00
                  736.26,1006.14 737.33,1011.00 734.33,1011.33
                  732.91,1011.49 720.88,1007.15 708.67,1003.33
                  704.86,1002.14 699.61,1001.64 696.00,1000.33
                  686.76,996.99 680.67,993.00 680.67,993.00
                  680.67,993.00 672.33,908.33 672.33,908.33
                  672.33,908.33 705.75,924.62 728.67,936.33
                  740.21,942.24 750.23,942.64 749.67,948.00
                  749.28,951.72 746.64,958.38 745.33,964.67 Z" />
          <path id="rightShingleMidLeft4" d="M 562.00,931.67
               C 565.37,923.40 569.99,912.77 573.00,904.33
                  577.14,892.75 573.67,884.00 578.33,884.00
                  583.00,884.00 586.91,886.83 599.33,892.67
                  623.52,904.02 660.00,922.33 660.00,922.33
                  660.00,922.33 630.67,976.00 630.67,976.00
                  630.67,976.00 619.57,969.93 606.33,965.33
                  602.12,963.87 596.17,966.44 591.67,964.67
                  585.09,962.07 578.00,956.83 572.33,954.67
                  570.16,953.84 565.24,954.90 563.33,954.33
                  556.99,952.46 555.31,950.11 555.00,949.33
                  553.67,946.00 557.73,942.13 562.00,931.67 Z" />
          <path id="rightShingleMidLeft5" d="M 628.33,947.67
               C 632.39,936.38 634.65,923.24 638.67,913.67
                  641.89,905.98 647.67,899.33 647.67,899.33
                  647.67,899.33 705.67,936.00 705.67,936.00
                  705.67,936.00 696.35,948.38 692.00,958.33
                  684.45,975.60 683.67,993.00 680.00,994.67
                  680.00,994.67 673.62,990.78 666.00,988.67
                  656.83,986.13 645.43,985.04 635.33,981.33
                  625.03,977.55 617.33,971.67 617.33,971.67
                  614.67,968.33 623.58,960.92 628.33,947.67 Z" />
          <path id="rightShingleMidLeft6" d="M 676.00,856.33
               C 676.00,856.33 686.07,859.70 699.00,867.00
                  717.29,877.33 738.00,891.00 740.67,896.67
                  741.43,898.28 738.67,903.60 735.33,910.33
                  733.69,913.64 731.62,916.86 730.33,921.00
                  725.03,938.01 722.33,955.00 722.33,955.00
                  722.33,955.00 714.32,952.75 705.67,949.00
                  697.10,945.29 687.77,939.14 678.00,934.67
                  663.65,928.10 650.00,923.67 650.00,923.67
                  650.00,923.67 676.00,856.33 676.00,856.33 Z" />
          <path id="rightShingleMidLeft7" d="M 617.33,868.67
               C 625.91,852.07 634.00,839.33 637.00,836.33
                  640.00,833.33 651.33,842.58 664.00,850.00
                  670.64,853.89 673.40,853.63 678.67,855.67
                  684.10,857.76 686.33,859.33 689.00,864.67
                  689.86,866.39 683.19,875.36 679.00,885.00
                  670.25,905.11 661.33,927.33 659.33,932.33
                  658.23,932.88 648.85,930.30 639.67,927.67
                  632.87,925.72 625.88,921.81 619.00,919.67
                  607.08,915.95 598.33,916.33 596.67,914.33
                  595.00,912.33 606.11,890.38 617.33,868.67 Z" />
        </g>
        <g id="rightShingleMidRight">
          <path id="rightShingleMidRight1" d="M 932.33,956.33
               C 932.04,947.88 930.67,938.96 930.33,931.67
                  929.98,924.11 930.67,918.33 930.67,918.33
                  930.67,918.33 978.67,917.00 978.67,917.00
                  978.67,917.00 973.67,934.33 976.80,952.90
                  975.88,967.48 974.74,981.03 973.67,981.33
                  972.68,981.61 964.16,979.70 956.33,979.67
                  945.61,979.61 934.73,981.00 933.00,977.33
                  931.93,975.07 932.67,965.92 932.33,956.33 Z" />
          <path id="rightShingleMidRight2" d="M 959.67,940.00
               C 959.67,940.00 950.80,936.77 941.67,936.00
                  924.10,934.52 902.67,937.00 900.33,935.00
                  899.65,934.42 898.49,926.36 897.67,917.33
                  895.67,895.45 897.00,869.33 894.00,860.67
                  894.66,859.78 902.76,859.75 913.33,862.00
                  923.30,864.12 935.46,868.48 946.00,869.67
                  957.96,871.01 969.00,867.00 969.00,867.00
                  969.00,867.00 959.67,940.00 959.67,940.00 Z" />
          <path id="rightShingleMidRight3" d="M 955.33,913.00
               C 955.45,902.79 961.30,892.21 962.33,882.67
                  963.70,869.98 959.00,859.67 959.00,859.67
                  959.00,859.67 988.00,855.33 998.33,859.33
                  999.48,863.61 1000.00,877.33 1000.00,892.67
                  1001.07,899.24 1005.19,907.49 1007.00,914.33
                  1010.26,926.70 1011.33,936.33 1011.33,936.33
                  1010.33,939.00 997.75,936.53 984.67,938.33
                  971.10,940.20 958.00,943.67 958.00,943.67
                  958.00,943.67 955.13,930.10 955.33,913.00 Z" />
          <path id="rightShingleMidRight4" d="M 922.67,841.67
               C 922.22,831.68 920.67,819.33 920.67,819.33
                  920.67,819.33 928.16,824.22 936.33,826.00
                  943.07,827.47 950.40,826.47 957.33,827.33
                  967.18,828.56 975.67,831.33 975.67,831.33
                  984.33,840.00 980.00,870.00 984.00,880.67
                  983.76,882.37 972.54,880.14 962.33,881.00
                  944.60,882.49 923.67,886.33 923.67,886.33
                  918.67,881.33 923.56,861.52 922.67,841.67 Z" />
        </g>
        <g id="rightShingleTop">
          <path id="rightShingleTop1" d="M 818.33,791.00
           C 820.66,778.00 821.67,766.00 821.67,766.00
             821.67,766.00 858.33,773.33 858.33,773.33
             858.33,773.33 860.24,789.22 857.00,802.00
             851.00,809.67 851.67,819.33 848.67,822.00
             845.33,818.00 812.00,820.00 812.00,820.00
             809.67,817.33 815.83,804.97 818.33,791.00 Z" />
          <path id="rightShingleTop2" d="M 840.00,731.00
           C 840.00,731.00 883.33,737.67 883.33,737.67
             885.67,749.00 875.67,779.33 875.33,787.33
             862.00,790.33 829.67,772.67 829.67,772.67
             829.67,772.67 840.00,731.00 840.00,731.00 Z" />
          <path id="rightShingleTop3" d="M 810.33,778.33
           C 805.88,778.12 802.64,780.34 799.00,780.67
             794.46,781.08 789.88,779.56 788.33,778.33
             785.67,773.00 811.00,718.67 811.00,718.67
             811.00,718.67 841.67,734.67 841.67,734.67
             841.67,734.67 841.33,779.33 836.67,782.33
             832.00,785.33 823.02,778.93 810.33,778.33 Z" />
          <path id="rightShingleTop4" d="M 828.00,696.67
           C 830.69,686.50 833.00,673.80 836.00,672.00
             841.00,669.00 851.67,674.00 855.00,675.67
             858.33,677.33 858.33,714.33 858.33,714.33
             858.33,714.33 823.33,709.33 823.33,709.33
             823.33,709.33 826.20,703.47 828.00,696.67 Z" />
          <path id="rightShingleTop5" d="M 858.67,709.00
           C 858.67,709.00 896.67,703.33 900.67,706.67
             903.32,708.88 900.15,730.92 899.67,746.67
             899.42,754.62 903.01,760.88 902.00,762.33
             899.81,765.49 875.13,754.67 862.00,750.00
             857.11,748.26 854.00,749.67 854.00,749.67
             854.00,749.67 858.67,709.00 858.67,709.00 Z" />
        </g>
      </g>
    </g>
    <!-- end of right shingle -->
  </g>
  <!-- end of shingle trees -->
  <g id="apple" class="pointOfInterest genericMoveTo">
    <path id="appleRear" d="M 3874.25,1933.00
           C 3874.25,1933.00 3921.25,1936.75 3921.25,1936.75
             3927.75,1942.75 3916.50,1965.50 3904.25,1965.00
             3892.00,1964.50 3900.00,1940.75 3874.25,1933.00 Z" />
    <path id="appleStem" d="M 3888.00,1842.67
           C 3886.50,1803.00 3866.67,1763.33 3866.67,1763.33
             3866.67,1763.33 3888.50,1807.75 3888.50,1807.75
             3888.50,1807.75 3893.50,1795.75 3907.33,1782.67
             3891.50,1805.75 3889.00,1812.75 3888.00,1842.67 Z" />
    <path id="appleMain" d="M 3916.00,1956.00
           C 3907.88,1949.56 3893.72,1947.86 3884.67,1946.67
             3866.00,1944.00 3871.33,1988.67 3818.67,1952.00
             3766.00,1915.33 3782.00,1857.33 3813.33,1836.00
             3832.00,1829.33 3838.37,1819.59 3852.67,1815.33
             3861.13,1825.46 3878.22,1834.14 3892.00,1834.00
             3912.28,1833.80 3913.33,1830.00 3926.67,1818.00
             3974.00,1834.00 3966.00,1935.33 3936.67,1968.00
             3929.48,1976.00 3925.92,1963.86 3916.00,1956.00 Z" />
    <path id="appleEyes" d="M 3815.50,1849.25
           C 3815.50,1849.25 3866.25,1852.75 3867.50,1864.75
             3868.50,1871.00 3868.50,1877.50 3855.00,1875.75
             3841.50,1874.00 3845.00,1862.25 3845.00,1862.25
             3846.25,1855.00 3815.50,1849.25 3815.50,1849.25 Z
           M 3909.50,1872.75
           C 3910.23,1867.62 3921.21,1860.41 3930.16,1855.34
             3936.46,1851.77 3937.75,1839.75 3937.75,1839.75
             3937.75,1839.75 3938.14,1852.50 3934.81,1856.68
             3931.87,1860.35 3929.13,1864.74 3929.25,1868.25
             3929.25,1868.25 3932.25,1877.25 3926.25,1881.25
             3920.25,1885.25 3908.25,1881.50 3909.50,1872.75 Z" />
    <path id="appleMouth" d="M 3816.25,1929.75
           C 3816.25,1929.75 3832.50,1921.00 3860.00,1918.75
             3876.30,1917.42 3899.92,1924.93 3916.50,1928.00
             3927.90,1930.11 3936.00,1928.00 3936.00,1928.00" />
  </g>
  <g id="flamingoneCloseUp" class="flamingone">
    <path id="closeUpFace" class="flamingoneSkin" d="M -1307.00,996.00
           C -1312.62,975.62 -1291.76,969.03 -1286.75,947.88
             -1283.81,935.47 -1285.95,920.09 -1282.38,907.12
             -1280.69,901.01 -1275.82,902.41 -1274.12,896.00
             -1271.18,884.85 -1274.03,871.81 -1271.38,859.88
             -1267.05,840.44 -1253.58,818.74 -1250.12,798.38
             -1249.58,795.19 -1246.94,790.68 -1246.50,787.50
             -1244.78,774.97 -1246.48,763.87 -1246.50,751.62
             -1246.52,741.28 -1246.82,730.73 -1246.88,720.00
             -1246.94,706.87 -1246.90,693.59 -1249.00,681.50
             -1251.13,669.24 -1257.06,659.47 -1260.50,648.00
             -1263.08,639.40 -1259.87,628.70 -1263.50,620.88
             -1265.21,617.19 -1268.56,612.64 -1269.50,609.12
             -1271.41,602.02 -1270.46,596.19 -1275.12,589.62
             -1276.87,587.16 -1273.52,575.64 -1275.38,573.25
             -1285.88,559.70 -1285.28,543.30 -1298.38,531.88
             -1303.58,527.33 -1313.49,513.41 -1319.12,509.12
             -1323.87,505.52 -1318.26,494.86 -1323.12,491.50
             -1350.52,472.60 -1371.41,454.85 -1393.50,436.00
             -1406.04,425.30 -1427.00,408.62 -1429.25,398.12
             -1431.50,387.62 -1438.12,377.41 -1439.25,371.62
             -1440.26,366.44 -1446.07,360.88 -1447.00,356.00
             -1461.67,278.93 -1453.94,245.16 -1445.12,211.75
             -1437.20,181.71 -1434.75,148.20 -1408.88,103.75
             -1404.70,96.50 -1397.91,86.39 -1387.62,77.50
             -1382.94,73.46 -1376.80,75.17 -1371.12,71.75
             -1362.40,66.50 -1353.67,56.67 -1344.50,54.00
             -1323.69,47.95 -1301.62,59.17 -1281.50,54.00
             -1213.08,36.40 -1200.50,18.00 -1157.00,24.00
             -1148.44,25.18 -1148.82,34.75 -1143.38,42.62
             -1133.65,56.69 -1118.63,75.48 -1095.50,103.50
             -1086.25,114.71 -1072.64,127.85 -1057.50,139.25
             -1050.94,144.19 -1042.40,146.11 -1036.62,151.88
             -1012.85,175.60 -997.26,206.18 -995.00,237.00
             -993.42,258.66 -1013.47,289.68 -1035.50,336.38
             -1041.41,348.89 -1036.38,364.19 -1042.75,378.25
             -1046.92,387.46 -1043.07,404.42 -1047.62,414.12
             -1051.83,423.10 -1064.62,434.78 -1069.25,443.88
             -1074.74,454.66 -1087.00,465.19 -1094.00,475.88
             -1104.65,492.11 -1110.22,508.53 -1117.12,525.38
             -1121.40,535.81 -1128.52,546.96 -1130.88,557.75
             -1134.51,574.42 -1136.69,590.37 -1137.88,607.62
             -1138.30,613.74 -1136.74,634.50 -1137.75,640.75
             -1139.04,648.69 -1142.55,659.91 -1144.25,670.50
             -1145.30,677.02 -1143.73,682.44 -1146.25,689.25
             -1152.88,707.12 -1154.10,715.83 -1154.62,731.88
             -1156.03,774.48 -1153.04,815.19 -1148.00,851.00
             -1146.41,862.28 -1148.68,878.91 -1146.75,889.25
             -1142.25,913.39 -1130.71,932.69 -1125.12,949.88
             -1113.24,986.45 -1098.12,993.38 -1107.50,1008.00
             -1116.88,1022.62 -1301.38,1016.38 -1307.00,996.00 Z" />
    <path id="closeUpEyeLeft" class="eye sclera" d="M -1462.00,287.50
           C -1460.30,252.11 -1443.13,204.71 -1424.50,172.00
             -1397.76,125.04 -1354.56,96.46 -1317.50,116.50
             -1273.10,140.51 -1279.31,216.06 -1314.00,276.50
             -1328.56,301.87 -1340.37,324.05 -1361.50,338.50
             -1387.53,356.30 -1418.58,365.95 -1435.00,353.00
             -1451.53,339.96 -1463.52,319.19 -1462.00,287.50 Z" />
    <path id="closeUpEyeRight" class="eye sclera" d="M -1042.50,164.00
           C -983.00,164.50 -949.50,232.50 -950.00,250.50
             -950.23,258.87 -958.28,285.19 -977.00,305.00
             -998.52,327.77 -1032.56,343.03 -1058.50,331.00
             -1107.00,308.50 -1102.00,163.50 -1042.50,164.00 Z" />
    <path id="closeUpBeak" class="beak" d="M -1072.00,484.00
           C -1074.97,489.81 -1078.94,503.22 -1084.50,512.50
             -1089.13,520.23 -1095.29,523.57 -1099.00,531.50
             -1103.67,541.48 -1102.70,549.91 -1107.50,558.00
             -1112.79,566.92 -1123.19,578.67 -1128.50,587.00
             -1135.91,598.63 -1148.08,616.15 -1153.50,627.50
             -1157.60,636.08 -1155.19,638.25 -1159.00,648.00
             -1162.02,655.72 -1166.12,663.86 -1169.00,673.00
             -1171.43,680.72 -1171.14,698.13 -1172.50,706.00
             -1176.17,727.30 -1178.37,738.33 -1176.50,750.50
             -1176.50,750.50 -1180.08,737.27 -1181.50,726.50
             -1182.20,721.17 -1177.82,711.85 -1179.00,706.00
             -1180.01,700.97 -1187.64,694.34 -1189.00,689.00
             -1192.23,676.32 -1190.60,655.77 -1192.50,640.50
             -1195.97,612.55 -1202.90,588.09 -1214.00,561.50
             -1220.27,546.49 -1220.50,533.50 -1260.50,515.50
             -1267.88,512.18 -1273.96,500.71 -1279.50,493.00
             -1303.96,458.94 -1313.50,425.00 -1312.00,398.50
             -1310.50,372.00 -1299.00,356.50 -1286.50,342.00
             -1284.64,339.84 -1276.62,333.64 -1261.50,330.00
             -1256.39,328.77 -1246.33,330.22 -1241.00,329.00
             -1230.09,326.51 -1221.06,322.18 -1211.50,322.50
             -1198.87,322.92 -1188.00,329.00 -1174.50,329.00
             -1161.00,329.00 -1160.50,325.00 -1143.00,328.00
             -1125.50,331.00 -1114.54,334.78 -1102.00,337.00
             -1092.94,338.60 -1084.06,338.53 -1077.50,341.00
             -1067.54,344.75 -1061.92,351.75 -1059.00,357.00
             -1054.26,365.52 -1063.94,380.79 -1063.00,406.00
             -1062.45,420.71 -1058.42,437.94 -1061.00,452.50
             -1062.48,460.87 -1070.00,467.00 -1072.00,484.00 Z" />
    <path id="closeUpDetails" class="details" d="M -1140.50,391.50
           C -1140.50,391.50 -1144.86,401.37 -1142.50,410.00
             -1141.17,414.86 -1135.04,418.16 -1133.00,424.00
             -1128.12,437.96 -1123.03,451.62 -1120.00,462.50
             -1117.91,470.00 -1117.00,477.50 -1117.00,477.50M -1205.50,401.50
           C -1205.50,401.50 -1196.97,405.99 -1202.50,424.00
             -1205.08,432.40 -1214.59,449.23 -1218.00,459.00
             -1223.89,475.88 -1223.50,484.50 -1223.50,484.50" />
    <path id="speechBubble" d="M -875.00,594.50
           C -884.83,598.13 -894.52,604.95 -905.00,605.00
             -917.74,605.06 -925.07,596.86 -941.00,600.00
             -946.27,601.04 -956.30,602.63 -962.50,605.50
             -974.98,611.28 -985.00,622.50 -990.50,621.50
             -996.00,620.50 -991.18,603.88 -996.50,601.00
             -996.50,601.00 -971.04,612.40 -943.00,584.50
             -934.52,576.06 -927.33,554.00 -919.00,543.00
             -914.53,537.10 -909.11,534.26 -905.00,527.50
             -900.32,519.80 -901.47,511.52 -897.33,502.67
             -896.24,500.33 -883.37,494.99 -871.00,495.00
             -862.86,495.01 -855.40,497.55 -850.00,504.00
             -844.86,510.13 -849.14,521.53 -848.00,532.00
             -845.91,551.14 -842.33,571.32 -847.50,580.00
             -852.77,588.84 -863.77,590.35 -875.00,594.50 Z" />
    <g id="flamingoneLetters" class="letters">
      <path id="letter1" d="M -846.75,210.75
           C -837.25,196.00 -837.75,175.50 -827.00,163.00
             -826.00,163.00 -828.75,157.50 -832.00,153.00
             -832.00,153.00 -820.60,156.46 -809.00,158.75
             -799.71,160.58 -790.00,162.34 -788.00,156.00
             -775.75,146.75 -785.50,221.75 -785.50,221.75M -810.50,199.50
           C -803.00,203.25 -792.00,195.75 -763.00,198.00
             -757.75,194.75 -763.00,211.00 -763.00,211.00
             -763.00,211.00 -731.00,166.00 -731.00,166.00" />
      <path id="letter2" d="M -712.25,230.75
           C -712.25,230.75 -704.25,216.00 -709.50,203.50
             -706.21,206.40 -695.89,212.33 -684.25,215.00
             -675.51,217.00 -667.41,219.03 -659.00,219.00
             -651.97,218.97 -644.66,216.90 -637.25,218.00
             -629.16,219.20 -620.83,224.23 -614.25,226.25
             -607.18,228.42 -602.09,227.51 -600.25,226.00
             -603.72,231.31 -602.65,241.85 -602.75,262.25
             -602.81,274.31 -605.84,295.45 -603.50,305.75
             -600.66,318.21 -597.96,331.71 -588.50,330.00
             -613.50,334.00 -634.75,313.25 -641.75,324.50" />
      <path id="letter3" d="M -607.75,166.75
           C -623.20,159.70 -631.95,129.39 -627.25,117.25
             -624.95,111.32 -613.50,120.75 -602.75,120.00
             -599.32,119.76 -593.69,128.30 -584.00,134.00
             -573.34,140.28 -568.36,139.25 -560.75,144.75
             -553.58,149.93 -543.81,161.86 -533.50,161.25
             -540.75,165.00 -553.50,190.75 -552.25,195.00
             -560.57,194.45 -565.34,181.17 -571.25,171.25
             -576.17,162.99 -583.00,157.75 -583.00,157.75" />
      <path id="letter4" d="M -830.25,296.00
           C -811.75,287.50 -817.00,299.00 -777.75,306.00
             -789.86,305.58 -804.29,303.18 -813.50,305.25
             -823.01,307.38 -826.71,313.06 -832.75,317.50
             -841.75,324.11 -847.81,333.09 -842.75,343.75
             -831.00,368.50 -837.25,401.75 -804.50,396.50
             -771.75,391.25 -776.25,432.50 -759.00,403.00M -753.50,372.50
           C -767.58,355.61 -764.28,351.84 -758.50,345.25
             -754.53,340.72 -751.10,329.92 -748.25,331.75
             -743.39,334.87 -747.93,349.84 -742.25,373.25
             -739.74,383.58 -727.57,400.04 -724.75,410.25
             -719.74,428.43 -718.34,443.32 -716.75,445.00
             -712.25,449.75 -715.00,437.75 -710.00,437.50" />
      <path id="letter5" d="M -548.25,282.00
           C -547.75,306.50 -530.68,299.79 -523.25,328.25
             -517.46,350.43 -528.25,379.75 -520.50,398.25
             -519.78,409.08 -539.00,419.94 -539.00,420.00M -678.50,400.50
           C -678.50,400.25 -634.25,445.00 -608.50,442.50M -569.00,430.75
           C -582.75,437.50 -596.50,451.75 -592.75,459.25
             -590.62,463.50 -561.25,493.00 -546.50,497.00
             -531.75,501.00 -537.75,519.00 -518.25,528.75" />
      <path id="letter6" d="M -729.75,483.25
           C -743.77,477.52 -756.83,489.69 -768.25,499.25
             -774.76,504.69 -784.25,509.25 -784.25,509.25
             -784.25,509.25 -776.20,509.94 -762.75,505.50
             -748.07,500.65 -727.42,490.63 -715.50,490.50
             -709.70,490.43 -700.01,498.88 -699.25,500.50
             -695.50,508.50 -664.50,513.50 -664.50,513.50
             -664.50,513.50 -649.25,524.25 -646.25,537.75
             -646.25,537.75 -635.70,533.02 -632.00,532.50
             -619.95,530.80 -602.90,526.17 -605.00,517.75" />
    </g>
  </g>
  <g id="eyeProfile">
    <path id="eyeProfileSclera" class="sclera" d="M -1432.00,2534.00
           C -1435.23,2466.41 -1425.47,2389.19 -1412.61,2328.20
             -1410.07,2316.15 -1398.71,2300.58 -1396.00,2290.00
             -1388.58,2260.98 -1389.53,2242.39 -1383.00,2230.00
             -1344.00,2156.00 -1234.00,2141.00 -1234.00,2141.00
             -1234.00,2141.00 -617.00,2539.00 -617.00,2539.00
             -617.00,2539.00 -1156.00,2883.00 -1156.00,2883.00
             -1156.00,2883.00 -1237.36,2865.67 -1302.00,2833.00
             -1337.86,2814.87 -1364.37,2788.84 -1379.00,2766.00
             -1397.97,2736.39 -1427.17,2635.23 -1432.00,2534.00 Z" />
    <path id="eyeProfilePupil" class="pupil" d="M -1441.00,2494.00
           C -1440.00,2405.00 -1418.00,2383.00 -1404.00,2396.00
             -1398.38,2401.22 -1381.42,2418.39 -1378.00,2455.00
             -1372.90,2509.57 -1384.03,2589.82 -1396.00,2597.00
             -1416.00,2609.00 -1442.00,2583.00 -1441.00,2494.00 Z" />
    <path id="eyeProfileLids" class="flamingoneSkin sketch thick" d="M -1296.00,2908.00
           C -1296.00,2908.00 -1318.00,2866.00 -1334.00,2804.00
             -1341.30,2775.73 -1317.75,2728.35 -1296.00,2691.00
             -1270.06,2646.44 -1241.90,2613.25 -1206.00,2604.00
             -1140.00,2587.00 -1083.65,2600.14 -968.00,2589.00
             -903.42,2582.78 -840.95,2569.27 -803.00,2565.00
             -779.46,2562.35 -771.00,2555.00 -771.00,2555.00
             -771.00,2555.00 -844.82,2543.58 -940.00,2527.00
             -989.02,2518.46 -1044.97,2512.09 -1096.00,2498.00
             -1179.88,2474.83 -1253.32,2438.04 -1282.00,2390.00
             -1305.57,2350.51 -1310.23,2311.77 -1320.00,2274.00
             -1343.38,2183.59 -1342.00,2109.00 -1346.00,2108.00
             -1290.00,1995.00 -1174.00,2032.00 -1174.00,2032.00
             -1174.00,2032.00 -338.00,2482.00 -336.00,2478.00
             -334.00,2474.00 -340.00,3072.00 -340.00,3072.00
             -340.00,3072.00 -1296.00,2908.00 -1296.00,2908.00 Z" />
    <path id="eyeProfileFaceSkin" class="flamingoneSkin sketch thick" d="M -508.00,2604.00
           C -429.32,2560.79 -381.00,2496.00 -381.00,2496.00
             -381.00,2496.00 -705.00,2320.00 -806.00,2396.00
             -838.27,2420.28 -891.32,2404.75 -950.00,2372.00
             -972.76,2359.30 -994.51,2337.23 -1019.00,2324.00
             -1048.50,2308.06 -1078.51,2281.44 -1106.00,2266.00
             -1181.00,2223.87 -1240.00,2199.00 -1240.00,2199.00
             -1240.00,2199.00 -1273.08,2122.35 -1320.00,2083.00
             -1364.76,2045.46 -1348.99,2014.67 -1243.00,1962.00
             -1171.64,1926.54 -1157.92,1805.29 -1032.00,1746.00
             -882.05,1675.40 -621.14,1670.26 -582.00,1692.00
             -548.28,1710.73 -431.20,2010.02 -351.00,2124.00
             -259.95,2253.39 -299.00,2495.00 -299.00,2495.00
             -299.00,2495.00 -326.00,3133.81 -326.00,3133.00
             -326.00,3132.00 -1148.00,3011.00 -1148.00,3011.00
             -1148.00,3011.00 -1335.00,2940.00 -1352.00,2863.00
             -1320.00,2838.00 -1234.79,2879.65 -1172.00,2861.00
             -996.47,2808.86 -918.00,2669.00 -796.00,2676.00
             -796.00,2676.00 -751.00,2686.00 -715.00,2675.00
             -696.94,2669.48 -587.25,2647.52 -508.00,2604.00 Z" />
    <path id="eyeProfileLashes" class="thick" d="M -1263.00,2638.00
           C -1221.48,2634.62 -1169.31,2603.35 -1141.00,2555.00
             -1110.67,2503.19 -1106.31,2432.66 -1127.00,2383.00M -1098.00,2591.00
           C -1098.00,2591.00 -1103.36,2610.72 -1105.00,2640.00
             -1107.07,2676.90 -1103.96,2726.18 -1085.00,2739.00M -1056.00,2636.00
           C -1056.00,2636.00 -954.00,2501.00 -997.00,2409.00M -966.00,2604.00
           C -966.00,2604.00 -950.14,2630.83 -910.00,2658.00
             -902.75,2662.91 -881.94,2668.22 -873.00,2673.00
             -842.51,2689.30 -819.22,2702.97 -811.00,2704.00M -896.00,2585.00
           C -896.00,2585.00 -846.00,2636.00 -807.00,2635.00M -854.00,2582.00
           C -854.00,2582.00 -819.00,2475.00 -830.00,2441.00" />
    <!-- TODO: remove hardcoded colors -->
    <g id="magicRing">
      <circle fill="none" r="50" stroke="rgba(255,55,255,0.2)" stroke-width="20" stroke-dasharray="2" />
      <circle fill="none" r="45" stroke="rgba(255,45,200,0.2)" stroke-width="18" stroke-dasharray="3" />
      <circle fill="none" r="35" stroke="rgba(200,45,255,0.2)" stroke-width="30" stroke-dasharray="5" />
    </g>
  </g>
</svg>