<?xml version="1.0" encoding="UTF-8" standalone="no"?>
<!DOCTYPE svg PUBLIC "-//W3C//DTD SVG 20010904//EN"
              "http://www.w3.org/TR/2001/REC-SVG-20010904/DTD/svg10.dtd">

<svg xmlns="http://www.w3.org/2000/svg"
     width="59.0222in" height="33.2in"
     viewBox="0 0 5312 2988">
  <path id="westRoad" class="pointOfInterest dirt road"
        fill="none" stroke="black" stroke-width="1"
        d="M 262.50,874.50
           C 262.50,874.50 208.00,860.00 192.00,861.00
             176.00,862.00 151.33,868.00 133.50,867.00
             115.67,866.00 78.67,893.33 63.00,880.50
             52.63,872.01 16.61,851.15 -6.67,826.67
             -18.57,814.15 -25.81,792.79 -27.33,788.00
             -27.33,788.00 -38.67,636.00 -38.67,636.00
             -38.67,636.00 -1.92,835.96 57.00,819.00
             70.00,815.33 92.67,850.67 123.00,837.00
             153.33,823.33 150.00,840.67 171.33,844.67
             192.67,848.67 231.67,849.33 244.50,852.00
             257.33,854.67 262.67,871.33 262.50,874.50 Z
           M 45.33,832.00
           C 45.33,832.00 38.67,826.00 31.33,836.67
             24.00,847.33 49.33,841.33 59.33,841.33
             69.33,841.33 45.33,832.00 45.33,832.00 Z
           M 85.00,872.75
           C 86.44,871.69 90.00,870.00 90.00,870.00
             90.00,870.00 78.75,866.25 78.00,869.33
             77.25,872.42 74.50,873.17 78.00,875.33
             80.31,876.76 82.22,874.81 85.00,872.75 Z
           M 180.00,874.75
           C 176.25,873.50 173.75,874.00 173.75,874.00
             173.75,874.00 179.50,868.25 181.50,868.50
             183.50,868.75 183.75,876.00 180.00,874.75 Z
           M 229.00,844.00
           C 229.00,844.00 225.75,845.00 225.75,845.00
             225.75,845.00 220.00,847.00 222.50,843.50
             225.00,840.00 229.00,844.00 229.00,844.00 Z
           M 146.75,840.00
           C 148.50,837.75 141.25,837.75 141.25,837.75
             141.25,837.75 137.50,840.50 137.50,840.50
             137.50,840.50 145.00,842.25 146.75,840.00 Z" />
</svg>
