<?xml version="1.0" encoding="UTF-8" standalone="no"?>
<!DOCTYPE svg PUBLIC "-//W3C//DTD SVG 20010904//EN"
              "http://www.w3.org/TR/2001/REC-SVG-20010904/DTD/svg10.dtd">

<svg xmlns="http://www.w3.org/2000/svg" viewBox="0 0 256 256">
  <path id="hoeHandle" fill="brown" stroke="black" stroke-width="1" d="M 15.66,227.87
           C 29.22,212.33 56.40,169.56 82.46,129.88
             113.14,88.62 133.09,54.20 128.16,46.57
             116.97,30.01 114.58,14.07 147.98,27.82
             180.73,37.98 190.80,45.01 197.51,58.61
             190.32,66.11 163.96,60.17 148.61,52.51
             150.53,68.14 56.57,200.67 35.48,237.87
             23.97,247.56 11.99,235.37 15.66,227.87 Z" />
  <path id="hoeBlade" fill="gray" stroke="black" stroke-width="1" d="M 227.24,74.55
           C 246.41,63.77 233.95,62.36 221.96,51.58
             197.99,26.26 162.04,30.95 156.76,32.35
             151.01,36.10 151.49,50.17 151.49,50.17
             172.58,63.30 219.09,73.61 227.24,74.55 Z" />
  <path id="hoeRope" fill="lime" stroke="black" stroke-width="1" d="M 190.32,39.85
           C 193.68,33.76 188.88,32.82 186.01,30.01
             182.17,27.19 173.06,26.73 158.68,26.26
             156.28,34.23 157.72,57.67 157.72,57.67
             157.72,57.67 164.23,59.14 171.63,61.89
             177.01,63.89 186.97,70.80 190.32,68.45
             192.24,65.17 184.09,54.39 190.32,39.85 Z" />
</svg>
