<?xml version="1.0" encoding="utf-8"?>
<!-- Generator: Adobe Illustrator 24.1.2, SVG Export Plug-In . SVG Version: 6.00 Build 0)  -->
<svg version="1.1" xmlns="http://www.w3.org/2000/svg" xmlns:xlink="http://www.w3.org/1999/xlink"
	viewBox="0 0 301 284.8">
	<g id="backHouse" class="backHouse back">
		<g>
			<path id="backLawn" class="lawn shade" d="M 0.00,202.00
					C 302.00,202.00 301.00,202.00 302.00,202.00
						302.00,374.00 301.00,374.00 302.00,374.00
						0.00,374.00 0.00,374.00 0.00,374.00
						0.00,202.00 0.00,202.00 0.00,202.00 Z" />
			<path id="backHouseFace0" class="backHouseFace"
				d="M20.5,44.5c-1.4,9.5,8,160,8,160l234-3l4-157C266.5,44.5,21.9,35,20.5,44.5z" />
			<path id="backHouseFace1" class="backHouseFace" d="M 10.50,45.50
					C 9.87,49.78 18.36,78.84 22.50,113.50
						27.55,155.80 23.25,203.25 23.25,203.25
						23.25,203.25 268.75,202.75 268.75,202.75
						268.75,202.75 261.57,159.56 265.00,119.75
						268.19,82.71 275.75,47.75 275.75,47.75
						275.75,47.75 11.90,35.99 10.50,45.50 Z" />
			<path id="backRoof0" class="roof" d="M6.5,44.5l110-44l103,3c0,0,60.1,40.9,59,45S6.5,44.5,6.5,44.5z" />
			<path id="backRoof1" class="roof" d="M 6.50,44.53
					C 6.50,44.53 139.50,-28.00 139.50,-28.00
						139.50,-28.00 279.60,44.43 278.50,48.53
						277.40,52.64 6.50,44.53 6.50,44.53 Z" />
			<path id="backWindowLeft0" class="window glass"
				d="M39.5,64.5c-3,4-3,32-3,32h25v-28C61.5,68.5,42.5,60.5,39.5,64.5z M103.5,96.5c1.9-9.3,8.4-18.4,0-28l-25,3l-3,29L103.5,96.5z" />
			<path id="backWindowLeft1" class="window glass" d="M 36.50,96.57
					C 36.50,96.57 36.50,68.55 39.50,64.55
						42.50,60.54 104.50,64.00 104.50,64.00
						112.90,73.61 105.40,87.26 103.50,96.57
						103.50,96.57 36.50,96.57 36.50,96.57 Z" />
			<path id="backWindowRight0" class="window glass"
				d="M254.5,62.5l-0.4,6c0,0,0.6,34.6-2.6,38s-62,0-62,0l3-42L254.5,62.5z" />
			<path id="backWindowRight1" class="window glass" d="M 225.25,82.75
					C 225.25,82.75 254.10,68.55 254.10,68.55
						254.10,68.55 254.70,103.17 251.50,106.57
						250.08,108.08 237.53,96.52 224.25,96.25
						207.52,95.90 189.50,106.57 189.50,106.57
						189.50,106.57 192.50,64.55 192.50,64.55
						192.50,64.55 225.25,82.75 225.25,82.75 Z" />
		</g>
		<g>
			<path id="backFence0" class="fence shade wood" d="M 0.00,263
						C 0.00,263 0,170.36 0,170.36
							0,170.36 9.50,176.62 9.50,176.62
							9.50,176.62 20.50,170.62 20.50,170.62
							20.50,170.62 27.30,180.63 27.30,180.63
							27.30,180.63 44.50,173.62 44.50,173.62
							44.50,173.62 61.50,187.63 61.50,187.63
							61.50,187.63 72.50,173.62 72.50,173.62
							72.50,173.62 91.40,174.62 93.50,179.63
							103.60,188.73 109.50,173.62 109.50,173.62
							109.50,173.62 131.50,185.63 131.50,185.63
							131.50,185.63 143.50,173.62 143.50,173.62
							143.50,173.62 150.50,187.63 150.50,187.63
							150.50,187.63 166.50,173.62 166.50,173.62
							166.50,173.62 172.50,188.63 172.50,188.63
							172.50,188.63 189.50,176.62 189.50,176.62
							189.50,176.62 200.50,189.63 200.50,189.63
							200.50,189.63 210.50,177.62 210.50,177.62
							210.50,177.62 231.50,189.63 231.50,189.63
							231.50,189.63 238.50,177.62 238.50,177.62
							238.50,177.62 247.50,189.63 247.50,189.63
							247.50,189.63 257.50,173.62 257.50,173.62
							257.50,173.62 270.50,188.63 270.50,188.63
							270.50,188.63 287.50,178.63 287.50,178.63
							287.50,178.63 301,200 301,200
							301,200 301,263 301,263
							301,263 0.00,263 0.00,263 Z" />
			<rect id="backFence1" class="fence chain metal" y="203" width="301" height="60" />
		</g>
		<g>
			<path id="backGarden0" class="backGarden bush" d="M57.5,283.5c-14-3.7-29.2-18.6-28-35c1.5-21.2,29.5-34.6,48-30c7.9,2.1,14.9,6.7,20,13c6.6,8.4,5.2,15,10,17
							c9.4,3.9,21.7-18,29-15c8.4,3.4,8.8,38.9-7,48c-9,5.1-15-2.9-38-2C71.8,280.2,68.7,286.4,57.5,283.5z" />
			<path id="backGarden1" class="backGarden tree" d="M67.4,69.7c29.6-19.2,12.2,4.1,32.3,8.6c-28.1-3.9-30.4,3.2-30.4,3.2s19.6,7.7-4.4,5s28.5,10.4,5.3,9.5
							c-23.3-0.9,34.9,16.2-5.5,11.4s33.2,8.4,8.2,5.2s26.5,17-1,13s26.3,8.8,4.6,8.9c-21.7,0.1,18.1,14.5-4,14.1s24.4,3.1,7.3,6
							s13.9,6.2-6.4,5.5c-20.4-0.8,26.4,4.6,8.7,8.1c-17.7,3.6,15.6,6.1-7,5s25.2,5.7,7.8,8.9s15.3,8-5.5,7.7s18.9,3.7,7.1,4.8
							s16.6,10.1-4.1,13.5s21.1,1,6.8,3s10.7,5.4-5.2,6.4s28.9,0.9,9.1,4.4s7.4,6.5-6.4,9.1s25.4,6.3,6.7,9.1
							c-18.6,2.8,83.2,77.6-6.4,9.1S37.8,88.8,67.4,69.7z" />
		</g>
	</g>
</svg>