<?xml version="1.0" encoding="UTF-8" standalone="no"?>
<!DOCTYPE svg PUBLIC "-//W3C//DTD SVG 20010904//EN" "http://www.w3.org/TR/2001/REC-SVG-20010904/DTD/svg10.dtd">

<svg xmlns="http://www.w3.org/2000/svg" width="900" height="436" viewBox="0 0 900 436">
  <g id="college" class="college pointOfInterest">
    <path id="collegeLawn" class="lawn backLawn" d="M 556.00,363.00
           C 893.30,363.00 1200.00,400.00 1200.00,400.00
             1200.00,400.00 1200.00,600.00 1200.00,600.00
             1200.00,600.00 -300.00,600.00 -300.00,600.00
             -300.00,600.00 -300.00,400.00 -300.00,400.00
             -300.00,400.00 149.75,363.00 556.00,363.00 Z" />
    <g class="collegeEast">
      <path id="collegeEastFace" class="face" d="M 842.00,312.33
           C 842.23,318.88 840.48,327.81 840.67,335.00
             840.84,341.83 841.34,348.36 841.67,354.67
             841.92,359.53 843.09,363.88 843.33,368.00
             844.01,379.31 845.00,386.00 842.33,388.67
             839.67,391.33 669.67,377.33 669.67,377.33
             669.67,377.33 665.00,230.67 665.00,230.67
             665.00,230.67 679.85,224.03 696.00,223.67
             708.78,223.38 723.67,229.33 723.67,229.33
             723.67,229.33 745.44,236.70 759.67,241.00
             764.08,242.33 768.44,245.49 770.33,245.33
             778.33,244.67 791.00,253.67 799.67,257.33
             804.60,259.42 818.15,267.19 828.00,274.00
             835.45,279.15 840.33,284.00 840.33,284.00
             841.72,286.02 841.50,297.91 842.00,312.33 Z" />
      <path id="collegeEastDoor" class="door east" d="M 773.50,386.50
           C 773.50,386.50 775.56,380.86 775.50,373.50
             775.44,366.63 771.62,352.25 773.38,351.25
             775.12,350.25 791.75,357.12 791.75,357.12
             791.75,357.12 792.22,368.50 792.88,377.50
             793.28,383.08 794.00,388.00 794.00,388.00
             794.00,388.00 773.50,386.50 773.50,386.50 Z" />
      <path id="collegeEastWindows" class="window glass" d="M 716.67,329.33
           C 717.81,318.89 720.14,307.36 721.00,296.00
             722.41,277.42 722.00,258.00 722.00,258.00
             722.00,258.00 738.67,252.33 738.67,256.00
             738.67,257.42 739.83,265.76 739.33,276.33
             739.06,282.22 737.00,289.44 737.00,295.00
             737.00,305.21 738.67,312.33 738.67,312.33
             738.67,312.33 739.61,321.38 739.33,330.33
             738.96,342.66 737.33,356.00 737.33,356.00
             737.33,356.00 716.00,359.67 714.33,359.00
             712.67,358.33 714.86,345.89 716.67,329.33 Z
           M 806.67,347.33
           C 807.69,336.85 810.83,326.56 811.33,316.33
             811.95,303.73 810.00,293.00 810.00,293.00
             810.00,293.00 829.00,291.00 829.00,291.00
             829.00,291.00 826.93,308.73 827.67,327.33
             828.06,337.20 829.10,345.31 829.67,354.00
             830.43,365.75 830.67,376.67 830.67,376.67
             830.67,376.67 825.49,376.04 820.00,375.67
             813.28,375.21 806.00,375.00 806.00,375.00
             806.00,375.00 805.27,361.75 806.67,347.33 Z" />
      <path id="collegeEastRoof" class="roof" d="M 660.33,217.00
           C 660.33,217.00 696.77,203.97 726.00,213.67
             748.75,221.21 778.15,232.05 800.33,244.00
             808.59,248.45 816.42,251.56 823.67,255.00
             831.36,258.65 838.38,262.59 843.67,266.33
             854.69,274.14 860.00,280.67 859.33,283.00
             858.67,285.33 857.56,287.05 853.33,288.33
             848.30,289.86 840.67,288.67 840.67,288.67
             840.67,288.67 828.39,269.87 797.33,260.33
             791.63,258.58 786.74,253.69 781.00,251.00
             773.01,247.26 760.78,245.50 752.33,242.00
             735.71,235.12 718.11,230.45 703.33,228.00
             681.39,224.36 661.76,233.91 661.67,234.00
             661.33,234.33 660.33,217.00 660.33,217.00 Z" />
    </g>
    <path id="collegeMainWestWall" class="collegeMain shade" d="M 152.67,203.33
           C 151.91,186.40 149.82,166.66 147.33,155.33
             144.88,144.13 142.02,141.27 143.00,139.67
             147.36,131.88 152.11,124.74 158.67,118.67
             162.41,115.20 169.07,112.51 173.33,109.67
             179.52,103.48 188.08,99.02 195.67,96.33
             203.62,93.52 210.63,92.62 218.33,92.00
             237.43,90.46 253.66,100.10 261.00,108.00
             261.00,108.00 258.67,135.67 245.67,153.00
             230.37,237.39 205.00,417.00 205.00,417.00
             205.00,417.00 201.85,413.75 197.33,410.00
             194.02,407.25 189.27,404.35 188.00,401.67
             184.90,399.73 179.91,400.02 176.67,398.33
             166.09,392.83 155.00,391.00 155.00,391.00
             155.00,391.00 156.01,277.88 152.67,203.33 Z" />
    <g class="collegeWest">
      <path id="collegeWestFace" class="face" d="M 156.67,398.00
           C 148.61,398.04 139.21,400.43 129.33,401.00
             115.50,401.80 100.88,400.95 89.00,402.00
             71.75,403.53 60.00,410.22 60.00,410.33
             60.00,410.43 57.70,396.11 59.33,372.00
             60.96,347.89 61.44,312.52 64.33,282.00
             66.82,255.81 70.84,232.90 73.67,215.67
             76.23,200.02 76.00,192.33 78.67,188.33
             79.23,187.48 84.69,184.94 92.67,184.33
             99.83,183.79 111.15,183.88 121.67,182.67
             130.10,181.69 137.49,179.32 145.67,179.33
             169.45,179.38 186.33,180.33 189.00,184.33
             189.44,184.99 185.53,192.13 185.33,202.00
             185.18,209.68 182.38,220.40 181.00,232.67
             179.35,247.31 179.07,264.10 178.67,280.00
             177.99,306.63 175.16,331.98 175.67,353.67
             175.84,361.24 177.09,367.79 177.67,374.00
             178.38,381.73 177.17,387.46 177.67,392.00
             178.14,396.34 180.33,399.67 180.33,399.67
             180.33,399.67 171.16,397.93 156.67,398.00 Z" />
      <path id="collegeWestDoorRight" class="door" d="M 89.00,387.33
           C 89.38,392.81 92.00,397.67 92.00,397.67
             92.00,397.67 89.09,398.94 85.67,399.67
             81.36,400.58 76.33,401.00 76.33,401.00
             76.33,401.00 74.00,338.00 74.00,338.00
             74.00,338.00 85.67,332.33 87.67,335.00
             89.67,337.67 87.80,369.96 89.00,387.33 Z" />
      <path id="collegeWestDoorLeft" class="door" d="M 60.33,397.67
           C 59.83,387.80 62.60,368.58 62.67,354.67
             62.71,346.08 64.67,339.33 64.67,339.33
             64.67,339.33 74.33,337.33 74.33,337.33
             74.33,337.33 76.56,358.68 77.33,377.00
             77.84,388.94 77.00,400.67 77.00,400.67
             77.00,400.67 64.33,404.33 64.33,404.33
             64.33,404.33 60.52,401.40 60.33,397.67 Z" />
      <path id="collegeWestWindows" class="window glass" d="M 106.09,358.73
           C 105.69,354.63 106.31,349.09 106.45,342.73
             106.72,330.87 107.07,317.44 108.27,314.18
             111.16,312.06 118.74,312.96 125.73,313.27
             130.58,313.49 135.34,312.72 138.27,312.91
             140.15,313.03 141.19,314.06 141.33,314.33
             141.56,314.78 140.34,320.18 140.09,327.27
             139.85,333.97 141.10,342.11 141.18,348.55
             141.27,355.42 140.21,360.35 140.67,359.67
             142.00,357.67 110.85,364.79 109.18,363.45
             108.83,363.18 106.40,361.82 106.09,358.73 Z
           M 129.73,269.82
           C 128.21,269.75 126.36,269.29 124.82,269.27
             118.30,269.20 112.41,269.91 111.73,270.00
             111.73,270.00 112.64,260.91 110.82,257.82
             109.00,254.73 108.82,246.55 110.64,241.45
             112.45,236.36 113.91,214.55 113.91,214.55
             113.91,214.55 142.82,208.73 144.82,209.64
             146.82,210.55 146.09,233.09 148.09,237.82
             149.03,240.05 146.55,247.04 144.64,253.82
             142.49,261.41 141.73,262.73 140.82,270.73
             140.44,274.06 135.37,270.07 129.73,269.82 Z" />
    </g>
    <g class="collegeRear">
      <path id="collegeRearFace" class="face" d="M 497.67,159.67
           C 497.99,143.88 500.42,131.24 501.33,120.00
             502.43,106.58 502.00,96.00 502.00,96.00
             502.00,96.00 512.61,94.60 529.00,94.67
             534.52,94.69 541.12,96.60 547.67,96.67
             562.02,96.80 578.06,94.30 594.00,94.33
             601.64,94.35 611.07,96.85 618.33,97.00
             624.41,97.13 631.62,94.96 637.00,95.00
             659.11,95.15 672.00,93.67 674.33,97.67
             675.02,98.84 673.38,126.10 674.33,162.00
             674.79,179.39 677.71,198.64 678.33,219.00
             678.91,237.77 679.60,257.79 679.00,277.33
             678.62,289.66 676.80,302.11 677.00,313.00
             677.84,359.07 683.67,387.00 681.67,391.33
             681.18,392.38 668.84,393.62 651.67,393.00
             644.71,392.75 637.19,390.27 629.00,390.33
             621.81,390.39 609.75,393.22 602.00,393.33
             550.47,394.07 496.00,393.00 496.00,393.00
             496.00,393.00 495.92,246.25 497.67,159.67 Z" />
      <path id="collegeRearWindows" class="window glass" d="M 640.00,265.00
           C 639.50,241.32 636.59,230.44 636.50,211.00
             636.40,189.41 639.38,173.38 640.50,171.50
             641.62,169.62 654.25,171.00 654.25,171.00
             654.25,171.00 651.59,223.61 651.50,272.50
             651.47,287.72 654.13,302.55 654.00,315.50
             653.89,325.93 652.05,336.08 652.00,343.00
             651.94,351.37 653.58,358.84 653.50,359.00
             653.00,360.00 643.50,359.00 641.50,357.00
             636.50,354.00 640.87,306.25 640.00,265.00 Z
           M 597.25,311.50
           C 597.63,302.68 596.00,294.12 596.00,294.12
             596.00,294.12 599.60,296.42 603.62,297.12
             606.22,297.58 608.97,296.22 611.12,297.00
             613.45,297.85 612.85,299.79 614.00,300.50
             617.88,302.88 613.38,312.03 613.88,323.12
             614.28,332.27 615.92,341.27 615.12,342.00
             613.38,343.62 593.38,346.25 593.75,342.88
             593.98,340.84 596.67,324.92 597.25,311.50 Z
           M 569.62,316.62
           C 569.64,310.99 568.54,307.11 568.50,305.88
             568.41,302.95 574.37,304.37 578.38,304.75
             580.19,304.92 581.56,303.88 581.88,303.88
             582.24,303.88 583.19,307.41 583.25,312.38
             583.35,320.86 582.41,333.86 582.75,343.00
             583.01,350.04 583.88,352.88 583.88,352.88
             583.88,352.88 577.98,353.47 573.50,353.25
             570.55,353.11 568.38,352.12 568.38,352.12
             568.38,352.12 569.60,330.43 569.62,316.62 Z
           M 620.00,197.88
           C 620.01,202.82 619.62,206.75 619.62,206.75
             619.62,206.75 614.57,206.93 611.25,207.50
             607.37,208.16 605.10,209.17 604.62,208.50
             604.04,207.66 603.36,194.87 604.00,185.00
             604.32,180.11 605.88,174.58 606.12,174.25
             606.48,173.78 610.32,174.04 613.25,173.50
             616.59,172.88 619.05,171.49 619.25,171.62
             619.50,171.79 619.97,187.53 620.00,197.88 Z
           M 585.12,189.88
           C 585.27,200.58 584.69,211.25 584.62,211.25
             584.57,211.25 581.77,211.90 578.50,211.88
             574.14,211.84 569.00,211.12 569.00,211.12
             569.00,211.12 567.67,208.88 567.50,204.12
             567.33,199.27 568.32,192.80 568.38,186.88
             568.45,178.67 567.62,171.55 567.62,171.50
             567.62,171.38 584.12,170.25 584.12,170.25
             584.12,170.25 584.99,180.13 585.12,189.88 Z" />
    </g>
    <g class="collegeMain">
      <path id="collegeMainFace" class="face" d="M 558.33,247.33
           C 558.51,266.49 563.06,286.91 563.67,306.67
             564.07,319.78 563.69,333.40 563.67,345.33
             563.63,361.15 566.96,375.48 566.33,386.67
             565.50,401.58 560.46,411.07 558.33,412.67
             556.72,413.88 534.21,422.51 519.67,423.33
             495.92,424.67 443.76,414.36 403.67,414.00
             364.52,413.65 320.70,410.26 287.00,411.33
             236.85,412.93 204.33,419.33 204.33,419.33
             204.33,419.33 201.27,410.14 201.67,382.67
             201.84,370.54 202.68,354.89 205.00,338.00
             206.71,325.57 210.04,312.32 210.33,300.00
             211.36,257.62 213.51,202.16 213.00,165.33
             212.40,121.59 209.00,100.00 209.00,100.00
             209.00,100.00 263.42,96.33 307.00,104.00
             371.39,115.32 456.09,129.91 509.67,143.33
             542.35,151.52 553.00,149.33 562.33,162.67
             565.78,167.59 563.67,207.33 558.33,247.33 Z" />
      <path id="collegeMainDoor" class="door" d="M 496.33,402.00
           C 496.33,402.00 493.29,381.29 493.00,362.67
             492.76,347.09 495.30,333.03 495.00,333.33
             494.72,333.62 504.76,328.96 516.33,329.33
             531.93,329.83 551.67,331.33 551.67,331.33
             551.67,331.33 554.51,345.16 555.00,357.33
             555.77,376.51 553.00,401.33 553.00,401.33
             553.00,401.33 496.33,402.00 496.33,402.00 Z" />
      <path id="collegeMainRamp" d="M 556.33,426.00
           C 553.81,428.69 503.09,425.35 469.67,425.33
             438.23,425.31 398.38,416.64 361.67,416.00
             282.79,414.62 205.67,419.33 205.67,419.33
             205.67,419.33 191.48,412.77 283.00,403.33
             309.25,400.63 351.79,395.23 391.67,390.00
             403.42,388.46 411.30,384.07 423.00,383.33
             435.36,382.56 451.37,384.18 463.00,384.00
             515.28,383.20 562.33,386.00 562.33,386.00
             562.33,386.00 566.33,415.33 556.33,426.00 Z" />
      <path id="collegeMainPillars" d="M 553.67,351.33
           C 553.61,341.07 547.05,330.93 547.00,320.00
             546.91,297.71 545.72,277.00 546.33,255.33
             546.84,237.37 552.01,218.55 553.67,204.00
             556.03,183.27 554.00,163.33 554.00,163.33
             554.00,163.33 561.33,165.00 565.00,169.33
             568.67,173.67 565.43,178.32 564.33,192.00
             563.72,199.63 564.50,208.76 563.67,219.00
             562.77,230.00 560.30,242.28 560.33,255.33
             560.36,267.35 562.64,278.94 564.00,291.67
             565.17,302.66 564.76,306.44 565.00,317.00
             565.04,318.87 564.97,329.15 565.00,331.00
             565.33,349.60 568.47,368.74 568.33,383.33
             568.10,408.36 564.33,423.33 564.33,423.33
             564.33,423.33 551.00,429.67 547.67,427.33
             544.33,425.00 553.90,393.47 553.67,351.33 Z
           M 217.67,192.00
           C 218.00,196.09 219.73,199.83 220.00,204.00
             220.54,212.43 220.53,216.62 221.00,225.33
             221.19,228.85 219.23,233.41 220.00,237.33
             220.88,241.80 224.50,245.64 224.67,249.67
             225.38,266.44 228.52,296.81 228.67,312.33
             229.14,361.19 231.00,381.33 226.33,389.67
             223.84,394.11 221.40,399.64 217.00,405.67
             213.16,410.93 207.16,417.02 207.00,417.33
             206.67,418.00 221.00,412.00 221.00,412.00
             221.00,412.00 237.24,398.53 239.00,381.33
             244.04,332.17 239.99,249.65 240.67,202.00
             240.90,185.68 247.00,158.33 247.00,158.33
             247.00,158.33 266.00,113.00 266.33,110.67
             266.52,109.35 249.37,99.99 232.67,97.33
             219.77,95.28 206.33,99.67 206.33,99.67
             206.33,99.67 213.59,142.52 217.67,192.00 Z" />
      <path id="collegeMainRoof" class="roof" d="M 206.67,86.33
           C 207.11,85.93 214.48,85.81 219.67,86.00
             227.00,86.27 234.12,87.07 247.00,87.67
             263.59,88.43 282.46,88.05 301.33,92.00
             326.05,97.18 361.74,105.39 397.67,110.67
             420.12,113.96 443.89,113.64 461.33,118.33
             476.96,122.54 493.83,126.56 506.67,131.00
             516.22,134.30 525.53,139.13 533.33,142.33
             545.03,147.14 560.97,150.93 568.67,154.67
             584.18,162.21 587.00,165.67 586.67,170.00
             586.33,174.33 582.33,183.67 570.67,179.00
             566.97,177.52 559.95,168.49 550.33,165.67
             542.20,163.28 535.21,156.31 523.00,154.33
             504.06,151.26 477.03,152.92 448.33,146.00
             438.64,143.66 425.40,142.70 415.33,140.33
             404.84,137.87 394.64,133.34 384.00,131.00
             378.10,129.70 371.27,127.02 364.67,127.00
             357.86,126.98 351.28,129.62 345.33,128.33
             340.81,127.36 336.57,129.26 332.00,128.67
             325.74,127.85 319.19,124.60 313.33,123.33
             304.85,121.50 294.49,113.95 286.67,112.33
             276.83,110.31 263.89,113.99 255.51,112.30
             248.23,110.82 241.57,109.49 235.67,108.33
             217.55,104.77 204.33,107.00 204.33,107.00
             204.33,107.00 200.00,92.33 206.67,86.33 Z" />
    </g>
  </g>
</svg>