<svg xmlns="http://www.w3.org/2000/svg">
    <g id="flamingone">
        <path id="torso" fill="none" stroke="black" stroke-width="1" d="M 14.21,73.27
           C 10.10,78.12 4.50,77.00 2.26,71.02
             -4.83,67.29 -8.57,63.93 -6.33,56.46
             -5.58,51.23 -8.57,46.00 -11.56,41.52
             -19.02,32.93 -26.12,34.05 -17.16,22.85
             -14.92,18.74 -17.53,13.14 -18.65,8.29
             -29.48,-6.28 -22.76,-9.26 -15.29,-18.97
             -11.18,-24.20 -8.94,-39.14 -8.94,-48.10
             -9.33,-50.17 -10.93,-53.76 -13.05,-55.94
             -17.05,-60.07 -21.77,-63.32 -15.66,-70.88
             -10.06,-76.86 -11.56,-80.22 -11.56,-84.70
             -10.81,-93.66 -5.95,-97.40 -5.95,-97.40
             -5.95,-97.40 -3.15,-100.76 1.14,-99.26
             1.14,-99.26 4.50,-95.34 4.50,-93.29
             4.50,-93.29 4.88,-79.10 4.88,-79.10
             4.88,-79.10 4.50,-64.16 6.00,-56.32
             6.37,-49.60 4.13,-48.85 1.89,-45.86
             0.02,-43.25 -3.71,-32.79 -4.09,-29.43
             -3.71,-26.07 -3.53,-25.51 -2.22,-24.58
             1.70,-20.84 -3.15,-19.35 -2.22,-16.36
             -2.22,-14.31 3.75,-9.45 5.81,-8.14
             7.49,-7.21 12.16,-1.24 13.46,0.45
             13.73,1.33 12.90,5.30 10.29,9.22
             9.05,13.69 9.54,17.25 9.73,20.24
             10.49,17.12 11.31,13.31 12.53,10.34
             14.31,6.02 14.21,5.11 15.89,2.50
             20.37,4.74 20.75,9.03 19.07,13.52
             17.76,16.88 16.08,31.44 16.08,31.44
             16.08,31.44 17.78,20.90 20.00,17.44
             20.46,16.70 21.90,19.77 22.43,19.68
             23.34,21.13 24.51,28.19 24.29,34.80
             24.07,41.76 21.87,45.44 21.87,48.99
             21.87,60.01 16.45,65.42 14.21,73.27 Z
           M 5.25,2.69
           C 5.25,2.69 5.62,7.17 4.88,11.46
             3.94,12.77 1.70,16.69 1.70,19.86M -3.53,16.69
           C -3.53,16.69 -1.66,12.58 -0.17,11.65
             1.14,9.22 0.39,1.94 1.51,0.63" />
        <path id="beakBottom" fill="none" stroke="black" stroke-width="1" d="M 10.71,-54.55
           C 10.71,-54.55 14.20,-55.47 13.10,-56.39
             13.10,-56.57 12.91,-59.32 8.14,-62.08
             8.14,-62.08 3.67,-63.46 3.73,-62.63
             3.93,-60.28 4.29,-56.70 4.84,-56.02
             7.22,-54.73 8.87,-54.55 10.71,-54.55 Z
           M 8.14,61.11" />
        <path id="beakTop" fill="none" stroke="black" stroke-width="1" d="M 17.67,-63.80
           C 17.67,-63.80 9.39,-71.00 6.32,-72.98
             0.02,-71.54 3.08,-61.27 4.34,-60.73
             6.30,-60.48 10.47,-60.37 13.17,-57.49
             17.20,-52.18 18.57,-42.00 18.57,-42.00
             19.83,-48.30 17.67,-63.80 17.67,-63.80 Z" />
        <path id="flamingoneEye" fill="none" stroke="black" stroke-width="1" d="M -0.42,-82.14
           C -0.42,-84.45 1.31,-89.65 3.04,-90.42
             5.16,-90.81 6.32,-90.23 7.67,-89.27
             8.82,-87.34 9.40,-81.95 8.44,-79.06
             7.28,-77.13 4.39,-76.36 3.43,-76.55
             2.47,-76.55 -0.04,-77.71 -0.42,-82.14 Z" />
    </g>
</svg>