<?xml version="1.0" encoding="utf-8"?>
<svg version="1.1" xmlns="http://www.w3.org/2000/svg" viewBox="0 0 900 498">
	<g id="gasStation" class="pointOfInterest">
		<path id="gasStationLawn" class="lawn" d="M 44.00,346.00
           C 130.39,339.27 271.83,327.00 412.00,327.00
             525.92,327.00 638.88,339.19 723.00,345.00
             805.30,350.69 860.00,350.00 860.00,350.00
             860.00,350.00 860.00,460.00 860.00,460.00
             860.00,460.00 -40.00,460.00 -40.00,460.00
             -40.00,460.00 -40.00,350.00 -40.00,350.00
             -40.00,350.00 -8.06,350.06 44.00,346.00 Z" />
		<path id="gasStationLotDark" d="M 75.00,394.00
           C 335.03,376.84 886.98,402.46 882.70,414.40
             876.30,432.20 874.20,456.80 874.20,456.80
             874.20,456.80 865.70,465.30 864.00,467.00
             862.30,468.70 850.50,473.80 847.10,473.80
             843.70,473.80 814.90,477.20 813.20,477.20
             811.50,477.20 789.50,473.80 789.50,473.80
             789.50,473.80 742.10,472.10 742.10,472.10
             742.10,472.10 715.00,473.80 715.00,473.80
             715.00,473.80 686.10,484.00 686.10,484.00
             686.10,484.00 659.00,485.70 659.00,485.70
             659.00,485.70 648.80,485.70 647.10,485.70
             645.40,485.70 608.10,484.00 608.10,484.00
             608.10,484.00 586.10,484.00 584.40,484.00
             582.70,484.00 560.70,480.60 560.70,480.60
             560.70,480.60 543.80,480.60 540.40,480.60
             537.00,480.60 515.00,484.00 515.00,484.00
             515.00,484.00 498.10,484.00 498.10,484.00
             498.10,484.00 469.30,473.80 469.30,473.80
             469.30,473.80 437.10,472.10 437.10,472.10
             437.10,472.10 411.70,472.10 411.70,472.10
             411.70,472.10 394.80,472.10 394.80,472.10
             394.80,472.10 374.50,482.30 374.50,482.30
             374.50,482.30 347.40,485.70 345.70,485.70
             344.00,485.70 300.00,485.70 300.00,485.70
             300.00,485.70 254.30,487.40 252.60,487.40
             250.90,487.40 225.50,489.10 223.80,489.10
             222.10,489.10 200.10,489.10 196.70,489.10
             193.30,489.10 137.40,477.20 135.70,477.20
             134.00,477.20 105.20,477.20 105.20,477.20
             105.20,477.20 62.80,477.20 61.20,477.20
             59.50,477.20 29.20,473.30 12.90,474.00
             -3.40,474.70 -37.00,472.00 -42.00,458.00
             -47.00,444.00 -11.12,399.68 75.00,394.00 Z" />
		<path id="gasStationLot" class="noStroke" d="M430.2,343.7c189,1.9,450.1,42.7,457.6,60.5s-8.5,42.4-8.5,42.4s-8.5,8.5-10.2,10.2s-13.5,6.8-16.9,6.8
			S820,467,818.3,467s-23.7-3.4-23.7-3.4l-47.4-1.7l-27.1,1.7l-28.8,10.2l-27.1,1.7c0,0-10.2,0-11.9,0s-39-1.7-39-1.7s-22,0-23.7,0
			s-23.7-3.4-23.7-3.4s-17,0-20.3,0c-3.4,0-25.4,3.4-25.4,3.4h-16.9l-28.8-10.2l-32.2-1.7h-25.4H400l-20.3,10.2
			c0,0-27.1,3.4-28.8,3.4c-1.7,0-45.7,0-45.7,0s-45.7,1.7-47.4,1.7c-1.7,0-27.1,1.7-28.8,1.7s-23.7,0-27.1,0s-59.3-11.9-61-11.9
			s-30.5,0-30.5,0s-42.4,0-44.1,0s-18.6-5.1-20.3-6.8c-1.7-1.7-65.1,8-78.4-1s13.7-18.7,11.3-40.7c-1.9-18.3,16.9-21.2,19-24.9
			c2-3.4,4.7-6.4,8.4-7.7C60.2,366.6,318.9,342.6,430.2,343.7z" />
	</g>
	<g id="tongueGroup" class="tongueBuilding">
		<path id="gasStationLotCracks"
			d="M-2,441.7c-1,0.1-2.2,0.6-3,1c-1.5,0.8-2.7,1.1-2.1,2.8c0,0,0.1-1.1,1.6-1s2-1.1,3.7-1.1
			s3.4-0.4,1.5,1.1s-2.8,1.1-2.9,1.1s-0.2,1,0.4,1c0.6,0,3-1.1,4.1-2.3c1.1-1.2-0.2-1.2,2.3-2.5s1.8-3,1.8-3.5
			c0.1-0.5,0.1-3.7,1.8-4.7s8.8-3.7,9-5.6c0.3-1.9,2.3-3.4,5.6-3s9-2.5,9.7-4.5c0.7-2,3.2-2.5,4.7-2.8c1.6-0.2,3.6-1.8,5.5-1.3
			c1.9,0.6,2.6,0.5,4.4-0.5s4-0.7,7.1,1.1c3.2,1.8,5.3,2.7,5.7,2.7c0.2,0-0.5,0.4-1.6,1c-0.9,0.5-1.7,1.1-3.9,1.5
			c1.6,2,2,0.9,3.3,0.4c1.3-0.6,1.8-0.9,3.1-0.9c1.3,0,3.5,0.9,4.7,0.9c1.2,0.1-0.1,0.6,3.9,1.2c3.9,0.6,1.6,1.5,0.1,2
			c-0.5,0.2-0.8,0.9-1.5,1.2c-0.6,0.3-1.5,0.3-1.5,0.5c-0.1,0.3,0.5,0.5,2.4,0.3c2.8-0.6,3.3-3.1,5-2.8c1.8,0.3,1.7,1.9,4.7,2.7
			c3,0.8,4.5-0.4,5.6-1.1c0.7-0.4,2-1.4,3.4-1.7c0.9-0.2,2.2,0.1,2.2,0.1c0.1-0.2-3.3-2.3-4.7-1.2c-1.3,1.1-2.3,1.8-3.5,1.6
			c-1.2-0.2-2.5-1.1-2.6-1.2s3.9-1.5,4.2-1.5c0.3-0.1,4.5-0.4,5.1-0.4c0.6-0.1,2.7,0.7,3.6,1s5.6,1.6,6.8,1s10.6-1.6,11.7-2.5
			s2.6-1.5,4.2-1.3c1.6,0.2,3,0.8,3.4,1.3c0.5,0.6,1.8,2.6,2.8,3.3c1,0.6,2.3,1.4,3.6,2.2c1.3,0.8,1.9,0.6,2.4,1.8
			c0.5,1.2-0.6,2.8-1.1,3.7c-0.5,0.9-1,1.8-1,2.4s-0.7,1.3-1.4,2.1c-0.7,0.9-2,2.1-2.7,2.3c-0.7,0.2-2.2-0.1-1.9,1.1
			c0.3,1.3-0.2,2.9-0.2,3.7c0,0.8-3,4.1-3,5s-0.2,1.8-1.3,1.8s-2-0.5-3.2-0.9s-4-0.4-4.3,0.5c-0.4,0.9-2.3,1.5-3.3,2.8
			s-1.2,1.5-1.1,3.2c0.1,1.7-0.6,3.3-1.8,4s-3.3,2.8-3.3,3.7c0.1,0.9,0.5,1.8,1,0.2c0.5-1.6,0.8-1.9,1.5-2.1s1.3-1.2,2.2-1.8
			c0.9-0.6,1.3,1.3,1.8-0.9c0.6-2.3,0.2-2.9,0-3.6s0.6-2.5,0.9-2.8c0.4-0.4,1.6-1.1,2-1.3c0.4-0.3,3.4-1.1,4.4-0.4s4.7,1,4.8,0.3
			s0.8-1.7,1.6-3.1s1.4-2.1,1.5-3s0.9-3,1.1-3.2s0.2-1.8,1-0.6c0.8,1.1,2,2,2.8,3.5s0.5,2.9-0.3,5.6c-0.3,1-1.3,2.5-1.4,3.8
			c-0.3,2,0.3,4,0.3,5.4c0,2.3,0.9,3.6,2.1,5.8c1.3,2.2,4.1,3.2,3.3,2.4c-0.8-0.8-2-3.5-2.8-4.7s-1.3-1.9-1.6-4.1s0.4-4.7,0.6-5.5
			c0.2-0.8,0.7-4.8,0.9-5.7c0.2-0.9,1.5-3.8,1.8-4.7c0.3-0.9,0.7-1.4,0.9-2.1s-1.1-1.2-1.2-0.6c-0.1,0.6-0.4,2.8-0.7,3.2
			c-0.3,0.4-0.8,0.8-1.3-0.1s-1.3-2.3-1.6-2.5c-0.2-0.3-1.1-1.2-0.7-1.9c0.4-0.7,1.4-1.2,2-1.5c0.6-0.4,1.6-0.9,2-1s1.7-1.5,2.2-1.8
			s3.1-1.6,3.1-3.5c0-1.8-0.8-2.1-1.3-3c-0.6-0.9-0.9-0.6-0.2-1.9s0.4-2.6-0.1-3.1s-0.7-0.1-1.5-1.7c-0.9-1.6-1.3-2.4-1.4-3.2
			c-0.1-0.8-0.3-1.4,0.1-1.7s1.1-1.1,1.8-1.3c0.7-0.2,2.2-0.9,6.1-0.4c3.9,0.5,7.3,1.2,9,1.6c0.6,0.2,2.4-0.7,3.2-0.2
			c1.4,0.8,1.3,1.8,2.4,2.3c1.5,0.7,0.1-0.6,2.3,0.9c0.3,0.2,1.6,1.7,2.1,2.1c2.5,1.6,2.8,2,5.5,2.5c1.6,0.3-1.1-1.5-2-1.8
			c-1.1-0.5-2.8-1.5-3.4-2.3c-0.6-0.8-1.6-1.2-1-2.1c0.6-0.8,2.7-2.5,3.9-3c1.3-0.6,3-1.8,4-2.2c0.3-0.1,3.8-1.3,6.2-2.5
			c2.2-1.2,3.4-2.4,3.7-3c0.4-0.6-1.9,1.1-3.9,1.4c-1.6,0.3-2.4-0.4-2.3-0.5c0.4-0.3,1-1.1,2.3-1.6c1.3-0.6,2.7-0.7,3.7-0.8
			c1-0.1,4,0.4,4.2,0.4s7.5,0.4,7.8,0.4c0.2,0,3.7,0,6.1,0.3c1.9,0.3,2.8,0.9,2.9,0.9c0.2,0,3.1,0.4,5.1,0.6c2.1,0.1,9.9,0.4,10.7-1
			c0.8-1.3,6-1.3,6.7-1.1c0.7,0.1,2.5,0.9,3.5,0.8c1.1-0.1,5.2-2.2,8-3.5c0.4-0.3,2.2-1.3,3.8-1.4c1.6-0.1,2.3,0.9,2.6,1.1
			c0.4,0.2,2.4,0.4,2.9,0.4s7.3-0.1,8.3-0.4s3.3-0.4,4.3-0.6c1-0.3,3-0.5,4.2-1.5s1-1.3,3.5-1.6c1.4-0.2,2.4-0.4,3.1,0.1
			c0.6,0.3,1,1.3,1.4,1.6c0.8,0.6,2.5,2,2,2.6c-0.4,0.6-1.5,0.9-0.8,1.9c0.7,1.1,1.9,1.6,2.9,1.6s1.4-1.1,2.5,0.2
			c1.1,1.3,1.6,2,2,2.6s1.5,2,2.3,2.2s2.6,0.1,2.6-0.1s-1-1.8-1.7-2.4s-1.6-1.3-2-2.1c-0.3-0.9-1.4-2.4-1.5-2.5s-0.9,0.3-2,0.2
			c-1.1-0.1-2.3-1-1.7-1.6c0.6-0.6,3-1.5,3.7-1.4c0.8,0.1,2.1,0.7,3.6,0.8c1.5,0.1,3.2-0.6,3.8-0.9c0.6-0.2,1.1-0.9,3-0.4
			s2.3,1.4,2.5,2c0.1,0.2,1.4,1.8,2.5,3.2c1,1.3,1.8,3.3,2.8,4.7c1.6,2.2,3.4,3.5,3.7,3.4c0.9-0.1,0-0.4-0.7-1.2
			c-0.7-0.8-1.1-1.9-1.8-3c-1.7-2.2-2.2-4.5-1.3-4.2c0.8,0.4,3.7,4.3,5.5,4.7c1.8,0.4,3.3,1.5,5.1,0.8c1.8-0.7,2.2-0.5,4.5-1.7
			s1.9-2.7,3.5-2.8c1.5-0.1,3.9,1.6,5.4,3.3c1.5,1.7,2,3.3,2.3,4.7c0.2,1.5,2.2,1.8,2.5,4.4s0.1,4.7,1.1,5.7c0.9,1,1.9,2,2.7,2.1
			c0.8,0.1,2.4,0.4,0.8-0.7s-2.1-1.2-2.7-3.3c-0.6-2-0.6-2.4-0.8-4.3c-0.1-1.9,0.1-0.4-1.4-3c-1.5-2.7-2-4.4-0.4-4.2
			c1.6,0.3,2.1,1.6,3.9,1.3c1.8-0.3,3-1.9,3.7-2.1s1.8-1.6,5,0s5.2,4.7,7.1,4c1.8-0.6,1.8-0.3,4,3c2.3,3.3,2.6,4.9,3.7,4.2
			s0.6-1.3,1.5-1.5c0.9-0.1,2.5,0.6,3.8,1.3c1.3,0.8,4.8,3,4.4,1.8s-0.9-1.3-0.4-1.9s0.1-0.9,1.6,0.3c1.5,1.1,1.6,0.3,3.7,1.4
			s2.1,1.4,3.5,1.3s1.3-1.1,2.3,0s1.5,1.8,2.3,2.8c0.8,0.9,1.7,2.5,3,3.1s0.6,1.1,2,0.6c1.3-0.6,2.8-0.9,4.6-0.1
			c1.8,0.8,3.1,1.7,3.5,1.4c0.4-0.3,1.8-0.4,1-1s-2.1-1.4-3.3-1.6c-1.2-0.2-1.4-0.9-3-0.9c-1.5,0-1.8,0.4-2.7,0.2
			c-0.9-0.2-1.3-0.2-1.8-1.1c-0.5-0.8-0.6-1.3-1.7-2.6s-2-1.8-2.3-2.3c-0.3-0.6-0.4-0.5-1.3-0.5s-0.6,0.2-2.1,0.1s-2.4-0.9-3-1.2
			c-0.6-0.4-2.4-1.2-3.3-1.6s-3.5-1.5-4.7-1.5c-1.3,0-1.8,0.3-2.1,0.5c-0.3,0.2-1.6,0.6-2.2-0.1s-1.4-0.9-1.8-1s-2-0.2-2-0.1
			s-0.6,0.4-1.3-1.1c-0.7-1.5-2-2-2.2-2.5s0.1-2.3,0.1-2.3l-1.3,0.6c0,0-4-1.3-4.5-1.6c-0.5-0.2-6.5-2.9-6.4-3s-0.4-2.7,0.9-3
			c1.2-0.4,4.9,2.5,8.3,4c3.3,1.4,4.2-0.2,4.4-0.4c0.2-0.2,1.6-1.2,0.8-1.6c-0.4-0.2-1.2,0.5-2,0.8s-1.6,0-2.6-0.2
			c-2-0.5-7.1-5.2-9.3-4.4c-2.2,0.7-1.6,3.5-2.6,4.6s-0.9,1.1-2.3,1.3c-1.7,0.3-3.9-0.4-4.1-0.4c-0.3,0-6-0.7-6.3-0.8s-2-2.1-3.4-2.8
			c-1.4-0.7-1.9,0.1-4.4-0.1s-2.3-1.3-2.8-1.8c-0.1-0.2-1,0-1.5-0.4c-1.2-1.1-2.7-3.2-3.6-3.8c-1.3-0.9-2.5-1.1-1.8-2.3
			c0-0.1,0.7,0,2,0.6s1.3-0.4,0.7-0.9c-0.3-0.3-1.4-0.5-2.3-0.6s-1.7-0.1-2.1-0.4c-0.8-0.6-1.1-1.6-1.3-1.8c-0.3-0.2-2.1-0.7-2.5-0.8
			c-0.4-0.1-1.3-2-1.9-2.5s-2.8-1.1-2.8-2.5s1.4-1.8,2.2-2.1c0.8-0.2,2.1-0.7,2.1-1c0.1-0.3-1.6-1.2-1.8-1.1c-0.2,0.1-2,0.5-2.3,0.5
			s-1.6,0-1.7,0s-2.5-0.8-2.5-0.8s1.5-4.7,1.5-5.2c0-0.6,0.1-5.8,0.4-6.2c0.3-0.4,0.4-1.5,0.9-0.8c0.4,0.7,0.9,2.3,1.5,1.8
			s1.1-1.2,1.1-3s0.3-2.9,1.2-3.4c0.5-0.3,2.9-1.6,4.6-2.8c1.3-0.9,1.9-2,2.7-2c1.8-0.1-1.3,7.7-1.4,7.9c-0.1,0.2,0.5,1.4,0.6,1.4
			c0.1-0.1,2-1.4,3.1-1.7c0.3-0.1,1.3,0.6,1.9,0.3c0.5-1.8,3.5-3.3,4.1-3.3c0.9-0.1,3.1-1.7,3.8-2.6c0.7-0.9,2.6-2.1,3-2.5
			s1.4-2.6,1.4-2.6s0.9,1.1,1.3,1.3c0.4,0.2,4.1,0.1,4.5,0.1c0.3,0,1.3,0.5,1.5,2.5c0.1,1.1,0.4,2.3,0.6,3.3c0.2,0.9,1,1.7,1,2.3
			c1.8,1.9-0.8,3-0.5,4.6s1.8,5.9,3.5,6.5c0.8,0.3,3.2,0.7,5.2,1.6c1,0.4,1.4,1.5,2.2,2c0.9,0.5,1.7,0.6,1.8,0.4
			c0.6-0.6-1.8-3.7-4.2-4.6c-2.5-0.9-3.2-2.5-3.7-3.4c-0.3-0.4-1-1.1-1.5-2.1s-0.7-2.3-0.6-3.1c0.1-1.6,2.3-4.2,0.4-6
			s-1.1-4.3-3.1-5.4s-6.4-0.4-6.5-0.6s-0.2-1.8,0-2.5s-0.4-1.9-0.9-1.4s-2.7,2.3-3.5,2.9c-0.9,0.6-3.5,2.1-4,2.4
			c-0.2,0.1-1.6-0.1-2.6,0.4c-1.1,0.6-1.7,2.1-1.9,2.3c-0.4,0.4-0.7,2.1-2.1,2.3c-1.4,0.3,0.1-1.1,0.5-2.6c0.5-1.8,1.1-3.9,1.2-3.9
			s-1.3-0.5-1.3-0.5s-2.8,1.2-5.2,2.3c-2.5,1.2-4.6,2.3-4.8,2.4c-0.2,0.1-2-0.4-2.6,0.4c-0.5,0.7-0.9,1.3-1,1.5
			c-0.1,0.3-3.1,0.7-3.2,0.7s-2.4-0.7-2.4-0.7L76.2,415.3c0,0-3.5,3.5-3.8,3.9s-1.9,1.9-3.1,1s-3-0.7-5.4-2.3c-1-0.7-3.1-0.5-4.7-0.8
			c-2.2-0.5-5.1-2.2-8.4-3c-1.6-0.4-3.1-0.3-4.4-0.6c-1.7-0.4-2.8-1-3.4-1c-0.9,0-2.3-0.1-3.3,0.4c-0.8,0.4-1.2,1.5-2.2,1.8
			c-1.1,0.4-2.7-0.3-3.7,0c-3,0.9-6.6,5.4-6.7,5.6c-0.1,0.1-4.3,3.4-8.9,2.3c-1.9-0.4-5.5-0.2-7.9,0.4c-3.5,0.9-6,2.2-10,2
			c0.9,0.8,2.3,1.6,3.6,1.5c1.5-0.1,2.7-0.8,4.2-1.3c1.8-0.6,3.8-0.9,4.7-0.4c0.8,1.2-2.1,3-3.9,4.7c-0.7,0.6,0.4,1.1-0.8,2
			c-0.8,0.7-2.5,0.8-3.6,1.6c-1.7,1.1-2.3,2.5-2.5,4.1s0.3,1.8,0.3,2.9c0,1.2-0.9,2.1-1.6,2.4C0.8,441.9-0.5,441.5-2,441.7z" />
		<path id="gasStationWindowLeft" class="glass window" d="M 155.25,406.88
			C 155.25,406.88 101.62,416.75 101.62,416.75
				101.62,416.75 97.88,348.50 97.88,348.50
				97.88,348.50 162.75,335.38 162.75,335.38
				162.75,335.38 155.25,406.88 155.25,406.88 Z" />
		<path id="gasStationWindowRight" class="glass window" d="M 246.33,326.67
           C 261.33,336.00 270.33,346.00 271.00,355.33
             271.00,355.33 271.33,396.67 271.33,396.67
             271.33,396.67 243.00,396.67 243.00,396.67
             243.00,396.67 240.00,331.67 240.00,331.67
             240.00,331.67 239.67,324.33 246.33,326.67 Z" />
		<path id="tongueBack" class="tongue shade" d="M128.2,286.7c-10.8,23.8-33.5,43.7-33.5,43.7s2.5-10.2,2.3-10.2s-1.3-3.2-1.3-4c0-0.8-0.2-6.6-0.2-6.6
			s-0.6-3.6-0.4-4.9c0.2-1.3,0.6-3.6,0.6-4s0.8-2.8,1.9-5.3c1.7-4,2.5-7.8,3.4-10.4c0.8-2.6,0.6-3.8,1.9-5.5c1.3-1.7,2.3-2.6,2.8-3.2
			c0.4-0.6,1.9-1.5,1.9-1.5s1.3-3,1.9-3.8c0.6-0.8,0.8-3.2,3.6-5.1c2.8-2.5,4.7-6.4,5.3-7.6c0.6-1.3,4.2-8.5,4.2-8.5s2.5-5.1,2.8-5.7
			c0.2-0.6-0.4-0.4,1.3-2.1c1.7-1.7,5.5-4.2,8.3-3.6C136.3,238.7,138.1,264.8,128.2,286.7z" />
		<path id="tongueDoorLeft" class="glass gasStationDoor" d="M168.9,341.8l27.8,4l-0.4,8.3c0,0-1.1,5.7-1.1,5.9c0,0.2,0.4,2.8,0.4,3s0.2,4.7,0.2,5.3
			c0,0.6,0.2,6.8,0.2,6.8s0,3.2,0.4,3.6s1.3,3.8,1.3,4s0.6,5.7,0.6,5.7s-0.4,3.2-0.4,3.6s0.8,5.1,0.8,5.1s-0.2,3.2-0.4,3.2
			s-0.2,4.2-0.2,4.2l0.2,5.5l-1.9,5.5c0,0-21.4-1.9-21.6-1.9c-0.2,0-17.6-6.4-17.6-6.4L168.9,341.8z" />
		<path id="tongueDoorRight" class="glass gasStationDoor" d="M225.8,350l-29.2-4.3l-0.4,8.3c0,0-1.1,5.7-1.1,5.9c0,0.2,0.4,2.8,0.4,3c0,0.2,0.2,4.7,0.2,5.3
			s0.2,6.8,0.2,6.8s0,3.2,0.4,3.6c0.4,0.4,1.3,3.8,1.3,4c0,0.2,0.6,5.7,0.6,5.7s-0.4,3.2-0.4,3.6s0.8,5.1,0.8,5.1s-0.2,3.2-0.4,3.2
			c-0.2,0-0.2,4.2-0.2,4.2l0.2,5.5l-1.9,5.5c0,0,30.7-11.4,34.4-18C232.9,391.9,225.8,350,225.8,350z" />
		<path id="tongue" class="tongue" d="M153.6,402c0,0-4.2-0.6-4.4-0.7c-0.2,0-3,0.9-3.4,1.1s-3.8,2.5-4.2,2.5c-0.5,0-1.1-0.4-3,0
			c-1.9,0.5-4.6,0.9-5.1,0.9s-4.9,0.9-4.9,0.9s-3.8,1.1-4.4,1.3c-0.6,0.2-0.4-0.2-3.8,0.6c-3.4,0.8-4.9,1.7-5.1,1.7s-2.8,0.4-3.6,0.4
			c-0.8,0-3,0.2-3.8,0.2c-0.8,0-2.5,0.2-2.5,0c0-0.3,0.8-4.5,0.8-4.5s0.6-2.6,0.6-3.2c0-0.7,0.6-6.2,0.6-6.4c0-0.2,0.4-1.1,0-1.7
			c-0.5-0.6-1.3-4.4-1.3-4.4s-1.1-3.8-1.3-4.9s-0.9-4.5-1.3-6.2c-0.4-1.7-0.2-4.7-0.8-7.2c-0.6-2.5-0.4-5.7-0.4-7.6s0-5.7,0-6.1
			c0-0.4,0.2-4.7,0.6-5.1c0.4-0.4,5.1-1.9,7.6-3.2c2.6-1.3,44.5-10.2,44.5-10.2s1.5,4.1,1.5,4.4c0,0.3,0.2,4.5,0.2,4.5l0.2,6.6v4.7
			c0,0,0.2,4.3,0.2,4.9s0,5,0,6.1s-0.4,5.3-0.6,6.4s0.2,4.7-0.2,6.4c-0.4,1.7-1.9,10-1.9,10L153.6,402 M248.5,394.4l-1.9-3.6
			c0,0,0-4.7,0-4.9s0.2-5.7,0.2-5.7s0-2.1,0-2.5c0-0.4-1.3-5.1-1.3-5.7c0-0.7,0-3,0-3.2c0-0.2,0.4-7.4,0.2-7.4
			c-0.2,0-1.3-2.6-1.3-3.4c0-0.8-1.1-7-1.1-7.2c0-0.2,0-3.4,0-3.4l-0.6-7.4l15.5,1.1l3-1.1l3.2,1.5l2.5,3.4l1.1,3.6l0.2,4.7
			c0,0,0.9,3.6,0.9,3.8c0,0.2,0,4.7,0,4.7v7.2c0,0,0,3.6,0,3.8c0,0.2,0.8,3.2,0.8,3.2l0.4,5.1c0,0,0.4,2.1,0.2,2.1
			c-0.2,0-0.2,3.8-0.2,3.8v2.4l-0.9,1.1l-1.7-1.5c0,0-1.3-0.6-1.7-0.6c-0.4,0-2.5,1.1-2.5,1.1l-1.7,0.9l-3.2,0.9l-2.5,0.6l-2.5,0.2
			l-2.1,0.9L248.5,394.4z M234.9,132.5l-3.2,7c0,0-2.6,6.3-3.2,7.6c-0.7,1.2-3.2,5.1-3.2,5.7c0,0.6-1.3,7.6-1.3,7.6s-1.2,4.5-2.5,5.1
			c-1.3,0.6-1.9,8.9-1.9,9.5c0,0.7-2.6,14-3.2,15.3c-0.6,1.3-1.9,3.9-2.5,6.4c-0.6,2.6-3.8,7-3.8,10.2c0,3.1-1.2,6.3-2.5,11.4
			c0,1.3-5.1,8.9-5.1,8.9s-2.5,6.3-3.8,7.6c-1.2,1.3-1.9,4.4-2.5,7c-0.6,2.5-3.8,11.4-3.8,11.4s-1.9,5.7-1.9,7.6
			c0,1.9-2.5,11.4-2.5,11.4s0,7.6,0,12.1s0,5.2,0,6.4c0,1.2,0,7,0.6,7.6c0.7,0.7,1.3,7.7,1.3,8.3s2.5,8.9,2.5,8.9s0,3.8,0,5.1
			c0,1.3,1.3,5.1,1.3,6.4s2.5,7,2.5,7 M161.6,406.7c-1-1.5-0.4-2.5-0.4-3.6c0-1.1,0.6-2.4,0.8-2.8s1.9-2.8,2.1-3.2
			c0.2-0.5,1.5-2.6,1.7-3c0.2-0.5,1.1-3.8,1.3-4.9c0.2-1,0.6-3.8,0.6-4.2s0.4-2.8,0.4-3.2c0-0.5,0.7-5.8,0.9-6.4s0.4-3.2,0.6-3.8
			c0.2-0.7,1.5-6,1.5-6.8c0-0.9-0.9-3.9-1.1-4.7c-0.2-0.8,0.2-5.3,0.2-5.7s0.9-4.6,1.1-6.1c0.3-1.5,0.7-1.3,1.1-1.3
			c0.4,0,3.8-0.6,4.4-0.6c0.7,0,4.9,1.7,4.9,1.7s3.4,1.1,5.5,1.7c2.1,0.7,2.1-0.4,3.8-0.4s4.2,0,5.5,0s5.3,0.4,6.4,0.6
			c1,0.2,2.7,0.6,4,0.8c1.3,0.2,7,1.5,7,1.5s3.4-0.8,4-0.8c0.6,0,1.3,0,1.7,0.4c0.5,0.4,0.9,1.1,1.1,1.3c0.2,0.2,0.2,2.7-0.2,3.8
			c-0.4,1.1-0.2,4.2-0.2,6.8c0,2.5-0.2,2.5-0.2,4c0,1.4,0,3.8,0,4.2s1.1,2.9,1.7,3.8c0.7,0.8,0.9,1.9,1.3,2.3
			c0.4,0.4,0.6,2.3,0.6,2.5c0,0.2,0,4.2,0.2,5.3c0.3,1.1,0.7,2.1,0.9,3.4c0.2,1.2,0.9,2.3,1.3,4.2c0.2,1.5,0,1.7,0.2,1.9
			s0.4,2.3,0.4,2.5s-0.6,2.5,0.2,3s3.7,1.2,3.7,1.7s3,0.9,3,0.9h5.1l5.1-1.3l3.4-1.7c0,0,1.7,0.4,5.1-0.9c0.8,0,3.8-1.3,4.2-1.3
			c0.5,0,2.6,0,3,0c0.4,0,2.9,1.3,4.2,1.7c1.3,0.4,3,1.7,3,2.1c0,0.4,5.5,0.8,6.8,0.4c1.3-0.5,2.1-2.6,2.1-3s1.7-4.6,1.7-5.9
			c0-1.3,1.7-3,2.1-3.8c0.4-0.8,0-5.5,0-5.9s-1.3-8.1-1.3-8.5s-0.4-6.8-0.4-6.8s-3.4-6.8-3.4-8.5c0-1.7-2.1-4.7-2.1-4.7
			s-2.2-6.3-2.6-7.2c-0.4-0.8-3.8-5.1-6.8-9.3c-1.7-3-4.2-5.1-4.2-5.1s-2.1-2.6-2.1-3c0-0.4-1.7-4.7-1.7-5.1c0-0.4-2.5-5.9-2.5-5.9
			s-5.9-5.1-5.9-5.5c0-0.4-4.6-5.5-5.5-6.8c-0.8-1.3-2.1-4.3-2.1-4.7c0-0.4-1.7-7.3-1.7-8.5c0-1.2,0-7.6,0-7.6s1.3-7.2,1.7-7.6
			s0.8-5.1,0.8-5.1s3.4-11,3.8-11.9c0.5-0.8,2.6-7.2,3-8s1.7-8.5,2.1-9.3c0.4-0.8,2.1-12.7,2.1-12.7s-1.3-8.9-1.3-10.2
			s-1.7-6.8-1.7-8.1c0-1.3-2.1-7.2-2.1-7.2s-1.7-5.1-1.7-5.9s-0.4-4.2-0.4-4.2s0-6.3,0-8s0-5.1,0-5.1s0.4-5.5,0.4-5.9
			c0-0.5,1.7-6,1.7-6.4c0-0.4,0-4.7,0-5.1c0-0.4,2.1-8.9,2.1-9.3c0-0.5,1.7-6,1.7-6.4c0-0.4,2.5-5.5,3-5.5s0.5-3.4,1.3-4.2
			c0.8-0.8,2.1-3.4,2.5-3.8c0.4-0.4,1.7-3.4,1.7-3.4v-5.5c0,0,0-6,0-6.4c0-0.4,0-5.1,0-5.1l-0.4-7.6c0,0-2.7-14.6-12.9-19.7
			c-13.9,1.3-34.9,14-34.9,14s-14,8.3-14,8.7s-4.3,3-4.7,3.4c-0.4,0.4-4.6,4.7-5.9,7.2s-2.6,2.1-3.4,2.5s-2.9,2.5-4.2,3.8
			c-1.3,1.3-4.3,4.7-4.7,5.1c-0.4,0.4-5.5,5.1-5.9,5.5c-0.4,0.5-3,3.4-5.5,6.4c-2.5,2.9-3.8,5.9-3.8,5.9s-8.8,6.8-9.7,7.2
			c-0.9,0.4-4.3,5.5-5.1,6.8c-0.8,1.3-5.5,10.2-5.5,10.2s-6.8,10.1-7.2,11.4c-0.4,1.3-5.5,9.4-5.9,9.8c-0.5,0.4-4.3,11.9-4.7,12.7
			c-0.4,0.9,0,6.8,0,8.5s1.3,11,1.3,13.1c0,2.1,2.1,6.4,2.5,6.8c0.4,0.5,0,12.8,0,13.6s2.1,7.6,2.1,7.6s-4.7,8.9-4.7,10.2
			s-3.4,7.2-3.8,8.9c-0.4,1.7-8.5,18.7-8.9,19.5c-0.5,0.9-4.3,6.4-6.8,9.8c-2.5,3.4-3,4.3-3.8,5.1c-0.8,0.8-3.3,5.5-4.2,7.2
			c-0.9,1.7-6,8.1-6.8,9.8c-0.9,1.7-8.5,10.6-8.5,10.6l-4.2,11.4c0,0-3,7.2-3.4,9.3c-0.5,2.1-1.3,6.8-1.3,7.6c0,0.9-1.3,8.5-1.3,8.9
			c0,0.4-1.2,5.9-0.8,14.4c0,2.5,1.3,7.2,1.3,7.2s0,5.5,0,6.4c0,0.8,2.1,7.2,2.5,7.2c0.5,0,3,3.8,3,4.2s-0.8,5.5-0.4,5.5
			s5.9,0.4,6.3,0.4c0.4,0,3.3-2.1,4.2-2.1s3.4,0,3.4,0s6.8,1.7,7.2,1.7s4.2,0,4.2,0s6-0.9,6.4-1.3c0.5-0.5,3-0.9,3-0.9l3-1.3h4.7
			c0,0,3.8-0.4,4.2-0.4s3.8-2.1,3.8-2.5c0-0.5,5.5-1.3,5.5-1.3s4.7,0,5.1,0c0.4,0,9.3,1.3,9.3,1.3h3.4c0,0,4.2,2.1,4.7,2.1
			s4.7-4.3,4.7-4.7s5.1-3.4,5.9-3.8C163,409.3,162.7,408.2,161.6,406.7z" />
		<path id="tongueAwnings" d="M101.7,335.9l7,0.6h4.4c0,0,5.3-0.6,5.7-1.3c0.4-0.6,2.3-0.9,6.8-1.9c5.5-1.3,9.8-1.9,11.6-1.9
			c1.9,0,3.6,0.2,5.3-0.2s8.3-0.6,9.1-0.8c0.8-0.2,2.3-0.9,3-0.9c0.6,0,1.9,0.6,2.1,1.5c0.2,0.9,1.1,5.9,1.1,6.2c0,0.2,0,2.5,0,3.2
			c0,0.6,0.8,1.5-0.4,2.3c-1.3,0.9-2.1,1.3-3.2,1.7c-1.1,0.4-3,0.6-5.3,1.1c-3.4,0.4-7.2,1.9-7.8,1.9s-4.2,0.2-6.1,0.6
			c-4,1.3-5.3,1.5-7.6,2.1c-4.9,1-10.8,1.3-11.6,1.5c-0.9,0.2-4.2,1.9-4.4,2.1s-0.2-0.4-2.5,0.4c-3.8,1.3-4.4,1.5-5.5,1.5
			s-2.3,0-2.3,0s-1.3-1.7-1.3-3s-0.2-3.6,0-4s0.4-2.3,1.3-3.8c0.9-1.5,0.6-4.4,0.6-4.4L101.7,335.9z M241.1,334.2
			c0,0,5.7-0.6,5.5-0.6s1.1,0,1.7,0.4s2.8,1.3,3.2,1.3c0.4,0,1.5,0,3,0s2.5,0,3,0c0.4,0,1.7,0,1.7,0l2.1,0.4c0,0,1.5,0.9,1.5,1.3
			c0,0.4,0.6,2.8,0.6,3.2c-1.9,3-5.5,4.2-6.1,4.5c-0.6,0.2-4.2,0.4-5.1,0.4s-2.5,0.2-3.2,0.2c-0.6,0-4,0.2-4.4,0.6s-2.3,0.6-2.5,0.6
			s-1.5,0.9-1.7-1.9s-0.2-7.4-0.2-7.9C240,336.3,241.1,334.2,241.1,334.2z" />
	</g>
	<g id="gasBar">
		<g id="gasBarHood">
			<path id="hoodUnder" d="M857.7,287.5c-0.3,0-3.4,0.9-3.4,0.9l-10.6,3.8c0,0-3.7,1.8-4,1.8s-8.1,2.4-8.1,2.4s-5.2,3.8-6.7,4.6
				c-1.5,0.7-8.6,4.4-9.9,5.1c-1.2,0.7-11.9-2.1-13.2-2.4c-1.3-0.2-20.2-2.3-20.8-2.5c-0.7-0.3-2.3-0.8-3-2s-4.6-1.6-6.8-2.1
				c-2.3-0.5-4.8-0.3-5.7-0.3c-0.9,0.1-4.1,0.3-4.8,0.3c-0.6,0-4.4,0.3-5.1,0.3c-0.6,0-23.1-2.7-25.7-3.2c-2.6-0.5-2.9-0.8-4.2-1.3
				c-1.3-0.6-3.2-0.1-3.2-0.1s-3.2-0.8-4.5-1s-6.1-1.2-8.7-2c-2.6-0.8-3.9-1.4-4.5-1.6c-0.7-0.3-9.5-3.9-14.4-6.7
				c-4-2.6-3.3-1.4-5.2-2.2c-2-0.8-2-0.8-2-0.8l-7.4-1.8c0,0-5.5-0.9-7.4-0.8s-7.8,1.8-7.8,1.8s-5.2-1.9-5.5-1.9s-1.1-1.8-1.4-1.8
				s-13.6-3-14.2-2.9c-0.6,0-5.3,2.2-6.5,2.3c-1.3,0.1-10.2-4.8-14.4-5.8c-1.6-0.5-2.6-0.5-4.2-0.7c-1.6-0.2-3.5,0.2-3.8,0.2
				s-6.9-4-7.6-4.6c-0.7-0.6-2.3-1.8-3.7-2.6c-1.3-0.9-4.7-3.9-8-6.2s-2-0.8-4.6-2.6c-2.7-1.7-4.9-2.6-5.2-2.5
				c-0.3,0-5.7,0.4-6.6,0.7c-0.9,0.4-4.1,0.6-6.6,0.7c-2.5,0.2-5.7,0-9.5,0.3c-3.8,0.2-3.2,0.2-4.1,0.3c-0.9,0.1-4.7,0.9-5,0.9
				s-3.3-2-9.2-4.5c-4.2-1.3-5.2-1.6-5.8-1.6s-5.8-0.6-6.1-0.6s-5.9-3.1-8.5-3.6s-3.5-0.1-4.1-0.1s-4.1,0.3-6.1-0.6
				c-2-0.8-3-2.4-3.7-2.6c-0.6-0.3-3.7-3.3-4.4-3.5c-0.6-0.3-3.4-3-3.7-3.3c-0.3-0.3-2.1-3.4-2.1-3.4s-4.2-0.4-4.8-0.3
				c-0.6,0-4.4,0.6-4.4,0.6l-3.3-2l-3.7-3.6l-3.8-4.5l19.7-20.3L518,179l36.6-0.4l38.5,9.7l20.9,7.9l21.7,1.2l77.7,26.7l42.7,16.1
				l40.3,8.6l36.9,9.8l32.9,21.8C866.1,280.6,858,287.5,857.7,287.5z" />
			<path id="hoodUnderDetails" class="details" d="M845.5,280.9l-7.5-3.7l-5.6-3.5c0,0-5.8-1.6-7.5-2.4c-1.6-0.8-0.1-1.3-5.2-1.3
				c-5.1,0-10.2,0.6-10.8,0.4c-0.7-0.3-7.3-4.3-7.3-4.3s-5.5-1.9-6.9-2.8c-1.3-0.9-5.6-2.5-8.5-3.9c-3-1.4-14.4-2-15.1-2.9
				c-0.7-0.9-9.9-6.1-11.3-6.9c-1.3-0.9-15.3-5.4-22.9-5.3c-9.2,0.3-12.7,1.1-16.5,0.1s-6.2-1.9-7.8-2.7s-3.2,0.5-6.3-3.4
				c-3.1-4-10.1-8.9-10.5-9.5c-0.3-0.6-10-2.9-10-2.9s-14.1-1-14.1-1.4c0-0.3-0.5-2.2-3.4-3.3s-9.1-2.3-12.2-2.4
				c-3.2-0.1-5.1,0-5.1,0s-7.4-6.2-7.7-6.8s-3-2-4-2.3s-5.1-0.3-5.1-0.6s-10.7-3.5-11.4-4.1 M678.3,242.9c1.3,0.9,8.2,3.6,9.1,3.9
				c1,0.2,3.2,0.4,6.8,1.2c3.6,0.7,8.3,0.8,9.6,0.7s4.8-0.3,5.7,0c1,0.3,7.7,0.8,8.7,1.1s2.9,0.8,2.9,1.1s5.6,3.8,8.2,3.6
				c2.5-0.2,3,2.7,6.7,5s9.4,2.3,9.4,2.3s9.5,4.2,14.6,4.8c5.1,0.6,4.2,0.7,5.8,0.6s12-1.1,15.2-1.3c3.2-0.2,5.1-0.3,6.7-0.1
				c1.6,0.2,5,4.1,5.7,4.7s6.6,3.1,8.5,3.9c2,0.8,5.5,1.3,5.8,1.2c0.3,0,4.1,3.9,4.1,4.2c0,0.3,9.2,4.2,9.2,4.2l4.1,4.2 M526.5,192.2
				c0.3,0.3,4.5,1,8.1,3c1.3,0.9,3.3,1.4,4.6,2.3c1.3,0.9,1.4,1.5,2.1,2.7c0.7,1.2,4.4,3.9,6,4.7c1.6,0.9,3.6,1.1,4.9,1.3
				c4.3,2,11,2.8,16.8,3.7c4.2,0.7,5.7,0.3,7,0.5s3.3,1.7,4,2.3s4,3.3,4,3.3l15.8,2.8c0,0,10.3,1.6,11.3,1.8c1,0.3,3.3,2.7,4.3,3.2
				c1,0.6,3.3,2.7,4.6,2.9s3.3,1.1,4.9,1.3c1.6,0.2,3.5,0.1,5.4,0s5.7-0.7,6-0.7s8.2-0.8,9.8-0.9c1.6-0.1,5.4,0,5.8,0.6
				c0.4,0.6,4.6,1.6,5.2,2.2c0.7,0.6,3.6,2,4.3,2.3s3.2,4.9,3.2,4.9 M515.2,211.3l4.7,4.5c0,0,6.4,0.9,7.4,0.8c1-0.1,5.9,2.8,8.3,4.9
				c2.4,2.1,5.2,1,7.4,1.1c2.2,0.2,5.1,0.3,7,0.5s6.4,1.2,9.4,2.3s5.3,2.9,6.9,4s3.3,1.4,4.9,1.3c1.6-0.1,9,1.4,9,1.4s4.2,1,7.1,1.5
				c2.9,0.5,2.6,1.1,5.5,2.2c2.9,1.1,7.5,7.5,7.5,7.5l8.4,1.4l9,0.7c0,0,6.5,1.5,7.4,1.8c1,0.3,5.2,1.6,6.8,1.5s3.9,0.7,6.5,1.5
				s3,2.7,11.7,3.7c4.4-0.3,10.2,0,11.5,0.6s2.3,1.1,2.9,1.1c0.6,0,6-0.4,7.3-0.1c1.3,0.2,6.9,3.1,6.9,3.1s4.2,0.7,6.1,1.5
				c2,0.8,3.2,0.8,4.8,1s5.1-0.6,7.9-0.8c2.8-0.2,4.5,0,6-0.7s1.9-0.1,1.9-0.1l8.7,1.7c0,0,2.2,0.2,4.8,0.3
				c2.6,0.2,10.7,3.8,10.7,3.8s2,1.1,3,1.7s4.7,3.5,11,7.6c1.3,0.2,2.2-0.1,3.5-0.2s5.4-0.3,8.9-0.6c1.6-0.1,2.2,0.2,3.8,0.4
				c1.6,0.2,4.8,0.7,5.8,1.2c1,0.6,3.5,0.7,4.5,1s7.5,3,7.5,3s2.6,1.1,4.2,1.7c1.6,0.5,4.2,1.7,4.3,2c0,0.3,8.2,3.6,8.2,3.9
				s6.1,0.6,8.9,0.4s8.7,1.4,9.7,1.9c1,0.6,3.3,2.7,3.4,3 M597.8,233.6c0,0,4.8-0.3,6-0.1c1.3,0.2,4.6,2.3,5.3,2.9
				c0.7,0.6,4.8,0.3,7,0.5s6.3-0.4,11.1-0.4s2.6,0.5,5.5,1.3s7.2,3.7,7.3,4.3c0,0.6,5.3,3.5,6.3,3.7c1,0.3,3.8-0.2,4.4-0.3
				c0.6,0,6-0.7,6.7-0.1c0.7,0.6,5.4,0,5.4,0 M682.4,274.2c1.3-0.1,6.1,1.5,7.1,1.8s2,0.8,4.2,0.7c2.2-0.1,5.4-0.3,8.3,0.1
				c2.9,0.5,3.2,0.4,3.5,0.7c0.3,0.3,3,2.4,3,2.4l9.4,2.6c0,0,7.1,1.1,9.6,1c2.5-0.2,2.8-0.5,4.1-0.6s6-0.1,6.7,0.2
				c0.7,0.3,5.1,0.6,7.4,0.8c2.2,0.2,4.8,0.7,5.8,0.9c1,0.3,4.8,1.3,5.5,1.6c0.6,0.3,4.2,0.4,4.5,0.4s6.7,0.9,6.8,1.5
				c0,0.6,3.3,2.3,3.6,2.3s4.5,1.3,5.5,1.6c1,0.3,3.2-0.2,4.1,0.1c1,0.3,6.4,1.2,6.8,1.5c0.3,0.3,7.8,2.4,7.8,2.4 M540.8,233.9
				c0.3,0,3,1.4,3.9,2c1,0.6,4,2,6.6,3.1s3.2,0.8,5.4,0.6c2.2-0.1,6.7-0.1,8,0.1c1.3,0.2,7,0.2,8,0.1c0.9-0.1,5.4,0,6.4-0.1
				s2.6,0.8,3.6,1.1s5.5,1.9,7.1,2.4s3.6,2,4.3,2.6s7.8,3,7.8,3s4.5,1.6,4.9,1.6c0.3,0,3,1.4,3.3,1.7s2.4,2.7,2.7,3s5.5,0.9,8.1,2
				c0.4,0.6,7.7,0.8,8.3,0.8s5.4,0,8.3,0.1c2.9,0.1,2.9,0.8,3.9,1.4s3.7,2.6,3.7,2.6s10.2,1,10.6,0.9c0.3,0,5.7,0.3,6.4,0.6
				c0.6,0.3,5,4.1,5,4.1s6.3-0.4,9.9-0.3c3.5,0.1,7.9-0.2,10.2-0.3c2.2-0.1,3.9,2,5.5,2.2s3.9,1,4.5,0.4c0.6-0.7,4.7-0.6,6.1,0.6
				s2.3,0.5,3.8,0.4c1.6-0.1,2.5-0.8,4.4-1.5c1.9-0.8,4.5,0.4,5.5,0.9c1,0.6,3.9,2,4.9,2.6s2.9-0.2,3.2-0.2s5.1,0.6,5.1,0.6l3,2.7
				l4.7,3.2l9.9,1.3" />
			<path id="hoodRight" class="hoodBorder" d="M515.8,184.5c0,0-0.7,3.6-1.2,5.5s-5.2,8-5.2,8.3s-3.2,5-4.3,7c-1.1,2-2.4,2.4-3,3.1
				c-0.6,0.7-2.4,2.7-6.4,5.2c-2.5,1.1-2.5,1.4-2.4,1.7c0,0.3-9.3,3.8-9.3,3.8s-6.1-0.9-6.7-0.9s-3.9-1-3.9-1s0.5-2.6,1.1-2.9
				c0.6-0.4,0.1-3.8,0.1-3.8l0.8-2.3c0,0,1.7-4.2,1.6-4.6s1.3-4.5,1.3-4.9c0-0.3,3-3.4,3-3.4s2.1-1.7,2.7-1.8c0.6,0,3.2-0.2,3.2-0.2
				l3.7-2.5c0,0,2-3,2.4-3c0.3,0,0.7-3.6,0.7-3.9c0-0.3,1.7-3.6,2.6-4.3s3-2.7,3-2.7s3.5-0.2,3.8,0.1s2.9,0.5,3.6,0.7
				c0.6,0.3,2.9,1.1,3,1.4s5.4-0.3,5.4-0.3L515.8,184.5z" />
			<path id="hoodFront" class="hoodBorder" d="M521.7,176.2c0,0,2.4-2.4,2.7-2.7s4-2.5,4.6-2.8c0.6-0.4,12-2,12.3-2.4c0.3-0.3,6.2-2.6,11-2.6
				s8.6,0.7,10.6,0.9c1.9,0.2,6.7,0.2,7.6,0.2c1-0.1,5.3-1.6,6.3-1.7c0.9-0.1,7.6,0.2,9,0.7c1.3,0.6,4,2.3,5.2,2.5
				c1.3,0.2,5.5,0.9,7.7,0.8c2.2-0.1,5.1-0.3,5.1-0.3s7.2,2.4,8.1,3c1,0.6,4,2.3,4.3,2.6s7.9,4,8.2,4.3s6.9,3.4,6.9,3.4
				s6.3,3.4,7.8,3.3c1.6-0.1,4.8,0,5.4,0c0.6,0,8.1,1.7,8.1,1.7s5.8,0.6,7.4,0.5c1.6-0.1,5.2,1.3,5.2,1.3s4.2,0.7,7.4,1.1
				c3.2,0.4,8.1,2.7,8.4,2.7c0.3,0,11.7,3.7,14.3,4.8s6.9,3.4,8.9,4.5s5.9,3.4,7.6,4.6c1.7,1.2,6,5,7.4,6.9c1.4,1.8,6.7,4.7,7.6,4.9
				c1,0.3,8.4,2.3,10,2.6c1.6,0.2,9.4,2.9,10.7,3.5s5.5,1.6,8.4,1.7c2.9,0.1,5.9-1.6,6.9-2c0.9-0.4,5.1-0.6,6.3-0.7
				c1.3-0.1,8.9-0.2,8.9,0.1s6-0.1,6.7-0.1c0.6,0,11.7,3.7,11.7,4.1c0,0.3,6.6,4,6.6,4s7-0.4,8.3-0.2s7.7,5.3,8.4,6.5
				s3.7,3.3,4.7,3.5c1,0.3,5.2,1.9,5.9,2.2c0.6,0.3,8.3,4.9,10,6.7s2.5,4.6,3.9,6.1c1.4,1.5,1.8,4,3.9,6.1c2,2.1,3.6,2.3,3.6,2.3
				s9.7,2.3,10.4,3.2c0.7,0.9,7.1,7.2,7.5,8.8s0.2,3.2,0,4.5s-3.4,1.5-3.7,1.5s-4-2.3-4.9-2.9c-1-0.6-4.7-3.8-5.3-4.1
				c-0.7-0.3-9.9-6.1-10.6-6.7c-0.7-0.6-3.9-2-5.2-2.5s-7.2-2.7-7.5-2.7s-3.6-2.3-5.3-2.9c-1.6-0.5-6.1-0.6-6,0.1
				c0,0.6-9.8,0.6-9.8,0.6s-6.4,0.1-7.3,0.1c-0.9,0.1-3.2,0.2-6,0.4c-2.9,0.2-7-0.5-9-0.7c-1.9-0.2-4.8-1-5.2-1.3
				c-0.3-0.3-2.9-0.5-4.2-1c-1.3-0.6-14.5-2.6-14.8-2.6s-10-1.9-10-1.9s-1.9-0.5-3.2-0.8c-1.3-0.2-7.5-3-8.5-3.3s-4.6-2.9-5.3-3.5
				s-5.9-2.2-9.2-4.2s-6.8-1.8-9.7-3.2s-5.6-2.8-6.6-3.4c-1-0.6-4.5-0.7-6.1-1.2s-5.7-0.3-7.4-0.8c-1.6-0.5-4.1-0.1-5.4-0.3
				c-1.3-0.2-8.1-2-9.3-2c-1.3,0.1-4-2-4.9-2.2c-1-0.3-2.8-4.3-2.8-4.3s-1.8-4-2.2-4.3c-0.3-0.3-3.8-4.5-3.8-4.9c0-0.3-4-2.9-4.3-2.9
				s-6.2-1.9-6.8-2.4c-0.7-0.6-6.1-1.2-6.4-1.2c-0.3,0-2.7,2.1-2.7,2.1l-6.2,2.3l-9-0.7c0,0-6.2-1.8-6.5-1.8s-5.1-1-5.1-1
				s-2.8,0.8-3.1,1.2c-0.3,0.3-3.2-0.1-3.2-0.1s-2.7-1.7-2.7-2.1c0-0.3-2.5,0.5-2.5,0.5s-4,1.8-4.3,1.9c-0.3,0-2.5,0.8-2.5,0.8
				l-3.2-0.8c0,0-5.4-0.3-5.7-0.3s-3.3-1.1-3.3-1.1l-3.8-0.4l-5.5-2.2l-3.7-3.6c0,0-3.7-3.3-4.1-3.9c-0.3-0.6-5.2-1.6-5.2-1.6
				s-5.2-2.2-5.2-2.5s-5.3-3.8-5.3-3.8s-5,1-5.3,1s-3-1.4-3-1.4s-3.6-0.7-3.9-0.7c-0.3,0-6.3-4.1-6.6-4.4c-0.3-0.3-9.5-4.8-9.5-5.1
				s-8-0.8-8-0.8L521.7,176.2z" />
		</g>
		<path id="toothBL" class="tooth shade"
			d="M746.5,424c-7.3-20.2-19.6-74.9-16.2-82.1c2.3-4,1.8-11.6-0.2-17.8c-4.2-11.2,0.9-27.4,0.9-27.4
			s2.4-17.4,9.9-24.8c3.1-1.8,12.1-4.3,13.8,1c-4,2.2-3.9,3.1-1.9,5.5c6.2,2.5,8,11.3,8.9,15c1.1,7.3,2.7,23.4,5.8,31.2
			c1.5,9.5,1.2,19,0.4,27.7c-1.4,8-0.5,28.7-1.5,37.4c-1,5.1-6.5,13.1-4.3,17.8c-2.8,11-6.7,15.7-6.7,15.7S750.2,428,746.5,424z
			M739,308.6c1.6-0.4,3.1,9.7,3.1,9.7c2.1,8.8,2,17.4,2,17.4s-1.8,17.6-2.6,19.9c-0.4,4.2,2.2,10.4,2.2,10.4s1,11.7,0.5,17.5" />
		<path id="toothBM" class="tooth shade" d="M618.6,374.3c-3.2-10.6-1.8-23.8-3.2-45.7c-1.4-7.2,1.8-17.6,3.7-22.8c1-3.9-0.1-21.7,9.9-29.6
			c-0.2-3.5-4.6-7-2.3-10.7c12.4-26.6,23.9,16.3,23.9,16.3s8.3,46.6,8.4,68.9c-1.9,10-8.2,21.8-11.9,28.1c-2.2,5.9-4.1,16.5-6.4,24.3
			c-1.6,4.9-2.9,8.4,2,15.7c-2.6,0.5-5.3-1.1-8.3-1c-1.4,0.1-4.8,0.3-4.8,1.8C629.7,419.7,621.7,388.8,618.6,374.3z M627.8,348.6
			c1.1-7.7,3.1-48,4.1-62c1.4,17.7,0.8,23.8,2.4,33.6c0.7,5.7,0.7,12.1,1.4,18.1c0.2,8.9-4.2,34.3-3.9,45.1
			c-0.5,2.3-0.3,15.6,0.4,26.4C629.8,400.1,626.9,359.2,627.8,348.6z M620.2,317.6c-1.8-6.9-0.8-11.4-0.8-11.4" />
		<path id="toothBR" class="tooth shade" d="M511,376.4c-2.2-9.8-1.9-34.1-1.8-36.2c-0.5-4.2,0-17,0-17.4s0.7-9.6,1.5-13.9c0.3-4.7,0.9-22.7,1.4-27.9
			c-0.6-2.5-0.6-11.2,1.9-15.6c0.4-1.8,1.5-5.4,3-8.4c-0.7-4.2-0.5-17.6,0.8-20.5c-0.9-1.8-1.1-9.1,5.3-9.7c2.9-0.6,3.2,2.5,6.8,4
			c1.9,1.4,3.2,4.3,0.8,9.1c2.6,2.9,5,7.4,6.5,9.8c1.6,3.3,1.5,8.6,2.3,10.5c0.6,1.1,0.9,6.1,0.8,9.3c0.2,4,0.6,13.6,0.6,13.6
			s0.7,8.7,1.9,12.8c0.9,8,4.6,32.6,4.7,37.7c0.1,8-2.3,22.2-2.3,24.7c0.3,3.8-0.2,10.4-0.9,14.7c-0.4,4.2-3.1,18.6-4,22
			c-0.5,2.7-3.7,8.9-6.6,12.5c0.1,3-1.1,9.3-1,9.7c-0.5-1.1-6-1.5-8-0.9c-1-0.8-2-1.8-2.2-1.8s-1.2-2.1-1.2-2.1
			S512.1,379.1,511,376.4z" />
		<path id="gasHoseBL" class="gasHose" d="M739.7,383.8c1.6,0.5,7.8,17.8,1.1,23.9c-4.8,2.8-3.9-7.8-2.2-10.5l-1.1-3.5c0,0-7.5,9.5-0.2,17.3
			c1.6,0.6,4.4,3.3,8.1-3.5c1.1-2.3,4.8-19-4.5-27.6C739,373.5,733.1,385.9,739.7,383.8z" />
		<path id="gasHoseBM" class="gasHose" d="M621.7,388.6c-5.8,2.8-8,14.7,1.3,16.5c3.9,0.8,5.4-6.1,3.4-20.7c5.7-2.9-7.4-6.9-3.2-1.1
			c0.2,1.9,4.1,22.5-1.7,17.9c-1.9-1.6-5.5-4,1-8.8L621.7,388.6z" />
		<path id="toothFL" class="tooth" d="M779.5,310.8c3.2,5.2,1,21.6,0.3,24.6c-0.9,11.1-1.8,17.8-0.4,20.8c4.8,13.8,5.2,20.5,5.2,20.5
			s1.3,11.4,2.8,14.8c1.5,3.7,0.9,9.2,2.6,16.4c-0.1,3.8,1.1,8.2,1.3,10.7c2.2,4.3,5.6,8.7,5.6,8.7s8-1.3,12.3-0.3
			c8.9-24.3,12.3-34.1,17.3-41.4c10.4-22.3,8-35.5,7.2-42.5c-1.9-14.5-6.5-27.9-12.1-31.4c-4-2.9-5.5-7.3-6.6-9.9
			c-1.4-4.9-4.9-15-8.1-15.3c-4.9-7.1-9.9-0.7-10.9-6.3c-1.7-2.1-1-5-4.4-9.6c-3.7,1.2-4.9,3.5-5.8,5c-3.9,7-7.6,14.9-7.6,14.9
			S776,304.7,779.5,310.8z" />
		<path id="toothFM" class="tooth"
			d="M652.8,351.2c-2.1-7.8-1-27-0.1-32.5c0.8-7.4,2.7-17.4,4.8-24.8c1.4-8.4,5.5-23.9,9.2-31.1
			c6.1-14.4,12-17.3,16.6-3.9c4.4,9,8.6,15.7,2.9,26.9c-1,14.1,0.4,22.3,0.4,22.3c3.9,11.5,3.3,22.5,3.8,25.5
			c-0.1,3.9,2.1,6.1,2.4,13.9c0.2,6.1-1.7,14.4-1.7,14.4s1.1,16.2-0.7,18.6c-2.5,5.8-3.7,6.8-4,7.6c-1.8,3.8-11.6,21-11.6,39.6
			c-1-2.3-3.3-2.2-5.9-2.2c-1.8,0-3.3,0.6-3.3,0.6C661.5,413.2,655.8,372.7,652.8,351.2z M666.9,336.9c-5.4-9.2-9.6-37.3-9.6-37.3" />
		<path id="toothFR" class="tooth"
			d="M579.1,315c-2-15.2,1.1-22.6,3.7-26.6c-1.7-6.3-0.2-14-0.2-14 M567.5,254.6c-0.3,0.4,1.2-2.5,1.5-5.8
			c-0.4-3.4-0.1-8.2,0.1-8.5 M552.3,265.9c2.1-3.5,1.9-7.5,1.8-7.8 M556.8,393.5l-6.4-21.7c0,0-0.5-6.6-2.1-13.5
			c-1.6-7-4.3-14.2-3.8-16.7c2-9.5-0.4-17,1.5-27.7c-0.5-4,1.5-12.8-0.4-23.3c-0.6-6.8-1.1-16.9,2.9-25.4c2.9-4.2,6-9.9,6.5-15.5
			c2.1-11,3.9-16.8,6.3-18.6c2.2-2.1,9.4-15.9,7.7,4.6c2.1,3.3,3.5,4.7,6.6,7.2c5.1,4.3,4.6,15.9,9,29.2c0.9,3.4,0.8,10.1,1.3,14.4
			c1.5,12.1,2.7,22.9,3.9,25.4c2.2,4.1,2.2,11.1,1.5,37.5c0,4.2,0.1,21.4-2.5,21.2c-0.6,4.5-0.1,5.5-2,12.9
			c-5.3,6.7-2.1,23.5-3.2,44.1c-0.4,0.8-3.7,1.3-7.2,0.7c-2.3-0.4-4.5-1.9-6.5-2.4c-1.9-0.4-4.8,0.7-4.8,0.7L556.8,393.5z" />
		<path id="toothDetails" class="details" d="M522.7,366.7c-2.2-5.4-2.7-13.4-2.7-18.9c1.3-2.4,2.1-10.3,2.1-10.3c0-7.2-0.6-13.1,0.8-18.3
			c1.1-3.5,3.3-12.5,5-15.4c1.6-2.4,3.1-8.5,3.4-10.6c0.2-4,0-14,0-14.2 M522.8,265.9c0,0,0.6-3.5,1.4-5c0.7-1.6,0.4-6.6,0.4-6.6
			c-0.9-2.4-0.8-6.6-1-7.9c-0.6-3.1-1.6-6.3-2.7-7.2c-0.8-1.1-0.6-4.6-0.1-5.3c0.2-1.8,2.3-4.2,2.3-4.2 M518.2,273.6
			c0,0-0.6-5.7-0.2-7.2c-0.2-1.4-0.6-5.5-0.6-5.5 M535.4,257c-2.9-1.9-4.4-5.3-4.8-5.4c-1.5-1.4-0.5-7.8-0.5-8" />
		<path id="gasHoseFL" class="gasHose" d="M808.2,392.6c0.6,39.9,15.1,26.8,15.5,12.6c-0.5-5.1-3.7-6.9-3.7-6.9l-1.8,4.9c5.6,9.2-2.7,15.2-5.5,7.6
			c-1.6-3.2-1.1-11-1.1-17.8c2.1-3.2,3.7-1.5,3.7-1.5l-0.5-10c0,0-2.1-1.4-2.1-1.6c0-0.1,0-7.1,0-7.1l-10.1-5.5c0,0-0.1,3.8,0,4
			c0,0.1,6.9,4,6.9,4l-0.7,5.1l-3.7-0.8l-0.5,9.8C804.7,389.5,808.8,389.7,808.2,392.6z" />
		<path id="gasHoseFM" class="gasHose" d="M669.7,375l1.3,5.7c0,0-2.5,0.4-2.8,0.5c-0.3,0,0,7.2,0,7.2c1.4,0.5,1.5,3,1.5,3
			c-1.7,29,19.4,33.9,11.5,8.2c-0.6,1.7-1.9,3.8-1.9,3.8c3,12.4-1.7,11.8-4.7,5.7c-2.3-4.6-3.2-13-1.2-17.5c-0.7-2.1,2.7-2.3,2.7-2.3
			l-0.2-8.5l-3.1-0.6l-1.5-7.7c0,0-6-5.3-6-5.4s-0.1,5-0.1,5L669.7,375z" />
		<path id="gasHoseFR" class="gasHose" d="M583.7,393.4c6.7,8.1,6.9,15.2,5,22.7c-3.8,7.6-9.7-5.7-9.7-5.7l-1.6-7.4c-1-2.5,0.1-3.6,0.1-3.6l0.3-2.5
			l2-0.9l-1.4-10.1l-2.9-1c0,0-0.2-9.8-0.2-9.9s-1.9-3.6-1.9-3.6l-3.9-3.5l-4.4,0.1l0.4,4.5l3,0.7l2.8,4.5l0.4,7.2l-1.5,1.3
			l-0.2,10.1l2.2-0.1v3c0,0,2.8,0.9,2.6,3.2c1.2,0.2-1.8,7.6,5.6,15c9.3,9,11,0.7,12.1-6.7c0.4-4.4-3.2-21.1-8.1-21.3L583.7,393.4z
			M519.6,380.9c0,0,0.9,7.7,0.1,15c-0.5,1.9-0.8,10.3-5.2,4c-5.4-7.3-1.1-15.3-1.1-15.3l-1.6-4.8c-4.3,9.9-3.3,13.2-1.9,18.3
			c8.4,19.4,15-2.1,14-8.8c-1-4.3-0.9-9.1-0.9-9.1C526.6,373.9,514.4,374.9,519.6,380.9z" />
	</g>
</svg>