<?xml version="1.0" encoding="utf-8"?>
<!-- Generator: Adobe Illustrator 24.1.2, SVG Export Plug-In . SVG Version: 6.00 Build 0)  -->
<svg version="1.1" xmlns="http://www.w3.org/2000/svg" width="1200" height="270" viewBox="0 0 1200 270" enable-background="new 0 0 1200 270">
<g id="office" class="office">
	<rect id="officeLawn" class="lawn backLawn" x="-400" y="200" width="1600" height="200"/>
	<path id="officeFace" class="face" d="M1140.7,255.3c-8.2-0.8-22.2-5.7-32.7-6.3c-14-0.9-24-1.3-40.7-1.3
		c-21.7-0.1-58,0.6-88,2.7c-19.9,1.3-32.5,4.3-52.7,4.3c-29.8,0.1-60.3-3-93.3-3c-33.3,0-67.5,5-103.3,7.3
		c-22.3,1.4-45.9,0.6-68.3,0.7c-19.3,0-40.5-2.6-61-1.3c-20.3,1.3-46.2-2.6-65.4-2.7c-50.3,0-76.7,9.3-117.6,7.4
		c-28.8-1.4-51.5-5.3-74.3-5.7c-48.3-0.9-92.5,1.9-131.3,1.3c-16.2-0.3-36.3-0.7-51.3-2c-18.8-1.6-32-4.2-46.7-4.7
		c-15.4-0.5-28.1,1-39.3,1c-11.5,0-19.4-1.3-26.7-1.3c-11.8-0.1-19.3,1-19.3,1l8-224l516.7,28.7c0,0,65.3-0.4,152.7-0.9
		c38.3-0.2,81.5-6.2,124.6-6.5c83.6-0.5,172.9,2.8,234.3,4c53,1,84.3,0,84.3,0l23.3,201.3C1172.7,255.3,1159.7,257.2,1140.7,255.3z"
		/>
	<path id="officeWestFace"  class="shade face" d="M329,248c0,0-20.5,0.5-56.3,0.3c-10.9-0.1-27.2-1-39.7-1
		c-11.4,0-24,1.5-36,1.3c-21.3-0.3-43.2-2.7-63.7-3c-26.1-0.4-50.9-2.1-69-2.3c-20.5-0.3-33,1-33,1l4-117.3c0,0,8.3,1.9,22,2.3
		c11.5,0.4,27.9-2.8,45.3-2.3c6.3,0.2,9.3,1.4,16,1.7c5.7,0.2,12-0.6,18-0.3c13,0.5,28.7,3.1,42.3,3.7c32.6,1.3,67.5,1.6,93.7,2.3
		c33.3,1,54,2.3,54,2.3L329,248z"/>
	<path id="officeWestFaceDetails" d="M133,142.7c0,0-0.2,13.4-1,30c-0.1,2.7-1.6,6.9-1.7,9.7
		c-0.2,5.1,0.3,7.7,0.3,12.3c0.2,9.6,0.2,19.4,0.3,19.3 M230.3,144c0,0,2.2,15,2.3,34.3c0.1,9.2-2.2,23.9-2,30
		c0.1,4.6,1.7,9.3,1.7,9.3"/>
	<path id="officeEastFace" class="shade face" d="M1139,237c-14.4,0.1-38.8-1.1-61-1c-30.1,0.1-70.5,1.8-108,2
		c-51.5,0.2-107.8-1-157.7-0.7c-31.1,0.2-60,2.1-82.7,2c-38.5-0.1-56.3-1.3-56.3-1.3l-1.3-91.7c0,0,5.6,2.7,23.3,2.7
		c10.6,0,23.7-1.6,39-1.7c16.6-0.1,29.1,3.1,49.7,3c9.4-0.1,17-2.2,27-2.3c22.8-0.2,32.1,4.3,56.7,4c25.9-0.3,45.8-4.1,72.3-4.7
		c22.7-0.5,48.6,0.7,70.3,0.3c24-0.4,50.5,0,70.7-0.7c16-0.5,26.8-2,38.7-2.3c24.5-0.6,38.3-0.3,38.3-0.3l9,90.7
		C1167,235,1157.4,236.9,1139,237z"/>
	<path id="officeEastFaceDetails" d="M754.7,159.3c3.3,2.3,0.8,13.8,1.7,26.7
		c0.6,8.4,1.3,17.7,1.3,17.7 M842.3,163.7c0,0-1,10.3-0.3,18.3c1.2,14.4,4.3,30.3,4.3,30.3 M929.7,159c0,0,0.3,14.3-2.7,25.7
		c0.3,6.2,2.3,7.9,3.3,12.3c1.1,4.7,1.3,12,1.3,12 M1011.7,160.3c0.2,0,1.8,9.8,2.7,21c0.7,8.3,0.7,18.7,0.7,19 M1081,166.7
		c0,0,2.6,14.1,4,24.7c0.8,5.9,0.7,11,0.7,11"/>
	<path id="officeBrickWindows" class="face lit noStroke" d="M331.7,139.7c0,0,13.9-0.3,30.7,1c7,0.6,15.3,2.6,23,3.3
		c11,1,18,1.3,27,2c12.7,0.9,24-1,28.7,3c2,1.7,0.4,20.7,0.3,38c0,11.7,2,20.7,1,30.3c-0.9,9.1-5.9,17.3-6,17.3
		c-0.1,0-13.4,0-27.7-1c-10.4-0.7-20.1-2.4-31.7-2.7c-22.1-0.5-38.3,4-41.3,1.3C332.7,229.7,331.7,139.7,331.7,139.7z M453.7,212.7
		c-1.8-20.8-5.3-63.7-5.3-63.7s17.7,1.8,35.7,1.3c10.1-0.2,21.4,0.8,29,0c9.1-0.9,13.9-3.6,17.3-2c1.9,0.9,1.9,11.4,2,22.3
		c0.2,14.4-1.1,28-1.3,40.7c-0.2,9.3,1.2,19.8-0.7,21.3c-1.1,0.9-10.2-0.5-18-0.3c-7,0.2-12.4,2.1-21,1c-5.2-0.7-13.2-3.3-18-4.3
		c-12.7-2.6-18-1.3-19.7-4C453.3,224.4,454.2,218.4,453.7,212.7z"/>
	<path id="officeWestWindows" class="window glass" d="M56.7,206.7c-7.1,9.4-13.3,22-13.3,22s0.9-32.4,1.7-55.7
		c0.4-11.5,0.9-23,1-23c0.2,0,16.4,2.7,33,3c9.4,0.1,18.9-2.3,25.7-2c5.7,0.3,9.7,2,9.7,2s-1.7,6.7-1.7,12.7c0.2,20.1,2.3,61,2.3,61
		s-13-30.3-16.7-33c-3.7-2.7-7.6-1.5-13.3-1.7c-6.2-0.2-12.1-1.1-14.3,0.3C66.3,195,63.2,197.9,56.7,206.7z M155,215.7
		c-4.5,5.1-8.9,11.5-9,11.3c-0.1-0.1,2.2-19.6,3.3-34.3c1.5-19.9,2-36.7,2-36.7s8.3-0.6,19.7-0.7c20.6-0.2,49.9,0,49.7,0.7
		c-0.1,0.3-2.5,13.3-2.7,24.3c-0.4,21.4,1.3,48,1.3,48s-5.2-8.9-10.4-16.5c-3.7-5.2-7.4-9.8-9.6-10.5c-5.3-1.7-29.3-1.7-29.3-1.7
		S161.9,207.7,155,215.7z M259.7,214.3c-4.4,5.4-8.3,13-8.3,13s-0.3-6.8,0-17.7c0.2-7.6,0.7-17.2,1-25.3c0.6-12.7,1-22.7,1-22.7
		s9.7-3.3,21.3-3.3c18.5-0.1,42.3,3,42.3,3l1.7,64.7c0,0-13-18-17-20.3c-1.4-0.8-6.7,0.2-11.7,0c-9.2-0.4-19.7-1.7-19.7-1.7
		S264.7,208.1,259.7,214.3z"/>
	<path id="officeEastWindows" class="window glass" d="M682.5,221.4c0,0-0.4-7.1-0.7-20.2c-0.4-17.8,0.3-42.3,0.5-42.9
		c0,0,14.8,2.2,28.9,3.1c13.7,0.9,27.3-2.9,28.5-0.5s0.3,13.9,0.7,18.9c1.5,16.5,4.8,41.5,4.8,41.5s-14.1-16.4-18-20.3
		c-1.2-1.2-4.9-0.7-8.8-0.8c-8.8-0.3-20.7,0.7-22.5,2.5C693.3,205.3,682.5,221.4,682.5,221.4z M771.7,229.7c0,0-1.9-8.8-2-22
		c-0.1-10.4,1.5-24.3,1.3-33.1c-0.2-7-1.3-14.6-1.3-14.6s8.7,1.6,19.1,1.4c6.7-0.1,14.4-2,20-1.8c5.5,0.1,10.6,1.7,10.6,1.7
		s0.6,29.4,2.3,47.6c0.8,8.7,3.4,13.8,3.4,13.8s-10.1-8.1-11.7-12.1c-1.7-4-10.8-1.7-19.5-1.5c-5.7,0.2-11.1-0.4-12.2,0.2
		C779.1,211.1,771.7,229.7,771.7,229.7z M863.7,225.3c0,0-0.3-9.6-1.1-20.1c-0.4-5.2-1.5-9.4-1.8-15.1c-0.4-5.9,0.7-11.5,0.4-16
		c-0.5-5.4-2.3-9.3-1.4-10.8c0.4-0.7,3-3.2,8.3-3.7c6.2-0.6,11.5,1.4,19.5,1.4c11.1,0.1,21.3-4.4,24.2-1.4c0.9,0.9,1.7,8.4,2.7,16.5
		c1,7.9,2.4,14,3.3,22.4c1.2,11.1,1.7,23.4,1.7,23.4s-8.8-10.9-12.3-13.3c-1.7-1.1-8.5,0.1-15.7,0.6c-8,0.6-16.3,0.6-17.6,2.1
		C871.3,214.2,863.7,225.3,863.7,225.3z M947.3,220.7c0,0-0.9-25.1-1.7-42.7c-0.4-9.7-1.2-16.1-0.9-17.1c0.7-2.7,8.8,1,17.5,0.4
		c15.4-1.2,30.5-2.5,34.8-4.3c0,0,0.3,15.3,1.4,25.4c2.1,18.9,5.6,38.6,5.6,38.6s-7.3-11.4-9.7-13.7c-0.7-0.7-6.4-0.1-10.9-0.2
		c-10.9-0.3-26-0.2-27.5,0.6C954,208.7,947.3,220.7,947.3,220.7z M1025,220c0,0,1.8-21.2,1.9-37.6c0.1-7.9-2.3-16.5-1.6-17.7
		c2.1-3.7,9.5,0.7,18.5,0.1c12.9-0.9,24.9-3.3,26.9-3.4c0.5,0-0.6,5.6,0.2,12.3c0.4,3.6,1.4,7.1,2,11.4c1.1,8.1,0.9,17.3,1.8,24.6
		c1.1,8.6,3,14.7,2.9,14.7c-0.3,0-8.8-15.1-10.3-16.3c-0.9-0.7-10.2-0.5-18.8-0.6c-6.1,0-12.3-0.6-13.2,0.2
		C1033.1,209.6,1025,220,1025,220z M1095,220.7c-0.1-0.5-0.3-7.1-0.6-12.1c-1.2-15.8-3.2-43.7-1.3-45.8c2.6-2.8,1.1-6.8,5.1-6.6
		c3.4,0.2,9.7,3.5,14.4,4.2c13.2,1.9,25.1-0.9,28.4,1.6c1,0.8,3.5,10,4.5,17.4c2.5,17.1,4.3,39.7,3.2,40.2c-0.5,0.2-2.2-4.7-4.7-8.2
		c-2.7-3.9-6-6.4-6-6.4s-3.2-0.4-6.9-0.4c-9.3,1.1-23.9-1.3-25.3-1.5C1104.9,206.2,1095.3,222.7,1095,220.7z"/>
	<path id="officeDoorFrame" class="glass" d="M612.6,259.8c-13.9-0.2-31.7-0.9-44.8-1.3c-12.1-0.3-20.3-1.3-20.3-1.3
		s1.3-11.1,0.8-28.8c-0.3-7.9-1.4-11.8-2-19.8c-0.9-11.5-1.3-25.8-1.3-25.8s5-0.6,13.8-0.5c7.3,0.1,18.6,1.3,28.3,1.5
		c10.9,0.2,21.8,2,30.3,2c10,0,16.8-1.6,16.8-1.5c0,0.5,2.8,75.3,2.8,75.3S626.7,260.1,612.6,259.8z"/>
	<path id="officeDoorFrameDetails" d="M547.6,200.8c0,0,5.4-0.6,14.8-0.5c11,0.1,26.7,0.9,40.3,1.3
		c16.8,0.4,30.5,0.3,30.5,0.3"/>
	<path id="officeDoorLeft" class="glass door" d="M574.6,260.1c0,0,1.3-12.1,1.3-23.3c0-6.9-2-12.2-2.3-18.3
		c-0.4-8.8,0.8-17,0.8-17l17.3-0.5c0,0,1.8,4.7,2,11.3c0.2,6.9-1.9,14.1-2,22.5c-0.1,12.6,1.8,25.5,1.8,25.5L574.6,260.1z"/>
	<path id="officeDoorRight" class="glass door" d="M611.1,211.1c0.3,5.4,1.2,12.1,1.3,19c0.1,8-1.2,16-1,21.8
		c0.2,5,1.3,8.3,1.3,8.3l-20.3,0.3c0,0-1.2-11.4-1.3-22c-0.1-9.8,1-18.6,0.8-26.8c-0.2-5.9-1-10.8-1-10.8l20-0.5
		C610.9,200.3,610.7,204.8,611.1,211.1z"/>
	<path id="officeDoorSign" d="M574.1,201.2c0,0-0.4-4.6-0.3-9c0.2-5.1,1-10,1-10s19.5,0.5,29.8,1
		c3.9,0.2,5.5,0.4,5.5,0.5c0,0.1-0.4,5.5-0.3,10.3c0.1,4.3,0.8,8,0.8,8L574.1,201.2z"/>
	<path id="officeWestSign" d="M250.7,94.3c-0.7,7.9-4.7,18.3-4.7,18.3s-18.9,1.4-34,0.7
		c-13-0.7-27.5-3.9-40.7-5c-8.9-0.8-16.6,0.2-23,0c-8-0.2-13.7-1.3-13.7-1.3s-2-4.3-1.3-9.3c1-7.5,4.7-16.7,4.7-16.7s7-3.3,13.7-3.3
		c9.5-0.1,25.3,6.9,40,7.3c10.9,0.3,21.6,0.9,31,0c3.1-0.3,7.3-3.3,10-3.7c10.4-1.6,16.3-1,16.3-1S251.4,86.1,250.7,94.3z"/>
	<path id="officeMiddleSign" d="M453,120.3c-1-4-1.3-8.3-1.3-8.3s6.8,0.5,18,0
		c4.6-0.2,11.6-1.7,16.7-1.7c4.6,0.1,10.8,1.7,15,2c10.6,0.8,17,0.7,17,0.7l-0.3,12c0,0-7.4,0.9-11.3,0c-4.6-1.1-6.3-4.1-14-4
		c-6.2,0.1-15.6,1.5-21.7,2.3c-10.3,1.4-16,2.3-16,2.3S453.6,122.7,453,120.3z"/>
	<path id="officeEastSign" d="M826,102c0.8-8.2-5.7-18-1.7-20c0.8-0.4,6.5,0.6,19,2
		c4.9,0.6,13,0.8,19,1.7c11.5,1.7,24.4,6.8,37.7,6.3c13.7-0.5,27.6-5,40.7-7c8.5-1.3,23,1.5,30.3,0.3c20.8-3.3,22-13,29-10
		c3.1,1.3,4,12.2,3,22.3c-1.2,12.4-1.7,22.3-4.7,24.3c-0.7,0.4-28.8,0.3-45.3-1c-13.3-1-13.6-3.1-28-3c-6.3,0.1-14.7,1.7-21,2
		c-7.6,0.4-13.2-0.4-20,0c-7.4,0.4-11.1,3.9-17.3,4.3c-19.3,1.4-35-0.3-35-0.3s-10.3-6.7-10.7-9S825.2,110,826,102z"/>
	<path id="officeRoof" class="roof" d="M1114,57.3c-14.7-0.2-34.8,2.4-56,2c-8.1-0.1-17.4-1.6-26.3-1.7
		c-10.7-0.1-21.9,0.1-33.7,0c-14.4-0.1-33.7-2.4-50.7-1.7c-15.6,0.7-28.8,4.4-44.3,4.3c-30.6-0.2-64.5-4.6-98-5
		c-31.8-0.4-87.8,7.3-121,7c-33.7-0.3-76.2,0.7-114,1.3c-21.4,0.4-39.9,1.1-57.7,0.3c-71-3-119.8-12.8-190.3-14.7
		c-25.1-0.7-42.3-1.9-60.3-3.3c-7.8-0.6-17-3.2-25-2.7c-7.9,0.5-19.4,0.3-28,0.3c-14.6,0.1-30.2-3.3-46.7-4.3
		C142.3,38,122,39,109,39c-10.7,0-19.2-3.4-28-4c-11.4-0.8-22.3,1.3-30,1c-13.9-0.5-23-5.7-23-5.7l-0.7-5.7c0,0,7.1-1,22.7-0.7
		c6.7,0.1,19.2,3.8,28.3,4c15.4,0.3,36.5,3.2,58,3.7c17.7,0.4,35.6,2.1,57,2.7c9,0.2,19.8-1.2,29.7-0.7c32.8,1.7,70.6,5.4,107,6
		c28.2,0.5,56.4,1.7,86,2c26.9,0.2,74.5,6.9,102,7c65.2,0.1,123.8,2.2,183,0.3c21.8-0.7,44,0.3,66-1c32-2,63.7-6.3,95-6
		c17.4,0.1,29.7,3.6,46.7,4.3c24.1,1,52.3-0.6,73.3-0.3c21,0.2,61.6,5.2,79,5.3c62.8,0.4,90.7-4.7,92.3-3.3
		c1.7,1.3,1.7,10.7,0.3,12.7C1152.3,62.7,1140.6,57.7,1114,57.3z"/>
	<path id="officePillars" class="stone" d="M1178.3,257.7c0,0-12,2.7-12.3,1c-0.3-1.7-1.4-8.9-2.3-18.3
		c-1.2-11.4-2.2-24.5-4-38.7c-2.7-20.8-6-37.3-6-37.3l-7.7-5c0,0,0.8-10-0.3-26c-0.4-5.3-2.5-12.3-3-18.3c-2.4-27.2-4-56-4-56
		s25-3.7,27.3-2.7c0.6,0.3-1.7,14.3-1,23.7c2,28.8,7,79,7,79s-6.3,4.3-5.7,6C1167,166.7,1178.3,257.7,1178.3,257.7z M18.7,125.7
		c-0.1-13,2.2-32.7,1.7-48.7c-0.8-26.1-2.9-47.7-1.3-50c1.7-2.6,9.3-1,16.3,0.3c6.5,1.2,12.5,2,13,3c1,2-1,114.3-1,114.3L39,155.3
		c0,0-2.3,99-2.7,99c-0.3,0-11.7,1.3-14-0.3c-2.3-1.7-0.1-7.4,0.7-17.7c0.6-8.7,2.1-19.7,2.7-28.3c1.8-28.6,3-53.3,3-53.3L21.3,144
		C21.3,144,18.8,137.9,18.7,125.7z M312.7,112.7c0.1-10.8,0.7-24.1,0.3-35.3c-0.7-18.5-3.7-32-3.7-32H345c0,0-2.5,13.3-1.7,29.7
		c0.7,14.3,4.2,24.8,5.7,37.7c1.4,12.1-2,26-2,26s-12,10-11.7,13.7l4.3,105.3c0,0-14.7,0.7-15,0.7c-0.1,0-3-5.7-3.3-14
		c-0.5-10.9,0.6-32.3,0.3-48c-0.4-24.6-2.2-43.2-3.3-46c1.3-5-7.7-12.3-7.7-12.3S312.5,127.5,312.7,112.7z M655.7,117.7
		c0-9.6,3.3-20.2,3-29.3c-0.5-18.1-2.3-28.7-2.3-28.7s24.3,1.3,27.3-0.3c0.8-0.5,0.3,8.5,0.3,17.7c0,24.7-1.3,68.7-1.3,68.7
		l-6.3,7.3c0,0-1.5,16.1-1.3,39.7c0.1,14.3,2.5,28,3,41c0.6,13.6-0.7,26.3-0.7,26.3l-9,2c0,0,0.1-14.7,0-30.7
		c-0.1-18.6-1.5-39.3-1.7-54.7c-0.1-10.2,1-19.3,1-19.3l-8.7-8C659,149.3,655.7,134.9,655.7,117.7z"/>
</g>
</svg>
