<svg xmlns="http://www.w3.org/2000/svg" id="suburbMap" width="100%" height="100%" preserveAspectRatio="xMidYMid slice"
  vector-effect="non-scaling-stroke" viewBox="0 0 1920 1080">
  <defs>
    <!-- patterns -->
    <pattern id="patternStainedGlass" patternUnits="userSpaceOnUse" patternTransform="rotate(60) skewX(30)" width="80"
      height="80" viewBox="0,0,8,8">
    </pattern>
    <pattern id="patternGrass" patternUnits="userSpaceOnUse" width="60" height="40" viewBox="0,0,600,400">
      <rect width="600" height="400" fill="var(--green)" stroke="none" />
      <path id="tuft1" fill="none" stroke="black" stroke-width="1"
        d="M69.5,146c0,-22,-27.5,-56,-26.5,-56c1,0,24,8,28,25c-13.75,-70.5,17.25,-88,32,-96c-19.75,20.75,-29.25,53.75,-17.25,78.75c2,-13,13,-28.5,24.25,-29.75c-8,7.75,-20,34,-14,44c1.75,-5,5,-12,20.75,-18.5c-10.5,8.75,-11.25,40.25,-0.75,53.25" />
      <path id="tuft2" fill="none" stroke="black" stroke-width="1"
        d="M248.5,377.25c14,-63.25,-9,-109.25,-9,-109.25c0,0,27.25,29.25,30.5,74c0,0,4.25,-56.75,50,-94c-18.75,23,-32.25,66,-27.5,91c0,0,10.25,-24.75,29.5,-37c-14,28.5,-22.75,55,-10,76.5" />
      <path id="tuft3" fill="none" stroke="black" stroke-width="1"
        d="M409.5,234.75c13.5,-34,15,-49,-12.5,-97.75c0,0,29.25,34,33.25,60.25c6,-20.25,12.5,-31,17,-31.75c-12.25,25.75,-12,44.75,3,68.5" />
    </pattern>
    <path id="grout" fill="none" stroke="black" stroke-width="2"
      d="M77,84c0,0,53,-7,58,-1c5,6,1,54,1,54m63,-110c0,1,-6.5,53,-1,57c2.53,1.84,108.5,-5.5,131,0.5c5,-5,-2,-56.5,-2,-56.5m12.5,56.5c0,0,41,-7.5,45.5,-4.5c4.5,3,-15,49,-2.5,60.5c12.5,11.5,45,0.5,53.5,0.5c8.5,0,3,34,3,34m-182,-39c-4,-4,4.5,-42,1,-44m157,-10c4,-2.5,81,-4,84,0c3,4,2,20,2,20m2,166c6,-8.5,104.5,-9,109,-18.5c4.5,-9.5,3,-47.5,3,-47.5m82,108c0,0,22,-1.5,26,3c4,4.5,7,60,4.5,66m-115,0c-1,-1,-6.5,-45,2,-54c8.5,-9,57,-9,59.5,-14c0,0,3.5,-50,-5,-58c-8.5,-8,-11.5,6.5,-36,4m109,-49c0,0,-12.5,35,-1,46c11.5,11,90.5,-0.5,97,-1c11,-9,9,-52,9,-52m6,51c0,0,39.5,-1,44,2c4.5,3,11,20.5,9,49m-461.5,-284c8,9,2,47,-2.5,54" />
    <pattern id="patternBrickRed" patternUnits="userSpaceOnUse" width="250" height="100" viewBox="0,0,1000,400">
      <rect width="1000" height="400" stroke="none" fill="var(--red)" />
      <use href="#grout" />
    </pattern>
    <pattern id="patternBrickGray" href="#patternBrickRed">
      <rect width="1000" height="400" stroke="none" fill="var(--gray)" />
      <use href="#grout" />
    </pattern>
    <pattern id="patternShingles" patternUnits="userSpaceOnUse" width="50" height="20" viewBox="0,0,1000,400">
      <rect width="1000" height="400" stroke="none" fill="var(--gray-dark)" />
      <use href="#grout" />
    </pattern>
    <path id="woodGrain" fill="none" stroke="black" stroke-width="2"
      d="M360.09,23.72c-6.94,-10.63,-6.86,-16.69,-2.41,-23.72m0,800.07c11.61,-13.71,-11.35,-41.77,3.04,-70.3m-79.67,-704.53c0,0,15.49,41.15,0,57.61m80.78,229.36c-0.56,-88.34,-26.49,-65.48,-28.22,-128.95c-2.11,-77.27,25.45,-36.76,18.26,-153.63m-52.01,18.11c4.98,13.71,-16.04,70.23,-3.87,76.81m41.49,380.8c-8.85,-32.92,13.28,-18.11,-14.93,-69.14c-28.22,-51.02,-4.98,-80.65,-1.66,-125.65m47.02,-277.64c-3.26,63.9,-2.77,85.37,3.32,114.13c3.22,15.2,12.34,31.3,13.83,59.26c3.95,73.83,-16.6,118.52,-0.55,136.63m-312.03,96.02c0,0,-24.9,32.37,3.32,102.06c28.21,69.68,-12.18,119.61,2.21,158.57m178.7,-63.1c-19.37,-74.62,11.62,-89.44,13.28,-128.4c1.66,-38.95,-2.22,-72.97,-16.6,-105.35m-79.12,-402.64c-4.87,16.57,11.93,44.34,2.39,58.75m149.2,541.42c0,0,21.03,52.13,-5.53,43.35c-26.55,-8.78,17.15,-78.46,-5.53,-130.04m-94.05,-129.49c22.68,48.83,-16.24,75.16,-13.28,144.31c2.84,66.32,27.11,79.56,24.9,126.74m15.49,-149.24c5.53,-26.89,-2.77,-22.5,-2.77,-45.54c-5.53,36.76,-15.48,25.21,-17.7,49.38c-2.94,31.83,7.19,64.75,7.19,64.75c-1.11,-43.9,7.74,-41.71,13.28,-68.59zm-73.59,294.1c23.86,-94.03,-45.36,-135.53,-11.61,-192.59m-113.28,-464.61c0,0,-21.16,18.52,-3.74,55.55c17.43,37.04,12.44,117.2,-7.47,150.62m117.02,-154.32c0,0,25.17,-46.5,4.7,-98.63c-6.15,-15.65,-12.43,-33.18,-13.28,-44.99c-1.97,-27.54,9.96,-40.06,9.96,-40.06m22.27,221.95c-18.67,24.69,-1.25,100,0,160.5" />
    <pattern id="patternWoodDoor" patternUnits="userSpaceOnUse" width="50" height="100" viewBox="0,0,400,800">
      <rect width="400" height="800" stroke="none" fill="var(--sunset-darker)" />
      <use href="#woodGrain" />
      <line x1="100" x2="100" y2="800" stroke-width="5" stroke="var(--black)" />
      <line x1="300" x2="300" y2="800" stroke-width="5" stroke="var(--black)" />
    </pattern>
    <pattern id="patternChainLinkFence" patternUnits="userSpaceOnUse" width="8" height="8" viewBox="0,0,8,8">
      <path id="chainLink1" fill="none" stroke="var(--gray)" stroke-width="0.5" d="m0,0c0,2,5,2,5,4c0,2,-5,2,-5,4" />
      <path id="chainLink2" fill="none" stroke="var(--gray)" stroke-width="0.5" d="m8,0c0,2,-5,2,-5,4c0,2,5,2,5,4" />
    </pattern>
    <pattern id="patternGlare" patternUnits="userSpaceOnUse" width="600" height="600" viewBox="0,0,600,600">
      <rect y="100" width="600" height="100" fill="var(--white)" opacity="0.5" stroke="none" />
      <rect y="300" width="600" height="200" fill="var(--white)" opacity="0.5" stroke="none" />
    </pattern>
    <pattern id="patternGlass" patternUnits="userSpaceOnUse" patternTransform="rotate(30)" width="50" height="50"
      viewBox="0,0,600,600">
      <rect width="600" height="600" fill="var(--house-sky-blue)" />
      <rect width="600" height="600" fill="url(#patternGlare)" />
    </pattern>
    <pattern id="patternFramedGlass" patternUnits="userSpaceOnUse" width="600" height="600" viewBox="0,0,600,600">
      <rect width="600" height="600" fill="url(#patternGlass)" />
      <line x2="600" y1="200" y2="200" stroke="var(--black)" stroke-width="5" />
      <line x2="600" y1="300" y2="300" stroke="var(--black)" stroke-width="15" />
      <line x1="400" x2="400" y2="600" stroke="var(--black)" stroke-width="5" />
      <line x1="300" x2="300" y2="600" stroke="var(--black)" stroke-width="15" />
    </pattern>
    <pattern id="patternGold" href="#patternGlass">
      <rect width="600" height="600" fill="var(--gold)" />
      <rect width="600" height="600" fill="url(#patternGlare)" />
    </pattern>
    <path id="garageSegments" fill="none" stroke="black" stroke-width="5" d="M 0.00,80
     C 0.00,80 14.03,83.88 42.36,82.18
       64.40,80.86 90.78,76.51 125.45,73.82
       157.55,71.32 197.25,70.45 235.27,69.64
       254.80,69.22 277.06,72.21 299.64,72.73
       326.48,73.34 353.74,71.52 377.09,71.27
       411.88,70.90 400.58,77.21 436.00,76.73
       464.96,76.33 509.83,68.34 537.27,68.18
       569.26,68.00 623.77,73.46 650.73,73.45
       665.44,73.45 693.27,67.27 709.82,69.82
       717.21,70.96 742.29,69.20 760.73,71.27
       783.57,73.84 799.64,80 700,80M 0.00,180
     C 2.00,180.36 17.58,174.45 46.18,174.36
       63.37,174.31 85.27,179.09 110.36,180.18
       143.63,181.63 182.65,179.44 225.09,178.91
       264.58,178.41 309.60,174.29 352.73,174.36
       374.73,174.40 388.98,179.03 411.82,180.73
       444.86,183.19 486.47,182.97 516.91,182.73
       545.66,182.50 555.91,173.96 582.55,173.82
       599.11,173.73 617.41,177.72 632.73,177.64
       730.00,177.08 799.09,175.82 799.09,175.82M 0,280
     C 1.09,280.18 6.45,277.38 26.73,275.64
       40.20,274.48 60.11,278.47 82.36,277.64
       100.07,276.97 119.03,271.46 139.09,270.73
       198.35,268.57 272.37,269.70 349.64,269.09
       387.94,268.79 436.51,272.99 474.55,273.09
       538.71,273.27 605.59,282.82 657.09,282.73
       682.09,282.68 700.68,277.82 720.36,277.82
       768.44,277.81 799.09,280.00 700,280.00M 0,380
     C 1.82,380.55 12.96,381.25 42.36,382.91
       51.22,383.41 65.53,388.48 76.91,388.00
       91.46,387.38 109.91,371.23 128.00,371.64
       147.19,372.07 161.79,377.54 185.09,380.91
       211.27,384.69 246.46,386.39 273.45,386.55
       286.61,386.62 299.92,378.96 313.45,379.09
       337.24,379.32 362.89,385.30 387.45,386.55
       403.80,387.38 419.02,383.60 435.27,383.82
       465.96,384.23 502.07,390.09 534.36,392.00
       555.33,393.24 573.60,390.84 591.45,390.91
       621.49,391.03 653.90,383.22 679.04,383.32
       751.57,383.62 799.64,383.82 799.64,383.82M 0.00,480
     C 0.00,479.82 48.07,478.51 120.00,478.55
       140.70,478.55 171.46,486.15 195.64,486.18
       229.18,486.23 257.86,480.19 295.27,480.00
       320.39,479.88 346.05,484.25 372.00,484.18
       417.99,484.06 426.78,477.79 471.45,477.45
       485.14,477.35 500.23,479.12 514.00,479.09
       528.89,479.06 544.60,477.64 559.27,477.64
       597.94,477.63 659.50,469.67 692.73,470.00
       769.10,470.75 799.64,480.18 800,480M 0,580
     C 0.55,580.73 32.10,584.91 90.55,584.55
       129.81,584.30 184.28,579.46 238.00,579.45
       262.98,579.45 286.24,584.06 312.91,584.36
       354.08,584.83 399.42,581.04 441.09,580.73
       464.62,580.55 498.15,573.34 520.73,573.27
       568.82,573.12 602.49,579.06 642.55,578.91
       663.94,578.83 685.79,574.92 703.45,574.91
       756.73,574.88 799.09,580.36 800,580" />
    <path id="garageHinges" fill="none" stroke="black" stroke-width="5" d="M 207.00,505.50
           C 202.03,514.26 195.00,523.00 195.00,523.00
             195.00,523.00 186.93,511.21 182.50,504.00
             175.53,492.67 171.00,484.00 171.00,484.00
             171.00,484.00 177.30,478.01 183.50,470.00
             189.28,462.53 195.00,453.00 195.00,453.00
             195.00,453.00 199.86,463.70 204.50,471.00
             210.24,480.02 216.00,486.00 216.00,486.00
             216.00,486.00 212.50,495.81 207.00,505.50 Z
           M 197.00,290.50
           C 192.30,301.87 190.50,314.50 190.50,314.50
             190.50,314.50 186.24,301.22 179.50,291.00
             171.80,279.32 161.50,270.50 161.50,270.50
             161.50,270.50 171.06,262.10 177.50,252.50
             184.30,242.36 188.00,231.00 188.00,231.00
             188.00,231.00 190.96,244.16 196.00,254.00
             201.20,264.15 208.50,271.00 208.50,271.00
             208.50,271.00 201.28,280.17 197.00,290.50 Z
           M 196.00,83.50
           C 190.53,92.43 187.00,103.79 187.00,103.50
             187.00,103.24 183.92,93.81 178.50,86.00
             173.44,78.71 166.00,73.00 166.00,73.00
             166.00,73.00 172.93,65.54 178.00,56.50
             182.07,49.23 184.50,40.00 184.50,40.00
             184.50,40.00 187.98,47.93 192.50,54.50
             198.71,63.53 206.50,72.00 206.50,72.00
             206.50,72.00 200.06,76.87 196.00,83.50 Z
           M 593.50,86.50
           C 589.02,94.86 586.00,104.00 586.00,104.00
             586.00,104.00 581.29,94.30 575.50,85.50
             569.30,76.07 562.00,67.50 562.00,67.50
             562.00,67.50 569.76,60.19 575.50,51.00
             581.00,42.20 584.50,31.50 584.50,31.50
             584.50,31.50 587.59,42.74 593.00,52.50
             597.80,61.17 605.00,68.50 605.00,68.50
             605.00,68.50 598.50,77.17 593.50,86.50 Z
           M 577.50,258.50
           C 583.45,247.63 588.50,235.50 588.50,235.50
             588.50,235.50 592.92,248.58 599.00,260.00
             605.17,271.58 613.00,281.50 613.00,281.50
             613.00,281.50 606.30,287.63 601.50,296.00
             595.65,306.20 591.50,319.00 591.50,319.00
             591.50,319.00 586.44,306.98 580.50,297.50
             573.52,286.36 565.50,277.50 565.50,277.50
             565.50,277.50 571.97,268.60 577.50,258.50 Z
           M 587.50,455.00
           C 591.55,446.79 593.00,437.00 593.00,437.00
             593.00,437.00 596.49,445.50 602.50,454.00
             609.64,464.11 619.50,474.50 619.50,474.50
             619.50,474.50 612.08,484.80 607.50,494.50
             603.64,502.67 602.50,510.50 602.50,510.50
             602.50,510.50 597.13,501.77 590.50,494.00
             582.72,484.88 573.50,476.50 573.50,476.50
             573.50,476.50 582.02,466.10 587.50,455.00 Z" />
    <pattern id="patternGarageWhite" patternUnits="userSpaceOnUse" x="-20" width="60" height="45" viewBox="0,0,800,600">
      <rect fill="var(--house-trim-white)" width="800" height="600" />
      <use href="#garageSegments" />
      <use href="#garageHinges" />
    </pattern>
    <pattern id="patternGarageBlue" href="#patternGarageWhite">
      <rect fill="var(--house-trim-blue-light)" width="800" height="600" />
      <use href="#garageSegments" />
      <use href="#garageHinges" />
    </pattern>
    <pattern id="patternStoneGray" patternUnits="userSpaceOnUse" width="150" height="150" viewBox="0,0,600,600">
      <rect width="600" height="600" fill="var(--gray)" />
      <path fill="none" stroke="black" stroke-width="5" d="M 143.86,741.92
           C 153.12,750.78 155.18,741.58 161.20,748.44
             164.99,752.76 161.84,764.33 167.63,766.85
             169.75,768.60 175.28,766.58 177.27,768.31
             184.47,774.57 183.32,771.87 190.03,776.49
             197.25,781.47 202.35,792.76 202.40,792.76M 47.27,537.14
           C 46.75,547.27 54.54,537.94 62.34,546.49
             66.10,550.62 70.04,557.81 73.25,565.19
             77.69,575.43 69.18,595.84 74.29,608.83
             77.41,616.78 80.16,625.08 86.23,626.49
             99.45,629.57 122.52,621.03 130.65,638.70
             138.27,655.26 124.17,669.69 127.79,690.91
             129.21,699.24 143.61,683.76 143.90,710.65
             144.18,737.54 137.14,725.45 141.82,740.52
             146.49,755.58 145.45,775.58 151.69,777.66M 143.86,141.92
           C 153.12,150.78 155.18,141.58 161.20,148.44
             164.99,152.76 161.84,164.33 167.63,166.85
             169.75,168.60 175.28,166.58 177.27,168.31
             184.47,174.57 183.32,171.87 190.03,176.49
             197.25,181.47 202.35,192.76 202.40,192.76M 47.27,-62.86
           C 46.75,-52.73 54.54,-62.06 62.34,-53.51
             66.10,-49.38 70.04,-42.19 73.25,-34.81
             77.69,-24.57 69.18,-4.16 74.29,8.83
             77.41,16.78 80.16,25.08 86.23,26.49
             99.45,29.57 122.52,21.03 130.65,38.70
             138.27,55.26 124.17,69.69 127.79,90.91
             129.21,99.24 143.61,83.76 143.90,110.65
             144.18,137.54 137.14,125.45 141.82,140.52
             146.49,155.58 145.45,175.58 151.69,177.66M 391.17,207.27
           C 391.17,207.27 398.85,202.14 410.26,196.36
             416.84,193.03 424.13,188.73 433.25,187.01
             438.72,185.98 448.45,192.46 454.09,191.88
             463.15,190.97 475.01,189.29 483.31,190.91
             490.76,192.36 494.84,197.18 500.06,195.78
             509.27,193.30 516.95,182.48 514.29,180.97
             506.74,176.70 510.68,169.26 519.55,163.44
             524.42,160.25 529.84,156.07 537.86,156.62M 316.75,238.05
           C 317.12,238.25 327.56,237.05 337.99,228.70
             340.21,226.93 344.22,219.16 348.12,218.18
             352.01,217.21 364.18,226.75 373.25,221.30
             379.39,217.60 382.74,212.21 389.81,205.13
             393.85,201.08 401.42,195.82 405.58,191.69
             410.27,187.04 417.56,182.36 421.17,178.25
             425.18,173.69 425.43,169.65 428.96,162.86
             431.74,157.52 430.86,150.31 431.30,143.38
             432.01,132.10 430.52,120.97 439.09,116.88
             443.54,114.76 454.34,111.17 461.88,113.57
             468.87,115.80 472.50,123.91 479.22,125.45
             484.38,126.64 489.76,125.20 494.61,124.48
             504.52,123.00 512.34,120.39 512.34,120.39M 134.03,339.74
           C 132.33,338.03 130.80,336.31 129.16,335.26
             123.98,331.94 119.37,332.12 118.83,334.48
             118.36,336.52 120.86,341.54 121.75,345.00
             122.56,348.15 121.61,349.62 124.29,353.96
             129.44,362.31 139.26,373.41 143.96,375.97
             146.75,377.49 151.37,374.21 157.01,371.30
             160.42,369.55 164.58,370.05 168.12,368.77
             172.43,367.20 176.04,364.07 179.03,364.87
             186.90,366.98 193.88,365.26 204.16,366.23
             209.87,366.77 211.63,372.59 220.52,377.92
             227.97,382.39 242.45,386.63 248.96,386.10
             261.84,385.07 268.80,362.91 281.69,362.73
             287.20,362.65 293.83,368.57 298.83,368.38
             311.61,367.87 318.32,360.02 327.27,363.12
             338.76,367.09 338.50,374.74 345.78,382.40
             352.86,389.86 355.41,399.04 360.97,406.17
             369.53,417.14 379.48,424.68 379.48,424.68M 294.35,371.49
           C 294.35,371.49 291.72,372.59 289.87,374.03
             287.54,375.84 285.57,378.26 281.88,380.45
             277.71,382.94 272.66,383.64 270.39,386.69
             265.90,392.70 274.49,398.24 268.25,405.78
             262.77,412.39 260.87,421.44 253.25,426.23
             250.45,428.00 237.15,427.68 227.92,426.43
             221.40,425.55 218.25,423.49 216.43,424.48
             200.98,432.86 193.44,426.23 193.44,426.23M 540.58,8.57
           C 540.58,8.57 554.61,12.27 554.61,12.27
             554.61,12.27 566.30,19.68 566.30,19.68M 500.65,-41.69
           C 500.46,-41.69 495.27,-32.49 488.38,-28.83
             483.34,-26.16 476.63,-29.98 474.16,-24.94
             466.13,-8.54 471.93,16.45 471.82,16.56M 513.12,-85.91
           C 512.84,-86.54 512.85,-95.13 508.05,-104.03
             504.83,-109.99 497.43,-115.32 493.83,-121.36
             491.83,-124.73 486.90,-127.27 485.06,-129.94
             481.35,-135.35 481.36,-139.48 481.36,-139.48M 507.27,-148.44
           C 504.16,-136.36 520.07,-128.98 518.18,-98.57
             517.59,-89.07 515.29,-74.83 511.17,-63.51
             506.91,-51.81 500.86,-43.04 501.82,-33.51
             502.66,-25.07 510.53,-19.51 511.95,-12.47
             516.52,10.23 533.94,-9.75 538.83,8.96
             545.90,36.00 558.31,46.75 558.31,46.75M 540.58,608.57
           C 540.58,608.57 554.61,612.27 554.61,612.27
             554.61,612.27 566.30,619.68 566.30,619.68M 500.65,558.31
           C 500.46,558.31 495.27,567.51 488.38,571.17
             483.34,573.84 476.63,570.02 474.16,575.06
             466.13,591.46 471.93,616.45 471.82,616.56M 513.12,514.09
           C 512.84,513.46 512.85,504.87 508.05,495.97
             504.83,490.01 497.43,484.68 493.83,478.64
             491.83,475.27 486.90,472.73 485.06,470.06
             481.35,464.65 481.36,460.52 481.36,460.52M 507.27,451.56
           C 504.16,463.64 520.07,471.02 518.18,501.43
             517.59,510.93 515.29,525.17 511.17,536.49
             506.91,548.19 500.86,556.96 501.82,566.49
             502.66,574.93 510.53,580.49 511.95,587.53
             516.52,610.23 533.94,590.25 538.83,608.96
             545.90,636.00 558.31,646.75 558.31,646.75M 535.71,261.43
           C 535.71,261.43 534.85,267.46 543.51,280.52
             549.51,289.57 565.26,303.73 567.66,314.42
             571.77,332.66 550.55,343.10 568.05,360.00
             570.15,362.03 577.71,367.59 586.75,373.64
             593.56,378.19 601.16,383.99 608.18,383.38
             620.85,382.27 627.37,370.94 635.84,365.84
             641.16,362.65 650.40,363.90 652.60,365.45
             658.72,369.80 668.20,353.22 673.64,357.66
             690.55,371.49 688.05,390.00 699.74,409.09
             711.43,428.18 722.86,421.21 730.13,429.74
             739.11,440.29 732.86,453.51 739.09,457.79M 578.96,373.25
           C 578.96,373.25 580.27,384.29 587.53,391.95
             594.48,399.28 606.23,398.57 610.13,405.97
             611.98,409.48 614.41,413.89 615.58,420.00
             616.89,426.78 617.07,435.44 622.21,442.60
             629.36,452.56 638.57,446.49 642.08,451.56M -64.29,261.43
           C -64.29,261.43 -65.15,267.46 -56.49,280.52
             -50.49,289.57 -34.74,303.73 -32.34,314.42
             -28.23,332.66 -49.45,343.10 -31.95,360.00
             -29.85,362.03 -22.29,367.59 -13.25,373.64
             -6.44,378.19 1.16,383.99 8.18,383.38
             20.85,382.27 27.37,370.94 35.84,365.84
             41.16,362.65 50.40,363.90 52.60,365.45
             58.72,369.80 68.20,353.22 73.64,357.66
             90.55,371.49 88.05,390.00 99.74,409.09
             111.43,428.18 122.86,421.21 130.13,429.74
             139.11,440.29 132.86,453.51 139.09,457.79M -21.04,373.25
           C -21.04,373.25 -19.73,384.29 -12.47,391.95
             -5.52,399.28 6.23,398.57 10.13,405.97
             11.98,409.48 14.41,413.89 15.58,420.00
             16.89,426.78 17.07,435.44 22.21,442.60
             29.36,452.56 38.57,446.49 42.08,451.56" />
    </pattern>
    <pattern id="patternTongue" patternUnits="userSpaceOnUse" transform="" width="60" height="60" viewBox="0,0,600,600">
      <rect fill="var(--pink)" width="600" height="600" />
      <path class="noStroke" fill="var(--red-lighter)" d="M 20.45,165.53
        C 9.09,169.32 4.55,191.67 16.29,195.45
          28.03,199.24 36.36,179.17 38.26,175.00
          40.15,170.83 31.82,161.74 20.45,165.53 Z
        M 150.38,119.32
        C 160.23,110.98 167.05,129.17 165.53,132.95
          164.02,136.74 153.79,145.83 145.45,143.56
          137.12,141.29 140.53,127.65 150.38,119.32 Z
        M 95.45,26.89
        C 86.36,27.65 79.55,46.21 89.02,50.76
          98.48,55.30 100.00,48.86 104.92,45.83
          109.85,42.80 104.55,26.14 95.45,26.89 Z
        M 349.62,129.17
        C 365.53,125.38 366.29,144.32 351.52,146.97
          336.74,149.62 333.71,132.95 349.62,129.17 Z
        M 436.36,25.76
        C 426.89,21.97 421.59,32.58 423.11,37.88
          424.62,43.18 435.23,49.24 441.67,46.21
          448.11,43.18 445.83,29.55 436.36,25.76 Z
        M 534.47,111.36
        C 540.53,97.73 529.92,97.35 524.62,106.06
          519.32,114.77 528.41,125.00 534.47,111.36 Z
        M 508.71,195.83
        C 523.86,197.35 521.21,215.15 506.82,217.05
          492.42,218.94 493.56,194.32 508.71,195.83 Z
        M 495.08,564.77
        C 515.53,565.91 507.95,550.38 499.24,548.86
          490.53,547.35 474.62,563.64 495.08,564.77 Z
        M 479.92,343.56
        C 498.86,343.18 493.56,363.64 479.92,364.39
          466.29,365.15 460.98,343.94 479.92,343.56 Z
        M 167.05,248.11
        C 186.74,245.45 184.47,265.53 177.27,271.59
          170.08,277.65 162.88,278.79 156.82,271.97
          150.76,265.15 147.35,250.76 167.05,248.11 Z
        M 17.05,353.41
        C 25.00,345.45 30.30,365.53 30.30,370.45
          30.30,375.38 20.45,390.91 14.02,385.98
          7.58,381.06 9.09,361.36 17.05,353.41 Z
        M 88.64,565.15
        C 94.32,549.24 77.65,547.35 74.62,562.50
          71.59,577.65 82.95,581.06 88.64,565.15 Z
        M 187.50,449.24
        C 176.52,437.50 202.27,425.76 207.95,436.36
          213.64,446.97 198.48,460.98 187.50,449.24 Z
        M 384.85,278.41
        C 405.68,281.06 401.14,256.82 389.02,255.30
          376.89,253.79 364.02,275.76 384.85,278.41 Z" />
    </pattern>
    <pattern id="patternCheckerPlate" patternUnits="userSpaceOnUse" width="10" height="10" viewBox="0,0,16,16"
      patternTransform="rotate(45)">
      <!-- fiil with rust texture -->
      <rect width="18" height="18" fill="var(--rust)" />
      <polygon id="checkerPlateVertical" points="3,0 5,0 6,3 6,5 5,8 3,8 2,5 2,3" fill="black" opacity="0.2" />
      <use href="#checkerPlateVertical" x="8" y="8" />
      <polygon id="checkerPlateHorizontal" points="0,11 3,10 5,10 8,11 8,13 5,14 3,14 0,13" fill="black"
        opacity="0.2" />
      <use href="#checkerPlateHorizontal" x="8" y="-8" />
    </pattern>
    <!-- end of patterns -->

    <!-- gradients -->
    <radialGradient id="rGradMaelstromHeart">
      <stop offset="50%" stop-color="var(--black)" />
      <stop offset="100%" stop-color="var(--ivory)" stop-opacity="0" />
    </radialGradient>
    <radialGradient id="rGradAsphalt" cy="50%" r="50%" fy="0">
      <stop offset="10%" stop-color="var(--house-trim-black)" />
      <stop offset="95%" stop-color="var(--gray)" />
    </radialGradient>
    <radialGradient id="rGradWhite">
      <stop offset="50%" stop-color="var(--white)" />
      <stop offset="100%" stop-color="var(--ivory)" />
    </radialGradient>
    <radialGradient id="rGradPink">
      <stop offset="10%" stop-color="var(--pink)" />
      <stop offset="95%" stop-color="var(--pink-dark)" />
    </radialGradient>
    <linearGradient id="lGradBlueDark" gradientTransform="rotate(90)">
      <stop offset="10%" stop-color="var(--jungle)" />
      <stop offset="95%" stop-color="var(--oxford)" />
    </linearGradient>
    <linearGradient id="lGradGreenDark" gradientTransform="rotate(90)">
      <stop offset="10%" stop-color="var(--green-dark)" />
      <stop offset="95%" stop-color="var(--gold)" />
    </linearGradient>
    <linearGradient id="lGradRedDark" gradientTransform="rotate(90)">
      <stop offset="10%" stop-color="var(--raspberry)" />
      <stop offset="95%" stop-color="var(--red-dark)" />
    </linearGradient>
    <linearGradient id="lGradYellowDark" gradientTransform="rotate(90)">
      <stop offset="10%" stop-color="var(--eggshell)" />
      <stop offset="95%" stop-color="var(--gold-light)" />
    </linearGradient>
    <!-- end of gradients -->
    <!-- loaded defs -->
    <g id="houseDefs"></g>
    <g id="backHouseDefs"></g>
    <!-- end of loaded defs -->
  </defs>
  <svg id="layer0" class="layer" viewBox="0 0 1920 1920">
    <!-- malstrom made with circles and turbulence, too much for browsres to render -->
    <g id="maelstromVectors">
      <!-- <circle id="maelstromCloudFront" cx="0" cy="0" r="15%" filter="url(#filterCloud)" fill="black" />
      <circle id="maelstromCloudBack" cx="0" cy="0" r="30%" filter="url(#filterCloud)" opacity="0.5" fill="purple" />
      <circle id="maelstromCloudMiddle" cx="0" cy="0" r="20%" filter="url(#filterCloud)" opacity="0.5" fill="#400" /> -->
    </g>
    <!-- malstrom crated with external files -->
    <g id="maelstrom" class="maelstrom">
      <circle id="maelstromHeart" r="300" cx="200" cy="600" fill="url(#rGradMaelstromHeart)" />
      <g id="maelstromVotex" class="vortex">
        <image id="malOutC" href='/assets/suburbMap/malOutC.png' />
        <image id="malOutW" href='/assets/suburbMap/malOutW.png' />
        <image id="malInC" href='/assets/suburbMap/malInC.png' />
        <image id="malInW" href='/assets/suburbMap/malInW.png' />
      </g>
    </g>
  </svg>

  <svg id="layer1" class="layer" viewBox="0 0 1920 1080">
    <g id="thirdStreet"></g>
  </svg>

  <svg id="layer2" class="layer" viewBox="0 0 1920 1080">
    <g id="secondStreet">
      <g id="universityLoad"></g>
      <g id="collegeLoad"></g>
      <g id="warehouseLoad" class="lot"></g>
      <g id="officeLoad" class="lot"></g>
      <g id="secondBlock0"></g>
      <g id="secondBlock1"></g>
      <g id="secondBlock2"></g>
    </g>
  </svg>

  <svg id="layer3" class="layer" xmlns="http://www.w3.org/2000/svg" viewBox="0 0 1920 1080">
    <g id="mainStreet">
      <rect id="road" x="-12000" y="810" width="28000" height="1000" fill="#222" />
      <g id="block0" class="block"></g>
      <g id="block1" class="block"></g>
      <g id="block2" class="block"></g>
      <g id="block3" class="block"></g>
      <g id="gasStationLoad" class="lot"></g>
    </g>
    <g id="flamingoneContainer"></g>
  </svg>
</svg>