<?xml version="1.0" encoding="utf-8"?>
<!-- Generator: Adobe Illustrator 24.1.2, SVG Export Plug-In . SVG Version: 6.00 Build 0)  -->
<svg version="1.1" xmlns="http://www.w3.org/2000/svg" viewBox="0 0 2400 600">
	<g id="university" class="university pointOfInterest">
		<rect id="universityLawn" class="lawn backLawn" x="-300" y="400" width="3000" height="400" />
		<path id="universityWestWing" class="face shade" d="M62,340c8,4,52-20,52-20s51.1,0,110-1.3c20.8-0.5,40.5-4.7,60.7-5.3
			c46.8-1.4,87.3,0.7,87.3,0.7s26.4-0.5,66.9-1.4c4-0.1,3.8-10.6,14.5-11.3c10.7-0.7,8.7,11.5,14,11.3c19.6-0.4,41.3-0.9,64.1-1.4
			c5.3-0.1,3.2-15.3,16.6-16c13.3-0.7,11.6,15.3,17.8,15.2c28.3-0.6,57.6-1.3,86-1.9c6.3-0.1,5.5-15.9,18.8-15.3
			c13.3,0.7,13.9,14.5,20.7,14.4c20.7-0.5,40.5-0.9,58.7-1.4c6.7-0.1,3.9-15,19.2-15c15.3,0,14,14.2,20.5,14.1
			c36.7-0.9,60.2-1.4,60.2-1.4s71.8,0.2,124-1.3c50.7-1.5,82-4.7,82-4.7l-2,228c0,0-47.3-1.2-114-3.3c-69.5-2.2-160.3-5.5-251.3-7.3
			c-96.3-2-190.6-0.6-250.7-2c-40.9-1-66-3.3-66-3.3s-56.4-1.9-118.7-0.7C168.2,511,70,516,70,516S54,336,62,340z" />
		<path id="universityEastWing" class="face shade" d="M1480.5,502.5c0,0-29.8,0.6-60,6c-40.3,7.1-81,1.5-81,1.5
			S1323,304.5,1326,306c0.6,0.3,33.4,8.5,87,9c49.9,0.5,120.6-10.1,195-13.7c7.3-0.3,12-16,26.7-14c14.7,2,16.4,14,22,14
			c23.2,0.4,46.8,0.9,70.5,1.6c7.2,0.2,11.5-16.2,23.5-14.2s15.5,15.4,24.2,15.7c22.8,0.8,45.7,1.6,68.4,2.5
			c7.4,0.3,8.1-20.9,24.8-18.9s13.5,20.3,21.6,20.6c19.5,0.7,38.8,1.4,57.7,2c5.3,0.2,2-14.6,14.7-14.6s15,15.5,21.8,15.6
			c60.6,1.6,114.8-2.9,162.2-5c7.2-0.3,31.9,1.8,38.7,1.3c68-0.4,95.3-6.5,95.3-6.5l-21,195c0,0-28.7-4.9-76.5-4.5
			c-82.8,0.7-216.7,6.7-337.5,9c-75.4,1.4-142.4-1.5-190.5-1.5c-39.8,0-67.5,3-67.5,3H1480.5z" />
		<path id="universityWingWindows" class="window stainedGlass" d="M210,343.5c0.2-1.3,84.4-7.7,84-4.5c0,0,1.6,9.7,3,17
			c2.2,11.3,4.5,22,4.5,22s-15.3,3.4-32,4.5c-26.6,1.8-59.5,1.5-59.5,1.5C206,380.5,210,343.5,210,343.5z M213,428
			c-1.3-10.1-1.5-21.5-1.5-21.5s13.4,1.4,31.5,0.5c13.3-0.6,27.3-4.9,39.5-6c12.8-1.1,23.5,1,23.5,1v39c0,0-12.5,1.2-29,1.5
			c-11.9,0.2-25.6,1.5-37,1.5c-13.7,0-24-1.5-24-1.5S213.9,435.6,213,428z M210,481c-0.3-6.5,1.5-11.5,1.5-11.5s88.5-9,93-6
			s1.5,33,1.5,33c1.7,1.7-88.8,8.6-93,4.5C213,501,210.4,489.9,210,481z M422.5,362.5c0.3-14.2,2-28,2-28s4.8-2,13.5-2
			c13.5,0,33,2,33,2s7,77,3,81s-51-1.5-51-1.5S422.1,385.7,422.5,362.5z M420,466c0.3-8.3,3-17.5,3-17.5s7.6-1.8,16.5-1.5
			c12.3,0.4,27,3,27,3s8.5,37,3,42s-48,1.5-48,1.5S419.6,479.1,420,466z M534,331.5c7.5-6,36,1.5,36,1.5s4.2,27.4,5.5,50.5
			c0.7,11.5-1,27.5-1,27.5s-38.5,10.5-46.5,1.5S526.5,337.5,534,331.5z M514,471c0.4-10.9,2-25.5,2-25.5s57-3.5,61.5,3s-1.5,39-1.5,39
			s-21.7,2.5-39.5,2.5c-11.5,0-22-2.5-22-2.5S513.6,481,514,471z M640.7,349.3c0.2-10.1,1.3-19.3,1.3-19.3s10.3-3.3,21.3-3.3
			c12.2,0,25.2,3.3,25.2,3.3s5.5,80.7-4.5,90s-43.5,1.5-43.5,1.5S640.2,375.8,640.7,349.3z M624,447c4.4-12.4,79.3-6.3,76.5,1.5
			l-1.5,36c0,0-19.8,2.8-34.3,2.2c-19.5-0.8-35.3-5.2-36.2-5.2C627,481.5,624,447,624,447z M753,330c4.3-8,33-1.5,33-1.5
			s-0.2,11,0,22.2c0.4,25.2,1.5,63.3,1.5,63.3s-6.7,5.6-14.8,6c-6.7,0.3-15.2-4.5-15.2-4.5S748.7,338,753,330z M755.3,468
			c0-8.1,0.7-15,0.7-15s7.2-1.7,17.3-1.7c10.8,0,24.7,1.7,24.7,1.7s6.7,25,0,30s-42,1.5-42,1.5S755.3,475.6,755.3,468z M942,327
			c4.2-6.8,13.7-1.4,22-0.3c7.5,1,16-6.7,17.3-1.3c1.3,5.3-0.5,9.3,0,26c0.9,28.7-0.3,70.2-0.3,70.2s-10,0-19.8,0
			c-9.6,0-19.2,0-19.2,0S934,340,942,327z M994.5,496.5c0,0-19-1.2-36.5-1.2c-17,0-32.5,1.2-32.5,1.2s1.7-25.1,13.2-40.5
			c4.9-6.5,13.7-12,21.3-12C985.5,444,994.5,496.5,994.5,496.5z M1411.3,398c0.4-27.7-4.7-60,1.7-68s45-3,45-3s3.3,101-4.5,106.5
			s-42-9-42-9S1411.1,414.5,1411.3,398z M1444.7,450.7c15.6,8.7,28.3,30.8,28.3,30.8s-19,3.4-39,4.5c-21.9,1.2-45,0-45,0
			s12-31.5,34.5-34.5C1430.3,450.6,1437.9,446.9,1444.7,450.7z M1616,396c-4.9-25.8-7.4-65.7-3.5-73.5c5.8-11.5,39,1.5,39,1.5
			s6.1,9.7,6.5,16.7c1.6,25.7-0.5,80.8-0.5,80.8s-10.7,0-20.2-0.8c-6.1-0.6-12.2-2.2-12.8-2.2C1624,418.5,1618.3,408.4,1616,396z
			M1606.5,439.5c2.5-6.5,55.5,1.5,55.5,1.5l4.5,31.5c0,0-10.5,2.4-23.2,3.5c-17.9,1.6-39.8,1.9-39.8,1
			C1603.5,475.5,1604,446,1606.5,439.5z M1735.3,390.7c-0.9-23.6,0.2-58.2,1.7-60.7c2.3-4,29.7-2.7,30,1.5s8.3,72.5,3,76.5
			s-31.5,6-31.5,6S1735.9,405.6,1735.3,390.7z M1711.3,456c1-7.8,4.7-15,4.7-15s14.3-8.9,30.7-9.7c15.9-0.7,33.8,6.7,33.8,6.7
			s4.8,31.3,3,34.5c-5,5.5-33.8,8.4-53.5,7.5c-9.8-0.5-18.5-4.5-18.5-4.5S1710.1,465.4,1711.3,456z M1845.3,385.3
			c0.1-10.8,1.7-25.2,2.4-36.1c0.7-10.1,1.7-18.2,3.2-20.8c5-8.2,30,1.5,30,1.5s-0.8,12.4,1,30c1.8,18.6,6.2,42.4,3.5,45
			c-5.2,5-39,1.5-39,0C1846.5,404.5,1845.2,396.9,1845.3,385.3z M1830.7,450.7c0.4-9,2.3-14.2,2.3-14.2s11.4-0.2,22.3,0.8
			c19,1.8,42.2,5.2,42.2,5.2s9.8,26.8,0,30c-3.8,1.2-11.8,3.5-23.5,2.8c-18.6-1.1-42.5-5.8-42.5-5.8S1830.3,458,1830.7,450.7z
			M1945.3,368c-0.7-17.8,1.7-32,1.7-32s8.6-3.3,17-3.3c8.1,0,16,3.3,16,3.3s9.3,64.7,3,70.5s-33,1.5-33,1.5S1946.1,386.2,1945.3,368z
			M1939.3,452c-0.8-6.6,3.2-12.5,3.2-12.5s19-7.8,34.8-8.2c14.9-0.4,22.7,3.3,26.7,6.7s0.9,7.6,2,15.9c1.2,9.7,2.5,20.1,2.5,20.1
			s-9.6,1.2-21.2,0.7c-8.6-0.4-18.3-2.7-26-2.7c-8.9,0-14.3,2-14.3,2S1940.6,462,1939.3,452z M2125.3,354.7
			c-1.5-9.4-1.3-20.2-1.3-20.2s9.5-4.9,30-5.8c12.3-0.6,29.4,6.2,42,6.7c14.7,0.5,24-5.3,24-5.3s3.5,8.3,4,16.7c0.5,8.3-2,16.7-2,16.7
			s-15.3-0.4-33.3,0.7c-13.1,0.8-28.6,1-40,2c-11.8,1-19.3,2.7-19.3,2.7S2126.5,362.2,2125.3,354.7z M2135.3,406
			c0.2-8.9-2-16.7-2-16.7s9.1,2.5,20.7,2c13.4-0.6,30.9-4.6,44.7-6c12.9-1.3,22.7,0,22.7,0s0.3,10.2,0.7,20.1
			c0.3,9.4,0.6,18.6,0.6,18.6s-11,2-25.3,0.7c-6.4-0.6-13.9-5.5-20.7-5.3c-8.2,0.2-15.9,0.3-22.7,1.3c-12.4,1.9-21.3,5.3-21.3,5.3
			S2135.2,415.5,2135.3,406z M2131.3,462.7c0.2-8.6,4-16,4-16s3.6-1.2,12-1.3c8.8-0.1,21.4,2,33.3,2c9.5,0,17.7-7.6,25.3-8
			c10.3-0.6,18.7,6,18.7,6s0.3,7.4,0,15.3c-0.3,8.7-1.3,18-1.3,18S2211,476,2196,476c-5.5,0-10.8,4.5-16.7,4.7
			c-22.1,0.7-44.7-2-44.7-2S2131.2,469.9,2131.3,462.7z" />
		<path id="universityWestSpires" class="spire stone" d="M498.3,523l7-67c0,0-5.2-2.4-5-11.3c0.6-27.2,7-85.7,7-85.7
			s-4.8-3.6-6-15c-1.4-13-2-34.8-3.3-53.3c-2.3-33.4-5-63.3-5-63.3s-3.6,27.9-6.7,61.3c-1.8,18.9-2.8,43.3-4.3,56.3
			c-1.4,11.8-4,11-4,11s2.3,58.5,1.7,83.7c-0.2,7.3-4,9.3-4,9.3l-11.3,71.7L498.3,523z M615.7,528.3c0,0,3.3-66.7,1.7-74.3
			c0,0-3.4,0.1-3.7-8.7c-0.8-28.2,0.7-93.7,0.7-93.7s-4.4-0.2-5.3-12.3c-0.6-8.5,2.5-21.9,2-33.7c-1.8-40.9-6.7-90-6.7-90
			s-4.4,14.3-7,35.7c-1.6,13.5-1.3,30.8-2.7,46c-1.2,13.6,0,30.8-1,40.3c-1.2,11.8-3,12-3,12s1.1,65.9,0,94c-0.3,8.4-2,7-4,9
			c-1.3,1.2-0.9,31.6-1.7,53.3c-0.5,13.2-2.3,22.3-2.3,22.3H615.7z M740,525.3c0,0,1.6-16.1,2.3-34c0.5-12.3,1.2-26.2-0.7-34.3
			c-0.7-3.1-4.2-4.9-5-5.7c0,0,0.5-38.3-1-70.3c-0.2-4.9,1-19.9,0.7-23.7c-0.8-8.4-7.3-9-7.3-9s1.6-33.5-0.7-65.3c-2-28.7-8-56-8-56
			s-1.9,34.8-3.3,66.3c-1.2,27.6-2,52.3-2,52.3s-4.8,4.5-5,13.3c-0.5,29.8,3,92.3,3,92.3s-2.2,4.6-2.3,9c-0.6,18.2,0,62.7,0,62.7
			L740,525.3z" />
		<path id="universityEastSpires" class="spire stone" d="M1910.7,506l-7-67c0,0,5.2-2.4,5-11.3c-0.6-27.2-7-85.7-7-85.7
			s4.8-3.6,6-15c1.4-13,2-34.8,3.3-53.3c2.3-33.4,5-63.3,5-63.3s3.6,27.9,6.7,61.3c1.8,18.9,2.8,43.3,4.3,56.3c1.4,11.8,4,11,4,11
			s-2.3,58.5-1.7,83.7c0.2,7.3,4,9.3,4,9.3l11.3,71.7L1910.7,506z M1793.3,511.3c0,0-3.3-66.7-1.7-74.3c0,0,3.4,0.1,3.7-8.7
			c0.8-28.2-0.7-93.7-0.7-93.7s4.4-0.2,5.3-12.3c0.6-8.5-2.5-21.9-2-33.7c1.8-40.9,6.7-90,6.7-90s4.4,14.3,7,35.7
			c1.6,13.5,1.3,30.8,2.7,46c1.2,13.6,0,30.8,1,40.3c1.2,11.8,3,12,3,12s-1.1,65.9,0,94c0.3,8.4,2,7,4,9c1.3,1.2,0.9,31.6,1.7,53.3
			c0.5,13.2,2.3,22.3,2.3,22.3H1793.3z M1669,508.3c0,0-1.6-16.1-2.3-34c-0.5-12.3-1.2-26.2,0.7-34.3c0.7-3.1,4.2-4.9,5-5.7
			c0,0-0.5-38.3,1-70.3c0.2-4.9-1-19.9-0.7-23.7c0.8-8.4,7.3-9,7.3-9s-1.6-33.5,0.7-65.3c2-28.7,8-56,8-56s1.9,34.8,3.3,66.3
			c1.2,27.6,2,52.3,2,52.3s4.8,4.5,5,13.3c0.5,29.8-3,92.3-3,92.3s2.2,4.6,2.3,9c0.6,18.2,0,62.7,0,62.7L1669,508.3z" />
		<path id="universityWestTowerRailings" class="wroughtIron" d="M851.6,201.6c18.8,0.2,39.1,6.5,39.1,6.5
			s-2.2-62.7-1.2-67.2c0.3-1.4,3.9-4.2,5-7.9c1-3.4-0.1-7.7-6-7.8c-12.4-0.2-2.9,10-3,13.2c-0.3,7.9,3.5,55.6-0.2,59.7
			c-2.6,2.8-41.3,2.2-54.9-1.3c0.7-13.7,0.6-37.4-0.8-52.7c0.2-4.2,5.5-5.3,5.9-9.3c0.4-4-6.1-7.2-10.2-4.9c-7.3,4,2.5,8.8,1.3,12.9
			c-2.7,18.8-2.2,40.3-3.1,53.1c-0.5,6.7-3.1,11.3-3.1,11.3S835.5,201.4,851.6,201.6z" />
		<path id="universityWestTowerRoof" class="roof" d="M884,179.5c0,0,0.4-10.2-4-18.5c-10-13-21.5-29.5-21.5-29.5
			s-8.7,9.9-15.5,22c-6.5,11.6-11,25.5-11,25.5L884,179.5z" />
		<path id="universityWestTowerFace" class="face" d="M817.5,545.5c4.7,0.2,10.7-1.8,16-1.5c12.4,0.6,25.6,3.9,37.5,5
			c14.9,1.4,29.7,1.2,35,1.5c16,1,15-13,15.5-28s-0.2-19.5,1-38c0.3-4.8,2.9-12.4,3-17c0.4-13.7-2.5-25.2-2.5-27.5
			c-0.3-7,0.9-10.3-0.5-12.5c-2.6-4.1-8.6-3.7-11.5-11c-3.3-8.3-1-28.8-1-33c0-3.6-1.2-24.6-2-49c-0.4-12.5,0.5-24.4,0-37.5
			c-0.5-15.6-2.6-31.5-3.5-43.5c-1-12.6-2-12-2.5-28.5c-0.2-6.7-1-12.8-4-17.5c-2.1-3.3-6.7-1.8-10-4c-3.5-2.4,2.8-23-1-24.5
			c-7.6-3-23.8-4.4-37.5-3.5c-8.9,0.6-19,0-22,5.5s2.2,11.5-2,19c-3.1,5.5-11.4,3.4-13.5,10.5c-2.1,7-1.7,17.1-1,22
			c1.9,12.6,0.3,18.4-1.5,31c-0.5,3.9-1.7,10.5-2,15.5c-0.9,14.8-2.7,30-3,47c-0.3,15.7,2.8,30.6,1,46.5c-1.3,11.5-1.5,25.5-3.5,34
			c-1.4,5.9-6.4,4.7-8,6.5c-3.1,3.4-3.7,9.2-3,21c0.4,8,2.3,21.9,2.5,38c0.3,20.1-1.1,43.2-1,59c0,7.8-1.3,14.4-0.5,14.5
			C795.5,546,805.4,544.9,817.5,545.5z" />
		<path id="universityWestTowerWindows" class="window stainedGlass" d="M822.5,475.5c-0.2,9.1-2.5,19-3,27c-0.6,8.7,0.6,15.2,1.5,16
			c0.9,0.7,12.3-0.8,21,0c11.6,1.1,22.2,4.5,34,4.5c10,0,15.2-1.2,16.5-2.5c2.1-2.1,0.4-18.3-1-35c-1.3-15.5-2.1-31.4-3.5-34.5
			c-1.5-3.2-6.5-27-34-25.5c-11,0.6-17.2,1.9-22,5.5c-7.3,5.4-10.2,14-11,16.5C820,450.8,822.7,461.9,822.5,475.5z M823.5,381.5
			c1.2,2.5,13.4-1.3,22.5,0c17.9,2.6,34,11.5,38,9c1.2-0.7,2.2-13.9,2-30.5c-0.4-39.5-3.5-97.5-4-103.5s-7.9-13.4-14.5-25.5
			c-5.5-10.1-8.9-19.2-17.5-19c-9,0.2-11.8,10.5-15.5,21c-4.1,11.6-6,18.5-8.5,23.5S820,374,823.5,381.5z" />
		<path id="universityEastTowerRailings" class="wroughtIron" d="M1538.4,203.6c-18.8,0.2-39.1,6.5-39.1,6.5
			s2.2-62.7,1.2-67.2c-0.3-1.4-3.9-4.2-5.1-7.9c-1-3.4,0.1-7.7,6-7.8c12.4-0.2,2.9,10,3.1,13.2c0.3,7.9-3.6,55.6,0.2,59.7
			c2.6,2.8,41.3,2.2,54.9-1.3c-0.7-13.7-0.6-37.4,0.8-52.7c-0.2-4.2-5.5-5.3-5.8-9.3c-0.4-4,6.1-7.2,10.2-4.9c7.3,4-2.5,8.8-1.3,12.9
			c2.7,18.8,2.2,40.3,3.1,53.1c0.5,6.7,3.1,11.3,3.1,11.3S1554.5,203.4,1538.4,203.6z" />
		<path id="universityEastTowerRoof" class="roof" d="M1507,186.5c0,0-0.4-10.2,4-18.5c10-13,21.5-29.5,21.5-29.5
			s8.7,9.9,15.5,22c6.5,11.6,11,25.5,11,25.5L1507,186.5z" />
		<path id="universityEastTowerFace" class="face" d="M1573.5,547.5c-4.7,0.2-10.7-1.8-16-1.5
			c-12.4,0.6-25.6,3.9-37.5,5c-14.9,1.4-29.7,1.2-35,1.5c-16,1-15-13-15.5-28s0.2-19.5-1-38c-0.3-4.8-2.9-12.4-3-17
			c-0.4-13.7,2.5-25.2,2.5-27.5c0.3-7-0.9-10.3,0.5-12.5c2.6-4.1,8.6-3.7,11.5-11c3.3-8.3,1-28.8,1-33c0-3.6,1.2-24.6,2-49
			c0.4-12.5-0.5-24.4,0-37.5c0.5-15.6,2.6-31.5,3.5-43.5c1-12.6,2-12,2.5-28.5c0.2-6.7,1-12.8,4-17.5c2.1-3.3,6.7-1.8,10-4
			c3.5-2.4-2.8-23,1-24.5c7.6-3,23.8-4.4,37.5-3.5c8.9,0.6,19,0,22,5.5s-2.2,11.5,2,19c3.1,5.5,11.4,3.4,13.5,10.5
			c2.1,7,1.7,17.1,1,22c-1.9,12.6-0.3,18.4,1.5,31c0.5,3.9,1.7,10.5,2,15.5c0.9,14.8,2.7,30,3,47c0.3,15.7-2.8,30.6-1,46.5
			c1.3,11.5,1.5,25.5,3.5,34c1.4,5.9,6.4,4.7,8,6.5c3.1,3.4,3.7,9.2,3,21c-0.4,8-2.3,21.9-2.5,38c-0.3,20.1,1.1,43.2,1,59
			c0,7.8,1.3,14.4,0.5,14.5C1595.5,548,1585.6,546.9,1573.5,547.5z" />
		<path id="universityEastTowerWindows" class="window stainedGlass" d="M1568.5,476.5c0.2,9.1,2.4,19,3,27c0.6,8.7-0.6,15.2-1.5,16
			c-0.9,0.7-12.3-0.8-21,0c-11.6,1.1-22.2,4.5-34,4.5c-10,0-15.2-1.2-16.5-2.5c-2.1-2.1-0.4-18.3,1-35c1.3-15.5,2.1-31.4,3.5-34.5
			c1.5-3.2,6.5-27,34-25.5c11,0.6,17.2,1.9,22,5.5c7.3,5.4,10.2,14,11,16.5C1571,451.8,1568.3,462.9,1568.5,476.5z M1567.5,382.5
			c-1.2,2.5-13.4-1.3-22.5,0c-17.9,2.6-34,11.5-38,9c-1.2-0.7-2.2-13.9-2-30.5c0.4-39.5,3.5-97.5,4-103.5s7.9-13.4,14.5-25.5
			c5.5-10.1,8.9-19.2,17.5-19c9,0.2,11.8,10.5,15.5,21c4.1,11.6,6,18.5,8.5,23.5S1571,375,1567.5,382.5z" />
		<path id="universityWestHouseCrenelations" class="stone" d="M54,323.3c0,0-6.5-9.1-7-27.5
			c-0.1-3.8,0.9-7.5,1.8-10.8c0.8-3.5,1.5-6.4,1.8-7c0,0,10-3.8,11.5-1.3c-0.5,22.5,14.5,17.8,14.5,17.8l96,0.5c0,0,5.9-3.8,9-9
			c2.6-4.4,2.5-10.5,2.5-10.5s3.2-1.8,5.8-2.3c4.7-0.9,9.3-1.3,9.3-1.3s0.6,13.7-0.8,24.3c-1.3,9.7-2.5,11.3-4.3,14.8
			c-1.2,2.4-3.3,8-3.3,8L54,323.3z" />
		<path id="universityWestHouseFace" class="face" d="M195.5,392c2.2,71.7,2,164.7-5.5,174c-5.1,6.4-29,6.4-56,7.5
			c-16.9,0.7-35.2,2.6-50.5,2.5c-17.7-0.1-31.5-2.5-35.5-5c-2.8-1.8,2-14.8,2-34c0-10.9-2-22-3-36c-1.1-14.8-1.2-32.8-1-49
			c0.1-12-0.7-24.1-1.6-35.9c-0.9-12.4-1.8-24.3-1.5-35.3c0.2-7.1-1.6-17.1-1.5-23.3c0.5-14.8,3-27.1,6-36.5c2-6.1,3.5-10,3.5-10
			s137.5-10,139.5-2C191.3,312,194.2,348.5,195.5,392z" />
		<path id="universityWestHouseRoof" class="roof" d="M187.5,312.5c-8-1.1-19.9-0.3-34,0c-4.4,0.1-9.8,1.9-14.5,2
			c-7.2,0.2-15.2-1.8-22.5-1.5c-36.4,1.4-70.7,5.6-70.5,6c0,0,3-10.5,4.5-10.5c0,0,11.6-6.9,20-18c4-5.3,10.4-7.4,16.5-12.5
			c4.7-3.9,9.1-10.5,12.5-15.5c2.7-3.9,4.7-9.6,7-13.5c11.3-19.6,12-34.5,18-36.5c2.7-0.9,4.4,5.3,7.5,11c2.3,4.3,4,2.9,7,8
			c1.9,3.3,1.1,9.6,3,13.5c2.8,3.5,11.2,9.6,14,14.5c2.9,5.2,4.2,12.3,7.5,16C180.4,294.4,184,296,193,302s4.3,9,4.5,13.8
			C196.9,316.3,193.1,313.3,187.5,312.5z" />
		<path id="universityWestHouseWindows" class="window stainedGlass" d="M158.8,349.5c0.1,5.6-1.2,12.4-1.3,20
			c-0.1,10.5,1,22.4,1.8,32.5c1.5,20.4,4.8,28.3,0.3,31.8s-30.5,4-32.3,1.8c0,0-1.9-2-1-7.8c0.5-3,4.5-5.8,5.5-10.3
			c1.4-6.2-0.1-14.7,0.3-22c0.6-14.4-1.6-33.3-0.8-44c0.8-9.1,4.3-15.3,4.3-15.3s21,1.3,21.3,1.3C156.8,337.5,158.6,342.2,158.8,349.5
			z M128.8,539.5c1.7-9.3,4.9-23.2,6.5-37.3c0.8-6.7-1-16.3-0.8-21.5c0.3-5.9,2.5-7,2.5-7l28-3.5c0,0-1.3,16-0.5,28.5
			c1.4,21.3,5.3,44,5.3,44s-10.3,0.8-18.3,5.3c-8.4,1.2-17.3,0-17.3,0S128.4,548.7,128.8,539.5z M101,487.8
			c-1.4,19.8-4.8,47.8-5.8,60.5c-0.3,4.5-1.3,8.3-1.3,8.3s-22.8,0.3-22.8-0.3c0-0.3,1.8-22.9,1.8-45c0-8.6-0.6-17.5-1.3-24.3
			c-0.8-7.4-0.4-12.6,0.3-13.8c0.7-1.3,3.2-3.1,6.8-3.5c2.7-0.3,6.1,0.7,9,0c7.4-1.8,13.5-5.3,13.5-5.3S102,473.7,101,487.8z
			M94.8,358.5c0.5,3.3,4,6.7,4,10.8c0,7.5-3.1,22.4-3.5,30.8c-1,23.2,0,39.5,0,39.5s-5.6-2-12-1.8c-8.1,0.3-17.5,3-17.5,3
			s2.2-15.2,2.3-30.5c0.1-24.6-2-54-2-54s10.4-2,18.5-5.3c5.9-2.4,10.3-6.3,10.3-6.3S93.6,350.3,94.8,358.5z M140.8,280.8
			c-0.7,8.4,0,19.8,0,19.8s-8-0.1-15.3,0c-5.9,0.1-11.3,0.3-11.3,0.3s2.6-12.1,3-21.5c0.3-6-1.5-11-1.5-11s6.4,2,13.8,1.3
			c6.6-0.6,14.3-4,14.3-4S141.5,271.7,140.8,280.8z M126.3,272.5c0,0.3-0.9,5.5-0.8,10.5c0.2,4.7,1.5,9.3,1.5,9.3" />
		<path id="universityEastHouseCrenelations" class="stone" d="M2354,301.3c0,0,6.5-9.1,7-27.5
			c0.1-3.8-0.9-7.5-1.8-10.8c-0.9-3.5-1.5-6.4-1.8-7c0,0-10-3.8-11.5-1.3c0.5,22.5-14.5,17.8-14.5,17.8l-96,0.5c0,0-5.9-3.8-9-9
			c-2.6-4.4-2.5-10.5-2.5-10.5s-3.2-1.8-5.8-2.3c-4.7-0.9-9.3-1.3-9.3-1.3s-0.6,13.7,0.8,24.3c1.3,9.7,2.5,11.3,4.3,14.8
			c1.2,2.4,3.3,8,3.3,8L2354,301.3z" />
		<path id="universityEastHouseFace" class="face" d="M2211.5,373c-2.2,71.7-2,164.7,5.5,174c5.1,6.4,29,6.4,56,7.5
			c16.9,0.7,35.2,2.6,50.5,2.5c17.7-0.1,31.5-2.5,35.5-5c2.9-1.8-2-14.8-2-34c0-10.9,2-22,3-36c1.1-14.8,1.2-32.8,1-49
			c-0.1-12,0.7-24.1,1.6-35.9c0.9-12.4,1.8-24.3,1.5-35.3c-0.2-7.1,1.6-17.1,1.5-23.3c-0.5-14.8-3-27.1-6-36.5c-2-6.1-3.5-10-3.5-10
			s-137.5-10-139.5-2C2215.8,293,2212.8,329.5,2211.5,373z" />
		<path id="universityEastHouseRoof" class="roof" d="M2221.5,291.5c8-1.1,19.9-0.3,34,0c4.4,0.1,9.8,1.9,14.5,2
			c7.2,0.2,15.2-1.8,22.5-1.5c36.4,1.4,70.7,5.6,70.5,6c0,0-3-10.5-4.5-10.5c0,0-11.6-6.9-20-18c-4-5.3-10.4-7.4-16.5-12.5
			c-4.6-3.9-9.1-10.5-12.5-15.5c-2.7-3.9-4.7-9.6-7-13.5c-11.3-19.6-12-34.5-18-36.5c-2.7-0.9-4.4,5.3-7.5,11c-2.3,4.3-4,2.9-7,8
			c-1.9,3.3-1.1,9.6-3,13.5c-2.8,3.5-11.2,9.6-14,14.5c-2.9,5.2-4.2,12.3-7.5,16c-16.9,18.9-20.5,20.5-29.5,26.5s-4.3,9-4.5,13.8
			C2212.1,295.3,2215.9,292.3,2221.5,291.5z" />
		<path id="universityEastHouseWindows" class="window stainedGlass" d="M2249.3,327.5c-0.1,5.6,1.2,12.4,1.3,20
			c0.1,10.5-1,22.4-1.8,32.5c-1.5,20.4-4.8,28.3-0.3,31.8s30.5,4,32.3,1.8c0,0,1.9-2,1-7.8c-0.5-3-4.5-5.8-5.5-10.3
			c-1.4-6.2,0.1-14.7-0.3-22c-0.6-14.4,1.6-33.3,0.8-44c-0.8-9.1-4.3-15.3-4.3-15.3s-21,1.3-21.3,1.3
			C2251.2,315.5,2249.4,320.2,2249.3,327.5z M2279.3,517.5c-1.7-9.3-4.9-23.2-6.5-37.3c-0.8-6.7,1-16.3,0.8-21.5c-0.3-5.9-2.5-7-2.5-7
			l-28-3.5c0,0,1.3,16,0.5,28.5c-1.4,21.3-5.3,44-5.3,44s10.3,0.8,18.3,5.3c8.4,1.2,17.3,0,17.3,0S2279.6,526.7,2279.3,517.5z
			M2307,465.8c1.4,19.8,4.8,47.8,5.8,60.5c0.4,4.5,1.3,8.3,1.3,8.3s22.8,0.3,22.8-0.3c0-0.3-1.8-22.9-1.8-45c0-8.6,0.6-17.5,1.3-24.3
			c0.8-7.4,0.4-12.6-0.3-13.8c-0.7-1.3-3.2-3.1-6.8-3.5c-2.7-0.3-6.1,0.7-9,0c-7.4-1.8-13.5-5.3-13.5-5.3S2306,451.7,2307,465.8z
			M2313.3,336.5c-0.5,3.3-4,6.7-4,10.8c0,7.5,3.1,22.4,3.5,30.8c1,23.2,0,39.5,0,39.5s5.6-2,12-1.8c8.1,0.3,17.5,3,17.5,3
			s-2.2-15.2-2.3-30.5c-0.1-24.6,2-54,2-54s-10.4-2-18.5-5.3c-5.9-2.4-10.3-6.3-10.3-6.3S2314.4,328.3,2313.3,336.5z M2267.3,258.8
			c0.7,8.4,0,19.8,0,19.8s8-0.1,15.3,0c5.9,0.1,11.3,0.3,11.3,0.3s-2.6-12.1-3-21.5c-0.3-6,1.5-11,1.5-11s-6.4,2-13.8,1.3
			c-6.6-0.6-14.3-4-14.3-4S2266.5,249.7,2267.3,258.8z M2281.8,250.5c0,0.3,0.9,5.5,0.8,10.5c-0.2,4.7-1.5,9.3-1.5,9.3" />
		<path id="universityWestTurretNeck" class="face shade" d="M322,297c0,0,3.2-16.6,4.7-31.3c1.2-12.6,1-17.3,1-17.3
			l81.7-4.3c0,0,0.3,8.2,2.3,18c2.8,13.8,7.7,30.7,7.7,30.7L322,297z" />
		<path id="universityWestTurretCrown" class="crown" d="M387.3,248.5c-12.6,0.3-27.7,0.3-37.5,0.8
			c-21,1.1-21,3.3-23.1,2.1c-1.2-0.7,0.3-6.3,0.6-14.8c0.3-8,1.8-17.4,2.3-28.8c0.3-8.8-0.7-20-0.8-29.3c-0.1-8.7,0.8-15.4,0.8-22.8
			c-0.1-15.8-2.6-26.1-3.5-26.4c2.5-1.6,7.9,4.9,14.8,14.7c1.2,1.7,3,4.9,4.3,6.8c2.6,3.7,0.4,13.4,2.3,17.5c1.5,3.4,7.1,1.6,8.8,1.5
			c3.1-0.1,7.5-2.8,9.3-9.5c1.5-5.7,0.9-9.8,1.3-16.8c0.1-2.4-4.4-9.3-5-11.5c-0.6-2.1-0.7-5.9,0.4-10.4c0.5-2.1,2.1-4,2.5-6.5
			c1-7.3,0.4-16.9,1.6-24.5c1.3-7.6-1.3-15.4,2-19.6c3.3,3.8,0.4,9.3,1.5,16.4c1.2,7.3-0.4,20,0.6,27.7c0.4,3.1,2.3,2.9,3,5
			c1.4,4.3,1.6,9.6,1.1,11.6c-0.9,4-3.3,8.9-2,12.8c4.2,12.7,9.5,23.3,16.4,21.5c3.8-1,1.6-13.8,4.6-25c2.4-8.9,9.5-16.3,16-20
			c-0.1,6.2-1.3,11.2-1.8,15.8c-0.9,9.1-1.3,16.9-1,32.3c0.5,23.4-0.3,44.7,1.3,59.8c0.9,8.6,4.8,16.6,4.3,17.9
			C411.6,247.6,400.8,248.2,387.3,248.5z" />
		<path id="universityWestTurretFace" class="face" d="M294.5,506l3.2,22.7c0,0,16,8.5,23,11.7c7,3.2,63.7,2.8,74.3-1
			c10.7-3.8,22-19.7,22-19.7s-2.2-9.7-3.3-21c-1.4-14-1.7-30.2-1.7-30.2s3.8-45.1,6-88.8c2.3-44.5,4-81.3,3-87.7
			c-0.7-4.6-8.3-9.1-17.7-21c-3.5-4.4-6.5-10.4-10.7-16.3c-3.9-5.7-13.3-13.2-16.3-19.3c-4.4-8.9,1.9-25.3-1-32.3
			c-1.8-4.5,11.7,0.3,10.3-3c-0.7-1.6-8.7-3.9-10.3-7.3c-3.2-6.6-3.7-17.7-3.7-17.7l-2.3,18c-1.4,1.5-8.5,4.7-10.7,5.3
			c-1.1,2.5,11.8,2.2,10.7,5c-2.8,6.7,1.2,22.3-2.7,30c-16,31.5-45.2,58.2-45.2,58.2L294.5,506z" />
		<path id="universityWestTurretDoor" class="door wood" d="M326.3,474.3c-2.2,21.7,0.8,46.3,0.8,46.3s4.5-0.9,13-0.5
			c4,0.2,8.2,1.5,13.3,1.5c3.4,0,7.6-1.2,10.5-1c9.9,0.7,16.4,2.3,16.5,2.3c0,0,5.1,0.1,5.8-3.3c0.6-2.8,0.6-5.3,2-9.8
			c1-3.2,3.3-8.1,3.8-11.8c2.5-20.5,2-45.4,1.8-45.3c-0.1,0.1-3.7-3.8-7-9c-1.7-2.7-1.3-6.6-4.5-8.8c-11.5-7.8-27.5-10-27.5-10
			s-9.4-4.4-13.5-2.3c-3.5,1.8-5.4,9.4-5.3,9.5C335.9,432.4,328.5,451.9,326.3,474.3z" />
		<path id="universityWestTurretStepsOuter" class="steps stone" d="M385,538.9c-4-4.9-2.9-5.6-5.3-7.6
			c-0.6-0.5-5.5,0.7-10.7,0.5c-14.4-0.5-34.7-4-38.7-1.6c-4,2.4-10.4,8-10.4,8l-10.9,7.3c0,0,88.7,5.1,88.5,4.4
			C397.4,549.1,389,543.8,385,538.9z" />
		<path id="universityWestTurretStepsInner" class="steps stone shade" d="M389.3,528.3c0,0-0.4-9.8-5.4-15.8
			c-1.5-1.8-10.4-4.7-22.7,0.7c-7.5-0.1-14.8-2.6-19.1-4c-7.4,0.2-3.3,0.1-8.4,1.3c-3.8,0.9-5,4.1-6,5.1c-4.9,4.7-6.6,8.9-6.6,8.9
			L389.3,528.3z" />
		<path id="universityWestTurretWindows" class="window stainedGlass" d="M339.3,394c-1.5,5.5-5.4,4.7-7.7,8.5
			c-4.3,7.1-7,16.2-7,16.2s9.3-16.4,14-17.7c4.7-1.3,37.1,0,47.3,0.7c10.2,0.7,16.5,21.1,16.5,21.1s-0.7-10.7-3.5-17.5
			c-2.8-6.8-5.5-3.1-6.3-6.3c-0.7-3.3,15.6-87-5.4-94.3c-7.8-2.7-17.9,7.8-20.8,24.5c-2.4,13.8-1.7,29.5-3.1,42.7
			c-1.5,13.9-1.5,25.5-2.5,25.8c-3,0.7,9.7-89.7-7.3-87.3C336.7,312.7,347.9,361.9,339.3,394z" />
		<path id="universityEastTurretNeck" class="face " d="M2100,299c0,0-3.2-16.6-4.7-31.3c-1.2-12.6-1-17.3-1-17.3
			l-81.7-4.3c0,0-0.3,8.2-2.3,18c-2.8,13.8-7.7,30.7-7.7,30.7L2100,299z" />
		<path id="universityEastTurretCrown" class="crown" d="M2035.8,249.5c12.6,0.3,27.7,0.3,37.5,0.8
			c21,1.1,21,3.3,23.1,2.1c1.2-0.7-0.3-6.3-0.6-14.8c-0.3-8-1.8-17.4-2.3-28.8c-0.3-8.8,0.7-20,0.8-29.3c0.1-8.7-0.8-15.4-0.8-22.8
			c0.1-15.8,2.6-26.1,3.5-26.4c-2.6-1.6-7.9,4.9-14.8,14.7c-1.2,1.7-3,4.9-4.3,6.8c-2.6,3.7-0.4,13.4-2.3,17.5
			c-1.5,3.4-7.1,1.6-8.8,1.5c-3.1-0.1-7.5-2.8-9.3-9.5c-1.5-5.7-0.9-9.8-1.3-16.8c-0.1-2.4,4.4-9.3,5-11.5c0.6-2.1,0.7-5.9-0.4-10.4
			c-0.5-2.1-2.2-4-2.5-6.5c-1-7.3-0.4-16.9-1.6-24.5c-1.3-7.6,1.3-15.4-2-19.6c-3.3,3.8-0.4,9.3-1.5,16.4c-1.2,7.3,0.4,20-0.6,27.7
			c-0.4,3.1-2.3,2.9-3,5c-1.4,4.3-1.6,9.6-1.1,11.6c0.9,4,3.3,8.9,2,12.8c-4.2,12.7-9.5,23.3-16.4,21.5c-3.8-1-1.6-13.8-4.6-25
			c-2.4-8.9-9.4-16.3-16-20c0.1,6.2,1.3,11.2,1.8,15.8c0.9,9.1,1.3,16.9,1,32.3c-0.5,23.4,0.3,44.7-1.3,59.8
			c-0.8,8.6-4.8,16.6-4.3,17.9C2011.4,248.6,2022.2,249.2,2035.8,249.5z" />
		<path id="universityEastTurretFace" class="face" d="M2127.5,509l-3.2,22.7c0,0-16,8.5-23,11.7
			c-7,3.2-63.7,2.8-74.3-1c-10.7-3.8-22-19.7-22-19.7s2.2-9.7,3.3-21c1.4-14,1.7-30.2,1.7-30.2s-3.8-45.1-6-88.8
			c-2.3-44.5-4-81.3-3-87.7c0.7-4.6,8.3-9.1,17.7-21c3.5-4.4,6.5-10.4,10.7-16.3c3.9-5.7,13.3-13.2,16.3-19.3c4.4-8.9-1.9-25.3,1-32.3
			c1.8-4.5-11.7,0.3-10.3-3c0.7-1.6,8.7-3.9,10.3-7.3c3.2-6.6,3.7-17.7,3.7-17.7l2.3,18c1.4,1.5,8.5,4.7,10.7,5.3
			c1.1,2.5-11.9,2.2-10.7,5c2.8,6.7-1.2,22.3,2.7,30c16,31.5,45.2,58.2,45.2,58.2L2127.5,509z" />

		<path id="universityEastTurretDoor" class="door wood" d="M2094.8,475.3c2.2,21.7-0.8,46.3-0.8,46.3s-4.5-0.9-13-0.5
			c-4,0.2-8.2,1.5-13.3,1.5c-3.4,0-7.6-1.2-10.5-1c-9.9,0.7-16.4,2.3-16.5,2.3c0,0-5.1,0.1-5.8-3.3c-0.6-2.8-0.6-5.3-2-9.8
			c-1-3.2-3.3-8.1-3.8-11.8c-2.5-20.5-2-45.4-1.8-45.3c0.2,0.1,3.7-3.8,7-9c1.7-2.7,1.3-6.6,4.5-8.8c11.5-7.8,27.5-10,27.5-10
			s9.4-4.4,13.5-2.3c3.5,1.8,5.4,9.4,5.3,9.5C2085.1,433.4,2092.5,452.9,2094.8,475.3z" />
		<path id="universityEastTurretStepsOuter" class="steps stone" d="M2037,541.9c4-4.9,2.9-5.6,5.3-7.6
			c0.6-0.5,5.5,0.7,10.7,0.5c14.4-0.5,34.7-4,38.7-1.6c4,2.4,10.4,8,10.4,8l10.9,7.3c0,0-88.7,5.1-88.6,4.4
			C2024.6,552.1,2033,546.8,2037,541.9z" />
		<path id="universityEastTurretStepsInner" class="steps stone shade" d="M2032.7,530.3c0,0,0.4-9.8,5.5-15.8
			c1.5-1.8,10.4-4.7,22.7,0.7c7.5-0.1,14.8-2.6,19.1-4c7.4,0.2,3.3,0.1,8.4,1.3c3.8,0.9,5,4.1,6,5.1c4.9,4.7,6.5,8.9,6.5,8.9
			L2032.7,530.3z" />
		<path id="universityEastTurretWindows" class="window stainedGlass" class="glass stainedGlass" d="M2082.7,394c1.5,5.5,5.4,4.7,7.7,8.5c4.3,7.1,7,16.2,7,16.2
			s-9.3-16.4-14-17.7c-4.7-1.3-37.2,0-47.3,0.7c-10.2,0.7-16.6,21.1-16.6,21.1s0.7-10.7,3.6-17.5c2.8-6.8,5.6-3.1,6.3-6.3
			c0.7-3.3-15.6-87,5.4-94.3c7.8-2.7,17.9,7.8,20.8,24.5c2.4,13.8,1.7,29.5,3.1,42.7c1.5,13.9,1.5,25.5,2.4,25.8
			c3,0.7-9.7-89.7,7.3-87.3C2085.3,312.7,2074.1,361.9,2082.7,394z" />
		<path id="universityMainFace" class="face"
			d="M1395.7,192.4c-0.2,15.6-0.8,35.4-0.4,54.6
			c0.2,10.4,1.7,19.6,1.6,30.2c-0.1,17.3,1.1,31.8,0.9,49.8c-0.1,13.6-3.3,38.9-3.5,52.5c0.5,51.3,0.3,99.2-0.1,134.8
			c-0.1,5.6-1.9,15.5-2,20.4c-0.3,27.8,3.5,35.7,0,39c-1.1,1-14.1-1-25.3,0.3c-12.9,1.6-27.6,0.2-39,2.7c-4.7,1-8.6,2-11.8,3.5
			c-4,1.9-6.7,4.2-7.2,3.3c-1.7-3.5-4-10.5-6.7-15.2c-0.8-1.4-16.1,3.4-46.7,2.6c-13.2-0.4-36.1-4.9-51.3-5.6
			c-17.5-0.7-36.4-0.2-53.7-1c-12.5-0.6-24-2.5-34.3-2.7c-26.7-0.4-40.7-0.7-43.8,0.8c-1.5,0.7-3.1,1.5-4.5,2.6
			c-1.7,1.3-3.1,2.7-5,2.9c-1.1,0.1-6.3-4.7-18.4-6.2c-10.2-1.3-20.9-0.9-32-1.8c-17-1.4-30.7-1-34.2-4.7c-0.5-0.6,0.3-4.4,2.3-22.7
			c0.3-2.8,7-12.9,7-16c0-7.2-1.5-11.5-1.5-20.1c0-15.6,2.3-38.6,2.2-57.9c-0.1-14.5,1.2-29.4,0.7-45c-0.3-10.2-2.5-20.9-2.7-31.3
			c-0.2-18.5-0.4-37.2-0.7-55.6c-0.1-8.4,1.5-18.5,1.4-26.7c-1-86.9-1.5-152-3.6-159c-0.9-2.9-5.4-1.6-6.4-13.9
			c-0.6-7.2,2.5-26.9,1.8-34c-0.4-4.4-2.4-7.7-3.1-11.6c-0.8-4.5-0.3-9.5,0-10.5c0.6-1.9,3.7-1.4,5.5-2c3.6-1.3,5.6-3.7,8-2.2
			c2.4,1.5,0.7,19.1,1.7,20.8c0.6,1,4.5,0.4,7.7-0.1c2.1-0.3,4.1-0.1,4.4-1.1c0.7-2.5-0.5-15.4,0.9-17.8c0.8-1.4,5.3-0.6,9.3-0.7
			c3.1-0.1,5.4-1.8,6-0.5c0.6,1.3-2,13.5-1.8,16c0.1,1.2,4.1,0.7,8.2,0.4c4.6-0.4,8.7,0.9,9.3-0.9c0,0,1.3-6.1,2-12.2
			c0.4-3.8-0.1-8.1,0.6-9.5c0.9-1.7,3.5,0.7,5.8,1.7c2.6,1.1,4.9-0.6,4.9,0.4c0,1.2-0.4,8.2-0.7,13.3c-0.1,2.4-1,4.5-0.4,5.1
			c0.8,0.9,3-0.1,5.4,0c3,0.1,4.9,2.5,6.1,1c0.5-0.6,0.6-3.3,0.9-6.5c0.5-4.2-0.5-7.5,0.7-9.8c0.6-1.1,3-0.8,5.3-0.7
			c2.8,0.1,5.5,0.2,5.5,0.9c0,0.3-0.2,5.8-1.3,13.6c-0.8,5.6-2.3,12.4-2.7,19.1c-0.7,10.4,0.9,20-0.6,27.6c-1.3,6.7-8.9,8.8-8.9,8.8
			s-0.3,8,0.1,20.3c0.2,5.3,1.3,12.1,1.3,18.4c0,11.7-1.7,25.8-1.6,34.2c0,6.2-0.8,12.8-0.5,13.3c1.2,2.3,14.9,6.4,16.7,3.3
			c0.7-1.1,0-5.3,0.6-9.1c1-6.6,0.6-11.8,2.6-14.4c1.1-1.5,3.7-0.1,6,1.1c1.7,0.9,4,2.4,4,2.4s-0.2,4.8-0.9,8.7
			c-0.5,2.6-2,4.5-1.3,5.3c0.8,0.7,5.4-1.2,10.6-1.8c7.5-0.8,13.8,1.1,16.1-0.6c0.7-0.5,0.3-1.5,0.6-3.2c0.8-4.2,0.1-9.3,1.9-10.3
			c0.8-0.5,3.7-0.4,6.3-0.3c3.2,0.1,6.5-1.2,7.1,0.4c0.5,1.6-1.3,14.4-0.7,15.6c0.3,0.8,6.6,0.2,11.8-0.2c3.2-0.2,6.1,0.1,6.5-0.6
			c0.4-0.8,0.2-2.9,0.4-5.4c0.3-3.5,1.1-7.6,1.1-7.6s7.4,0.4,12.6-0.3c3-0.4,3.8-3.2,4.9-1.7s0.8,10.2,1,12.5
			c0.1,1.1,6.3,0.3,12.1,0.1c6.4-0.1,11.1,2,12.4,0.4c0.6-0.7,1.2-4.2,1.7-8c0.7-5.2,0.2-10.8,2-12.4c0.8-0.7,2.6,2.1,5.1,2.5
			c3.3,0.6,8.5-0.7,8.5-0.7s0.7,5.3,0.9,9.6c0.2,2.5-0.5,4.8,0.2,5.4c0.8,0.6,4.9,0.8,9.4,0.9c6.6,0.2,13.1,1.6,14.1,0.1
			c0.4-0.6-0.3-2.7-0.3-4.9c0-3.9-0.3-8.7,0.5-9.8c0.4-0.5,5.3,0.7,9.1,0.9c4.6,0.3,8.7-1.6,10.4,0.4c0.6,0.8,0,3.9-0.2,6.9
			c-0.1,2.7,0.6,4.7,0.5,6.5c0,1.5-0.9,3.1-0.1,4.1c0.8,1,3.9-0.5,7.2-0.8c4.3-0.4,7.6,2.2,8.8,0.3c0.6-0.9,1-4.9,2.1-8.8
			c1.2-4.4-0.9-5.6,1.6-9.1c0.7-1,3,0.3,4.7,0.4c4.4,0.2,11.1-2,11.1-2s1,6.4,1.6,11.8c0.4,3.5,0.3,6.8,0.8,7.2c0.7,0.6,4.9-0.6,9-0.5
			c4.3,0.1,8.5,1.5,8.5,1.5s1.1-6,0.4-10.8c-0.6-4.4-3-7.5-2.4-8.7c0.6-1.3,4.8-0.6,7.8,0c3.1,0.6,6.4-1.3,8-0.4
			c0.6,0.3-0.3,4-0.4,7.4c-0.1,3.6-0.3,6.1-0.6,8.4c-0.2,1.7-0.5,3.3,0.4,4.4c0.9,1.1,3.8-0.7,7.5-2c4.3-1.6,8.1-1.4,9.6-3.5
			c0.5-0.6-1.3-7.3-1.3-17.6c0-8.2,1.3-16.6,1.4-26.2c0.1-7.3-1.5-12.8-1.6-18.9c-0.2-8.9,0.6-18.5-0.4-20.7c-0.9-2.2-9-1.9-10.4-7.8
			c-1.3-5.8,1-13.8,0.2-21.8c-0.7-6.1-1.7-13.4-2.6-18.7c-1.8-11.1-3.5-18.1-2.7-20.4c0.5-1.5,3.1-1.3,5.1-1.5
			c2.2-0.2,3.7-0.7,4.3-0.2c1,0.9-1,11.9,0.5,13.5c0.7,0.8,4,1.3,7.2,1.6c3.2,0.3,4.2,3,6.3,0.4c0.7-0.8,0.4-3,0.8-5.6
			c0.8-5.3-0.2-10.2,1.7-12.4c1-1.2,4.1-0.1,6.5-0.5c2.1-0.4,3.5-2.3,4-1.1c0.6,1.5,0.7,7.3,0.9,11.6c0.1,3.2,0.2,5.3,1.1,6
			c2,1.6,15,0.5,15,0.5s0.7-3.8,0.8-8.3c0.1-3.9-0.5-8.6,0.7-9.7c1-0.9,2.8,0.8,4.4,1c2.4,0.3,4.2-1.1,4.6-0.5
			c0.2,0.4,0.3,5.7-0.1,10.5c-0.3,3.5-1.2,6.5-0.5,7.8c0.6,1.3,3.3-0.1,6.4,0.2c4.1,0.4,5.3,4,7.5,1.5c1-1.1,1.5-5.8,1.8-10.7
			c0.4-5.9-0.6-11.1,0.4-12.2s9.8,1.5,9.6,3.6c-0.1,0.5-1.9,4.5-2.7,10.5c-0.4,3,0.7,10.7,0.2,14.4c-0.8,6.3-1.8,19.3-2.4,29.2
			c-0.4,6.3-0.2,11.4-1.2,12.6c-1.1,1.3-4.7,2.9-5.4,5.2c-0.9,2.9,0.4,11.9,0.3,15C1397.2,125.6,1396.1,148.2,1395.7,192.4z" />
		<path id="universityMainFaceDetails" class="details" d="M1376,118 c0,0,2.1,2.2,2.2,7.3c0.1,4.9-1.8,12.6-1.8,21.6c-0.1,10,1.4,21.5,1.3,35.3c-0.1,14.9,0.1,31.7-0.2,49.6c-0.1,4.6-1.1,9.4-1.1,14.2
			c0,16.2,1.1,32.9,0.9,50.4c-0.2,18.7-1.2,37.6-1.5,56.6c-0.2,14.5-0.4,28.9-0.6,42.9c-0.1,7.1-3.1,19.9-3.2,26.7
			c-0.4,25.9-2.9,52.9-2.7,72.4c0.2,22.2,1.9,36,2.9,45.1c0.7,5.9,0.8,11,0.8,11M1350.6,270.7c-0.1,0.1-2.9,20-3.8,48.9
			c-0.2,4.4,0.6,9.6,0.5,14.4c-0.2,11.3,1.3,22.6,1.1,35.3c-0.1,6.7-0.8,13.9-0.9,20.7c-0.1,11.1,0.7,19.1,2.7,29.8
			c0.3,12.7-1.6,28.3-1.6,39.8c-0.1,13.5-1.3,26.4-1.3,36.5c0.1,18.5,2.3,30.3,2.7,29.8 M1358.2,118.4c0,0-2.4,15.4-3.1,29.1
			c-0.5,9.2,0.7,18.6,0.7,18.6 M1035.8,120.2c0,0,0.3,8.5,0.7,23.1c0.2,8.1,0.3,17.9,0.9,29.5c0.3,5.7,1.7,11.4,2,17.8
			c0.9,17.5,3.6,38.4,3.8,59.8c0.2,13.2-4.3,28.4-4.2,42.4c0.2,31.3-1.1,64.9-1.3,95.6c0,4.6-2.9,14.3-3,18.8c0,7.9-0.1,15.7-0.1,23.2
			c0,7.6-1.1,15-1.1,22c-0.1,8,1.3,15.4,1.3,22.6c-0.1,7.2-2.7,13-2.7,19.3c-0.1,26.3,1.5,44.2,1.5,44.2 M1013.5,124
			c0,0,1.8,9.6,2.5,22.4c0.3,4.5-1.1,9.7-1.1,14.6c0.1,6.7,1.5,13.1,2,18.2c0.2,2.1,1.8,3.2,2.2,4.9c0.9,4,0.7,7.4,0.7,7.4
			s-1.3,27.1-2,65.8c-0.5,27.2-0.1,60.5-1.1,92.2c-0.3,10.8-3.7,23.7-4,34c-0.4,14.2,1,26.3,0.7,38.5c-0.1,4.6-2.3,10.7-2.4,14.9
			c-0.1,5.6,1.2,9.8,1.1,14.5c2.5,15.8,2.7,30.7,2.7,30.7" />
		<path id="universityMainDoorInner" class="stone shade" d="M1282.3,410c0.4,6.3-0.6,17.2,0,24c1.2,12.7,1.4,38.5,2.7,50.7
			c2.5,23.5,5.8,30.4,4.7,33.7c-0.9,2.6-9.8,2-20.3,3.3c-9.1,1.2-18,5.5-28.3,6.3c-16.2,1.3-33.1-1.4-37-2.7
			c-2.8-0.9-9.2-2.6-17.7-3.3c-7-0.6-14.7,1.3-22.7,1c-14.5-0.5-28.7-2.8-33.3-3c-1.9-0.1-4.7-4.5-4.7-11.7c0-5.3,2.1-9.8,3-17.7
			c0.7-6.6,1.6-13.7,2.7-21.3c2-14.3-1.4-32.1,1-46c4-22.9,12.4-41.7,14-44.3c1.1-1.7,4.7-4.6,9.6-8.1c5.9-4.1,15.1-2.9,23.1-7.3
			c13.8-7.5,26.5-19.6,31.3-18.3c4.8,1.3,21.3,6.3,29.7,19c6.6,3.2,15.4,4,22,6.3c9.3,3.3,15.5,7.7,16.7,10.3
			C1279.7,383.5,1281.4,393.1,1282.3,410z M1236,336.7c8.8,5.6,17.3,14,26.3,19.7c11.3,7.1,22.7,1.8,28.7,13.7
			c5,10.1,8.4,27.4,8.7,43.7c0.3,18-2.7,35.3-1,48.3c3.1,24,5.2,43.4,8.3,55.3c3.1,12.1,7.2,16.7,6,17.7c-0.4,0.4-8.3-2-20-1.7
			c-10.4,0.3-22.9,1.1-38.3,1c-20.6-0.1-45.3-1.1-68-0.7c-19.4,0.4-38.7,3.7-54,4.3c-21.8,0.9-36.2-1-37-1.3c-3-1.3-3.1-5.9-1.7-13.7
			c2.1-11.9,9.3-30,11.3-52.7c1.5-16.5-4.5-35.2,0-52.7c2.9-11.1,2-25.5,7-35.3c7.1-14.1,22.8-22.1,35.7-31
			c16.7-11.5,32.4-17.6,42.3-22.7c6.4-3.3,8.3-7.9,13.7-7.7C1206.3,321.1,1220.4,326.8,1236,336.7z" />
		<path id="universityMainDoorLeft" class="door wood" d="M1117.3,526c0-0.3,14-144.7,14-144.7s70.3-44,71-45
			c0.7-1,6,10.7,5,24.7c0,14.7-1,17.1-2,34.3c-0.8,13.2,0.1,28.4-0.3,34c-1,13-2,20.2-1.3,35.7c0.5,10.4,3.2,17.8,4.7,25
			c1.4,6.9-3,19.7-3,19.7l2,21.3C1207.3,531,1117.3,526.3,1117.3,526z" />
		<path id="universityMainDoorRight" class="door wood"
			d="M1293.3,527c0,0-23.3,3.5-46.7,4.3c-23.1,0.8-46.3-1-46.3-1
			s3.3-1.5,4.3-12.3c0.2-1.8-2.6-5.8-2.3-8c0.5-4.6,3.2-10.8,3.3-17.3c0.2-8.5-3.6-18.9-4-30c-0.5-13.7,0-28.4,0.6-41.8
			c0.4-8.8,0.8-17.1,1-24.2c0.3-10,2.1-19.6,2.3-27.7c0.4-18.1-0.7-26.7-0.7-26.7s16.8-0.4,33.3,7c21.9,9.8,45,28,45,28L1293.3,527z" />
		<path id="universityMainSteps" class="steps stone" d="M1315,552.8c2.5,2.3,4.5,30.3,4.5,30.3
			s-20.2,8.9-41.8,7.3c-48.5-3.6-215-21.8-215-21.8s8.2-12.3,16.8-19c3.4-2.7,10.7-4,11.8-4c3.8,0,4.8,3.3,8,4.5s14.2-0.5,34.3-1.5
			c8.5-0.4,17.8-1.7,28-1.8c7.4,0,14.1,2.1,22,2.3c15.4,0.2,31.4,2,46.5,2.5c23,0.8,46.3-1.6,60-0.3c9.9,1,11,4.3,14.5,5.5
			S1312.5,550.5,1315,552.8z" />
		<path id="universityMainPlaques" class="plaque gold" d="M1309.8,330c-0.5,3.6-1,6-1.6,7.1c-1,1.6-10.5,1-18.5,1.8
			c-5.5,0.5-10.6,2.9-11.1,2.4c-0.5-0.6-0.6-3.3-0.9-6.4c-0.4-4.1-1-8.9-0.3-10.2c0.5-1.1,6.5-2.5,13-4.1c3.5-0.9,6.6-2.1,9.8-2.7
			c4.7-1,9-1.2,9.6-0.6C1310.9,318.3,1310.5,324.9,1309.8,330z M1236.2,293.6c0,4.1-0.2,7.6-0.9,8.5c-0.4,0.5-5,0.4-11.8-0.2
			c-4.7-0.4-10.7-1.3-15.8-0.9c-3.2,0.3-5.6,2.2-8.4,2.9c-7.4,1.8-13.3,2.9-13.6,2.5c-0.8-1-1.5-16.4-0.3-17.9
			c0.4-0.5,6.1-2.2,13.6-2.9c7.1-0.6,16-0.3,23.1-0.4c7.3-0.1,12.8-0.5,13.3-0.1C1236.1,285.9,1236.2,290.1,1236.2,293.6z
			M1131.4,337.3c-0.8,4.5-2,9.5-3.4,10.7c-1.5,1.3-5-0.8-11.8-0.4c-5.6,0.4-14.7,3.5-16.2,3c-1.7-0.6-0.9-7.3-1.1-12.3
			c-0.2-4.5-1.5-7.3-0.7-8.4c0.8-1.1,6-2,13.6-2c1.7,0,5.5,1,7.1,0.9c6.4-0.2,12.1-1.6,12.9-0.7C1132.8,329.2,1132.3,333,1131.4,337.3
			z" />
		<path id="universityMainWindows" class="window stainedGlass" d="M1157.5,232.5c-0.2,5.8-2,13.9-2.3,19c-0.2,5,0.5,7.8-0.3,8.5
			c-1.1,1-13.4-0.1-29.8,0c-4.9,0-11.8,1.8-16.8,1.8c-5.1-0.1-11.6-1.5-16-1.5c-9.4-0.1-16.3,2.2-17,1.5c-2.5-2.5,0.3-10.8-0.8-20
			c-1-8.4-3.9-13.8-2.8-15.8c1.2-1.9,4.4,0.3,8.3,1.3c4.5,1.1,10.1,1.1,17.8,0.5c13.5-4.8,32.5-6.3,44.8-7c7.7-0.4,13-2,13.8-1.3
			C1159.8,222.5,1157.8,224.5,1157.5,232.5z M1347.5,251.3c-2.1,0.4-5.5-0.3-8,0.3c-4.3,0.9-9.1-0.1-14,1c-5.5,1.3-9.1,3.3-14.5,4.8
			c-6.6,1.5-14.3,2.9-20,4.3c-5.5,1.3-9,2.7-10.3,1.5c-2.5-2.5-0.3-7.5-1.3-14.3c-0.8-6-2.6-13-3.5-19c-1.3-8.6-4.5-10-1.5-15.3
			c3.9-0.3,9.9,2.4,26,1.5c4.3-0.2,10.5,4.2,15.3,3.8c8.8-0.8,16.1-2.7,23.8-4.5c12.1-2.9,18.3-7.5,22.5-3.3c-1.1,8,0.1,22.4,1,31.6
			c0.5,5,0.5,4.6-2,7.9C1360.5,252.2,1352.8,250.1,1347.5,251.3z" />
		<path id="universityMainClock" class="clock" d="M1228.3,247.3c-1.4,6.4-5.8,12.2-15.3,14.3
			c-8.4,1.8-16.3,1-20.8-2.8c-5.4-4.6-6.4-13-4.8-21.3c3-15,20-27.5,35-11.5C1229.8,233.8,1229.6,241.1,1228.3,247.3z" />
	</g>
</svg>