<?xml version="1.0" encoding="UTF-8" standalone="no"?>
<!DOCTYPE svg PUBLIC "-//W3C//DTD SVG 20010904//EN" "http://www.w3.org/TR/2001/REC-SVG-20010904/DTD/svg10.dtd">

<svg xmlns="http://www.w3.org/2000/svg" width="900" height="288" viewBox="0 0 900 288">
  <g id="warehouse" class="warehouse pointOfInterest">
    <rect id="warehouseGround" class="driveway" x="-100" y="200" width="1200" height="288" />
    <g id="warehouseWest" class="west">
      <path id="warehouseWestFace" class="face" d="M 157.00,205.00
           C 157.00,205.00 146.10,199.85 130.67,200.00
             91.58,200.37 22.67,206.24 22.67,206.00
             22.00,205.00 28.01,185.51 30.00,166.67
             30.80,159.03 28.43,151.74 29.00,146.00
             29.71,138.95 32.28,131.89 32.67,127.67
             33.62,117.18 47.33,123.00 47.33,123.00
             47.33,123.00 154.22,124.33 154.33,124.33
             154.67,124.33 157.00,205.00 157.00,205.00 Z" />
      <path id="warehouseWestBayDoor" class="bayDoor" d="M 119.82,201.64
           C 119.82,201.64 68.18,203.82 68.18,203.82
             68.18,203.82 68.86,198.65 70.55,191.45
             71.99,185.26 74.34,178.27 75.82,173.27
             76.90,169.59 79.45,166.55 79.45,166.55
             79.45,166.55 86.80,164.67 93.82,164.55
             97.13,164.49 99.71,165.15 103.09,165.27
             112.41,165.61 121.64,165.82 121.64,165.82
             121.64,165.82 119.82,201.64 119.82,201.64 Z" />
      <path id="warehouseWestRoof" class="roof" d="M 149.64,138.91
           C 149.64,138.91 137.83,138.52 112.55,138.55
             107.05,138.55 99.89,137.23 92.18,136.36
             80.27,135.03 67.36,133.91 59.64,133.64
             53.89,133.43 47.37,131.52 42.91,131.27
             33.40,130.74 29.73,132.23 29.82,131.27
             30.77,120.79 31.67,116.00 31.67,116.00
             31.67,116.00 54.28,113.67 64.67,113.67
             70.67,113.67 75.74,116.88 82.67,117.00
             87.34,117.08 91.03,116.36 97.64,116.73
             104.24,117.09 107.68,119.67 111.67,119.67
             117.71,119.67 126.27,120.37 131.33,120.00
             145.60,118.95 149.89,116.18 150.00,116.18
             150.33,116.18 149.64,138.91 149.64,138.91 Z" />
    </g>
    <g id="warehouseMiddle" class="middle">
      <path id="warehouseMiddleFace" class="face" d="M 297.25,219.75
           C 297.25,219.75 289.10,217.93 276.25,217.00
             265.58,216.23 251.76,216.26 235.75,216.75
             223.94,217.11 212.09,220.68 199.25,222.25
             185.44,223.94 170.75,223.64 161.75,224.00
             149.42,224.49 140.50,226.00 140.50,226.00
             140.50,226.00 138.59,218.37 138.50,208.25
             138.36,193.03 138.97,167.23 139.25,148.00
             139.54,127.93 139.50,114.75 139.50,114.75
             139.50,114.75 292.25,119.25 292.25,119.25
             292.25,119.25 297.25,219.75 297.25,219.75 Z" />
      <path id="warehouseMiddleRoof" class="roof" d="M 304.25,129.25
           C 304.25,129.16 291.39,128.99 267.75,127.50
             258.52,126.92 244.66,124.49 233.75,124.25
             226.15,124.08 215.45,124.68 207.75,124.75
             195.38,124.86 187.69,128.42 176.50,129.50
             158.98,131.18 140.43,130.55 139.75,130.00
             137.00,127.75 140.75,105.00 140.75,105.00
             140.75,105.00 150.45,106.65 164.75,107.25
             176.13,107.73 194.05,105.98 209.25,106.50
             216.03,106.73 224.76,108.44 231.50,108.75
             243.82,109.32 255.76,110.56 266.00,111.00
             287.03,111.90 301.50,111.75 301.50,111.75
             301.50,111.75 304.25,129.50 304.25,129.25 Z" />
    </g>
    <g id="warehouseEast" class="east">
      <path id="warehouseEastSkylights" d="M 546.00,107.67
           C 546.00,107.67 544.00,71.67 544.00,71.67
             569.33,71.00 582.50,102.12 582.00,116.33
             582.00,116.33 580.67,75.67 580.67,75.67
             627.33,77.33 629.25,111.88 630.67,119.33
             630.67,119.33 627.33,80.67 627.33,80.67
             652.62,81.38 670.25,100.88 672.00,106.33
             672.00,106.33 670.00,70.00 670.00,70.00
             705.67,70.67 712.67,109.00 712.67,109.00
             712.67,109.00 710.00,74.00 710.00,74.00
             748.00,77.50 750.75,109.75 751.67,115.67
             751.67,115.67 749.00,75.00 749.00,75.00
             779.33,80.00 795.33,116.67 795.33,116.67
             795.33,116.67 546.00,107.67 546.00,107.67 Z" />
      <path id="warehouseEastFace" class="face" d="M 859.45,250.00
           C 859.01,250.28 841.00,248.08 812.18,247.09
             803.21,246.78 792.42,246.75 781.45,246.36
             767.07,245.86 751.80,243.70 734.73,243.09
             714.00,242.35 691.58,241.55 668.20,240.74
             661.77,240.52 655.66,242.97 648.91,243.82
             634.92,245.58 619.95,246.66 606.00,246.18
             595.37,245.82 585.24,248.79 574.55,248.36
             560.07,247.78 547.61,244.55 533.27,243.82
             511.07,242.68 489.43,242.87 468.36,241.64
             441.01,240.03 414.54,236.96 391.27,235.27
             380.06,234.46 368.16,232.33 358.36,231.64
             336.90,230.12 319.06,229.98 306.73,229.45
             293.45,228.89 286.50,228.00 286.50,228.00
             286.50,228.00 286.13,219.62 286.55,206.55
             286.82,197.83 288.44,190.20 288.91,178.91
             289.89,155.03 289.93,125.34 290.73,108.55
             291.16,99.53 289.35,92.96 290.00,91.50
             290.37,90.66 298.30,90.97 311.64,91.09
             324.40,91.21 340.00,93.03 361.64,93.82
             395.80,95.06 438.89,98.53 486.00,100.73
             502.14,101.48 529.43,96.31 546.18,97.09
             567.82,98.10 591.13,102.78 612.55,104.00
             628.96,104.93 646.98,102.81 664.73,102.36
             688.11,101.78 711.09,102.73 730.00,103.82
             760.39,105.56 785.97,109.07 806.91,111.45
             843.27,115.59 863.05,117.41 865.45,120.18
             867.86,122.95 862.00,248.36 859.45,250.00 Z" />
      <path id="warehouseEastDoors" class="door" d="M 333.38,199.00
           C 333.70,212.14 337.00,229.25 337.00,229.25
             337.00,229.25 310.38,230.75 307.67,229.33
             306.62,228.79 307.08,220.42 307.25,211.88
             307.38,205.51 307.10,197.86 307.38,192.12
             307.68,185.61 308.55,181.37 309.00,180.50
             309.80,178.95 316.59,179.46 322.88,179.88
             328.25,181.25 331.85,179.85 332.67,181.33
             333.47,182.78 333.15,189.89 333.38,199.00 Z
           M 598.00,245.33
           C 598.00,245.33 597.57,239.06 597.00,230.50
             596.14,217.71 595.25,200.49 597.38,196.88
             598.77,194.50 602.36,195.30 607.25,194.75
             614.80,193.89 618.42,193.50 621.38,194.88
             624.33,196.25 623.05,200.68 623.12,209.75
             623.24,224.09 623.75,245.12 623.75,245.12
             623.75,245.12 598.00,245.33 598.00,245.33 Z
           M 816.33,247.33
           C 816.33,247.22 816.19,241.11 816.62,233.88
             816.97,228.15 817.88,221.91 818.12,216.00
             818.44,208.28 817.92,202.21 818.38,201.25
             819.07,199.78 826.31,200.70 832.50,201.00
             837.39,201.24 841.50,200.49 842.12,202.12
             843.54,205.83 839.91,223.99 839.12,238.25
             838.80,244.19 839.67,247.33 839.67,247.33
             839.67,247.33 816.33,247.67 816.33,247.33 Z" />
      <path id="warehouseEastSteps" class="steps" d="M 350.88,224.12
           C 351.39,223.60 352.09,227.02 352.38,231.75
             352.38,237.40 351.63,244.87 346.62,251.12
             346.09,253.55 344.95,251.37 344.00,253.50
             340.40,261.63 345.12,265.12 341.38,267.50
             337.62,269.88 333.80,266.39 326.25,266.62
             321.25,266.78 315.65,268.77 314.50,267.62
             311.62,264.75 316.38,253.25 316.25,253.25
             316.12,253.25 309.38,255.62 307.25,253.50
             305.12,251.38 309.53,245.15 308.25,240.50
             307.72,238.58 304.75,240.50 303.75,238.75
             302.75,237.00 304.62,229.25 305.12,227.38
             305.62,225.50 350.88,224.12 350.88,224.12 Z
           M 310.50,238.75
           C 310.61,238.71 314.78,237.16 319.75,237.00
             324.34,236.85 330.19,237.76 335.38,237.88
             343.29,238.05 349.88,237.50 349.88,237.50M 319.88,252.12
           C 319.93,252.12 324.46,252.69 328.75,252.50
             331.16,252.40 332.77,251.50 334.75,251.25
             337.36,250.92 340.00,251.25 340.00,251.25M 609.50,251.50
           C 602.52,251.68 596.00,251.25 596.00,251.25
             596.00,251.25 593.88,246.38 595.12,244.62
             596.38,242.88 625.50,243.50 625.75,244.38
             626.00,245.25 627.25,249.12 626.25,250.50
             625.25,251.88 616.89,251.31 609.50,251.50 Z
           M 828.75,252.62
           C 821.95,252.12 815.25,252.00 815.25,252.00
             815.25,252.00 814.38,246.50 815.12,245.50
             815.51,244.99 822.13,245.80 828.75,246.12
             835.12,246.44 841.50,246.25 841.50,246.25
             841.50,246.25 843.12,251.75 841.50,253.25
             840.74,253.95 834.67,253.06 828.75,252.62 Z" />
      <path id="warehouseEastBayDoors" class="bayDoor" d="M 418.62,211.88
           C 418.81,200.51 420.54,185.60 421.12,173.75
             421.76,160.71 420.88,152.75 421.25,151.25
             421.62,149.75 427.34,151.40 432.12,151.50
             438.02,151.63 446.06,152.06 454.50,152.25
             461.80,152.41 468.39,154.16 474.62,154.25
             483.29,154.38 487.25,150.62 490.50,152.88
             491.16,153.33 493.98,156.99 494.88,162.75
             495.57,167.21 496.81,172.53 497.25,178.25
             497.58,182.49 497.11,186.85 497.50,191.75
             497.96,197.64 499.70,203.80 500.12,209.50
             501.27,224.91 500.88,237.62 500.88,237.62
             500.88,237.62 419.62,232.62 419.88,232.50
             419.97,232.45 418.40,225.82 418.62,211.88 Z
           M 769.62,187.00
           C 769.90,196.72 771.00,208.32 771.38,217.88
             771.64,224.70 770.76,232.18 770.75,237.38
             770.73,244.85 771.50,248.75 771.50,248.75
             771.50,248.75 673.62,240.12 673.62,240.12
             673.62,240.12 674.51,227.68 674.75,210.25
             674.80,206.66 674.39,197.97 674.38,194.12
             674.33,179.86 674.72,169.17 675.38,160.00
             675.79,154.22 678.46,149.54 678.75,149.12
             680.25,147.00 700.26,150.77 722.38,151.00
             743.71,151.22 766.40,149.52 767.62,150.38
             769.30,151.55 769.07,167.26 769.62,187.00 Z" />
      <path id="warehouseEastDocks" class="checkerPlate" d="M 502.38,239.88
           C 502.23,243.64 502.88,247.00 501.62,247.62
             501.30,247.79 489.50,245.26 481.50,245.38
             466.76,245.58 447.97,244.72 434.88,245.62
             427.34,246.15 420.84,249.05 420.25,248.50
             419.48,247.79 420.25,244.77 419.88,238.50
             419.79,237.10 418.77,234.42 418.62,232.88
             418.02,226.61 417.95,221.12 418.00,221.12
             418.01,221.12 421.63,220.74 425.75,221.12
             427.51,221.29 429.20,222.28 431.00,222.38
             434.02,222.54 437.00,221.96 438.38,222.25
             442.50,223.12 446.12,226.25 450.38,226.50
             454.62,226.75 460.06,227.75 465.12,228.25
             469.88,228.72 475.93,230.02 480.25,230.38
             493.56,231.47 502.25,231.12 502.25,231.12
             502.25,231.12 502.54,235.44 502.38,239.88 Z
           M 768.00,254.88
           C 767.76,256.28 766.41,260.49 766.25,264.25
             766.09,268.18 767.50,270.50 764.38,272.50
             763.97,272.76 760.29,273.54 755.88,273.12
             752.53,272.81 748.71,271.26 745.88,271.50
             739.20,272.06 737.10,275.17 728.00,274.88
             724.94,274.77 722.08,272.63 719.00,272.50
             713.52,272.26 708.97,272.72 703.88,272.25
             692.88,270.00 678.88,267.50 678.00,266.50
             676.89,265.24 678.53,257.17 677.50,252.00
             677.17,250.35 675.62,248.03 675.12,246.62
             673.34,241.57 669.50,240.00 672.00,239.12
             674.50,238.25 773.38,243.88 773.25,243.88
             773.12,243.88 768.50,252.00 768.00,254.88 Z" />
    </g>
    <path id="warhouseWindows" class="glass" d="M 436.73,128.18
           C 436.36,138.17 434.36,149.09 434.36,149.09
             434.36,149.09 422.18,144.29 406.55,144.36
             380.88,144.48 347.96,147.60 329.27,149.09
             322.02,149.67 313.45,149.64 313.45,149.64
             313.45,149.64 313.44,141.05 313.82,133.64
             314.33,123.49 315.27,113.64 315.27,113.64
             315.27,113.64 325.72,115.67 339.82,115.82
             345.50,115.88 352.44,113.10 359.09,113.09
             367.39,113.07 376.97,113.66 385.45,113.82
             403.04,113.28 417.37,112.79 426.18,113.27
             432.12,113.60 435.64,114.91 435.64,114.91
             435.64,114.91 436.95,122.08 436.73,128.18 Z
           M 772.73,148.18
           C 763.81,148.18 750.62,148.36 736.36,148.36
             728.23,148.36 718.61,148.60 710.00,148.55
             701.29,148.49 689.13,146.84 681.27,146.91
             673.27,146.98 666.20,149.60 660.18,149.64
             649.87,149.70 643.09,149.27 643.09,149.27
             643.09,149.27 640.10,133.22 639.45,120.73
             639.14,114.60 640.91,107.09 640.91,107.09
             640.91,107.09 657.30,106.01 682.73,107.45
             687.97,107.75 696.34,110.02 702.00,110.36
             723.51,111.67 749.14,113.82 763.82,114.36
             773.60,114.73 783.64,112.36 783.64,112.36
             783.64,112.36 785.82,148.36 785.82,148.36
             785.82,148.36 781.26,148.18 772.73,148.18 Z" />
    <mask id="warehousePipesMask">
      <rect fill="white" x="513" y="64" width="364" height="224" />
      <path fill="black" d="M 825.75,128.56
           C 824.20,126.60 826.00,122.19 826.00,122.19
             826.00,122.19 838.00,122.19 837.50,123.56
             837.50,123.56 833.34,123.52 832.75,124.12
             831.11,125.82 832.81,130.56 835.44,131.19
             838.06,131.81 828.11,131.55 825.75,128.56 Z
           M 848.50,239.06
           C 850.50,241.75 850.12,246.56 855.12,240.38
             855.12,240.38 857.06,254.31 851.69,253.88
             846.31,253.44 847.00,241.19 848.50,239.06 Z
           M 542.88,238.12
           C 542.88,238.12 547.06,241.10 550.88,240.62
             555.24,240.08 559.50,237.00 559.50,237.00
             559.50,237.00 559.31,250.00 559.31,250.00
             559.31,250.00 545.94,250.25 545.88,250.25
             545.81,250.25 542.88,238.12 542.88,238.12 Z
           M 535.12,127.44
           C 530.19,134.00 530.19,145.19 534.88,147.12
             534.88,147.12 527.94,153.75 520.06,146.62
             512.19,139.50 532.44,125.81 535.12,127.44 Z" />
    </mask>
    <path id="warehousePipes" mask="url(#warehousePipesMask)" d="M 831.45,124.36
           C 834.00,123.82 854.36,132.00 856.55,137.09
             858.73,142.18 856.36,178.18 856.36,178.18
             856.36,178.18 855.08,192.93 854.44,208.56
             853.72,225.85 853.64,244.18 853.64,244.18
             853.64,244.18 849.82,244.36 849.82,244.36
             849.82,244.36 850.04,228.24 850.75,208.19
             851.78,179.24 853.31,142.76 852.18,140.18
             851.08,137.66 845.18,133.37 839.64,131.00
             835.57,129.26 831.27,129.00 831.27,129.00
             831.27,129.00 828.91,124.91 831.45,124.36 Z
           M 532.18,133.27
           C 532.18,133.27 538.11,129.01 543.45,129.45
             549.10,129.92 554.18,130.18 554.18,135.09
             554.18,135.72 554.22,140.72 553.64,144.73
             553.12,148.27 551.97,150.57 552.00,155.09
             552.03,158.84 552.74,163.08 552.73,168.36
             552.71,175.89 552.00,184.91 552.36,192.36
             552.71,199.40 554.08,203.77 554.18,210.00
             554.33,218.59 552.82,223.63 553.09,229.64
             553.44,237.43 557.45,238.91 554.91,240.73
             552.36,242.55 547.82,242.36 547.82,242.00
             547.82,241.90 546.28,237.34 546.00,227.45
             545.73,218.09 546.71,203.74 546.55,191.27
             546.36,177.14 546.94,161.91 546.55,152.55
             546.27,145.97 545.64,142.22 545.27,141.64
             544.19,139.90 540.00,139.97 536.18,141.09
             533.59,141.85 531.18,143.79 530.00,143.27
             527.09,142.00 532.18,133.27 532.18,133.27 Z" />
  </g>
</svg>