<?xml version="1.0" encoding="UTF-8" standalone="no"?>
<!DOCTYPE svg PUBLIC "-//W3C//DTD SVG 20010904//EN" "http://www.w3.org/TR/2001/REC-SVG-20010904/DTD/svg10.dtd">
<svg id="woodsMap" xmlns="http://www.w3.org/2000/svg" viewBox="0 0 4084 2884" preserveAspectRatio="none">
  <g id="rearTrees">
    <path id="pine9Trunk" class="pine trunk" d="M 3432.67,1795.33
           C 3454.12,1754.57 3450.67,1681.33 3477.33,1675.33
             3477.33,1675.33 3480.82,1703.38 3484.00,1734.00
             3485.26,1746.18 3494.75,1759.85 3491.33,1770.67
             3479.33,1808.67 3486.01,1830.09 3490.67,1837.33
             3490.67,1837.33 3404.00,1814.67 3404.00,1814.67
             3404.00,1814.67 3423.85,1812.08 3432.67,1795.33 Z
           M 3318.00,1715.33" />
    <path id="pine9Foliage" class="pine foliage" d="M 3462.67,1440.00
           C 3471.45,1421.85 3476.25,1393.44 3486.00,1375.33
             3506.67,1376.67 3496.67,1382.67 3502.67,1388.67
             3482.67,1437.33 3553.33,1574.00 3553.33,1574.00
             3553.33,1574.00 3539.33,1570.67 3531.33,1556.67
             3528.00,1570.67 3542.00,1613.33 3542.00,1613.33
             3542.00,1613.33 3516.67,1594.67 3514.67,1577.33
             3504.67,1616.67 3551.33,1656.67 3552.67,1685.33
             3540.00,1678.00 3529.33,1672.00 3529.33,1672.67
             3524.67,1687.33 3547.33,1713.33 3548.67,1728.00
             3548.67,1728.00 3533.33,1726.00 3533.33,1726.00
             3533.33,1726.00 3550.00,1760.67 3534.00,1740.00
             3518.00,1719.33 3520.00,1746.67 3520.00,1746.67
             3520.00,1746.67 3506.00,1712.67 3498.00,1720.67
             3498.00,1720.67 3505.33,1745.33 3491.33,1740.67
             3477.33,1723.33 3433.33,1768.67 3433.33,1768.67
             3433.33,1768.67 3452.67,1742.67 3446.00,1742.67
             3439.33,1742.67 3417.33,1759.33 3417.33,1759.33
             3417.33,1759.33 3440.00,1744.00 3435.33,1732.67
             3430.67,1721.33 3423.33,1724.67 3423.33,1724.67
             3423.33,1724.67 3432.67,1678.67 3432.67,1678.67
             3432.67,1678.67 3394.67,1696.67 3393.33,1728.67
             3380.67,1704.00 3414.00,1665.33 3435.33,1642.00
             3456.67,1618.67 3428.00,1614.00 3446.00,1576.67
             3426.67,1588.67 3412.67,1642.00 3394.67,1642.00
             3414.67,1610.00 3397.05,1607.95 3415.33,1574.00
             3428.85,1548.91 3460.27,1522.62 3458.00,1516.67
             3462.67,1507.33 3440.00,1517.33 3440.00,1517.33
             3440.00,1500.00 3474.67,1481.33 3464.00,1466.67
             3464.00,1466.67 3444.67,1488.00 3437.33,1487.33
             3446.67,1460.00 3454.63,1456.59 3462.67,1440.00 Z" />
    <path id="pine6Foliage" class="pine foliage" d="M 2617.33,1560.67
           C 2638.67,1669.33 2662.67,1640.00 2674.67,1720.67
             2674.67,1720.67 2653.33,1714.00 2641.33,1732.00
             2629.33,1750.00 2690.00,1822.00 2690.00,1822.00
             2690.00,1822.00 2570.00,1814.00 2570.00,1814.00
             2570.00,1814.00 2566.67,1744.00 2610.00,1708.00
             2592.67,1689.33 2554.00,1746.00 2554.00,1746.00
             2574.67,1668.67 2633.33,1656.67 2617.33,1560.67 Z" />
    <path id="pine8Trunk" class="pine trunk" d="M 3149.50,1687.00
           C 3148.00,1753.50 3170.00,1849.50 3163.00,1888.50
             3163.00,1888.50 3090.00,1878.00 3090.50,1878.00
             3122.50,1827.00 3125.50,1735.00 3149.50,1687.00 Z" />
    <path id="pine8Foliage" class="pine foliage" d="M 3102.50,1709.50
           C 3099.50,1724.50 3082.00,1718.00 3070.50,1735.00
             3066.50,1712.50 3136.00,1656.00 3131.00,1646.50
             3131.00,1646.50 3090.50,1671.00 3085.00,1683.00
             3084.73,1673.08 3102.48,1655.34 3113.50,1639.00
             3123.03,1624.87 3126.28,1612.04 3123.50,1603.00
             3125.34,1609.73 3113.40,1616.04 3099.50,1628.00
             3090.68,1635.59 3079.58,1649.73 3075.50,1654.00
             3085.50,1614.00 3150.00,1531.50 3152.00,1471.00
             3171.00,1586.50 3169.36,1539.98 3183.00,1605.00
             3194.51,1659.86 3180.00,1663.00 3206.00,1720.50
             3210.50,1720.50 3172.00,1693.50 3161.00,1652.50
             3152.00,1674.50 3197.00,1752.00 3182.00,1760.50
             3177.00,1737.50 3164.00,1736.50 3159.50,1711.00
             3155.00,1742.50 3089.00,1781.50 3089.00,1781.50
             3089.00,1781.50 3135.00,1718.00 3123.50,1697.50
             3123.50,1697.50 3105.50,1694.50 3102.50,1709.50 Z" />
    <path id="pine7Trunk" class="pine trunk" d="M 2837.00,1418.50
           C 2830.32,1447.89 2826.51,1522.62 2834.00,1601.50
             2836.05,1623.09 2848.57,1642.64 2850.50,1664.50
             2852.13,1682.98 2850.92,1700.80 2852.00,1718.50
             2855.45,1775.08 2860.69,1825.83 2877.50,1855.00
             2877.50,1855.00 2843.00,1852.00 2763.50,1879.00
             2781.43,1853.25 2799.25,1795.06 2801.00,1736.50
             2801.55,1717.96 2786.60,1704.65 2787.50,1685.50
             2788.58,1662.60 2801.77,1643.46 2802.16,1620.86
             2803.78,1527.42 2801.36,1444.42 2810.00,1436.50
             2843.00,1339.00 2837.00,1418.50 2837.00,1418.50 Z" />
    <path id="pine7Foliage" class="pine foliage" d="M 2789.00,1215.00
           C 2796.67,1189.84 2801.00,1162.00 2736.00,1252.00
             2739.00,1206.00 2765.00,1181.00 2765.00,1181.00
             2765.00,1181.00 2727.00,1212.00 2681.00,1273.00
             2704.31,1202.40 2727.63,1192.16 2753.00,1150.00
             2765.72,1128.86 2775.41,1086.05 2793.00,1051.00
             2827.77,981.70 2873.00,944.00 2889.50,892.00
             2885.11,925.86 2882.70,971.02 2890.00,1004.00
             2900.16,1049.91 2922.21,1081.99 2922.50,1114.00
             2902.00,1078.00 2886.50,1090.00 2888.00,1091.50
             2887.00,1126.00 2915.50,1218.50 2975.00,1292.00
             2957.50,1271.50 2933.00,1283.00 2907.50,1222.00
             2881.00,1262.00 2987.00,1358.00 2985.50,1397.50
             2985.50,1397.50 2900.00,1325.00 2904.50,1297.00
             2895.41,1311.62 2941.60,1375.46 2956.00,1405.00
             2981.98,1458.28 2990.00,1481.50 2990.00,1481.50
             2990.00,1481.50 2931.00,1412.00 2928.50,1387.00
             2909.00,1419.00 2972.00,1514.00 2996.00,1537.00
             2996.00,1537.00 2939.00,1505.00 2927.00,1460.50
             2914.00,1492.00 2954.00,1552.00 2999.00,1606.00
             2986.00,1625.00 2953.00,1589.00 2943.50,1556.50
             2926.00,1571.00 2927.00,1614.50 2927.00,1616.00
             2927.00,1617.50 2881.50,1549.00 2886.00,1575.00
             2890.50,1601.00 2870.00,1600.00 2870.00,1600.00
             2870.00,1600.00 2846.00,1514.00 2828.00,1511.50
             2810.00,1509.00 2783.00,1595.50 2783.00,1595.50
             2783.00,1595.50 2793.00,1509.00 2787.50,1517.50
             2782.00,1526.00 2766.00,1587.00 2738.00,1619.50
             2738.00,1619.50 2766.00,1554.00 2753.00,1553.50
             2740.00,1553.00 2719.50,1612.50 2668.00,1626.00
             2668.00,1626.00 2720.00,1579.00 2716.00,1569.00
             2712.00,1559.00 2698.00,1578.00 2664.00,1563.00
             2697.00,1552.00 2726.00,1511.00 2744.00,1498.00
             2762.00,1485.00 2806.00,1375.00 2755.00,1451.00
             2743.89,1461.49 2729.03,1460.34 2709.00,1481.00
             2727.00,1454.00 2742.00,1400.00 2793.50,1375.00
             2793.50,1375.00 2744.00,1384.00 2660.00,1464.00
             2660.00,1464.00 2715.00,1398.00 2754.50,1373.50
             2754.50,1373.50 2736.00,1329.00 2684.00,1402.00
             2671.00,1374.00 2757.50,1295.50 2759.00,1295.50
             2760.50,1295.50 2748.00,1270.00 2675.00,1367.50
             2668.00,1337.00 2770.72,1257.04 2789.00,1215.00 Z" />
    <path id="pine4Trunk" class="pine trunk" d="M 978.67,1874.00
           C 981.18,1857.17 972.57,1847.73 975.33,1827.33
             978.28,1805.53 989.14,1782.24 992.67,1758.00
             1006.00,1608.00 1026.97,1487.33 1027.33,1487.33
             1027.81,1487.33 1006.67,1791.33 1025.33,1860.00
             1044.00,1928.67 1048.67,1944.67 1048.67,1944.67
             1048.67,1944.67 959.33,1939.33 959.33,1939.33
             959.33,1939.33 971.97,1918.89 978.67,1874.00 Z" />
    <path id="pine4Foliage" class="pine foliage" d="M 1007.00,1700.50
           C 985.33,1701.67 933.50,1769.50 933.50,1769.50
             933.50,1769.50 951.50,1685.50 953.00,1685.50
             954.50,1685.50 922.67,1694.00 899.00,1718.50
             892.67,1690.67 953.00,1612.00 953.00,1612.00
             953.00,1612.00 918.00,1624.67 877.33,1644.67
             898.00,1614.67 933.33,1578.00 975.50,1535.50
             975.50,1535.50 910.00,1569.33 902.00,1577.50
             906.00,1550.67 994.00,1457.33 987.50,1438.00
             952.67,1448.00 928.67,1476.00 906.50,1495.00
             923.33,1448.67 1009.33,1323.33 1028.00,1229.50
             1028.85,1252.64 1064.56,1293.00 1087.33,1344.00
             1118.21,1413.14 1124.67,1469.33 1137.50,1492.00
             1120.67,1490.67 1104.00,1452.67 1071.50,1432.00
             1111.33,1476.67 1135.33,1544.00 1139.00,1577.50
             1108.00,1520.00 1114.00,1544.00 1074.50,1511.50
             1132.67,1576.67 1089.33,1566.00 1113.50,1613.50
             1100.00,1622.00 1100.67,1614.67 1065.50,1583.50
             1112.00,1644.67 1094.67,1659.33 1104.50,1691.50
             1078.67,1632.67 1053.33,1636.67 1046.00,1649.50
             1026.00,1659.33 1076.00,1750.00 1076.00,1750.00
             1076.00,1750.00 1028.67,1699.33 1007.00,1700.50 Z" />
    <path id="pine3Foliage" class="pine foliage" d="M 815.00,1942.50
           C 839.41,1923.77 840.53,1891.48 843.50,1864.00
             845.76,1843.07 850.42,1825.74 859.50,1814.50
             880.50,1788.50 856.00,1782.00 868.00,1770.00
             869.43,1784.28 874.34,1776.24 879.50,1791.00
             887.00,1812.42 876.50,1825.50 895.50,1854.50
             914.50,1883.50 887.00,1918.00 914.50,1941.50
             862.50,1964.50 852.50,1930.50 815.00,1942.50 Z" />
    <path id="pine2Foliage" class="pine foliage" d="M 719.50,1650.50
           C 719.50,1650.50 734.50,1693.50 728.50,1709.00
             722.50,1724.50 744.50,1737.00 742.00,1752.50
             739.50,1746.50 726.00,1741.50 726.50,1741.50
             721.50,1772.50 750.50,1795.50 760.00,1829.00
             748.50,1812.50 733.00,1820.50 733.00,1820.50
             733.00,1820.50 764.00,1852.00 762.00,1870.00
             757.50,1858.00 749.50,1870.00 749.50,1870.00
             761.00,1880.50 761.00,1904.00 761.00,1904.00
             761.00,1904.00 668.50,1922.50 668.50,1922.50
             668.50,1922.50 656.00,1903.00 670.00,1882.50
             670.00,1874.00 690.50,1870.50 684.00,1858.50
             684.00,1858.50 685.00,1842.00 660.50,1861.50
             671.50,1826.00 692.00,1797.50 691.50,1797.50
             691.00,1797.50 670.50,1800.50 670.50,1800.50
             670.50,1800.50 685.00,1767.00 701.00,1752.00
             698.50,1735.50 678.00,1756.00 678.00,1756.00
             678.00,1756.00 684.00,1714.00 702.50,1704.50
             721.00,1695.00 719.50,1650.50 719.50,1650.50 Z" />
    <path id="pine1Trunk" class="pine trunk" d="M 354.00,1660.00
           C 361.10,1626.63 373.33,1606.67 373.33,1606.67
             373.33,1606.67 384.00,1647.33 392.00,1673.33
             382.89,1692.73 372.00,1721.33 380.67,1752.00
             389.33,1782.67 354.00,1888.67 370.67,1937.33
             366.00,1962.67 301.33,1940.67 302.00,1940.00
             353.33,1892.00 333.84,1754.80 354.00,1660.00 Z" />
    <path id="pine1Foliage" class="pine foliage" d="M 364.00,1684.00
           C 332.67,1682.00 308.00,1786.00 310.00,1784.00
             312.00,1782.00 304.00,1720.00 318.00,1684.00
             297.33,1704.67 264.67,1756.00 264.67,1756.00
             264.67,1756.00 278.00,1711.33 298.00,1688.00
             290.13,1674.23 269.65,1704.36 255.33,1718.00
             240.52,1732.11 232.00,1730.00 232.00,1730.00
             232.00,1730.00 247.56,1709.89 263.33,1680.00
             270.86,1665.74 270.19,1645.57 279.33,1630.67
             292.25,1609.62 316.16,1595.10 336.00,1588.00
             331.33,1550.00 284.00,1604.00 282.00,1604.00
             296.00,1548.00 356.67,1534.00 350.00,1506.00
             341.33,1504.67 298.67,1547.33 286.67,1540.00
             317.33,1492.00 367.33,1476.67 370.00,1452.00
             370.00,1452.00 304.67,1485.33 294.00,1512.00
             286.67,1483.33 346.00,1427.33 362.00,1428.00
             339.33,1408.67 320.67,1453.33 286.00,1444.67
             312.01,1428.56 314.50,1407.69 332.00,1380.00
             342.75,1362.98 373.97,1339.99 376.00,1324.00
             408.67,1377.33 462.00,1400.00 462.00,1400.00
             462.00,1400.00 449.33,1410.67 432.00,1404.00
             429.99,1413.18 442.92,1422.95 453.33,1435.33
             467.11,1451.71 479.71,1470.50 479.33,1477.33
             470.00,1468.67 443.33,1452.00 434.00,1458.00
             432.67,1476.00 474.67,1506.00 490.00,1512.00
             484.00,1541.33 420.00,1492.00 422.00,1492.00
             418.67,1519.33 475.33,1577.33 484.67,1622.00
             444.67,1590.00 428.67,1557.33 408.00,1560.00
             408.00,1560.00 466.67,1632.00 468.67,1659.33
             468.67,1659.33 398.00,1622.00 400.00,1622.00
             402.00,1622.00 444.00,1654.00 448.00,1685.33
             429.33,1660.67 402.00,1660.00 402.00,1660.00
             402.00,1660.00 443.33,1710.00 448.00,1740.00
             405.33,1694.00 395.33,1686.00 364.00,1684.00 Z" />
  </g>
  <g id="ground">
    <path id="ground1" d="M 4332.00,2937.00
           C 4332.00,2937.00 -66.00,2955.00 -66.00,2961.00
             -66.00,2967.00 -105.00,2541.00 -105.00,2541.00
             -105.00,2541.00 -168.00,1926.00 -168.00,1926.00
             -168.00,1926.00 11.67,1921.00 11.67,1921.00
             53.00,1921.00 143.33,1891.00 189.67,1868.33
             205.07,1860.80 307.49,1868.54 435.00,1867.00
             481.62,1866.44 533.65,1885.20 584.50,1884.50
             670.82,1883.32 728.50,1886.00 812.50,1912.50
             836.51,1912.14 863.82,1910.59 886.50,1908.50
             982.99,1899.60 1031.50,1873.50 1054.00,1858.00
             1076.50,1842.50 1136.00,1859.50 1155.50,1877.00
             1175.00,1894.50 1399.50,1889.50 1428.00,1898.50
             1434.39,1900.52 1466.47,1887.11 1500.50,1884.00
             1618.36,1873.23 1744.50,1869.00 1804.00,1855.00
             1821.94,1850.78 1851.14,1852.78 1887.00,1841.50
             1920.85,1830.85 1959.59,1811.53 1997.50,1801.50
             2052.59,1786.93 2105.73,1785.47 2138.00,1804.50
             2216.00,1850.50 2429.00,1797.50 2472.00,1778.00
             2481.39,1773.74 2568.71,1724.98 2631.50,1729.50
             2674.07,1732.56 2715.66,1745.94 2767.50,1756.50
             2788.71,1760.82 2817.28,1762.04 2839.50,1766.00
             2864.73,1770.50 2885.11,1780.73 2910.50,1785.50
             2971.60,1796.97 3034.85,1798.46 3089.00,1808.50
             3145.67,1819.01 3162.45,1824.11 3196.50,1833.00
             3228.94,1841.47 3263.00,1833.50 3280.00,1854.00
             3280.00,1854.00 4332.00,2937.00 4332.00,2937.00 Z" />
    <path id="ground2" d="M 4118.00,1868.50
           C 4118.00,1868.50 4060.27,1844.85 4008.50,1832.50
             3985.22,1826.95 3964.78,1820.35 3948.50,1825.00
             3896.00,1840.00 3902.19,1823.04 3845.00,1819.00
             3727.09,1810.67 3618.71,1833.92 3573.50,1820.50
             3477.50,1792.00 3420.50,1759.00 3294.50,1799.50
             3168.50,1840.00 3047.00,1825.00 3047.00,1825.00
             3047.00,1825.00 2559.50,1751.50 2459.00,1742.50
             2378.00,1735.00 2321.61,1774.54 2235.50,1789.00
             2133.44,1806.14 2046.50,1805.50 2046.50,1805.50
             2046.50,1805.50 1790.00,1888.00 1790.00,1888.00
             1790.00,1888.00 831.50,1931.50 831.50,1931.50
             831.50,1931.50 336.50,1894.00 336.50,1894.00
             336.50,1894.00 -199.00,1954.00 -199.00,1954.00
             -199.00,1954.00 -136.00,3025.00 -136.00,3025.00
             -136.00,3025.00 4139.00,2986.00 4139.00,2986.00
             4139.00,2986.00 4139.00,2107.00 4139.00,2107.00
             4139.00,2107.00 4118.00,1868.50 4118.00,1868.50 Z" />
    <path id="groundDetails" class="details" d="M 1262.00,2437.00
           C 1382.13,2415.46 1519.94,2331.22 1611.50,2251.00
             1685.72,2185.97 1721.68,2134.95 1766.00,2188.00M 2054.00,2191.00
           C 2000.00,2107.00 2054.00,1886.50 2495.00,1933.00M 2722.00,1984.00
           C 2838.67,1984.67 2904.82,2072.81 2962.00,2134.67
             3019.90,2197.30 3037.86,2259.87 3082.67,2308.67
             3141.37,2372.59 3211.25,2397.03 3238.00,2353.33M 3002.00,2365.00
           C 3064.34,2435.59 3092.56,2439.71 3158.00,2435.33
             3190.92,2433.13 3232.15,2443.60 3268.67,2434.67
             3344.31,2416.17 3375.33,2362.67 3458.00,2353.00M 3359.00,2536.00
           C 3352.27,2543.56 3324.16,2564.34 3290.00,2573.50
             3265.50,2580.07 3236.50,2575.00 3216.50,2581.00
             3168.84,2595.31 3156.41,2606.44 3117.50,2579.50
             3039.50,2525.50 2950.86,2536.82 2844.50,2573.50
             2710.61,2619.67 2714.00,2795.50 2549.00,2872.00M 2078.00,2983.00
           C 2078.00,2983.00 2037.77,2951.01 1971.50,2914.00
             1817.03,2827.73 1575.25,2675.47 1760.00,2560.00M 2669.00,3049.00
           C 2669.00,3049.00 3137.00,2843.50 3111.50,2777.50
             3086.00,2711.50 3074.00,2584.00 2975.00,2756.50M 1793.00,3004.00
           C 1793.00,3004.00 1748.00,2935.00 1668.50,2846.50
             1631.50,2805.31 1542.54,2781.07 1491.50,2750.50
             1432.89,2715.40 1415.14,2674.70 1430.00,2636.50
             1493.00,2474.50 1286.00,2569.00 1266.50,2522.50M 1587.50,2479.00
           C 1639.58,2419.78 1727.84,2292.51 1901.00,2344.00
             1979.67,2367.39 2013.90,2484.19 2106.50,2536.00
             2253.51,2618.24 2458.78,2636.84 2549.00,2617.00
             2672.22,2589.90 2787.67,2509.40 2807.00,2401.00
             2827.48,2286.12 2718.50,2221.00 2757.50,2114.50M 2589.50,2452.00
           C 2598.77,2376.49 2621.54,2302.45 2588.00,2270.50
             2507.60,2193.91 2341.88,2262.14 2489.00,2332.00M 2372.00,2420.50
           C 2190.50,2348.50 2201.00,2017.00 2484.50,2095.00M 1940.00,1963.00
           C 1890.50,1958.50 1854.50,2039.50 1838.00,2081.50" />
  </g>
  <path id="ironFence" d="M 570.00,1820.00
           C 570.00,1820.00 706.00,1769.00 863.00,1707.00
             912.06,1697.62 1009.00,1665.00 1084.30,1647.84
             1132.00,1656.00 1146.99,1649.35 1174.00,1663.00M 611.00,1745.00
           C 611.00,1745.00 644.97,1863.63 675.00,1950.00
             691.98,1998.84 712.64,2038.00 713.00,2038.00M 753.00,1687.00
           C 753.00,1687.00 779.77,1783.54 799.00,1877.00
             815.58,1957.58 825.00,2037.00 825.00,2037.00M 886.00,1672.00
           C 886.00,1672.00 926.60,1791.56 947.00,1865.00
             955.14,1894.29 956.00,1924.00 956.00,1924.00M 1025.00,1644.00
           C 1025.00,1644.00 1047.97,1729.68 1063.00,1802.00
             1072.84,1849.35 1077.00,1894.40 1077.00,1894.00M 1178.00,1619.00
           C 1178.00,1619.00 1132.00,1928.00 1131.00,1928.00" />
  <path id="wheat1" d="M 1066.00,2120.00
           C 1066.00,2120.00 1070.09,2091.90 1073.50,2051.00
             1075.96,2021.47 1077.35,1988.41 1080.00,1955.00
             1080.84,1944.41 1083.26,1932.05 1084.00,1922.00
             1087.68,1872.18 1090.00,1832.00 1090.00,1832.00M 1020.00,1970.00
           C 1020.00,1970.00 1029.70,2002.57 1043.50,2022.00
             1056.68,2040.55 1074.00,2046.00 1074.00,2046.00
             1074.00,2046.00 1080.15,2007.03 1086.50,1977.00
             1090.68,1957.23 1102.50,1946.00 1102.50,1946.00M 1082.50,2139.00
           C 1082.50,2139.00 1090.31,2130.70 1093.50,2122.50
             1099.96,2105.92 1105.53,2079.47 1115.50,2051.00
             1122.81,2030.13 1137.70,1997.93 1144.50,1976.00
             1160.15,1925.56 1165.14,1890.00 1166.00,1890.00M 1118.00,2050.00
           C 1118.00,2050.00 1135.11,2015.87 1152.50,1995.00
             1163.70,1981.57 1178.00,1978.00 1178.00,1978.00" />
  <path id="wheat2" d="M 3337.33,2118.67
           C 3338.00,2118.67 3342.00,2168.67 3351.33,2174.00
             3351.33,2174.00 3366.67,2166.67 3367.33,2156.67
             3368.00,2146.67 3321.33,2029.33 3357.33,1958.67M 3298.67,2055.33
           C 3301.07,2065.53 3305.33,2060.67 3305.33,2060.67
             3305.33,2060.67 3275.33,1934.00 3281.33,1910.00
             3287.33,1886.00 3284.00,1908.00 3284.00,1890.00
             3283.49,1880.77 3280.99,1887.83 3273.33,1882.67
             3271.03,1881.12 3275.09,1870.47 3270.00,1868.00
             3260.91,1863.59 3259.33,1880.43 3255.33,1882.00
             3249.65,1884.23 3243.24,1873.67 3239.33,1882.67
             3232.67,1898.00 3258.00,1916.00 3266.67,1922.67
             3273.40,1927.85 3290.26,2019.74 3298.67,2055.33 Z
           M 3324.00,1924.67
           C 3287.33,1956.67 3306.67,2047.33 3306.67,2047.33M 3230.00,1929.33
           C 3275.33,1955.33 3283.33,2040.67 3292.67,2049.33" />
  <image xlink:href="/assets/woodsMap/bush1.png" x="83%" y="64%" />
  <image xlink:href="/assets/woodsMap/bush2.png" x="72%" y="57%" />
  <image xlink:href="/assets/woodsMap/bush3.png" x="94%" y="59%" />
  <g id="frontTrees">
    <path id="tree3Trunk" class="trunk" d="M 161.00,1216.00
           C 77.97,1336.01 10.84,1544.22 56.00,1880.50
             60.36,1912.96 70.91,1957.79 83.00,1995.00
             87.30,2008.24 97.10,2014.86 99.50,2027.50
             54.50,2036.50 61.00,1979.75 22.00,1982.00
             -17.00,1984.25 -43.00,2029.00 -43.00,2029.00
             -43.00,2029.00 -10.00,886.00 -10.00,886.00
             -10.00,886.00 19.98,999.31 39.50,1085.50
             49.32,1128.85 49.98,1170.98 56.00,1177.00
             80.00,1075.00 194.00,925.00 194.00,925.00
             194.00,925.00 203.00,949.00 92.00,1204.00
             213.25,1074.98 291.22,1071.79 338.00,1069.00
             381.50,1066.41 398.00,1060.00 398.00,1060.00
             335.00,1162.00 220.13,1130.54 161.00,1216.00 Z" />
    <path id="tree3Foliage" class="foliage maple" d="M 212.00,1225.00
           C 86.00,1078.00 287.00,1129.00 2.00,1003.00
             -283.00,877.00 -76.00,895.00 8.00,766.00
             92.00,637.00 368.00,739.00 533.00,820.00
             698.00,901.00 641.00,1114.00 518.00,1168.00
             395.00,1222.00 338.00,1372.00 212.00,1225.00 Z" />
    <path id="pine10Trunk" class="pine trunk" d="M 4026.00,1891.00
           C 4098.00,1817.00 4017.00,1710.00 4018.00,1661.00
             4019.00,1612.00 4048.00,1479.00 4066.00,1465.00
             4066.00,1465.00 4162.00,1451.00 4162.00,1451.00
             4162.00,1451.00 4151.00,1888.00 4151.00,1888.00
             4151.00,1888.00 4147.00,1802.00 4026.00,1891.00 Z" />
    <path id="pine10Foliage" class="pine foliage" d="M 3977.00,1564.00
           C 3991.00,1556.00 4006.00,1481.00 4034.00,1462.00
             4034.00,1462.00 4048.00,1501.00 4031.00,1546.00
             4032.82,1566.03 4065.47,1533.14 4096.00,1534.00
             4166.05,1535.98 4268.00,1543.00 4268.00,1543.00
             4268.00,1543.00 4093.00,1107.00 4064.00,991.00
             4065.00,1060.00 3993.00,1118.00 3969.00,1158.00
             4014.00,1145.00 3998.00,1146.00 3975.00,1207.00
             3975.00,1207.00 3997.00,1169.00 4031.00,1150.00
             4031.00,1150.00 3971.00,1247.00 3959.00,1304.00
             3998.00,1259.00 4037.00,1237.00 4037.00,1237.00
             4037.00,1237.00 3973.87,1337.15 3941.00,1402.00
             3936.87,1410.15 3965.19,1382.53 3963.00,1389.00
             3956.08,1409.43 3920.00,1449.00 3922.00,1474.00
             3922.00,1474.00 4022.00,1369.00 4022.00,1369.00
             4022.00,1369.00 3973.00,1433.00 3973.00,1465.00
             3973.00,1465.00 3998.00,1434.00 4010.00,1441.00
             4010.00,1441.00 3964.00,1523.00 3959.00,1549.00
             3975.00,1547.00 3996.00,1497.00 3977.00,1564.00 Z" />
    <path id="pine5Trunk" class="pine trunk" d="M 1724.00,1411.00
           C 1725.75,1495.20 1695.45,1577.66 1692.50,1657.00
             1688.15,1774.10 1727.02,1981.01 1787.00,2017.00
             1736.00,2026.00 1715.51,1944.36 1699.00,1963.00
             1691.03,2010.08 1711.00,2028.00 1681.00,2069.00
             1676.00,1978.00 1636.41,2126.25 1593.50,2140.00
             1683.50,1969.00 1608.50,1868.50 1556.00,1760.50
             1533.35,1713.91 1584.67,1594.20 1587.50,1505.50
             1591.24,1388.56 1551.50,1304.50 1551.50,1304.50
             1551.50,1304.50 1721.88,1308.68 1724.00,1411.00 Z" />
    <path id="pine5Foliage" class="pine foliage" d="M 1664.00,1381.00
           C 1632.50,1364.50 1373.00,1576.00 1373.00,1579.00
             1373.00,1582.00 1499.00,1444.00 1499.00,1444.00
             1499.00,1444.00 1409.00,1513.00 1409.00,1513.00
             1409.00,1513.00 1517.00,1333.00 1517.00,1333.00
             1517.00,1333.00 1382.00,1450.00 1382.00,1450.00
             1382.00,1450.00 1478.00,1303.00 1478.00,1306.00
             1478.00,1309.00 1382.00,1348.00 1382.00,1348.00
             1382.00,1348.00 1538.00,1132.00 1538.00,1132.00
             1538.00,1132.00 1406.00,1147.00 1409.00,1147.00
             1412.00,1147.00 1595.00,727.00 1544.00,503.50
             1565.86,529.45 1584.85,640.76 1629.50,763.00
             1644.00,802.69 1676.35,845.75 1692.50,884.50
             1735.85,988.53 1802.05,1076.17 1808.00,1109.50
             1811.00,1109.50 1724.00,994.00 1739.00,1039.00
             1764.50,1067.50 1796.00,1216.00 1796.00,1216.00
             1796.00,1216.00 1748.00,1154.50 1727.00,1144.00
             1685.00,1181.50 1818.50,1292.50 1844.00,1483.00
             1791.50,1420.00 1760.00,1354.00 1760.00,1354.00
             1760.00,1354.00 1835.00,1549.00 1835.00,1549.00
             1835.00,1549.00 1736.00,1393.00 1736.00,1393.00
             1736.00,1393.00 1787.00,1588.00 1787.00,1588.00
             1787.00,1588.00 1695.50,1397.50 1664.00,1381.00 Z" />
    <path id="tree1Foliage3" class="foliage darker" d="M 734.00,1765.00
           C 715.80,1660.38 750.09,1447.72 743.00,1297.00
             736.06,1149.52 688.28,1063.67 623.00,988.00
             491.00,835.00 647.00,814.00 773.00,802.00
             899.00,790.00 914.00,859.00 842.00,1006.00
             770.00,1153.00 848.00,1261.00 827.00,1378.00
             806.00,1495.00 767.00,1468.00 734.00,1765.00 Z" />
    <path id="tree1Foliage2" class="foliage dark" d="M 554.00,898.00
           C 387.77,950.54 321.50,1090.00 321.50,1090.00
             321.50,1090.00 179.00,817.00 489.50,604.00
             640.19,500.63 1030.17,634.19 1160.00,784.00
             1297.68,942.87 1173.59,1121.30 1275.50,1102.00
             1351.41,1087.62 1577.44,1037.38 1652.00,1181.50
             1771.93,1413.31 1707.46,1898.58 1553.00,1973.50
             1662.18,1840.15 1677.67,1434.88 1539.50,1291.00
             1428.98,1175.92 1169.50,1305.17 1155.50,1304.50
             1124.00,1303.00 854.00,1405.00 995.00,1058.50
             1073.39,865.86 762.12,832.22 554.00,898.00 Z" />
    <path id="tree1Trunk" class="trunk" d="M 291.33,2354.00
           C 271.20,2366.71 229.05,2366.07 208.00,2376.00
             184.49,2387.09 199.25,2412.13 176.67,2423.33
             194.49,2410.51 176.81,2371.92 191.00,2359.00
             356.00,2344.00 413.50,2161.65 428.00,2038.00
             437.58,1956.36 352.81,1846.20 413.00,1747.00
             575.00,1480.00 628.47,1268.77 602.00,1192.00
             542.00,1018.00 563.70,1009.25 552.00,956.00
             514.00,783.00 362.00,802.00 340.00,700.00
             482.00,805.00 581.00,814.00 596.00,860.00
             818.00,604.00 1189.00,964.00 1160.00,1000.00
             1140.30,998.01 1112.00,929.50 971.00,862.00
             884.19,820.44 950.92,887.83 990.50,938.50
             1015.20,970.12 1013.88,992.21 1005.50,986.50
             942.84,943.80 943.86,855.63 869.00,850.00
             718.25,838.66 620.41,909.79 671.00,1015.00
             759.00,1198.00 491.00,1789.00 662.00,2014.00
             719.04,2089.06 765.81,2160.59 830.00,2200.00
             958.24,2278.74 1019.00,2143.00 1092.00,2280.00
             950.00,2173.00 932.00,2341.00 724.00,2256.00
             812.00,2335.00 861.46,2300.48 956.00,2407.00
             985.22,2439.93 1033.79,2478.67 1043.00,2524.00
             1013.00,2461.00 891.17,2449.70 750.67,2389.33
             690.64,2363.54 698.00,2277.33 573.00,2302.00
             514.20,2313.60 423.33,2419.33 362.00,2524.00
             331.43,2576.17 291.33,2628.00 234.00,2596.00
             209.51,2582.33 220.68,2598.85 204.00,2612.00
             181.64,2629.63 175.33,2600.00 118.67,2649.33
             121.54,2636.32 156.49,2597.17 192.00,2580.67
             227.51,2564.16 206.67,2551.33 240.00,2584.67
             273.33,2618.00 370.46,2386.17 383.33,2356.00
             406.67,2301.33 432.00,2317.33 420.00,2288.00
             413.11,2236.62 369.17,2304.86 291.33,2354.00 Z" />
    <path id="tree1Foliage" class="foliage" d="M 369.50,901.00
           C 374.66,964.62 439.04,1024.79 420.50,1102.00
             399.46,1189.61 292.60,1256.58 252.50,1339.00
             202.19,1442.42 222.36,1555.90 255.50,1603.00
             134.00,1486.00 188.00,1321.00 299.00,1201.00
             410.00,1081.00 324.50,1049.50 288.50,974.50
             252.50,899.50 203.00,577.00 507.50,502.00
             626.96,472.58 716.81,422.88 807.50,416.50
             947.98,406.62 999.50,464.50 1079.00,491.50
             1158.50,518.50 1257.50,524.50 1343.00,595.00
             1428.50,665.50 1434.50,614.50 1493.00,736.00
             1507.14,765.36 1567.60,904.58 1535.00,1030.00
             1490.90,1199.70 1343.19,1381.11 1305.50,1577.50
             1288.36,1666.79 1401.30,1713.70 1377.50,1795.00
             1332.25,1949.59 1280.12,2049.66 1211.00,2117.50
             1355.00,1852.00 1187.57,1780.51 1202.00,1534.00
             1208.36,1425.39 1133.00,1306.00 1190.00,1159.00
             1247.00,1012.00 1202.00,806.50 1046.00,733.00
             890.00,659.50 702.50,578.50 477.50,701.50
             415.98,735.13 362.59,815.81 369.50,901.00 Z
           M 14.00,1960.00" />
    <path id="tree2Trunk" class="trunk" d="M 2831.00,571.00
           C 2772.25,514.30 2679.73,466.74 2576.00,420.00
             2640.78,501.96 2720.00,497.50 2807.00,601.00
             2894.00,704.50 2916.26,729.95 3044.00,774.00
             3334.00,874.00 3320.00,936.00 3370.00,1004.00
             3420.00,1072.00 3588.00,1156.00 3596.00,1372.00
             3598.13,1429.50 3563.13,1546.85 3570.00,1674.00
             3576.22,1789.10 3624.50,1910.53 3624.00,2034.00
             3622.99,2286.50 3622.00,2460.00 3566.00,2524.00
             3556.44,2534.93 3518.21,2529.53 3498.00,2544.00
             3481.06,2556.13 3476.06,2573.90 3456.00,2588.00
             3443.18,2597.02 3403.69,2586.88 3390.00,2596.00
             3370.26,2609.15 3363.54,2640.17 3346.00,2654.00
             3280.00,2704.00 3256.76,2654.27 3230.00,2662.00
             3179.55,2676.56 3186.00,2702.00 3186.00,2702.00
             3186.00,2702.00 3216.56,2681.14 3248.00,2682.00
             3271.74,2682.65 3292.70,2706.44 3320.00,2700.00
             3368.86,2688.47 3382.12,2645.06 3434.00,2628.00
             3528.41,2596.96 3534.00,2658.00 3652.00,2592.00
             3626.96,2610.13 3642.51,2637.16 3622.00,2660.00
             3610.06,2673.29 3553.93,2684.62 3542.00,2698.00
             3479.45,2768.17 3466.00,2836.00 3466.00,2836.00
             3466.00,2836.00 3498.52,2782.68 3548.00,2744.00
             3574.08,2723.61 3616.95,2724.30 3636.00,2702.00
             3691.47,2637.08 3687.46,2576.79 3732.00,2514.00
             3760.82,2473.37 3743.27,2379.55 3756.00,2382.00
             3769.38,2384.57 3786.03,2427.60 3792.00,2476.00
             3794.88,2499.34 3779.33,2525.62 3790.00,2546.00
             3843.18,2647.62 3864.00,2586.00 3948.00,2732.00
             3948.00,2732.00 3920.00,2616.00 3848.00,2544.00
             3872.32,2538.60 3906.00,2544.00 3978.00,2592.00
             4050.00,2640.00 4165.80,2680.00 4168.00,2680.00
             4170.20,2680.00 4053.31,2597.56 3976.00,2454.00
             3912.51,2336.10 3940.00,2234.00 3886.00,2152.00
             3855.34,2105.45 3846.16,1884.29 3852.00,1640.00
             3856.45,1453.99 3881.18,1241.27 3844.00,1160.00
             3799.12,1061.88 3885.20,823.44 4000.00,726.00
             4105.17,636.74 4238.09,684.00 4240.00,684.00
             4244.00,684.00 4252.00,400.00 4252.00,396.00
             4252.00,393.83 4172.56,487.51 4046.00,638.00
             3939.35,764.82 3786.42,936.97 3748.00,1076.00
             3715.27,1045.38 3750.00,834.00 3746.00,584.00
             3742.00,334.00 3856.00,302.00 3820.00,236.00
             3698.00,564.00 3646.00,588.00 3682.00,738.00
             3682.00,738.31 3628.45,648.47 3618.00,520.00
             3602.95,335.02 3627.63,89.46 3612.00,82.00
             3604.51,78.43 3594.19,360.69 3570.00,476.00
             3561.51,516.48 3443.42,420.10 3472.00,444.00
             3582.00,536.00 3586.00,588.00 3584.00,684.00
             3568.33,659.42 3532.79,622.35 3515.00,587.50
             3499.98,558.07 3503.74,530.99 3480.50,506.50
             3366.51,386.40 3234.50,283.00 3182.00,263.50
             3129.50,244.00 3314.60,340.01 3432.50,497.50
             3461.94,536.82 3482.00,554.50 3494.00,620.50
             3506.00,686.50 3549.80,755.99 3566.00,812.00
             3602.17,937.04 3583.07,1039.14 3560.00,1012.00
             3492.00,932.00 3312.00,774.00 3104.00,718.00
             2896.00,662.00 3020.00,658.00 2946.50,571.00
             2921.57,541.49 2879.00,490.00 2867.00,434.50
             2855.00,379.00 2760.00,272.00 2760.00,272.00
             2760.00,272.00 2804.91,370.76 2831.00,439.00
             2847.98,483.42 2836.29,488.86 2870.00,535.00
             2955.50,652.00 2945.32,675.96 2932.00,674.00
             2898.00,669.00 2875.33,613.78 2831.00,571.00 Z" />
    <path id="Tree2Details" class="details" d="M 3767.00,1739.50
           C 3767.00,1739.50 3773.00,1795.00 3758.00,1802.50
             3812.00,1871.50 3807.50,2003.50 3770.00,2104.00
             3732.50,2204.50 3858.50,2251.00 3852.50,2305.00M 3636.50,1396.00
           C 3636.50,1396.00 3592.99,1427.51 3615.50,1537.00
             3619.74,1557.60 3608.84,1592.58 3620.00,1618.00
             3690.50,1778.50 3653.00,1747.00 3636.50,1766.50
             3620.00,1786.00 3591.50,1721.50 3593.00,1687.00
             3594.50,1652.50 3567.50,1613.50 3588.50,1588.00" />
    <path id="ropeLeft" class="rope" d="M 2990.68,676.67
           C 2983.34,699.33 2962.76,741.75 2959.34,740.00
             2959.34,740.00 2992.68,668.00 2989.34,666.00
             2986.01,664.00 2944.76,730.75 2948.68,736.67M 2961.76,741.75
           C 2961.76,741.75 2965.45,763.91 2967.51,801.75
             2969.58,839.86 2970.02,893.83 2968.51,942.75
             2965.51,1040.25 2973.51,1174.00 2973.51,1174.00" />
    <path id="ropeRight" class="rope" d="M 3324.00,814.50
           C 3324.00,814.50 3330.67,931.33 3325.33,936.67
             3320.00,942.00 3309.33,933.33 3308.00,930.00
             3320.67,894.00 3306.00,817.33 3316.67,804.00M 3315.33,936.67
           C 3315.33,936.67 3311.44,967.59 3312.67,1012.00
             3313.01,1024.51 3320.11,1061.53 3320.67,1075.33
             3323.91,1156.03 3323.33,1226.00 3323.33,1226.00M 2982.67,671.33" />
    <path id="ropeLeftSpine" class="bone" d="M 2937.00,915.50
           C 2929.00,902.50 3003.50,904.50 3004.00,909.50
             2983.50,932.50 2945.00,928.50 2937.00,915.50 Z
           M 2937.00,916.00
           C 2937.00,916.00 2952.00,967.00 2943.00,986.50
             2946.00,1002.00 3008.00,994.00 3002.00,984.50
             2996.00,968.50 3004.50,915.50 3004.50,914.50M 2990.00,929.00
           C 2991.00,943.00 3011.00,942.50 3012.00,953.50
             3012.51,962.49 2991.50,969.50 2992.00,978.50" />
    <path id="ropeRightBone" class="bone" d="M 3271.00,1023.50
           C 3275.50,1035.00 3330.50,1033.50 3337.00,1028.00
             3343.50,1022.50 3348.86,1013.68 3354.36,1024.18
             3354.81,1026.35 3352.00,1030.91 3350.18,1035.64
             3352.73,1041.27 3356.94,1048.78 3354.50,1050.50
             3343.50,1054.00 3347.50,1047.00 3336.50,1042.00
             3325.50,1037.00 3277.00,1038.00 3276.50,1038.00
             3276.00,1038.00 3261.00,1052.00 3253.00,1044.00
             3249.96,1040.96 3256.00,1028.50 3256.00,1028.50
             3256.00,1028.50 3252.50,1019.00 3259.50,1013.50
             3259.50,1013.50 3266.50,1012.00 3271.00,1023.50 Z" />
    <path id="ropeLeftOver" class="rope" d="M 2968.00,916.00
           C 2968.00,916.00 2948.67,919.33 2937.33,916.67
             2954.67,952.00 2953.33,993.33 2953.33,993.33
             2953.33,993.33 2960.00,940.67 2951.33,926.00
             2951.33,926.00 2968.00,916.67 2968.00,916.67
             2968.00,916.67 2943.33,923.33 2943.33,923.33
             2943.33,923.33 2961.33,954.67 2953.33,992.00" />
    <path id="ropRightOver" class="rope" d="M 3319.82,1040.36
           C 3319.82,1040.36 3324.00,1030.36 3318.00,1031.09
             3318.00,1031.09 3316.73,1038.55 3312.55,1039.82
             3308.91,1033.27 3312.00,1030.36 3312.00,1030.36" />
    <image xlink:href="/assets/woodsMap/bridget.png" x="67%" y="35%" />
    <image xlink:href="/assets/woodsMap/doll.png" x="79%" y="40%" />
  </g>
</svg>