<?xml version="1.0" encoding="UTF-8" standalone="no"?>
<!DOCTYPE svg PUBLIC "-//W3C//DTD SVG 20010904//EN"
              "http://www.w3.org/TR/2001/REC-SVG-20010904/DTD/svg10.dtd">
<svg id="messageBox" class="menu" 
    xmlns="http://www.w3.org/2000/svg" width="14.2222in" height="10.6667in" viewBox="0 0 1024 768">
    <rect x="145" y="215" rx="80" ry="80" width="850" height="480" stroke="none" fill="url(#patternStripes)" />
    <path stroke="black" fill="url(#patternDiamonds)" stroke-width="1" d="M 192.63,691.63
             C 54.23,600.83 91.29,428.31 124.57,254.28
               133.64,194.51 54.99,136.25 23.23,86.31
               98.85,160.46 169.94,187.70 168.43,185.43
               165.41,155.92 115.49,71.17 82.22,59.07
               82.22,59.07 144.23,65.12 198.68,172.57
               207.24,181.66 286.45,167.37 342.38,163.49
               444.57,156.39 490.40,186.14 579.85,184.67
               649.60,188.21 715.93,153.91 767.40,157.43
               902.88,166.70 972.36,210.05 994.29,264.88
               914.12,178.62 717.84,254.04 596.48,261.85
               543.11,262.37 466.57,238.29 413.47,233.10
               311.56,223.14 254.04,234.85 318.17,287.58
               108.69,171.05 182.04,361.73 203.22,449.50
               203.22,541.05 84.48,511.54 192.63,691.63 Z" />
    <rect class="closeButton" x="900" y="600" rx="80" ry="80" width="100" height="100" fill="#C35"></rect>
    <defs>
        <pattern id="patternStripes" width="50" height="50" patternUnits="userSpaceOnUse" patternTransform="rotate(-45)">
            <rect width="50" height="50" fill="rgba(204, 204, 204, 0.5)"></rect>
            <rect width="25" height="50" transform="translate(0,0)" fill="#666"></rect>
        </pattern>
        <pattern id="patternDiamonds" width="25" height="25" patternUnits="userSpaceOnUse" patternTransform="rotate(45)">
            <rect width="25" height="25" fill="rgba(240, 240, 240, 1)" stroke="none"></rect>
            <rect width="10" height="10" fill="gold" stroke="blue" stroke-width="2"></rect>
        </pattern>
    </defs>
</svg>