<?xml version="1.0" encoding="UTF-8" standalone="no"?>
<!DOCTYPE svg PUBLIC "-//W3C//DTD SVG 20010904//EN"
              "http://www.w3.org/TR/2001/REC-SVG-20010904/DTD/svg10.dtd">

<svg xmlns="http://www.w3.org/2000/svg"
     width="18.9722in" height="10.6667in"
     viewBox="0 0 1366 768">
  <path id="volcano"
        fill="none" stroke="black" stroke-width="1"
        d="M 428.86,518.95
           C 429.52,519.61 431.51,520.93 431.51,521.59
             431.51,522.25 429.19,525.23 429.19,525.23
             429.19,525.23 425.22,528.54 424.89,528.87
             424.56,529.20 419.26,535.15 419.26,535.15
             419.26,535.15 410.33,535.15 409.34,534.49
             408.34,533.83 403.05,531.51 402.39,531.51
             401.73,531.51 399.08,529.53 398.09,529.53
             397.09,529.53 393.45,528.87 392.79,528.87
             392.13,528.87 383.53,531.18 383.53,531.18
             383.53,531.18 380.22,532.18 379.89,532.51
             379.55,532.84 375.91,532.84 375.25,532.84
             374.59,532.84 367.97,533.83 367.31,533.83
             366.65,533.83 362.68,534.16 362.02,534.16
             361.35,534.16 351.43,533.83 351.43,533.83
             351.43,533.83 350.10,532.51 349.77,532.18
             349.44,531.84 346.79,529.20 347.46,528.87
             348.12,528.54 350.77,526.55 350.77,526.55
             350.77,526.55 349.11,524.24 349.11,523.91
             349.11,523.58 352.42,518.95 352.42,518.95
             352.42,518.95 354.74,515.97 355.07,515.97
             355.40,515.97 355.67,514.00 356.00,514.00
             356.33,514.00 357.49,512.18 357.82,512.18
             358.15,512.18 357.38,510.35 357.38,510.35
             357.38,510.35 359.37,507.37 360.03,507.37
             360.69,507.37 363.01,505.05 363.01,505.05
             363.01,505.05 366.32,502.74 366.32,502.74
             366.32,502.74 370.29,499.43 370.29,499.43
             370.29,499.43 371.94,495.13 371.94,495.13
             371.94,495.13 373.27,492.82 373.27,492.49
             373.27,492.16 372.94,489.06 373.27,488.73
             373.60,488.40 376.76,485.88 377.09,486.55
             377.42,487.21 382.00,486.00 382.00,486.00
             382.00,486.00 383.64,487.82 383.64,487.82
             383.64,487.82 385.82,488.55 385.82,488.55
             385.82,488.55 389.27,490.15 389.27,489.82
             389.27,489.49 391.82,488.91 391.82,488.91
             391.82,488.91 392.43,486.18 393.09,486.18
             393.75,486.18 394.36,482.51 394.36,482.18
             394.36,481.85 399.74,484.55 400.40,485.54
             401.06,486.53 402.72,488.52 403.71,489.84
             404.70,491.16 406.03,490.50 407.68,493.15
             407.02,495.79 410.61,495.88 411.27,496.55
             411.61,496.88 411.59,498.81 412.36,499.64
             413.11,500.43 414.65,500.11 415.29,500.75
             418.42,508.90 416.95,504.72 417.94,504.72
             418.93,504.72 420.26,506.05 421.91,507.70
             425.22,511.67 425.55,513.98 427.21,515.31
             428.86,516.63 428.20,518.28 428.86,518.95 Z
           M 408.00,531.45
           C 408.00,531.45 413.82,532.18 413.82,532.18
             413.82,532.18 418.00,531.09 418.00,530.91
             418.00,530.73 420.91,528.55 420.91,528.55
             420.91,528.55 424.36,526.36 424.36,526.36M 426.55,519.09
           C 426.55,519.09 424.73,516.73 424.55,516.73
             424.36,516.73 421.09,514.91 420.18,514.91
             419.27,514.91 418.00,514.73 417.82,514.73M 364.18,519.45
           C 364.18,519.45 370.91,518.91 370.91,518.91
             370.91,518.91 375.27,518.73 376.18,518.91
             377.09,519.09 380.55,519.09 380.55,519.09
             380.55,519.09 382.91,517.09 382.91,517.09
             382.91,517.09 389.45,513.82 389.45,513.82
             389.45,513.82 393.64,510.73 393.64,510.73
             393.64,510.73 398.55,508.00 398.55,508.00M 376.36,489.82
           C 376.36,489.82 377.09,490.73 377.27,490.91
             377.45,491.09 379.82,493.82 380.18,494.18
             380.55,494.55 385.45,496.36 385.45,496.36
             385.45,496.36 391.82,496.18 391.82,496.00
             391.82,495.82 394.36,494.73 394.36,494.73M 403.27,493.27
           C 403.27,493.27 401.45,494.91 400.00,494.00
             398.55,493.09 398.00,491.45 397.45,491.09M 413.82,503.27
           C 413.82,503.27 412.55,503.64 411.27,503.45
             410.00,503.27 408.73,502.36 408.18,502.18M 359.82,511.27
           C 359.82,511.27 362.55,511.27 362.73,511.27
             362.91,511.27 365.27,510.36 365.45,510.36" />
</svg>
