<?xml version="1.0" encoding="UTF-8" standalone="no"?>
<!DOCTYPE svg PUBLIC "-//W3C//DTD SVG 20010904//EN" "http://www.w3.org/TR/2001/REC-SVG-20010904/DTD/svg10.dtd">

<svg xmlns="http://www.w3.org/2000/svg" width="25" height="25" viewBox="0 0 25 25">
   <path id="diamondCrossIcon" class="icon dragger" fill="white" stroke="black" stroke-width="1" d="M 1.77,-24.91
           C 2.41,-23.07 3.00,-20.32 3.47,-16.99
             3.85,-14.28 5.39,-11.92 3.45,-9.98
             1.51,-8.04 -1.63,-8.03 -3.56,-9.96
             -5.48,-11.89 -3.93,-14.26 -3.53,-16.96
             -3.00,-20.66 -2.43,-23.27 -1.85,-24.97
             -1.85,-24.97 -24.97,-1.85 -24.97,-1.85
             -23.27,-2.43 -20.66,-3.00 -16.96,-3.53
             -14.25,-3.93 -11.89,-5.48 -9.96,-3.56
             -8.03,-1.63 -8.04,1.51 -9.98,3.45
             -11.92,5.39 -14.28,3.85 -16.99,3.47
             -20.32,3.00 -23.07,2.41 -24.91,1.77
             -24.91,1.77 -1.90,24.78 -1.90,24.78
             -2.55,22.93 -3.13,20.19 -3.60,16.85
             -3.99,14.15 -5.52,11.79 -3.58,9.85
             -1.64,7.91 1.49,7.90 3.42,9.83
             5.35,11.75 3.79,14.12 3.40,16.83
             2.86,20.53 2.29,23.13 1.71,24.83
             1.71,24.83 24.83,1.71 24.83,1.71
             23.13,2.29 20.53,2.86 16.83,3.40
             14.12,3.79 11.75,5.35 9.83,3.42
             7.90,1.50 7.91,-1.64 9.85,-3.58
             11.79,-5.52 14.15,-3.99 16.85,-3.60
             20.19,-3.13 22.93,-2.55 24.78,-1.90
             24.78,-1.90 1.77,-24.91 1.77,-24.91 Z" />
</svg>