<?xml version="1.0" encoding="UTF-8" standalone="no"?>
<!DOCTYPE svg PUBLIC "-//W3C//DTD SVG 20010904//EN"
              "http://www.w3.org/TR/2001/REC-SVG-20010904/DTD/svg10.dtd">

<svg xmlns="http://www.w3.org/2000/svg"
     width="1.11111in" height="1.11111in"
     viewBox="0 0 100 100">
  <path id="plantShingleTrunkStage4"
        fill="none" stroke="black" stroke-width="1"
        d="M -36.70,18.60
           C -39.14,20.64 -41.19,23.96 -44.20,25.35
             -47.34,26.80 -49.39,25.98 -52.00,26.10
             -54.00,26.20 -56.33,27.12 -59.70,28.40
             -59.70,28.40 -56.53,25.45 -53.65,24.75
             -51.30,24.18 -49.36,25.97 -47.70,25.00
             -44.00,22.85 -44.79,21.54 -37.60,16.05
             -37.05,15.63 -35.94,15.56 -34.90,15.00
             -33.83,14.43 -32.82,13.36 -32.20,12.90
             -31.27,12.20 -29.75,12.74 -28.45,12.15
             -26.73,11.37 -25.20,9.45 -23.95,8.40
             -19.55,4.69 -12.70,0.11 -10.60,-3.90
             -9.26,-6.45 -8.02,-8.31 -7.45,-10.05
             -4.81,-18.12 -9.61,-19.90 -8.50,-25.95
             -7.15,-33.30 -4.75,-41.25 -7.30,-46.40
             -9.85,-51.55 -3.40,-63.75 -11.30,-77.20
             -13.37,-80.73 -8.25,-82.30 -8.35,-85.35
             -8.63,-93.93 -6.55,-95.85 -9.10,-101.80
             -11.65,-107.75 -14.80,-104.40 -16.00,-115.20
             -16.34,-118.29 -15.79,-120.23 -17.05,-121.95
             -20.20,-126.22 -19.15,-125.10 -26.50,-127.20
             -30.03,-128.21 -35.01,-132.12 -39.70,-134.55
             -44.76,-137.18 -48.35,-133.43 -46.75,-138.90
             -45.15,-144.37 -46.94,-140.84 -48.55,-145.50
             -50.16,-150.16 -53.67,-150.52 -54.55,-151.80
             -55.99,-153.89 -56.08,-155.01 -57.70,-157.20
             -59.64,-159.83 -63.21,-163.53 -66.25,-166.05
             -69.04,-168.37 -71.97,-169.08 -73.45,-169.80
             -69.00,-167.86 -67.30,-168.85 -64.00,-166.95
             -62.96,-166.35 -61.74,-163.76 -60.25,-162.90
             -59.16,-162.27 -57.62,-162.38 -56.65,-161.70
             -54.98,-160.52 -54.77,-157.54 -53.65,-156.30
             -52.39,-154.90 -50.31,-155.14 -49.30,-154.35
             -48.07,-153.38 -48.01,-151.49 -47.50,-150.90
             -46.62,-149.87 -44.05,-150.68 -43.45,-151.80
             -42.22,-154.11 -44.20,-157.35 -38.80,-166.20
             -41.50,-157.35 -39.53,-158.01 -40.75,-151.65
             -41.40,-148.28 -43.12,-144.22 -42.70,-143.55
             -41.61,-141.79 -24.45,-128.77 -29.80,-142.35
             -30.08,-143.06 -32.00,-144.75 -32.35,-145.95
             -32.71,-147.18 -31.49,-147.92 -32.05,-148.95
             -30.40,-144.30 -29.00,-144.95 -26.50,-139.95
             -25.22,-137.39 -25.08,-133.07 -23.50,-132.00
             -18.85,-128.85 -14.80,-135.30 -13.75,-140.10
             -13.27,-142.28 -15.43,-142.79 -17.35,-144.60
             -19.66,-146.78 -22.30,-149.55 -21.10,-151.50
             -20.67,-152.20 -19.78,-155.19 -20.35,-157.20
             -21.37,-160.82 -24.38,-164.31 -23.80,-167.10
             -23.80,-167.10 -23.60,-165.59 -23.35,-165.00
             -22.50,-163.00 -19.89,-162.36 -18.40,-158.25
             -16.91,-154.13 -18.70,-150.75 -16.30,-148.20
             -13.90,-145.65 -13.75,-143.85 -13.45,-148.50
             -13.15,-153.15 -15.14,-154.75 -14.20,-157.05
             -13.62,-158.46 -12.15,-158.08 -11.05,-159.00
             -9.99,-159.90 -9.30,-162.10 -8.05,-163.50
             -8.75,-161.86 -8.49,-158.52 -9.10,-157.20
             -10.04,-155.17 -11.71,-155.31 -11.65,-153.45
             -11.54,-150.09 -9.28,-146.53 -8.50,-143.40
             -7.46,-137.65 -15.00,-134.64 -9.70,-126.60
             -5.65,-119.25 -7.22,-120.38 -6.85,-118.65
             -6.28,-115.95 -6.00,-114.90 -4.45,-111.15
             -3.88,-109.78 -3.69,-107.51 -3.10,-105.90
             -2.36,-103.89 -1.27,-102.50 -1.15,-100.35
             -0.93,-96.50 -2.28,-92.62 -2.80,-88.95
             -3.28,-85.59 -3.92,-80.52 -2.65,-76.80
             -1.14,-72.40 2.04,-72.59 1.55,-67.95
             1.29,-65.49 1.47,-63.01 1.78,-60.49
             1.99,-58.80 -1.00,-57.90 0.35,-53.85
             1.70,-49.80 2.53,-51.28 3.05,-49.35
             3.66,-47.07 2.84,-43.26 2.00,-40.35
             0.64,-35.66 -1.22,-30.61 -0.55,-25.65
             -0.32,-23.95 2.22,-22.41 2.45,-20.70
             3.03,-16.39 2.15,-11.40 4.70,-7.80
             5.67,-6.43 8.69,-5.23 13.40,-1.95
             15.23,-0.67 16.40,3.60 19.10,3.60
             20.49,3.60 21.78,3.83 24.20,5.55
             26.49,7.18 26.42,8.77 29.00,9.75
             30.21,10.21 32.25,10.17 33.65,11.40
             35.59,13.11 36.96,16.19 39.05,16.80
             43.85,18.21 44.15,12.15 50.45,17.40
             48.84,16.83 46.27,16.57 44.15,17.25
             40.91,18.29 38.07,20.62 36.20,20.10
             29.59,18.27 29.32,11.14 26.15,14.10
             25.25,14.95 21.65,15.45 22.85,19.50
             23.32,21.08 27.33,22.32 29.75,25.05
             31.51,27.03 29.02,26.76 30.05,29.10
             30.72,30.61 33.53,32.57 34.85,34.65
             35.91,36.31 35.61,38.17 35.45,39.00
             32.60,31.80 30.50,33.40 28.25,30.15
             26.68,27.88 28.12,28.35 26.30,25.95
             25.27,24.59 23.18,25.41 22.40,24.00
             20.26,20.16 19.71,16.26 21.65,13.65
             23.58,11.06 20.58,11.99 18.35,10.20
             14.00,6.70 9.65,1.20 7.10,1.65
             6.48,1.76 3.68,5.32 4.55,8.55
             4.77,9.37 6.26,10.91 6.73,11.93
             7.68,14.01 8.05,16.87 9.35,19.20
             10.38,21.04 12.24,22.31 13.62,24.23
             14.28,25.13 15.50,25.84 16.40,26.70
             17.34,27.59 17.96,28.63 18.35,29.40
             19.69,32.00 18.55,33.36 18.28,34.65
             17.93,36.29 18.43,38.10 18.43,38.10
             18.43,38.10 17.93,37.25 17.10,35.86
             16.48,34.80 18.44,32.00 17.53,30.45
             17.28,30.03 17.47,29.30 16.62,28.65
             16.16,28.29 14.85,28.01 14.23,27.68
             13.23,27.14 12.92,26.57 12.65,26.18
             11.54,24.53 7.80,23.88 6.73,22.28
             5.65,20.67 6.32,18.72 5.68,17.10
             5.21,15.93 3.36,15.02 3.05,14.10
             2.18,11.48 1.85,10.12 1.85,10.20
             1.85,10.50 -0.18,8.62 -2.05,10.50
             -2.05,10.50 -1.11,13.28 -2.12,16.57
             -2.53,17.89 -5.40,19.64 -5.95,21.15
             -6.29,22.09 -7.05,22.72 -7.08,24.00
             -7.10,25.16 -6.38,26.98 -6.62,27.83
             -6.92,28.82 -9.17,30.70 -9.47,31.58
             -10.92,35.75 -9.47,34.65 -10.38,37.43
             -10.38,37.43 -10.86,35.03 -11.17,31.96
             -11.32,30.48 -9.79,30.03 -9.78,28.43
             -9.76,25.53 -11.00,21.55 -9.78,20.03
             -8.43,18.34 -6.61,15.93 -6.25,14.48
             -5.73,12.36 -7.03,11.33 -6.70,9.68
             -6.42,8.26 -4.71,5.83 -4.53,5.18
             -3.25,0.60 -6.55,2.25 -8.05,-0.45
             -9.47,-0.36 -12.82,4.38 -15.55,7.95
             -15.70,10.50 -18.67,12.02 -21.10,12.90
             -22.02,13.23 -21.86,22.73 -22.90,24.30
             -24.43,26.61 -22.69,24.12 -24.25,27.15
             -24.61,27.84 -25.97,27.90 -26.35,28.65
             -26.87,29.67 -27.18,32.20 -27.70,33.30
             -28.10,34.15 -28.95,33.35 -29.35,34.20
             -30.68,36.99 -28.70,37.54 -29.80,40.20
             -30.12,40.98 -31.35,41.95 -31.75,42.75
             -32.70,44.65 -33.36,46.14 -34.45,48.08
             -36.23,51.25 -38.43,53.44 -39.55,53.25
             -36.77,50.85 -35.93,49.33 -35.05,46.50
             -34.80,45.69 -34.94,45.28 -34.60,44.25
             -34.26,43.22 -32.11,39.13 -31.90,38.25
             -31.12,34.98 -33.09,35.34 -31.90,32.10
             -29.59,25.84 -26.65,25.80 -25.90,21.45
             -25.90,21.45 -29.29,21.25 -32.35,23.25
             -35.06,25.02 -37.30,28.99 -39.70,29.55
             -44.80,30.75 -43.54,33.28 -44.80,33.75
             -47.36,34.70 -48.69,35.00 -49.60,33.30
             -48.55,33.54 -47.55,33.44 -46.60,33.15
             -45.21,32.72 -46.14,31.36 -44.65,30.00
             -43.39,28.86 -39.61,27.98 -37.90,26.40
             -36.61,25.21 -34.24,20.83 -33.12,19.77
             -29.69,16.50 -27.52,14.20 -29.35,15.00
             -33.70,18.15 -34.39,16.67 -36.70,18.60 Z" />
</svg>
