<!-- authored by PointC -->
<!-- not mine -->
<svg id="draggerContainer" class="draggerBounds" xmlns="http://www.w3.org/2000/svg" width="550" height="100" viewBox="0 0 550 100">
    <line x1="20" y1="45" x2="530" y2="45" fill="none" stroke="#fff" stroke-miterlimit="10" stroke-linecap="round"
        stroke-width="6" />
    <g id="dragger">
        <path d="M296.5,38c0,11.87-9.63,31.5-21.5,31.5S253.5,49.87,253.5,38a21.5,21.5,0,0,1,43,0Z" fill="#621d58" />
        <path
            d="M261.72,31.69a2,2,0,0,1-1.66-3.12,16.51,16.51,0,0,1,13.7-7.28,2,2,0,0,1,0,4,12.49,12.49,0,0,0-10.38,5.52A2,2,0,0,1,261.72,31.69Z"
            fill="#fff" opacity="0.29" />
        <path d="M292,41.07s.55,6.35-3,9.92S279,54,279,54s-.55-6.35,3-9.92S292,41.07,292,41.07Z" fill="#fff" />
        <path d="M259,41.07s-.55,6.35,3,9.92S272,54,272,54s.55-6.35-3-9.92S259,41.07,259,41.07Z" fill="#fff" />
        <path
            d="M278.86,63a1.5,1.5,0,0,1-1.5,1.5h-4a1.5,1.5,0,0,1-1.5-1.5h0a1.5,1.5,0,0,1,1.5-1.5h4a1.5,1.5,0,0,1,1.5,1.5Z"
            fill="#fff" />
    </g>
</svg>